<svg width="43" height="43" viewBox="0 0 43 43" fill="none" xmlns="http://www.w3.org/2000/svg">
<g clip-path="url(#clip0_173_76)">
<path d="M7.51305 5.07594C6.95194 4.11721 6.21587 3.27065 5.34252 2.57957C4.82423 2.15718 4.26241 1.79039 3.66643 1.48532C3.34331 1.32249 3.00859 1.18343 2.66497 1.06926L2.50574 1.01934L2.26271 0.952766C2.09929 0.91532 1.93588 0.882043 1.77246 0.85708C1.454 0.815474 1.14812 0.794666 0.817088 0.761381C0.787757 1.08591 0.754234 1.37715 0.737473 1.69336C0.727117 1.85546 0.727117 2.01805 0.737473 2.18015L0.766802 2.42979L0.787754 2.55461V2.6295C0.862811 2.99491 0.97513 3.3518 1.12297 3.69463C1.3948 4.31489 1.75001 4.89572 2.17891 5.42128C2.87644 6.28925 3.72863 7.02259 4.69304 7.58479C5.33475 7.95881 6.03193 8.22983 6.75881 8.3878C7.01923 8.44608 7.28417 8.48226 7.55076 8.49597C6.64648 8.1597 5.81259 7.66037 5.09111 7.02312C4.3273 6.36027 3.66272 5.59251 3.11751 4.7431C2.80594 4.26167 2.54745 3.74835 2.34651 3.21199C2.24788 2.94167 2.17357 2.66321 2.12443 2.37987V2.32993L2.20824 2.35491C2.49396 2.44119 2.77387 2.54541 3.04628 2.66695C3.58394 2.90415 4.10229 3.18236 4.59666 3.49908C5.45121 4.04163 6.22188 4.70453 6.88452 5.46704C7.34356 5.98065 7.69408 6.58054 7.91531 7.23115C7.9935 7.47816 8.03997 7.73397 8.05359 7.99254C8.11575 7.73102 8.13974 7.46199 8.12482 7.1937C8.08927 6.45019 7.87982 5.72512 7.51305 5.07594Z" fill="#F2C777"/>
<path d="M8.71983 8.43361C8.58954 8.44522 8.46835 8.50481 8.38008 8.60067C8.29181 8.69653 8.24286 8.82172 8.24286 8.95161C8.24286 9.0815 8.29181 9.20669 8.38008 9.30255C8.46835 9.39841 8.58954 9.458 8.71983 9.4696C8.85012 9.458 8.97132 9.39841 9.05959 9.30255C9.14786 9.20669 9.19681 9.0815 9.19681 8.95161C9.19681 8.82172 9.14786 8.69653 9.05959 8.60067C8.97132 8.50481 8.85012 8.44522 8.71983 8.43361Z" fill="#F2C777"/>
<path d="M5.02407 6.08289C5.21855 6.08289 5.40507 6.00617 5.54259 5.86962C5.68011 5.73308 5.75736 5.54788 5.75736 5.35478C5.75736 5.16167 5.68011 4.97648 5.54259 4.83993C5.40507 4.70339 5.21855 4.62667 5.02407 4.62667C4.82959 4.62667 4.64308 4.70339 4.50556 4.83993C4.36804 4.97648 4.29079 5.16167 4.29079 5.35478C4.29079 5.54788 4.36804 5.73308 4.50556 5.86962C4.64308 6.00617 4.82959 6.08289 5.02407 6.08289Z" fill="#F2C777"/>
<path d="M12.8346 11.9992L12.8137 11.8827L12.776 11.7288C12.748 11.6234 12.7145 11.5235 12.6754 11.4292C12.5996 11.2398 12.495 11.063 12.3653 10.905C12.2516 10.763 12.1088 10.6467 11.9463 10.5638C11.7129 10.4558 11.448 10.4351 11.2005 10.5056C11.1195 10.5269 11.0409 10.5561 10.9658 10.5929C11.0451 10.6062 11.1234 10.6242 11.2005 10.647C11.3885 10.6906 11.5583 10.7909 11.6865 10.9341C11.8404 11.1405 11.9333 11.3855 11.9547 11.6414C11.9547 11.7163 11.9756 11.7995 11.9798 11.8786V12.0076V12.0367C11.9817 12.0398 11.9826 12.0434 11.9826 12.0471C11.9826 12.0507 11.9817 12.0543 11.9798 12.0575C11.9481 12.0533 11.9171 12.0449 11.8877 12.0325L11.7619 11.9951C11.682 11.9757 11.6036 11.9507 11.5273 11.9202C11.2755 11.8454 11.0502 11.7011 10.8778 11.5041C10.7578 11.3468 10.6748 11.1649 10.6348 10.9716C10.6013 10.8218 10.5887 10.7302 10.5887 10.7302C10.5492 10.8047 10.5169 10.8827 10.4923 10.9632C10.4187 11.1677 10.4001 11.3877 10.4383 11.6015C10.4765 11.8153 10.5702 12.0155 10.7102 12.1823C10.8392 12.3443 10.9934 12.4847 11.1669 12.5984C11.2561 12.6573 11.3484 12.7115 11.4435 12.7606L11.5818 12.8272C11.6362 12.8522 11.6572 12.8646 11.7661 12.9062C12.1307 13.0394 12.5246 13.1684 12.9268 13.3015H12.9562C12.9562 12.8855 12.9562 12.5235 12.8933 12.1407L12.8346 11.9992Z" fill="#F2C777"/>
<path d="M12.5874 8.73312L12.4952 8.69151C12.4533 8.67071 12.4114 8.65823 12.3695 8.64159C12.2847 8.6109 12.1979 8.58588 12.1097 8.5667C11.9389 8.52281 11.7619 8.50733 11.5859 8.52093C11.4255 8.53036 11.2693 8.57589 11.1292 8.65407C10.9346 8.76035 10.7856 8.93341 10.7102 9.14087C10.685 9.20677 10.6667 9.27509 10.6557 9.34473C10.7041 9.29548 10.7559 9.2496 10.8108 9.20744C10.935 9.10088 11.0879 9.03288 11.2507 9.01189C11.4718 9.00788 11.6896 9.06554 11.8793 9.17831C11.9415 9.2075 12.0017 9.24086 12.0594 9.27816L12.1558 9.33642C12.181 9.33642 12.1558 9.33642 12.1558 9.33642L12.093 9.3905L12.005 9.46123L11.8374 9.58189C11.6616 9.72076 11.4491 9.80603 11.2256 9.82737C11.0556 9.83292 10.8866 9.8002 10.7311 9.73167C10.6096 9.68174 10.5384 9.6443 10.5384 9.64846C10.5384 9.65263 10.5719 9.71503 10.6557 9.82737C10.7648 9.97729 10.9105 10.0972 11.0791 10.1758C11.2477 10.2544 11.4336 10.2891 11.6195 10.2767C11.796 10.2657 11.9699 10.2278 12.1349 10.1644C12.2187 10.1311 12.2983 10.0937 12.3821 10.052L12.4994 9.98963C12.5455 9.9605 12.5623 9.95218 12.6419 9.89809C12.9142 9.71502 13.2034 9.507 13.4799 9.29481C13.2107 9.10332 12.9309 8.92691 12.6419 8.7664L12.5874 8.73312Z" fill="#F2C777"/>
<path d="M9.86796 11.009C9.81278 10.9652 9.7539 10.9262 9.69197 10.8925C9.72412 10.953 9.75212 11.0155 9.77578 11.0797C9.83955 11.2369 9.86953 11.4055 9.86377 11.5748C9.84215 11.7915 9.75936 11.9978 9.62493 12.1698L9.50341 12.3321L9.43637 12.4153C9.43637 12.4403 9.3819 12.4902 9.38609 12.4735C9.39028 12.4569 9.38609 12.4735 9.38609 12.4735L9.33161 12.382C9.29753 12.3213 9.26675 12.2588 9.23943 12.1948C9.13021 12.005 9.07516 11.7892 9.0802 11.5707C9.10278 11.4173 9.1681 11.2732 9.26876 11.1546C9.30899 11.1022 9.35386 11.0535 9.40285 11.009C9.33558 11.0163 9.26945 11.0317 9.20591 11.0548C9.00677 11.1196 8.83934 11.2562 8.7366 11.4376C8.65779 11.5751 8.61191 11.7289 8.60251 11.8869C8.59175 12.06 8.60586 12.2337 8.64442 12.4028C8.66229 12.4903 8.68609 12.5765 8.71565 12.6608L8.76174 12.7856L8.80365 12.8813L8.85812 12.9895C9.00477 13.2849 9.18077 13.5553 9.36095 13.8466V13.8257C9.56627 13.547 9.77996 13.2682 9.95176 12.9936L10.0356 12.8522L10.1026 12.7398L10.2074 12.4985C10.2712 12.3376 10.3094 12.1677 10.3205 11.9951C10.3331 11.8121 10.3016 11.6287 10.2288 11.4602C10.1559 11.2916 10.0437 11.1427 9.90148 11.0257L9.86796 11.009Z" fill="#F2C777"/>
<path d="M16.0779 3.64467L15.9689 3.5365L15.8767 3.45328C15.555 3.16055 15.204 2.90125 14.8292 2.67942C14.193 2.28483 13.4782 2.03214 12.7341 1.93883C12.2471 1.88157 11.7537 1.91687 11.2801 2.04284C11.113 2.08812 10.9504 2.14798 10.794 2.22175C10.794 2.22175 10.9784 2.22175 11.2968 2.25087C11.7305 2.29969 12.1543 2.41331 12.5539 2.58788C13.1307 2.84035 13.6638 3.18154 14.1336 3.59891C14.411 3.84441 14.6754 4.10411 14.9255 4.37694L14.9465 4.4019C14.9465 4.4019 14.8082 4.4019 14.7286 4.4019C14.365 4.42425 14 4.41031 13.6391 4.3603C13.024 4.27145 12.4446 4.01836 11.9631 3.62804C11.6131 3.33885 11.3119 2.99615 11.0705 2.61284C10.8862 2.33408 10.7982 2.16349 10.7982 2.16349C10.8081 2.34256 10.832 2.5206 10.8694 2.69605C10.9643 3.19301 11.1596 3.66573 11.4435 4.08569C11.9043 4.7479 12.5734 5.23958 13.3458 5.48367C13.796 5.62727 14.2643 5.70711 14.737 5.72083C14.8711 5.72083 14.9423 5.72083 15.156 5.72083C15.3697 5.72083 15.575 5.68337 15.8055 5.65009C16.0105 5.61786 16.2134 5.5734 16.4131 5.51695L17.0248 5.40461L17.4062 5.28395C17.1715 4.95526 16.9662 4.65154 16.719 4.33533C16.5933 4.18139 16.4592 4.02329 16.2999 3.86935L16.0779 3.64467Z" fill="#F2C777"/>
<path d="M12.7969 3.91101C12.925 3.87519 13.0346 3.79231 13.1033 3.6792C13.1721 3.56609 13.1949 3.43122 13.1672 3.302C13.1395 3.17277 13.0632 3.05888 12.954 2.98344C12.8448 2.90799 12.7107 2.87666 12.579 2.89581C12.4509 2.93163 12.3414 3.01451 12.2726 3.12763C12.2038 3.24074 12.181 3.3756 12.2087 3.50483C12.2365 3.63405 12.3127 3.74795 12.422 3.82339C12.5312 3.89883 12.6653 3.93016 12.7969 3.91101Z" fill="#F2C777"/>
<path d="M18.349 2.07618C18.21 2.07618 18.0768 2.13097 17.9786 2.22851C17.8804 2.32604 17.8252 2.45832 17.8252 2.59626C17.8252 2.73419 17.8804 2.86647 17.9786 2.964C18.0768 3.06154 18.21 3.11633 18.349 3.11633C18.4879 3.11633 18.6211 3.06154 18.7193 2.964C18.8175 2.86647 18.8727 2.73419 18.8727 2.59626C18.8727 2.45832 18.8175 2.32604 18.7193 2.22851C18.6211 2.13097 18.4879 2.07618 18.349 2.07618Z" fill="#F2C777"/>
<path d="M20.0418 6.34082C20.2262 6.32695 20.3984 6.24445 20.5241 6.10982C20.6499 5.97519 20.7197 5.79838 20.7197 5.6148C20.7197 5.43121 20.6499 5.2544 20.5241 5.11977C20.3984 4.98514 20.2262 4.90264 20.0418 4.88877C19.8574 4.90264 19.6852 4.98514 19.5595 5.11977C19.4338 5.2544 19.3639 5.43121 19.3639 5.6148C19.3639 5.79838 19.4338 5.97519 19.5595 6.10982C19.6852 6.24445 19.8574 6.32695 20.0418 6.34082Z" fill="#F2C777"/>
<path d="M23.0252 4.4518C23.001 4.03167 22.9421 3.61422 22.8492 3.20362C22.6406 2.54792 22.3172 1.93386 21.8939 1.3896C21.7279 1.21023 21.5424 1.04975 21.3408 0.911127C20.8789 0.592633 20.3354 0.410839 19.7736 0.386885C19.3099 0.359353 18.8457 0.430273 18.4118 0.594916C18.0527 0.729912 17.7341 0.953245 17.4858 1.24397C17.1627 1.63418 16.9956 2.12887 17.0165 2.63362C17.0222 2.79935 17.0461 2.96396 17.0877 3.12457C17.07 2.9586 17.07 2.79126 17.0877 2.6253C17.1254 2.15005 17.3388 1.70544 17.6869 1.37711C17.9788 1.13618 18.3226 0.965099 18.6917 0.877085C19.0607 0.789072 19.4453 0.786482 19.8155 0.869518C20.2831 0.947548 20.7188 1.15525 21.0726 1.46865C21.1358 1.52799 21.1959 1.59047 21.2528 1.65587C21.8343 2.41549 22.1307 3.35281 22.0908 4.30618C22.1187 4.64129 22.0732 4.97842 21.9575 5.29443C21.8418 5.61043 21.6585 5.89783 21.4204 6.13686C20.8212 6.68606 19.8407 7.99249 16.3125 7.90928C16.2706 7.83855 16.2245 7.77198 16.1742 7.70125L16.0401 7.53899C15.9982 7.49738 15.9647 7.45578 15.927 7.42249C16.0234 7.42249 16.1156 7.42249 16.2119 7.42249C16.6393 7.37788 17.0522 7.24312 17.4229 7.02723C17.7644 6.84081 18.0594 6.58062 18.2861 6.26584C18.4809 6.00127 18.5772 5.67773 18.5585 5.3505C18.5483 5.23492 18.5171 5.12214 18.4663 5.01765C18.4684 5.12154 18.4557 5.22519 18.4286 5.32554C18.3349 5.52187 18.1903 5.68989 18.0095 5.81233C17.5486 6.2284 16.7148 6.51963 15.4619 6.54876L14.0624 6.44474C13.9953 6.44474 13.9283 6.41978 13.8696 6.41146C13.3249 6.34905 12.4491 6.22423 12.4533 6.22007C12.9095 6.43674 13.3517 6.68131 13.7774 6.95234C14.0875 7.16869 14.4646 7.45161 14.8627 7.78446C14.2121 7.65423 13.5831 7.43436 12.9939 7.13124C12.6251 6.93985 12.1558 6.8192 11.7829 6.59868C12.9043 7.52339 14.2224 8.18347 15.6379 8.52922C15.6882 8.59163 15.7426 8.6582 15.7887 8.72477C15.8964 8.88033 15.9957 9.04144 16.0862 9.2074C16.2469 9.49148 16.3507 9.80369 16.3921 10.1269C16.4165 10.3522 16.3728 10.5796 16.2664 10.7801C16.2239 10.8573 16.1734 10.9298 16.1156 10.9965C16.1969 10.9882 16.2755 10.9627 16.346 10.9216C16.4675 10.8476 16.5713 10.7483 16.6502 10.6304C16.7291 10.5126 16.7811 10.3791 16.8028 10.2392C16.8888 9.75817 16.8528 9.26343 16.698 8.79965L16.6645 8.71228C16.8614 8.73725 17.0584 8.75389 17.2469 8.76221C22.0531 8.99937 23.0252 5.18823 23.0252 4.4518Z" fill="#F2C777"/>
<path d="M27.6387 2.21761C29.0902 2.60738 30.6025 2.72311 32.0971 2.55878C32.2814 2.53798 32.4658 2.51302 32.646 2.48389C32.5132 2.57688 32.3731 2.65897 32.227 2.72937C31.7431 2.94899 31.2266 3.08949 30.6975 3.14543C29.2426 3.29314 27.7725 3.15171 26.3732 2.72937C25.9542 2.61703 25.5729 2.46725 25.1162 2.31331C24.6594 2.15936 24.1985 1.99294 23.6957 1.85564C23.2338 1.72669 22.7612 1.63897 22.2836 1.59351C22.546 1.99485 22.7611 2.42484 22.9247 2.87499C23.1132 2.89995 23.2976 2.92908 23.482 2.96652C23.9513 3.06222 24.4122 3.17455 24.8606 3.29937C25.3089 3.42419 25.7824 3.55316 26.2266 3.63638C27.746 3.95698 29.3163 3.95698 30.8358 3.63638C31.3876 3.50804 31.9142 3.29015 32.3946 2.99149C32.6307 2.84071 32.8474 2.66187 33.0399 2.45893C34.2592 2.23842 35.3822 1.88893 36.392 1.62681C36.9929 1.46244 37.6029 1.33323 38.219 1.23986C38.7527 1.16021 39.293 1.13235 39.8322 1.15666C40.6238 1.19304 41.4072 1.33293 42.162 1.57272C42.6983 1.7433 43 1.86812 43 1.86812C42.0384 1.30673 40.9773 0.933848 39.8741 0.769708C39.3104 0.693991 38.7403 0.675878 38.1729 0.715631C37.5256 0.762801 36.8828 0.857362 36.2496 0.99855C35.4115 1.1733 34.5274 1.41461 33.6139 1.5852V1.55607H33.5636V1.5852C33.0608 1.68505 32.5454 1.77242 32.0174 1.83067C30.6074 1.98517 29.1815 1.91494 27.7937 1.62264C26.5031 1.3522 25.3508 0.97774 24.3452 0.757227C23.5546 0.569397 22.7445 0.474442 21.9316 0.474308C21.6358 0.474146 21.3403 0.495 21.0475 0.536715C22.1382 0.561944 23.2177 0.76144 24.2446 1.12753C25.1958 1.40213 26.3145 1.86811 27.6387 2.21761Z" fill="#F2C777"/>
<path d="M28.3133 4.32699C28.0596 4.44934 27.7823 4.51603 27.5004 4.52254C27.1121 4.53341 26.7239 4.49849 26.3439 4.41852C25.4723 4.2521 24.4499 3.87765 23.1635 3.56144C23.1635 3.56144 23.1635 3.56144 23.1342 3.56144C23.171 3.70665 23.199 3.85392 23.218 4.00246V4.04407C23.2363 4.189 23.2461 4.33487 23.2473 4.48093C24.4122 4.63904 25.4556 4.85123 26.3313 4.89699C26.7522 4.92493 27.1749 4.89694 27.5884 4.81378C27.8918 4.75332 28.178 4.62687 28.4264 4.44349C28.5701 4.3325 28.6947 4.19899 28.7952 4.04822C28.8291 3.99742 28.8599 3.94462 28.8873 3.89012C28.8493 3.93796 28.8087 3.9838 28.7658 4.02743C28.6324 4.15108 28.4796 4.25227 28.3133 4.32699Z" fill="#F2C777"/>
<path d="M19.6228 4.1564C19.448 4.36065 19.3066 4.59091 19.2038 4.83875C19.287 4.68008 19.4138 4.54812 19.5696 4.45826C19.7254 4.3684 19.9037 4.32433 20.0837 4.33115C20.2298 4.32651 20.3751 4.3548 20.5086 4.41389C20.6422 4.47297 20.7605 4.56132 20.8547 4.67231C20.9614 4.60159 21.0788 4.54821 21.2025 4.51421C21.3908 4.4598 21.5849 4.42769 21.7807 4.41852C21.8207 4.04251 21.7865 3.66237 21.6802 3.29932C21.1187 3.42413 19.958 3.74034 19.6228 4.1564Z" fill="#F2C777"/>
<path d="M20.9092 1.8016C20.681 1.93719 20.502 2.14112 20.398 2.38408C20.3482 2.50928 20.3171 2.64104 20.3058 2.77518C20.3089 2.89246 20.287 3.00907 20.2415 3.11735C20.196 3.22562 20.1279 3.32312 20.0418 3.40344L21.6592 2.94577C21.4884 2.5225 21.2616 2.12372 20.9846 1.75999C20.9577 1.77044 20.9323 1.78444 20.9092 1.8016Z" fill="#F2C777"/>
<path d="M25.2544 7.90098C25.2544 7.90098 25.2544 7.90098 25.2335 7.90098H25.1245L24.9108 7.87602C24.6858 7.85242 24.4722 7.76585 24.2949 7.62638C24.1763 7.513 24.092 7.36885 24.0518 7.21032C24.0356 7.14168 24.023 7.07224 24.0141 7.00229C23.9459 7.1292 23.906 7.26927 23.8973 7.41289C23.8887 7.55651 23.9113 7.7003 23.9638 7.83441C24.0323 7.9829 24.1324 8.11489 24.2572 8.22135C24.3935 8.33567 24.546 8.42959 24.7097 8.50011C24.794 8.53678 24.8808 8.56737 24.9695 8.59165C25.0128 8.6085 25.0577 8.62104 25.1036 8.62909C25.1381 8.63806 25.173 8.645 25.2083 8.64989L25.3299 8.6707C25.669 8.71563 26.0103 8.7434 26.3523 8.75391V8.72894C26.2433 8.37529 26.1386 8.03412 26.0296 7.71375L25.9668 7.55149L25.9081 7.43083C25.8692 7.34737 25.8244 7.26674 25.774 7.18952C25.6823 7.03254 25.5647 6.89191 25.4262 6.77346C25.3041 6.66913 25.1614 6.59119 25.0072 6.54462C24.7976 6.48574 24.5757 6.48574 24.3661 6.54462C24.2278 6.59038 24.1608 6.62783 24.1566 6.62367C24.1524 6.61951 24.2362 6.62368 24.3703 6.66944C24.5684 6.71023 24.7505 6.80689 24.8947 6.94784C25.0389 7.0888 25.139 7.26806 25.1832 7.46412L25.2419 7.66799L25.2712 7.77617C25.2712 7.80946 25.2963 7.87186 25.2712 7.85937C25.246 7.84689 25.2712 7.85937 25.2712 7.85937C25.2712 7.85937 25.2712 7.85938 25.2712 7.88019L25.2544 7.90098Z" fill="#F2C777"/>
<path d="M22.7948 6.84832C22.8319 6.80095 22.874 6.75771 22.9205 6.71934C22.8576 6.72626 22.7958 6.74022 22.7361 6.76095C22.5545 6.82141 22.3992 6.9418 22.2961 7.10211C22.2263 7.22197 22.1835 7.35538 22.1704 7.49321C22.1559 7.64478 22.1643 7.79765 22.1956 7.94672L22.2584 8.17139L22.3003 8.28374C22.3133 8.31071 22.3245 8.3385 22.3339 8.36694L22.3799 8.46264C22.5098 8.7206 22.6691 8.9536 22.8283 9.2074C23.021 8.95776 23.2096 8.71644 23.3772 8.48344C23.4073 8.44477 23.4353 8.40449 23.461 8.36278L23.5197 8.25876L23.6244 8.05073C23.6841 7.90871 23.7222 7.75869 23.7376 7.60556C23.7495 7.4646 23.731 7.32273 23.6831 7.1895C23.6161 7.02398 23.5045 6.88001 23.3604 6.77343C23.312 6.73422 23.2601 6.69941 23.2054 6.66942L23.2766 6.83584C23.3289 6.96831 23.3545 7.10966 23.3521 7.2519C23.3251 7.4451 23.2438 7.62681 23.1174 7.77614L23.0043 7.9176L22.9414 7.99249L22.8953 8.04242L22.8451 7.95921L22.7654 7.80111C22.6685 7.63478 22.6233 7.44369 22.6355 7.2519C22.6424 7.10364 22.6984 6.96177 22.7948 6.84832Z" fill="#F2C777"/>
<path d="M26.8886 5.65425C26.6372 5.49198 26.4025 5.33388 26.1469 5.20074L26.0506 5.15082L25.9668 5.11336C25.9316 5.09558 25.8952 5.08029 25.8578 5.0676C25.7836 5.0416 25.7081 5.01938 25.6316 5.00103C25.4839 4.9634 25.3313 4.94798 25.179 4.95527C25.0417 4.95817 24.907 4.99233 24.7851 5.05512C24.6189 5.14452 24.4931 5.29322 24.4331 5.47118C24.4101 5.52571 24.3946 5.5831 24.3871 5.64177C24.4294 5.60167 24.4742 5.56415 24.5212 5.52942C24.6296 5.44086 24.7626 5.38717 24.9025 5.37548C25.0956 5.37622 25.285 5.42792 25.4514 5.52527C25.5017 5.55023 25.5519 5.57935 25.6064 5.61264L25.6902 5.66256C25.6902 5.66256 25.6609 5.6917 25.6399 5.70834L25.5645 5.76242C25.5142 5.79986 25.4639 5.83315 25.4179 5.86228C25.2642 5.97609 25.081 6.04394 24.8899 6.05783C24.7451 6.05827 24.6021 6.02702 24.4709 5.96629C24.3619 5.92469 24.3033 5.8914 24.3033 5.89556C24.3335 5.94755 24.3671 5.99759 24.4038 6.04535C24.513 6.18862 24.6572 6.30176 24.8228 6.37403C24.9564 6.42472 25.0991 6.44738 25.2419 6.4406C25.3938 6.43653 25.544 6.40699 25.686 6.35323C25.7593 6.32916 25.8307 6.29997 25.8997 6.26586L26.0045 6.21593C26.0422 6.19513 26.059 6.1868 26.1302 6.14103C26.3648 5.99541 26.6121 5.82483 26.8635 5.65425H26.8886Z" fill="#F2C777"/>
<path d="M23.5825 6.4281C23.7128 6.41649 23.834 6.3569 23.9223 6.26104C24.0106 6.16518 24.0595 6.03999 24.0595 5.9101C24.0595 5.78022 24.0106 5.65503 23.9223 5.55917C23.834 5.46331 23.7128 5.40371 23.5825 5.39211C23.4522 5.40371 23.3311 5.46331 23.2428 5.55917C23.1545 5.65503 23.1056 5.78022 23.1056 5.9101C23.1056 6.03999 23.1545 6.16518 23.2428 6.26104C23.3311 6.3569 23.4522 6.41649 23.5825 6.4281Z" fill="#F2C777"/>
<path d="M4.99474 0.67404C5.73053 0.748299 6.44338 0.970557 7.08985 1.32726C7.42454 1.51513 7.73783 1.73831 8.02427 1.99295C8.26573 2.20511 8.49121 2.43457 8.6989 2.67946C8.80784 2.80705 8.9126 2.94574 9.01316 3.09552C9.27981 3.46516 9.50994 3.85947 9.70036 4.27297C9.87847 4.66241 10.0188 5.06783 10.1194 5.48372C10.3077 6.19915 10.3951 6.93706 10.3792 7.67636C10.3667 8.18227 10.2705 8.68269 10.0942 9.15754C10.0264 9.33602 9.9437 9.5086 9.84701 9.67346C9.98898 9.5398 10.1168 9.39202 10.2283 9.23244C10.5373 8.78086 10.7537 8.27332 10.8652 7.73876C11.0332 6.94498 11.0574 6.12781 10.9365 5.32561C10.8005 4.31583 10.4147 3.35523 9.81349 2.52967C9.78835 2.49223 9.75902 2.46311 9.73388 2.42982C9.533 2.15467 9.3087 1.89715 9.06344 1.6601C8.59116 1.20874 8.04216 0.843912 7.44183 0.582506C6.67649 0.249264 5.84082 0.106448 5.00732 0.166443C4.46638 0.209472 3.93368 0.324217 3.42341 0.507618C3.23946 0.571656 3.05903 0.645262 2.88287 0.72813C2.88287 0.72813 3.0882 0.690675 3.46113 0.653229C3.97162 0.606043 4.48573 0.613024 4.99474 0.67404Z" fill="#F2C777"/>
<path d="M9.98109 2.18848C10.4265 2.02895 10.863 1.84563 11.2884 1.63928C11.5063 1.53527 11.7075 1.42709 11.9254 1.32307C12.0301 1.26898 12.1139 1.22322 12.2061 1.18161C12.2983 1.14001 12.3863 1.10255 12.4785 1.06927C12.8402 0.938597 13.2178 0.856056 13.6014 0.823793C14.2657 0.765034 14.9336 0.887309 15.5331 1.17745C15.9476 1.38595 16.2946 1.70603 16.5346 2.10111C16.6263 2.25339 16.7007 2.41525 16.7567 2.58374C16.754 2.39941 16.7272 2.2162 16.6771 2.0387C16.5281 1.53526 16.2231 1.09124 15.8055 0.769703C15.1685 0.283942 14.3919 0.0128251 13.5889 -0.0041665C13.1128 -0.0232593 12.6369 0.0372153 12.181 0.174737C12.0636 0.212183 11.9421 0.253796 11.8248 0.299563C11.7075 0.34533 11.5859 0.407737 11.4896 0.453504L10.8652 0.75307C10.4462 0.952779 10.0272 1.14417 9.64587 1.31059C9.50341 1.36884 9.36513 1.42292 9.22685 1.47285C9.46775 1.69992 9.68791 1.94775 9.88472 2.21344C9.90148 2.20928 9.95176 2.20096 9.98109 2.18848Z" fill="#F2C777"/>
<path d="M7.75609 2.07611L7.50886 2.14268C7.34862 2.18644 7.18439 2.2143 7.01861 2.22588C6.71131 2.25251 6.40172 2.23146 6.10095 2.16348C5.64676 2.0648 5.22903 1.84302 4.89417 1.52275C4.7657 1.39929 4.65437 1.25937 4.56314 1.10669C4.60559 1.28514 4.67481 1.45625 4.76846 1.61429C5.04358 2.06216 5.45212 2.41401 5.93753 2.62115C6.47322 2.85481 7.06118 2.94518 7.64295 2.88327C7.85246 2.85414 8.04103 2.82918 8.25473 2.7959C8.31339 2.7959 8.37205 2.77509 8.43072 2.76261C8.22415 2.51672 7.99859 2.28719 7.75609 2.07611Z" fill="#F2C777"/>
<path d="M3.93881 13.0019C3.92615 13.0691 3.90029 13.1332 3.86269 13.1905C3.8251 13.2478 3.77651 13.2971 3.7197 13.3358C3.60497 13.4138 3.46373 13.4434 3.32703 13.418C3.19034 13.3926 3.06941 13.3144 2.99083 13.2005C2.91224 13.0865 2.88245 12.9463 2.90801 12.8105C2.93357 12.6748 3.01239 12.5547 3.12711 12.4767C3.24184 12.3987 3.3831 12.3691 3.51979 12.3945C3.65648 12.4199 3.77742 12.4981 3.856 12.612C3.93458 12.726 3.96437 12.8662 3.93881 13.0019Z" fill="#F2C777"/>
<path d="M2.20406 18.548C2.20406 18.4101 2.25923 18.2778 2.35746 18.1803C2.45569 18.0828 2.58892 18.028 2.72783 18.028C2.86675 18.028 2.99997 18.0828 3.0982 18.1803C3.19642 18.2778 3.25161 18.4101 3.25161 18.548C3.25161 18.686 3.19642 18.8183 3.0982 18.9158C2.99997 19.0133 2.86675 19.0681 2.72783 19.0681C2.58892 19.0681 2.45569 19.0133 2.35746 18.9158C2.25923 18.8183 2.20406 18.686 2.20406 18.548Z" fill="#F2C777"/>
<path d="M6.5493 20.1291C6.5402 20.3129 6.46133 20.4864 6.32857 20.6149C6.19581 20.7433 6.019 20.817 5.83371 20.8212C5.64841 20.8254 5.46838 20.7598 5.32983 20.6376C5.19128 20.5153 5.10449 20.3456 5.08691 20.1624C5.09602 19.9785 5.17488 19.805 5.30765 19.6766C5.44041 19.5481 5.61722 19.4744 5.80252 19.4702C5.98781 19.466 6.16783 19.5316 6.30638 19.6538C6.44493 19.7761 6.53173 19.9459 6.5493 20.1291Z" fill="#F2C777"/>
<path d="M4.71398 23.1331C4.29139 23.1193 3.87079 23.0692 3.45692 22.9833C2.79216 22.7929 2.16656 22.4872 1.60904 22.0804C1.42368 21.9198 1.25775 21.7382 1.11459 21.5395C0.786186 21.0883 0.590357 20.5553 0.548907 20.0001C0.51249 19.5404 0.573882 19.0783 0.729089 18.6438C0.858587 18.2846 1.07773 17.9639 1.366 17.7118C1.75485 17.3835 2.25102 17.2074 2.76135 17.2167C2.92777 17.2187 3.09351 17.2382 3.25579 17.2749C3.08734 17.2556 2.91722 17.2556 2.74877 17.2749C2.26682 17.3227 1.8194 17.5449 1.49171 17.899C1.12599 18.3865 0.942324 18.9851 0.972135 19.5923C1.00195 20.1995 1.24339 20.7776 1.65513 21.2275C1.71531 21.29 1.77971 21.3484 1.84788 21.4022C2.6281 21.9626 3.58154 22.2335 4.54219 22.1678C4.88078 22.1886 5.21989 22.1361 5.53605 22.014C5.85221 21.8919 6.13788 21.703 6.37331 21.4605C6.90966 20.8572 8.20024 19.8545 8.0494 16.3596C7.97816 16.318 7.90693 16.2722 7.83989 16.2264C7.77985 16.1857 7.72247 16.1412 7.66808 16.0933L7.55076 15.9851V16.268C7.51417 16.6927 7.38857 17.1051 7.18202 17.4788C7.002 17.8227 6.74551 18.1215 6.43197 18.3525C6.17098 18.5519 5.84752 18.6536 5.5185 18.6396C5.40212 18.6296 5.2878 18.603 5.1791 18.5605C5.28408 18.5595 5.38843 18.5441 5.48917 18.5148C5.66935 18.4607 5.79925 18.2901 5.97105 18.0987C6.39007 17.6327 6.65824 16.8006 6.65405 15.5566L6.51996 14.1711L6.48225 13.9797C6.40683 13.443 6.26018 12.5776 6.25598 12.5776C6.48565 13.027 6.74314 13.462 7.02698 13.8798C7.24906 14.1794 7.54657 14.5497 7.89436 14.9325C7.743 14.2925 7.50625 13.6754 7.1904 13.0976C6.98927 12.7357 6.85519 12.2655 6.62891 11.9077C7.58414 13 8.27754 14.293 8.65698 15.6897C8.72402 15.7355 8.79107 15.7854 8.8623 15.8312C9.01837 15.9387 9.18223 16.0347 9.35255 16.1183C9.64336 16.27 9.96036 16.366 10.287 16.4012C10.5147 16.4203 10.7429 16.3695 10.9406 16.2555C11.0184 16.2134 11.0914 16.1632 11.1585 16.1058C11.1481 16.1855 11.124 16.2629 11.0873 16.3346C11.0164 16.4581 10.9187 16.5644 10.8013 16.6457C10.6839 16.727 10.5497 16.7814 10.4085 16.8048C9.92653 16.9008 9.42799 16.8751 8.95867 16.7299C8.9272 16.7227 8.89637 16.7129 8.86649 16.7007C8.89582 16.8963 8.91677 17.0877 8.92934 17.2791C9.27294 22.0763 5.45565 23.1164 4.71398 23.1331Z" fill="#F2C777"/>
<path d="M2.56442 27.7596C2.99052 29.1889 3.14121 30.6851 3.00859 32.1699C3.00859 32.3571 2.97087 32.536 2.94573 32.7191C3.03324 32.585 3.11298 32.4461 3.18457 32.303C3.39351 31.8172 3.52498 31.3021 3.57426 30.7761C3.68575 29.3283 3.50628 27.873 3.0463 26.4948C2.92059 26.0787 2.76136 25.7084 2.58118 25.2466C2.401 24.7848 2.23759 24.3438 2.09093 23.8486C1.94971 23.3939 1.85013 22.9274 1.79342 22.4548C2.20475 22.7056 2.64332 22.9094 3.10077 23.0623C3.1301 23.2454 3.16362 23.4284 3.20553 23.6073C3.31028 24.0775 3.43599 24.531 3.57007 24.972C3.70416 25.413 3.85082 25.879 3.93881 26.3159C4.2929 27.8182 4.32288 29.3779 4.02681 30.8926C3.90821 31.4424 3.70016 31.9694 3.41084 32.4528C3.26466 32.6892 3.0902 32.9071 2.89126 33.1019C2.69851 34.3168 2.37167 35.436 2.12026 36.4553C1.96676 37.0553 1.84923 37.6638 1.76828 38.2777C1.70172 38.8089 1.68629 39.3453 1.72219 39.8795C1.77535 40.6644 1.93606 41.4385 2.19987 42.1803C2.38424 42.7087 2.51833 43.0125 2.51414 43.0125C2.36147 42.7631 2.22162 42.5062 2.09512 42.2427C1.73139 41.5156 1.47861 40.7388 1.34507 39.9378C1.25729 39.3806 1.2264 38.816 1.25288 38.2527C1.28557 37.6096 1.36681 36.9698 1.49592 36.3388C1.65515 35.5067 1.86466 34.6205 2.02808 33.7135H1.99874V33.6594H2.02388C2.11976 33.1515 2.18969 32.639 2.23339 32.1241C2.3607 30.7219 2.25882 29.3085 1.9317 27.9385C1.63419 26.6654 1.22774 25.5295 0.984711 24.5393C0.776403 23.7595 0.662464 22.9577 0.645305 22.1511C0.638906 21.8565 0.652903 21.5618 0.687203 21.2691C0.739673 22.3501 0.964555 23.4159 1.35345 24.427C1.68448 25.3548 2.18311 26.4532 2.56442 27.7596Z" fill="#F2C777"/>
<path d="M4.70143 28.3795C4.82003 28.1251 4.88287 27.8486 4.8858 27.5682C4.88763 27.1829 4.84261 26.7987 4.75171 26.4241C4.56315 25.5628 4.16508 24.5559 3.81729 23.2911V23.2578C3.96327 23.2946 4.1117 23.321 4.26145 23.3369H4.30755C4.45401 23.3474 4.60105 23.3474 4.74752 23.3369C4.93189 24.4852 5.16654 25.517 5.22102 26.3866C5.25448 26.7965 5.23477 27.209 5.16235 27.614C5.10561 27.913 4.98565 28.1966 4.81038 28.4461C4.7009 28.5929 4.56783 28.7208 4.4165 28.8247C4.36603 28.8595 4.31277 28.8901 4.25727 28.9163C4.30656 28.8798 4.3528 28.8395 4.39554 28.7956C4.52014 28.6748 4.62352 28.5342 4.70143 28.3795Z" fill="#F2C777"/>
<path d="M4.32011 19.7671C4.52346 19.5946 4.75244 19.4542 4.99893 19.3511C4.84137 19.4379 4.71173 19.5671 4.62498 19.7239C4.53823 19.8807 4.49791 20.0587 4.50868 20.2373C4.50761 20.3823 4.53945 20.5257 4.60183 20.6568C4.66422 20.7878 4.75555 20.9033 4.86904 20.9945C4.80228 21.1018 4.75147 21.2181 4.71819 21.3399C4.66787 21.5274 4.63974 21.7201 4.63438 21.914C4.25621 21.9637 3.87192 21.9397 3.50302 21.8433C3.61616 21.265 3.91785 20.1166 4.32011 19.7671Z" fill="#F2C777"/>
<path d="M1.99455 21.0901C2.12756 20.8618 2.32999 20.6812 2.5728 20.5742C2.69685 20.5215 2.82825 20.4879 2.96249 20.4744C3.08071 20.472 3.19724 20.4461 3.3052 20.3982C3.41316 20.3503 3.51035 20.2814 3.59102 20.1956L3.172 21.8141C2.74091 21.6543 2.33356 21.4374 1.96103 21.1692L1.99455 21.0901Z" fill="#F2C777"/>
<path d="M8.2254 25.2674C8.2254 25.2674 8.2254 25.2674 8.2254 25.2466V25.1343L8.19188 24.9262C8.16339 24.7043 8.07182 24.495 7.92789 24.3229C7.8141 24.2063 7.66844 24.1253 7.50887 24.0899C7.44137 24.0738 7.37274 24.0626 7.30355 24.0567C7.42984 23.9854 7.57033 23.9425 7.71513 23.931C7.85993 23.9195 8.00551 23.9396 8.1416 23.9901C8.29466 24.0504 8.43109 24.1459 8.53967 24.2688C8.65977 24.4006 8.75743 24.551 8.82879 24.714C8.86663 24.7969 8.90019 24.8816 8.92935 24.9678L8.97126 25.101L8.99221 25.2008L9.01735 25.3256C9.07601 25.6543 9.09277 25.9872 9.12629 26.3367H9.09697C8.7408 26.2368 8.38882 26.1411 8.07036 26.0413C8.01474 26.0236 7.96018 26.0027 7.90695 25.9789C7.86262 25.9634 7.81924 25.9453 7.77704 25.9248C7.69393 25.8873 7.61282 25.8457 7.53402 25.8C7.37663 25.7095 7.23511 25.5943 7.11499 25.4588C7.00908 25.3367 6.92797 25.1954 6.87615 25.0427C6.81619 24.8347 6.81619 24.6142 6.87615 24.4061C6.91805 24.2688 6.95577 24.2023 6.95158 24.2023C6.94739 24.2023 6.95157 24.2772 7.00186 24.4061C7.04658 24.5735 7.12656 24.7295 7.23651 24.8638C7.39695 25.0261 7.60031 25.14 7.82314 25.1925C7.88988 25.2174 7.95855 25.2369 8.02846 25.2507L8.1374 25.2757C8.17092 25.2757 8.23797 25.3007 8.22121 25.2757L8.2254 25.2674Z" fill="#F2C777"/>
<path d="M7.12337 22.8502C7.0788 22.889 7.03682 22.9307 6.99767 22.975C7.00156 22.9125 7.01425 22.8509 7.03538 22.7919C7.09293 22.6188 7.21016 22.4715 7.3664 22.3758C7.48539 22.3008 7.62014 22.2538 7.76028 22.2385C7.91151 22.2138 8.06579 22.2138 8.21701 22.2385C8.29244 22.2385 8.36787 22.2718 8.44329 22.2926C8.51871 22.3134 8.51871 22.3176 8.55642 22.3342C8.59413 22.3509 8.6109 22.3342 8.64023 22.3634L8.7366 22.4091C9.00059 22.5298 9.24362 22.6837 9.50341 22.8252H9.48246C9.23943 23.0249 8.9964 23.2163 8.77013 23.391C8.69889 23.441 8.68213 23.4493 8.64442 23.4742C8.60671 23.4992 8.58156 23.5159 8.54385 23.5367C8.50614 23.5575 8.40976 23.6074 8.33434 23.6407C8.1947 23.7068 8.04429 23.7477 7.89018 23.7613C7.73208 23.7787 7.57213 23.7557 7.42547 23.6946C7.27882 23.6334 7.15032 23.5361 7.05213 23.4118C7.0125 23.3629 6.97611 23.3115 6.94319 23.2579C6.94319 23.2579 7.00605 23.287 7.11499 23.3245C7.24831 23.3757 7.39141 23.3971 7.53401 23.3869C7.72742 23.3592 7.90822 23.2752 8.0536 23.1456L8.19606 23.0332L8.27149 22.9667L8.32177 22.9209V22.8959L8.23797 22.8502C8.18349 22.821 8.12902 22.7961 8.07455 22.7711C7.90544 22.6799 7.71329 22.6394 7.52144 22.6546C7.37116 22.676 7.23168 22.7445 7.12337 22.8502Z" fill="#F2C777"/>
<path d="M6.01296 26.9358C5.84117 26.6903 5.67775 26.4615 5.53528 26.2118L5.485 26.1161L5.44309 26.0371L5.397 25.9289C5.36757 25.8559 5.34376 25.7808 5.32577 25.7042C5.28367 25.5596 5.26389 25.4095 5.26711 25.2591C5.2689 25.1223 5.30034 24.9875 5.35929 24.8638C5.44288 24.7013 5.58275 24.5742 5.75317 24.506C5.86631 24.4644 5.92497 24.4602 5.92497 24.4561C5.88614 24.4998 5.84977 24.5456 5.81602 24.5934C5.72905 24.7032 5.67789 24.8367 5.66936 24.9761C5.67246 25.1667 5.72905 25.3525 5.83278 25.5129L5.92078 25.671L5.97525 25.75C5.97525 25.75 6.00459 25.7167 6.02135 25.6959L6.07163 25.6169C6.10792 25.5717 6.1415 25.5245 6.17219 25.4754C6.28308 25.3203 6.34704 25.137 6.35656 24.947C6.35319 24.8028 6.31891 24.661 6.256 24.531C6.20991 24.4269 6.17638 24.3687 6.17638 24.3687C6.23126 24.3952 6.28322 24.4272 6.33142 24.4644C6.48196 24.5683 6.59966 24.7126 6.67082 24.8804C6.72665 25.012 6.75378 25.1538 6.75044 25.2965C6.74848 25.4482 6.72159 25.5986 6.67082 25.7417C6.64837 25.8144 6.62036 25.8854 6.58702 25.9539L6.54093 26.0537L6.4697 26.1827C6.32304 26.4157 6.15962 26.6654 5.99201 26.9192L6.01296 26.9358Z" fill="#F2C777"/>
<path d="M6.71691 23.6407C6.71691 23.7786 6.66173 23.9109 6.56351 24.0084C6.46528 24.106 6.33205 24.1608 6.19313 24.1608C6.05422 24.1608 5.921 24.106 5.82277 24.0084C5.72454 23.9109 5.66936 23.7786 5.66936 23.6407C5.66936 23.5028 5.72454 23.3705 5.82277 23.2729C5.921 23.1754 6.05422 23.1206 6.19313 23.1206C6.33205 23.1206 6.46528 23.1754 6.56351 23.2729C6.66173 23.3705 6.71691 23.5028 6.71691 23.6407Z" fill="#F2C777"/>
<path d="M0.498626 5.33386C0.590927 6.05587 0.831983 6.75126 1.20677 7.37673C1.4037 7.70544 1.63548 8.01231 1.89816 8.29207C2.11552 8.5262 2.35088 8.74321 2.60212 8.94112C2.7362 9.0493 2.87448 9.15331 3.02114 9.249C3.39773 9.50578 3.79919 9.7246 4.21954 9.90222C4.61641 10.0682 5.02724 10.199 5.44727 10.2933C6.1731 10.4627 6.91908 10.5313 7.6639 10.4972C8.17372 10.4757 8.6764 10.3702 9.15143 10.1851C9.33037 10.114 9.50281 10.0277 9.66682 9.92719C9.53466 10.0728 9.38716 10.2039 9.22685 10.3183C8.77865 10.6321 8.27351 10.8567 7.73932 10.9798C6.94178 11.1651 6.11732 11.2073 5.3048 11.1046C4.81731 11.0481 4.33792 10.9364 3.87594 10.7718C3.37678 10.5914 2.90238 10.3496 2.46384 10.052C2.43032 10.0312 2.3968 10.0021 2.35908 9.97711C2.08771 9.78774 1.8339 9.5747 1.60065 9.34054C1.13218 8.88517 0.750331 8.34957 0.473486 7.75951C0.125691 7.00678 -0.0338709 6.18178 0.00837168 5.35467C0.0373373 4.81728 0.141705 4.28653 0.31845 3.77779C0.439966 3.41998 0.527961 3.23691 0.527961 3.23275C0.527961 3.22859 0.498625 3.44078 0.465104 3.80692C0.422023 4.31565 0.43326 4.82747 0.498626 5.33386Z" fill="#F2C777"/>
<path d="M2.13702 10.2518C1.98751 10.6968 1.81264 11.133 1.61324 11.5583L1.31154 12.1948L1.17326 12.4777L1.06432 12.7523C0.941917 13.1141 0.86864 13.4905 0.846428 13.8716C0.80591 14.533 0.950961 15.1926 1.26545 15.7771C1.48468 16.1835 1.81419 16.5208 2.21663 16.7507C2.37253 16.8363 2.5368 16.906 2.70689 16.9587C2.52157 16.9594 2.33698 16.9356 2.15797 16.888C1.64853 16.7538 1.19516 16.4624 0.863186 16.0559C0.355282 15.4374 0.0614352 14.6729 0.0251426 13.8757C-0.0021209 13.4047 0.0488424 12.9324 0.175991 12.4777C0.208774 12.3565 0.247942 12.2371 0.293323 12.1199C0.339415 11.9993 0.393884 11.8786 0.439976 11.7829L0.724914 11.1547C0.917664 10.7386 1.10622 10.3226 1.26126 9.93562C1.31992 9.79415 1.37021 9.65269 1.4163 9.51955C1.65101 9.75376 1.90622 9.96679 2.17892 10.1561L2.13702 10.2518Z" fill="#F2C777"/>
<path d="M1.96102 8.04661L2.02387 7.80113C2.06304 7.63991 2.08828 7.47566 2.09929 7.31017C2.11617 7.00378 2.0865 6.69663 2.0113 6.39901C1.90358 5.9506 1.6713 5.5412 1.34087 5.21738C1.21413 5.09487 1.07352 4.98736 0.921844 4.89702C1.10189 4.93833 1.27533 5.00414 1.43724 5.09257C1.89545 5.35432 2.26014 5.75134 2.4806 6.22842C2.64023 6.56255 2.74086 6.92141 2.77811 7.28937C2.79906 7.49827 2.79906 7.70873 2.77811 7.91763C2.77811 8.12566 2.73621 8.31289 2.70687 8.52508L2.67754 8.69983C2.42301 8.49969 2.18353 8.28137 1.96102 8.04661Z" fill="#F2C777"/>
</g>
<defs>
<clipPath id="clip0_173_76">
<rect width="43" height="43" fill="white" transform="translate(0 43) rotate(-90)"/>
</clipPath>
</defs>
</svg>
