<svg width="151" height="38" viewBox="0 0 151 38" fill="none" xmlns="http://www.w3.org/2000/svg">
<g clip-path="url(#clip0_204_718)">
<path d="M111.607 17.8561C111.75 17.7524 112.944 15.9987 113.015 15.8552C113.443 15.0268 113.738 14.1365 113.891 13.2167V13.0253V12.7384C113.891 12.5311 113.89 12.3318 113.93 12.1246C113.954 11.7184 113.954 11.3111 113.93 10.9049C113.859 10.1078 113.731 9.35848 113.62 8.5135V8.47363C112.824 8.65698 111.981 8.82437 111.177 9.01569C110.779 9.11932 110.382 9.22295 109.984 9.34252L109.689 9.43817L109.506 9.50196L109.188 9.61355C108.385 9.91333 107.61 10.2841 106.873 10.7216C105.486 11.4625 104.371 12.6269 103.69 14.0457C103.438 14.6446 103.369 15.3047 103.491 15.9429C103.58 16.3814 103.759 16.7967 104.016 17.1625C104.215 17.4596 104.453 17.7279 104.725 17.9597C104.624 17.6426 104.552 17.3172 104.51 16.9872C104.448 16.6165 104.474 16.2364 104.586 15.8777C104.698 15.519 104.892 15.1917 105.154 14.9225C106.011 14.1736 107.025 13.6286 108.122 13.3283C108.766 13.113 109.459 12.9217 110.199 12.7384L110.477 12.6666H110.589H110.644V12.8021C110.614 13.4543 110.513 14.1012 110.342 14.7312C110.182 15.3332 109.963 15.9179 109.689 16.477C109.48 16.9485 109.198 17.3843 108.854 17.7684C108.604 18.0666 108.297 18.3119 107.952 18.4899C107.606 18.6678 107.228 18.7748 106.841 18.8047C106.515 18.8117 106.191 18.7687 105.878 18.6771C106.114 18.9494 106.404 19.1693 106.73 19.3228C107.138 19.5146 107.584 19.6101 108.034 19.6018C108.653 19.5947 109.263 19.4476 109.817 19.1714C110.493 18.8527 111.1 18.406 111.607 17.8561Z" fill="#A28A4A"/>
<path d="M150.928 16.7481C150.636 15.3575 149.97 14.0731 149.003 13.0334C147.995 11.879 146.777 10.9268 145.414 10.2275C145.054 10.0351 144.682 9.86467 144.301 9.71728C143.943 9.58177 143.561 9.43032 143.155 9.30277C142.349 9.05734 141.528 8.8656 140.696 8.72883C138.957 8.45957 137.196 8.35283 135.437 8.40997C133.548 8.46072 131.667 8.68756 129.82 9.08755C128.832 9.28676 127.859 9.55309 126.907 9.8847C125.961 10.2195 125.03 10.5862 124.091 10.9768C122.213 11.7739 120.319 12.6109 118.386 13.5436C117.415 14.0059 116.445 14.4922 115.458 15.0103L114.989 15.2575C114.551 15.9829 112.172 18.3026 112.005 18.7968C113.66 18.462 115.347 18.7968 115.625 18.6533C116.063 18.3743 116.508 18.1113 116.954 17.8562C117.861 17.3301 118.768 16.8278 119.675 16.3416C121.489 15.3611 123.287 14.4523 125.054 13.6233C125.929 13.2008 126.804 12.8262 127.663 12.4435C128.488 12.0967 129.333 11.8011 130.194 11.5587C131.865 11.0969 133.575 10.7848 135.302 10.626C138.651 10.3391 141.866 10.5224 144.46 11.5986C145.701 12.1142 146.836 12.8546 147.809 13.7827C148.698 14.5895 149.366 15.6102 149.751 16.7481C149.911 17.2326 149.958 17.7474 149.889 18.2531C149.82 18.7587 149.637 19.2419 149.353 19.6657C149.073 20.067 148.732 20.422 148.342 20.7179C147.988 21.0167 147.594 21.266 147.173 21.4593C146.492 21.7959 145.725 21.916 144.974 21.8034C144.223 21.6909 143.524 21.351 142.972 20.8295C142.779 20.6409 142.637 20.4076 142.556 20.1503C142.476 19.893 142.46 19.6197 142.51 19.3548C142.626 18.9685 142.863 18.6301 143.187 18.3902C143.453 18.1837 143.748 18.0172 144.062 17.896C143.742 17.9894 143.437 18.1262 143.155 18.3026C142.798 18.5289 142.52 18.8603 142.359 19.2512C142.266 19.5414 142.248 19.8503 142.305 20.1497C142.362 20.449 142.493 20.7294 142.685 20.965C143.236 21.6119 143.972 22.0736 144.793 22.2875C145.614 22.5014 146.481 22.4571 147.276 22.1608C147.774 22.0008 148.245 21.7699 148.677 21.4752C149.155 21.1758 149.586 20.8079 149.958 20.3831C150.375 19.9062 150.682 19.3427 150.857 18.733C151.025 18.0845 151.049 17.4071 150.928 16.7481Z" fill="#A28A4A"/>
<path d="M33.9985 17.8482C34.452 18.1192 34.9135 18.3902 35.3511 18.6453C35.7887 18.9004 38.6849 18.9721 39.5283 19.1316C39.5283 19.1316 38.0006 16.9314 37.0618 15.8473C36.6272 15.4932 36.1308 15.2229 35.5977 15.0502C34.627 14.54 33.6722 14.0617 32.7175 13.5994C30.8132 12.68 28.9354 11.835 27.0842 11.0644C26.1612 10.6738 25.2383 10.3072 24.3074 9.97236C23.367 9.62496 22.4048 9.34002 21.4271 9.1194C19.5969 8.70686 17.7323 8.46667 15.8575 8.40198C14.1053 8.32722 12.35 8.41529 10.6141 8.66505C9.78381 8.78928 8.96254 8.96768 8.15549 9.19912C7.75766 9.3187 7.35983 9.45421 6.98587 9.5977C6.61191 9.74118 6.19022 9.90061 5.87195 10.068C4.49037 10.7432 3.24648 11.6704 2.20397 12.8022C1.20958 13.8235 0.499144 15.0877 0.143219 16.4691C-0.00376374 17.136 -0.00376374 17.827 0.143219 18.4939C0.273902 19.1211 0.546063 19.7101 0.938877 20.2157C1.29798 20.6668 1.72474 21.0595 2.20397 21.3795C2.63575 21.6812 3.10352 21.9276 3.59637 22.1129C4.48506 22.4452 5.45378 22.4981 6.37322 22.2644C7.12941 22.0755 7.80633 21.6513 8.30667 21.0527C8.50988 20.8178 8.65184 20.5362 8.71988 20.233C8.78791 19.9297 8.7799 19.6143 8.69654 19.3149C8.55138 18.9043 8.2707 18.5556 7.90089 18.3265C7.61167 18.1462 7.30177 18.0017 6.97792 17.896C7.27849 18.0266 7.56395 18.1897 7.82927 18.3822C8.14991 18.613 8.38944 18.9395 8.51353 19.3149C8.57293 19.5721 8.56768 19.84 8.49825 20.0946C8.42881 20.3492 8.29736 20.5825 8.1157 20.7737C7.58999 21.3041 6.91502 21.6609 6.18124 21.7963C5.44746 21.9316 4.68992 21.8391 4.01012 21.531C3.58757 21.3553 3.19129 21.1219 2.83253 20.8375C2.43798 20.5524 2.08687 20.2114 1.79022 19.8251C1.48333 19.4219 1.27283 18.9535 1.17489 18.456C1.07696 17.9585 1.09421 17.4451 1.22531 16.9554C1.55576 15.814 2.18483 14.7819 3.04737 13.9661C3.99832 13.0164 5.11472 12.2491 6.34139 11.7022C8.90341 10.5782 12.102 10.347 15.4755 10.6101C17.2148 10.7517 18.9378 11.0506 20.6235 11.5029C21.4944 11.7398 22.35 12.0299 23.1855 12.3718C24.0448 12.7305 24.928 13.1291 25.8191 13.5436C27.6014 14.3886 29.4234 15.3053 31.2694 16.2937C32.1525 16.8039 33.0835 17.3141 33.9985 17.8482Z" fill="#A28A4A"/>
<path d="M49.5934 15.4805C49.8421 15.6318 50.1096 15.7497 50.389 15.8313C50.2364 15.6038 50.1033 15.3638 49.9912 15.1139C49.7108 14.5378 49.6189 13.8879 49.7286 13.2565C49.9334 12.4176 50.3467 11.6443 50.9301 11.0085C51.2716 10.6005 51.6411 10.217 52.036 9.86065L52.3543 9.57367L52.4339 9.50991C52.4426 9.4911 52.4582 9.47641 52.4775 9.46897C52.4968 9.46152 52.5183 9.4619 52.5373 9.47004C52.8279 9.87044 53.0937 10.2884 53.333 10.7216C53.7225 11.3784 53.8636 12.1534 53.7308 12.9057C53.603 13.5307 53.3944 14.1364 53.1102 14.7073L52.7681 15.3928C53.0063 15.2915 53.2376 15.1744 53.4603 15.0421C54.1215 14.6812 54.7012 14.1872 55.163 13.5913C55.5369 13.1217 55.808 12.5785 55.9586 11.997C56.1022 11.3109 56.1022 10.6025 55.9586 9.91644C55.8244 9.2225 55.6053 8.54781 55.3062 7.90763C54.7731 6.83149 54.0968 5.7633 53.4046 4.63135L52.2509 5.37271C51.6881 5.72623 51.1559 6.12619 50.6596 6.56843L50.2856 6.9112L50.1105 7.08657L50.0071 7.19021L49.6252 7.62863C49.1543 8.21023 48.7562 8.84737 48.4397 9.52584C47.8387 10.736 47.6918 12.1223 48.0259 13.4319C48.265 14.2918 48.8266 15.0258 49.5934 15.4805Z" fill="#A28A4A"/>
<path d="M63.0718 17.043L63.3583 16.6604L63.4935 16.4611L63.5651 16.3575L63.6686 16.1821C63.972 15.6707 64.2379 15.1378 64.4642 14.5878C64.687 14.0458 64.8939 13.5037 65.1167 12.9218L64.0664 12.4275C63.4881 12.1508 62.8928 11.9112 62.2841 11.7101C62.1329 11.6623 61.9818 11.6145 61.8147 11.5746L61.576 11.5108H61.4328C61.2418 11.5108 61.0509 11.4391 60.8599 11.4231C60.1082 11.3151 59.3435 11.3394 58.6002 11.4949C57.8974 11.6224 57.2284 11.8938 56.635 12.292C56.1378 12.6439 55.7181 13.0943 55.4017 13.6153C54.9886 14.3014 54.7508 15.079 54.7095 15.8792C54.6915 16.1446 54.6915 16.4109 54.7095 16.6763C54.7095 16.6763 54.8845 16.4292 55.1948 16.0466C55.598 15.5372 56.0851 15.1005 56.635 14.7552C57.3122 14.3591 58.1004 14.1967 58.8787 14.2929C59.3431 14.3353 59.8017 14.4261 60.2472 14.5639L60.6132 14.6755H60.7008C60.7008 14.6755 60.7644 14.6755 60.7962 14.7313C60.8281 14.7871 60.7962 14.7313 60.7962 14.7313L60.7565 14.827L60.6769 15.0103L60.5178 15.369L60.2075 16.0705C59.8549 16.8599 59.4173 17.6083 58.9026 18.3025C58.5793 18.772 58.1132 19.1243 57.5738 19.3069C57.3459 19.3687 57.1094 19.3929 56.8736 19.3787C57.0649 19.5643 57.2925 19.7081 57.542 19.8011C58.2978 20.0416 59.1176 19.9758 59.8255 19.6178C60.8342 19.1544 61.7342 18.4836 62.4671 17.6489C62.674 17.5373 62.8729 17.2981 63.0718 17.043Z" fill="#A28A4A"/>
<path d="M58.0512 24.7194C57.5475 24.8314 57.0305 24.8716 56.5156 24.839C56.1181 24.7768 55.7475 24.5995 55.4494 24.3288C55.2028 24.1056 55.0675 23.9382 55.0675 23.9462C55.0104 24.1324 54.9782 24.3254 54.972 24.5201C54.9543 25.1182 55.1552 25.7021 55.5369 26.1623C56.1321 26.8452 56.9293 27.32 57.8125 27.5174C58.4723 27.6687 59.1491 27.733 59.8255 27.7087C60.6212 27.7087 61.5282 27.7087 62.4194 27.645V27.2384C62.3597 26.4324 62.2346 25.6326 62.0454 24.847C61.9285 24.455 61.785 24.0714 61.6158 23.6991C61.5362 23.5237 61.4407 23.3404 61.3532 23.1809C61.2882 23.0703 61.2164 22.9639 61.1384 22.8621C60.6333 22.1381 59.9511 21.5562 59.1572 21.1721C58.6194 20.8999 58.0078 20.8104 57.4147 20.917C57.2133 20.9571 57.0198 21.0298 56.8418 21.1323C57.0027 21.225 57.1569 21.3289 57.3033 21.4432C57.6293 21.7196 57.8855 22.0692 58.0512 22.4635C58.2808 23.0021 58.4541 23.5631 58.5684 24.1375C58.5733 24.2118 58.5733 24.2864 58.5684 24.3607C58.5684 24.3607 58.5684 24.3607 58.5684 24.4085C58.5457 24.4301 58.5185 24.4464 58.4888 24.4564C58.4627 24.4631 58.4354 24.4631 58.4093 24.4564C58.4346 24.4817 58.449 24.5161 58.449 24.552C58.4013 24.5839 58.4809 24.6636 58.0512 24.7194Z" fill="#A28A4A"/>
<path d="M37.0777 12.7384V13.0254V13.2167C37.3642 14.957 38.162 16.5722 39.3692 17.8561C39.8637 18.4173 40.4639 18.8751 41.1355 19.2032C41.6896 19.4795 42.2989 19.6267 42.9178 19.6337C43.3708 19.641 43.8196 19.5456 44.2306 19.3547C44.5549 19.2029 44.8427 18.9827 45.074 18.709C44.7619 18.8023 44.4369 18.8453 44.1113 18.8366C43.724 18.8059 43.3467 18.6984 43.0011 18.5206C42.6556 18.3427 42.3487 18.0979 42.0983 17.8003C41.7542 17.4162 41.4723 16.9804 41.2628 16.5089C40.9922 15.9484 40.7738 15.364 40.6104 14.7632C40.4396 14.1331 40.3383 13.4862 40.308 12.8341V12.7145H40.3637H40.4751L40.7536 12.7862C41.4936 12.9696 42.1937 13.1609 42.8382 13.3761C43.9319 13.678 44.9435 14.223 45.7981 14.9704C46.0599 15.2396 46.2547 15.5668 46.3667 15.9255C46.4786 16.2842 46.5046 16.6644 46.4426 17.035C46.4003 17.365 46.3284 17.6905 46.2277 18.0075C46.4993 17.7757 46.7376 17.5075 46.9359 17.2104C47.1962 16.8454 47.3778 16.43 47.469 15.9907C47.5868 15.3524 47.5177 14.6935 47.2701 14.0936C46.5898 12.6741 45.4747 11.5095 44.0874 10.7694C43.35 10.332 42.5751 9.96121 41.7721 9.66142L41.4617 9.54981L41.2787 9.48605L40.9844 9.39037C40.5865 9.2708 40.1887 9.16719 39.7829 9.06356C38.9872 8.87225 38.1916 8.70483 37.3402 8.52148V8.56136C37.2289 9.3585 37.1095 10.1557 37.0299 10.9528C37.0299 11.3514 36.9902 11.7499 37.0299 12.1724C37.0538 12.3398 37.0618 12.5311 37.0777 12.7384Z" fill="#A28A4A"/>
<path d="M39.6795 26.8082C38.3702 26.8103 37.0748 26.5388 35.8762 26.011C35.1988 25.719 34.5557 25.3528 33.9587 24.9189L33.5211 24.5761L33.4336 24.4964C33.4336 24.4964 33.4336 24.4964 33.5211 24.4327L34.0303 24.1058C34.6996 23.7021 35.3902 23.3349 36.099 23.0058C37.2865 22.4212 38.5597 22.0309 39.8704 21.8499C40.741 21.7081 41.6333 21.8926 42.3768 22.368C42.6636 22.5798 42.9183 22.8322 43.1326 23.1174C43.0823 22.733 42.958 22.3622 42.7666 22.0253C42.5241 21.603 42.1929 21.2385 41.7959 20.9571C41.2636 20.5804 40.6639 20.3098 40.0296 20.1599C38.4292 19.8231 36.7724 19.8668 35.192 20.2875C34.2722 20.5089 33.3766 20.8213 32.5185 21.2202C32.2878 21.3238 32.065 21.4434 31.8343 21.5629C31.7627 21.6028 31.524 21.7383 31.341 21.8579C31.158 21.9774 30.9591 22.105 30.7681 22.2405C30.0685 22.776 29.409 23.3621 28.7949 23.9942L28.9938 24.3131C29.4338 25.0861 29.9684 25.8011 30.5851 26.4415C30.7442 26.6089 30.9193 26.7603 31.0943 26.9118L31.3569 27.127L31.5399 27.2625C31.7706 27.422 32.0014 27.5734 32.2321 27.7089C33.118 28.2155 34.0759 28.5838 35.0726 28.801C36.7245 29.1784 38.4485 29.0901 40.0534 28.5459C41.1238 28.1857 42.0518 27.4932 42.703 26.569C42.9244 26.2481 43.0911 25.8925 43.1963 25.5168C42.9356 25.7746 42.6443 25.9995 42.329 26.1864C41.5175 26.628 40.6023 26.8427 39.6795 26.8082Z" fill="#A28A4A"/>
<path d="M105.64 20.5186C104.801 18.786 103.323 17.4481 101.518 16.7879C100.043 16.2528 98.416 16.3216 96.9907 16.9792C96.4868 17.2167 96.0392 17.5591 95.6779 17.9836C95.2417 18.356 94.926 18.8499 94.7709 19.4026C94.6065 19.9511 94.6065 20.536 94.7709 21.0845C94.8767 21.4431 95.0558 21.7757 95.2969 22.0612C95.538 22.3467 95.8357 22.5787 96.1712 22.7426C96.3948 22.8485 96.6297 22.9288 96.8714 22.9818C96.6531 22.8832 96.4452 22.763 96.2508 22.623C96.0632 22.4802 95.897 22.311 95.7575 22.1208C95.7018 22.0172 95.6222 21.8578 95.5267 21.6346C95.4094 21.3445 95.324 21.0425 95.2721 20.7338C95.2536 20.3025 95.3622 19.8752 95.5843 19.5053C95.8064 19.1353 96.1323 18.839 96.5213 18.6533C97.0574 18.443 97.6403 18.3824 98.2081 18.4779C98.8422 18.5912 99.4367 18.8657 99.9347 19.275C101.115 20.2585 101.905 21.6327 102.163 23.1492C102.23 23.5306 102.246 23.9193 102.21 24.305C102.194 24.4823 102.165 24.6582 102.123 24.8311C102.067 25.0464 102.003 25.2536 101.94 25.4609C101.673 26.2884 101.246 27.055 100.683 27.7168C99.3303 29.0985 97.5853 30.0283 95.6859 30.3793C94.7312 30.5558 93.7523 30.5558 92.7976 30.3793C91.7262 30.1997 90.6776 29.9029 89.6707 29.4944C85.5174 27.8125 82.1676 24.5681 81.1651 20.949C80.9174 20.064 80.7889 19.1499 80.7832 18.2308C80.795 17.3679 80.9316 16.5114 81.189 15.6879C81.6609 14.1405 82.477 12.7204 83.5759 11.5347C84.5081 10.5348 85.6492 9.75358 86.9177 9.24691C87.908 8.85453 88.9568 8.63091 90.0208 8.58529C90.953 8.53981 91.8873 8.6013 92.8056 8.76861C91.9182 8.40823 90.9872 8.167 90.0367 8.05119C88.893 7.90495 87.7327 7.9589 86.6074 8.21063C85.0726 8.56761 83.6405 9.27408 82.4222 10.2752C80.9211 11.5083 79.7393 13.0862 78.977 14.8748C78.5409 15.8897 78.2592 16.9646 78.1416 18.0634C78.0411 19.239 78.1108 20.4231 78.3485 21.5788C78.888 24.0587 80.1025 26.3405 81.8573 28.1712C83.6775 30.1092 85.899 31.6247 88.3658 32.6113C89.6242 33.1267 90.9419 33.4829 92.2884 33.6715C93.6829 33.8824 95.1053 33.8147 96.4736 33.4722C97.7077 33.1294 98.8944 32.6341 100.006 31.9975C101.133 31.3478 102.118 30.4776 102.902 29.4387C103.63 28.4399 104.147 27.3036 104.422 26.0986C104.486 25.8169 104.542 25.5379 104.589 25.2616C104.638 24.9452 104.659 24.6251 104.653 24.305C104.644 23.7171 104.559 23.1328 104.398 22.5672C103.857 20.5829 102.59 18.8754 100.85 17.7843C100.667 17.6751 100.479 17.5766 100.285 17.4894C100.556 17.5608 100.822 17.6514 101.08 17.7604C102.511 18.4389 103.631 19.6353 104.215 21.1085C104.561 21.9314 104.794 22.7976 104.908 23.6833C105.051 24.6077 105.051 25.5488 104.908 26.4733C104.573 28.4421 103.623 30.2536 102.194 31.6467C100.629 33.1821 98.7191 34.3192 96.6247 34.9629C94.5268 35.6313 92.3111 35.8459 90.1242 35.5926C88.066 35.3316 86.07 34.7082 84.2284 33.7512C81.0457 32.1471 78.3585 29.7057 76.4548 26.6885C76.3275 26.4812 76.2161 26.266 76.0968 26.0587C77.2789 23.1873 77.4665 20.0019 76.6298 17.0111C76.7502 17.9199 76.7901 18.8375 76.7492 19.7533C76.6627 21.5294 76.2444 23.2734 75.5159 24.8949C74.7949 23.2709 74.377 21.5282 74.2827 19.7533C74.2468 18.8375 74.2868 17.9203 74.402 17.0111C73.5781 20.0033 73.7656 23.1845 74.9351 26.0587C74.8237 26.266 74.7123 26.4812 74.5771 26.6885C72.6583 29.7342 69.9419 32.1937 66.7239 33.7991C64.8827 34.7571 62.8865 35.3806 60.8281 35.6405C58.6412 35.8935 56.4255 35.6789 54.3275 35.0107C52.2341 34.365 50.3247 33.2282 48.7579 31.6946C47.6879 30.6914 46.8823 29.4385 46.4131 28.0475C45.9438 26.6566 45.8255 25.171 46.0686 23.7231C46.1859 22.8382 46.4186 21.9725 46.7608 21.1483C47.3454 19.6752 48.4656 18.4788 49.8957 17.8003C50.1539 17.6903 50.4198 17.5997 50.6914 17.5293C50.4941 17.6148 50.3027 17.7133 50.1185 17.8242C48.3779 18.9152 47.111 20.6228 46.5699 22.6071C46.4134 23.1735 46.3279 23.7573 46.3153 24.3449C46.312 24.6652 46.336 24.9852 46.3869 25.3015C46.4267 25.5805 46.4824 25.8595 46.546 26.1385C46.8216 27.3434 47.3386 28.4797 48.0657 29.4785C48.85 30.5175 49.835 31.3877 50.9619 32.0373C52.0759 32.6753 53.2654 33.1708 54.5026 33.5121C55.8681 33.8547 57.2879 33.9225 58.6798 33.7114C60.0264 33.5237 61.3443 33.1675 62.6024 32.6512C65.0703 31.6666 67.2922 30.1508 69.1109 28.211C70.8652 26.3789 72.082 24.098 72.6277 21.6186C72.8589 20.4621 72.9259 19.2786 72.8266 18.1032C72.7127 17.0038 72.431 15.9284 71.9911 14.9146C71.2289 13.1261 70.047 11.5482 68.546 10.3151C67.3297 9.3155 65.9006 8.60914 64.3688 8.25047C63.2408 7.99878 62.0778 7.94486 60.9315 8.09106C59.981 8.20687 59.05 8.4481 58.1626 8.80849C59.0835 8.64099 60.0205 8.57946 60.9554 8.62513C62.0166 8.67164 63.0627 8.89527 64.0505 9.28678C65.319 9.79345 66.4601 10.5747 67.3922 11.5746C68.4939 12.7583 69.3104 14.179 69.7792 15.7277C70.0365 16.5512 70.1732 17.4078 70.185 18.2706C70.1793 19.1897 70.0508 20.1039 69.8031 20.9889C68.8085 24.6079 65.4588 27.8523 61.3055 29.5343C60.2958 29.9429 59.2446 30.2396 58.1706 30.4191C57.2159 30.5957 56.237 30.5957 55.2823 30.4191C53.3843 30.0642 51.6404 29.135 50.2856 27.7567C49.7221 27.0964 49.2973 26.3292 49.0364 25.5007C48.9648 25.2935 48.9012 25.0862 48.8455 24.871C48.8034 24.698 48.7741 24.5222 48.7579 24.3449C48.7265 23.9591 48.7425 23.5709 48.8057 23.189C49.0661 21.6737 49.8557 20.3006 51.0335 19.3149C51.5343 18.9052 52.1314 18.6308 52.7681 18.5177C53.3332 18.4237 53.9132 18.4843 54.4469 18.6931C54.8359 18.8789 55.1617 19.1752 55.3839 19.5451C55.606 19.9151 55.7146 20.3423 55.6961 20.7736C55.6442 21.0823 55.5588 21.3844 55.4415 21.6744C55.3751 21.8413 55.298 22.0038 55.2107 22.1607C55.0712 22.3509 54.905 22.5201 54.7174 22.6629C54.523 22.8029 54.3151 22.923 54.0968 23.0216C54.3388 22.97 54.5739 22.8897 54.797 22.7825C55.1328 22.6179 55.4312 22.3857 55.6735 22.1004C55.9158 21.8151 56.0968 21.4829 56.2053 21.1244C56.3651 20.5752 56.3651 19.9917 56.2053 19.4424C56.0532 18.8904 55.7402 18.3963 55.3062 18.0235C54.9415 17.6026 54.4947 17.2608 53.9934 17.0191C52.5681 16.3614 50.9416 16.2927 49.4661 16.8278C47.6583 17.4869 46.1773 18.8248 45.3366 20.5584C44.8667 21.4906 44.5267 22.4831 44.3261 23.5079C43.9359 25.244 43.9926 27.051 44.4908 28.7592C44.9891 30.4673 45.9126 32.0206 47.1746 33.2729C48.9393 35.1222 51.1429 36.4934 53.5796 37.2587C55.9928 38.0341 58.5503 38.2494 61.0588 37.8884C63.3599 37.5332 65.5734 36.7462 67.5832 35.5687C70.9425 33.6803 73.6798 30.852 75.4602 27.4298C77.244 30.8523 79.9838 33.6804 83.3452 35.5687C85.3539 36.7487 87.5679 37.5358 89.8696 37.8884C92.3755 38.2482 94.9302 38.0329 97.3408 37.2587C99.7794 36.4924 101.985 35.1214 103.754 33.2729C105.445 31.5174 106.515 29.255 106.801 26.832C106.903 25.7199 106.834 24.5986 106.594 23.5079C106.418 22.4714 106.097 21.465 105.64 20.5186Z" fill="#A28A4A"/>
<path d="M95.8529 13.5915C96.3147 14.1874 96.8944 14.6813 97.5557 15.0423C97.7793 15.1777 98.0135 15.295 98.2558 15.393L97.9137 14.7075C97.6231 14.1385 97.4116 13.5323 97.2851 12.9059C97.1523 12.1536 97.2934 11.3785 97.6829 10.7217C97.9223 10.2886 98.188 9.8706 98.4786 9.47019C98.4976 9.46206 98.5191 9.46168 98.5384 9.46912C98.5577 9.47656 98.5734 9.49125 98.582 9.51006L98.6616 9.57382L98.9799 9.86081C99.3753 10.2192 99.7474 10.6026 100.094 11.0087C100.675 11.6447 101.086 12.4182 101.287 13.2566C101.399 13.8872 101.31 14.5371 101.033 15.114C100.917 15.362 100.784 15.6017 100.635 15.8314C100.913 15.7464 101.18 15.6287 101.431 15.4807C102.199 15.0294 102.767 14.303 103.022 13.448C103.348 12.1371 103.199 10.7525 102.6 9.54193C102.287 8.86184 101.888 8.22434 101.415 7.64472C101.287 7.50123 101.168 7.34978 101.033 7.2063L100.929 7.10266L100.754 6.92729L100.388 6.58452C99.8902 6.14433 99.3581 5.7445 98.7969 5.3888L97.6432 4.64746C96.9589 5.77941 96.2826 6.84757 95.7416 7.92372C95.445 8.5642 95.2285 9.23892 95.0971 9.93255C94.9535 10.6186 94.9535 11.327 95.0971 12.0131C95.2378 12.5858 95.4952 13.1231 95.8529 13.5915Z" fill="#A28A4A"/>
<path d="M90.172 11.3991C89.981 11.3991 89.798 11.4549 89.607 11.4868H89.4558L89.2172 11.5506L88.7477 11.6861C88.139 11.8872 87.5437 12.1268 86.9654 12.4035L85.9152 12.8978C86.138 13.4797 86.3448 14.0218 86.5676 14.5638C86.794 15.1138 87.0599 15.6467 87.3633 16.1581L87.4747 16.3335L87.5383 16.4371L87.6815 16.6364L87.968 17.019C88.1542 17.2685 88.3534 17.5079 88.5647 17.7365C89.2986 18.5701 90.1984 19.2408 91.2063 19.7054C91.9172 20.0631 92.7393 20.1288 93.4978 19.8888C93.7444 19.7946 93.9691 19.6508 94.1582 19.4663C93.9225 19.4804 93.686 19.4561 93.458 19.3945C92.9186 19.2119 92.4526 18.8596 92.1293 18.3901C91.6145 17.6974 91.1794 16.9487 90.8323 16.1581L90.5141 15.4566L90.3549 15.0979L90.2754 14.9146V14.8189C90.2754 14.8189 90.347 14.7551 90.3629 14.7631H90.4504L90.8164 14.6515C91.262 14.5137 91.7206 14.4229 92.185 14.3805C92.9632 14.2843 93.7515 14.4467 94.4287 14.8428C94.9786 15.1881 95.4656 15.6248 95.8688 16.1342C96.1871 16.5168 96.3463 16.7639 96.3542 16.7639C96.3722 16.4985 96.3722 16.2322 96.3542 15.9668C96.3129 15.1666 96.0751 14.389 95.662 13.7029C95.3456 13.1819 94.9258 12.7315 94.4287 12.3796C93.836 11.98 93.1667 11.7085 92.4634 11.5825C91.7164 11.386 90.9406 11.3239 90.172 11.3991Z" fill="#A28A4A"/>
<path d="M93.0204 22.4557C93.1889 22.063 93.4447 21.714 93.7683 21.4354C93.9147 21.3211 94.0689 21.2172 94.2298 21.1245C94.0553 21.0206 93.8642 20.9478 93.6649 20.9092C93.0692 20.8026 92.4551 20.8921 91.9144 21.1643C91.1205 21.5484 90.4383 22.1303 89.9332 22.8543C89.8616 22.9579 89.8059 23.0297 89.7184 23.1731C89.6309 23.3166 89.5434 23.5159 89.4558 23.6913C89.2866 24.0636 89.1431 24.4472 89.0262 24.8392C88.837 25.6248 88.7119 26.4246 88.6522 27.2306L88.6124 27.6372C89.5036 27.677 90.3947 27.7009 91.2063 27.7009C91.8918 27.72 92.5767 27.6476 93.2432 27.4857C94.1286 27.2883 94.9284 26.8137 95.5267 26.1305C95.9037 25.6682 96.1014 25.0851 96.0837 24.4884C96.0717 24.2949 96.0424 24.1028 95.9962 23.9145C95.9962 23.9145 95.8609 24.0739 95.6063 24.2971C95.3112 24.5676 94.9432 24.745 94.5481 24.8073C94.0331 24.8402 93.5161 24.7999 93.0124 24.6877C92.5748 24.6319 92.6544 24.5522 92.6385 24.5044C92.6361 24.4863 92.6386 24.468 92.6456 24.4512C92.6526 24.4344 92.6638 24.4198 92.6783 24.4087C92.6523 24.4163 92.6247 24.4163 92.5987 24.4087C92.5715 24.3985 92.547 24.3821 92.5271 24.3609C92.5271 24.3609 92.5271 24.3609 92.4873 24.3131C92.4475 24.2652 92.4873 24.1616 92.5271 24.0899C92.6363 23.5299 92.8016 22.9824 93.0204 22.4557Z" fill="#A28A4A"/>
<path d="M119.707 21.7939L119.206 21.4989C118.975 21.3794 118.752 21.2598 118.529 21.1562C117.668 20.7585 116.77 20.4461 115.848 20.2235C114.267 19.8029 112.611 19.7592 111.01 20.096C110.376 20.2458 109.776 20.5164 109.244 20.8931C108.849 21.177 108.518 21.5409 108.273 21.9613C108.086 22.3001 107.962 22.6701 107.907 23.0534C108.133 22.7647 108.401 22.512 108.703 22.3041C109.443 21.8285 110.333 21.6439 111.201 21.7859C112.512 21.9648 113.786 22.3551 114.973 22.9418C115.683 23.2725 116.376 23.6397 117.049 24.0418L117.551 24.3687C117.678 24.4404 117.63 24.4245 117.638 24.4325L117.543 24.5122C117.407 24.6317 117.256 24.7434 117.113 24.855C116.513 25.2889 115.867 25.6551 115.187 25.947C113.991 26.474 112.699 26.7455 111.392 26.7442C110.472 26.7546 109.565 26.5179 108.766 26.0586C108.453 25.869 108.162 25.6443 107.899 25.389C108.004 25.7647 108.171 26.1203 108.393 26.4413C109.045 27.3672 109.976 28.0599 111.05 28.4182C112.652 28.9622 114.374 29.0504 116.023 28.6733C117.02 28.4575 117.978 28.0891 118.863 27.5812C119.094 27.4457 119.333 27.2942 119.556 27.1348L119.739 26.9993L120.001 26.784C120.176 26.6326 120.351 26.4811 120.51 26.3137C121.127 25.6731 121.661 24.9581 122.102 24.1853L122.301 23.8665C121.684 23.2343 121.022 22.6482 120.319 22.1128C120.089 22.041 119.898 21.9055 119.707 21.7939Z" fill="#A28A4A"/>
<path d="M74.5134 15.8632C74.8896 16.0623 75.2952 16.1995 75.7148 16.2698C75.3937 16.0384 75.1 15.771 74.8396 15.4726C74.1987 14.6885 73.8152 13.7253 73.7416 12.7145C73.6528 11.2437 73.8556 9.76988 74.3383 8.37802C74.6024 7.55558 74.9324 6.75583 75.325 5.98658L75.4761 5.69164C75.4761 5.63584 75.4761 5.65179 75.5159 5.64382L75.6034 5.7873L75.7864 6.07428C76.2401 6.78443 76.6289 7.53413 76.9481 8.31426C77.4991 9.59687 77.6597 11.014 77.4096 12.3877C77.1931 13.4013 76.8028 14.3695 76.2559 15.2494C75.866 15.9111 75.6034 16.2698 75.6034 16.2698C75.9683 16.0781 76.3169 15.8568 76.6458 15.6082C77.6062 14.9167 78.4023 14.0211 78.977 12.9855C79.387 12.2215 79.6565 11.3899 79.7727 10.5303C79.9052 9.53212 79.8675 8.51862 79.6613 7.53305C79.4416 6.48151 79.0859 5.4632 78.6031 4.5039L78.4121 4.1372L78.3166 3.96182L78.1496 3.66688C77.9109 3.26034 77.6244 2.8219 77.3539 2.41535C76.781 1.61821 76.1843 0.821073 75.5637 0.0239258L75.325 0.279007C74.6639 0.927084 74.0447 1.61668 73.4711 2.34361C73.1734 2.74756 72.9074 3.17399 72.6754 3.61905C72.564 3.83428 72.4447 4.08938 72.3731 4.24881L72.206 4.64738C71.8164 5.64766 71.5492 6.69156 71.4103 7.75625C71.1154 9.57607 71.3104 11.4418 71.9752 13.1609C72.4656 14.3406 73.3678 15.3012 74.5134 15.8632Z" fill="#A28A4A"/>
<path d="M75.4363 10.3948C75.1304 10.3948 74.8369 10.5165 74.6206 10.7333C74.4042 10.9501 74.2827 11.2441 74.2827 11.5506C74.2827 11.8572 74.4042 12.1512 74.6206 12.368C74.8369 12.5847 75.1304 12.7065 75.4363 12.7065C75.7423 12.7065 76.0358 12.5847 76.2521 12.368C76.4685 12.1512 76.5901 11.8572 76.5901 11.5506C76.5901 11.2441 76.4685 10.9501 76.2521 10.7333C76.0358 10.5165 75.7423 10.3948 75.4363 10.3948Z" fill="#A28A4A"/>
<path d="M52.8237 19.6577C52.5177 19.6598 52.2246 19.782 52.0074 19.9981C51.7902 20.2142 51.6662 20.507 51.6621 20.8136V20.981C51.6862 21.272 51.8186 21.5433 52.033 21.7411C52.2475 21.9388 52.5283 22.0486 52.8198 22.0486C53.1112 22.0486 53.392 21.9388 53.6065 21.7411C53.8209 21.5433 53.9533 21.272 53.9774 20.981V20.8136C53.9754 20.5077 53.8531 20.2149 53.6372 19.9986C53.4213 19.7823 53.1291 19.6598 52.8237 19.6577Z" fill="#A28A4A"/>
<path d="M5.10812 18.3345C4.80214 18.3345 4.5087 18.4563 4.29234 18.673C4.07597 18.8898 3.95442 19.1838 3.95442 19.4903C3.95442 19.7969 4.07597 20.0909 4.29234 20.3077C4.5087 20.5244 4.80214 20.6462 5.10812 20.6462C5.41411 20.6462 5.70756 20.5244 5.92392 20.3077C6.14029 20.0909 6.26183 19.7969 6.26183 19.4903C6.26183 19.1838 6.14029 18.8898 5.92392 18.673C5.70756 18.4563 5.41411 18.3345 5.10812 18.3345Z" fill="#A28A4A"/>
<path d="M39.1384 23.2927C38.848 23.3169 38.5772 23.4495 38.3798 23.6644C38.1824 23.8792 38.0728 24.1606 38.0728 24.4526C38.0728 24.7446 38.1824 25.0259 38.3798 25.2408C38.5772 25.4556 38.848 25.5883 39.1384 25.6124C39.4289 25.5883 39.6997 25.4556 39.8971 25.2408C40.0945 25.0259 40.204 24.7446 40.204 24.4526C40.204 24.1606 40.0945 23.8792 39.8971 23.6644C39.6997 23.4495 39.4289 23.3169 39.1384 23.2927Z" fill="#A28A4A"/>
<path d="M43.5782 15.0262C43.3672 15.0262 43.1648 15.1102 43.0156 15.2597C42.8664 15.4092 42.7825 15.612 42.7825 15.8234V15.9908C42.7825 16.2107 42.8697 16.4215 43.0249 16.577C43.1801 16.7325 43.3906 16.8198 43.61 16.8198C43.8295 16.8198 44.04 16.7325 44.1951 16.577C44.3503 16.4215 44.4375 16.2107 44.4375 15.9908V15.8234C44.4272 15.6042 44.3313 15.3978 44.1706 15.2487C44.0099 15.0996 43.7971 15.0197 43.5782 15.0262Z" fill="#A28A4A"/>
<path d="M51.9963 12.2124H51.869C51.6505 12.2124 51.4411 12.2993 51.2866 12.4541C51.1322 12.6088 51.0454 12.8186 51.0454 13.0375C51.0454 13.2563 51.1322 13.4661 51.2866 13.6208C51.4411 13.7756 51.6505 13.8625 51.869 13.8625H52.0361C52.2545 13.8625 52.4639 13.7756 52.6183 13.6208C52.7728 13.4661 52.8595 13.2563 52.8595 13.0375C52.8595 12.8186 52.7728 12.6088 52.6183 12.4541C52.4639 12.2993 52.2545 12.2124 52.0361 12.2124H51.9963Z" fill="#A28A4A"/>
<path d="M57.9398 15.5283C57.7214 15.5283 57.512 15.6152 57.3575 15.77C57.2031 15.9247 57.1163 16.1346 57.1163 16.3534C57.1163 16.5722 57.2031 16.782 57.3575 16.9368C57.512 17.0915 57.7214 17.1784 57.9398 17.1784C58.1582 17.1784 58.3677 17.0915 58.5221 16.9368C58.6766 16.782 58.7633 16.5722 58.7633 16.3534C58.7633 16.1346 58.6766 15.9247 58.5221 15.77C58.3677 15.6152 58.1582 15.5283 57.9398 15.5283Z" fill="#A28A4A"/>
<path d="M56.6429 22.4636C56.4234 22.4636 56.213 22.551 56.0578 22.7064C55.9026 22.8619 55.8154 23.0728 55.8154 23.2926C55.8154 23.5125 55.9026 23.7234 56.0578 23.8789C56.213 24.0343 56.4234 24.1217 56.6429 24.1217C56.8624 24.1217 57.0729 24.0343 57.228 23.8789C57.3832 23.7234 57.4704 23.5125 57.4704 23.2926C57.4704 23.0728 57.3832 22.8619 57.228 22.7064C57.0729 22.551 56.8624 22.4636 56.6429 22.4636Z" fill="#A28A4A"/>
<path d="M98.3991 19.6577C98.7044 19.6598 98.9966 19.7823 99.2125 19.9986C99.4285 20.2149 99.5507 20.5077 99.5527 20.8136V20.981C99.5527 21.2875 99.4312 21.5815 99.2148 21.7983C98.9985 22.0151 98.705 22.1369 98.3991 22.1369C98.0931 22.1369 97.7996 22.0151 97.5832 21.7983C97.3669 21.5815 97.2453 21.2875 97.2453 20.981V20.8136C97.2474 20.5077 97.3696 20.2149 97.5855 19.9986C97.8015 19.7823 98.0937 19.6598 98.3991 19.6577Z" fill="#A28A4A"/>
<path d="M146.107 18.3345C146.413 18.3345 146.706 18.4563 146.922 18.673C147.139 18.8898 147.26 19.1838 147.26 19.4903C147.26 19.7969 147.139 20.0909 146.922 20.3077C146.706 20.5244 146.413 20.6462 146.107 20.6462C145.801 20.6462 145.507 20.5244 145.291 20.3077C145.075 20.0909 144.953 19.7969 144.953 19.4903C144.953 19.1838 145.075 18.8898 145.291 18.673C145.507 18.4563 145.801 18.3345 146.107 18.3345Z" fill="#A28A4A"/>
<path d="M112.1 23.2927C112.391 23.3169 112.662 23.4495 112.859 23.6644C113.056 23.8792 113.166 24.1606 113.166 24.4526C113.166 24.7446 113.056 25.0259 112.859 25.2408C112.662 25.4556 112.391 25.5883 112.1 25.6124C111.81 25.5883 111.539 25.4556 111.342 25.2408C111.144 25.0259 111.035 24.7446 111.035 24.4526C111.035 24.1606 111.144 23.8792 111.342 23.6644C111.539 23.4495 111.81 23.3169 112.1 23.2927Z" fill="#A28A4A"/>
<path d="M107.645 15.0261C107.856 15.0261 108.058 15.1101 108.207 15.2596C108.356 15.4091 108.44 15.6119 108.44 15.8233V15.9907C108.44 16.2095 108.353 16.4194 108.199 16.5741C108.045 16.7288 107.835 16.8157 107.617 16.8157C107.398 16.8157 107.189 16.7288 107.034 16.5741C106.88 16.4194 106.793 16.2095 106.793 15.9907V15.8233C106.793 15.7137 106.815 15.6053 106.859 15.5048C106.902 15.4042 106.966 15.3137 107.046 15.2389C107.126 15.1641 107.22 15.1066 107.323 15.07C107.426 15.0334 107.536 15.0185 107.645 15.0261Z" fill="#A28A4A"/>
<path d="M99.2265 12.2124H99.3857C99.6041 12.2124 99.8135 12.2993 99.968 12.4541C100.122 12.6088 100.209 12.8186 100.209 13.0375C100.209 13.2563 100.122 13.4661 99.968 13.6208C99.8135 13.7756 99.6041 13.8625 99.3857 13.8625H99.2265C99.0081 13.8625 98.7987 13.7756 98.6442 13.6208C98.4898 13.4661 98.403 13.2563 98.403 13.0375C98.403 12.8186 98.4898 12.6088 98.6442 12.4541C98.7987 12.2993 99.0081 12.2124 99.2265 12.2124Z" fill="#A28A4A"/>
<path d="M93.283 15.5283C93.5014 15.5283 93.7108 15.6152 93.8653 15.77C94.0197 15.9247 94.1065 16.1346 94.1065 16.3534C94.1065 16.5722 94.0197 16.782 93.8653 16.9368C93.7108 17.0915 93.5014 17.1784 93.283 17.1784C93.0645 17.1784 92.8551 17.0915 92.7007 16.9368C92.5462 16.782 92.4595 16.5722 92.4595 16.3534C92.4595 16.1346 92.5462 15.9247 92.7007 15.77C92.8551 15.6152 93.0645 15.5283 93.283 15.5283Z" fill="#A28A4A"/>
<path d="M94.6037 22.4636C94.8232 22.4636 95.0337 22.551 95.1889 22.7064C95.3441 22.8619 95.4312 23.0728 95.4312 23.2926C95.4312 23.5125 95.3441 23.7234 95.1889 23.8789C95.0337 24.0343 94.8232 24.1217 94.6037 24.1217C94.3843 24.1217 94.1738 24.0343 94.0186 23.8789C93.8635 23.7234 93.7763 23.5125 93.7763 23.2926C93.7763 23.0728 93.8635 22.8619 94.0186 22.7064C94.1738 22.551 94.3843 22.4636 94.6037 22.4636Z" fill="#A28A4A"/>
<path d="M75.4363 18.8286C75.2179 18.8286 75.0085 18.9155 74.8541 19.0703C74.6996 19.225 74.6128 19.4348 74.6128 19.6536C74.6128 19.8725 74.6996 20.0823 74.8541 20.237C75.0085 20.3918 75.2179 20.4787 75.4363 20.4787C75.6548 20.4787 75.8642 20.3918 76.0187 20.237C76.1731 20.0823 76.2598 19.8725 76.2598 19.6536C76.2598 19.4348 76.1731 19.225 76.0187 19.0703C75.8642 18.9155 75.6548 18.8286 75.4363 18.8286Z" fill="#A28A4A"/>
</g>
<defs>
<clipPath id="clip0_204_718">
<rect width="151" height="38" fill="white"/>
</clipPath>
</defs>
</svg>
