<svg width="43" height="43" viewBox="0 0 43 43" fill="none" xmlns="http://www.w3.org/2000/svg">
<g clip-path="url(#clip0_173_116)">
<path d="M5.07596 35.4869C4.11722 36.048 3.27066 36.7841 2.57959 37.6575C2.1572 38.1757 1.79041 38.7376 1.48534 39.3335C1.32251 39.6567 1.18345 39.9914 1.06928 40.335L1.01935 40.4942L0.952781 40.7373C0.915336 40.9007 0.882059 41.0641 0.857095 41.2275C0.815489 41.546 0.794681 41.8519 0.761396 42.1829C1.08592 42.2122 1.37716 42.2457 1.69337 42.2625C1.85547 42.2729 2.01807 42.2729 2.18017 42.2625L2.42981 42.2332L2.55462 42.2122H2.62951C2.99492 42.1372 3.35181 42.0248 3.69464 41.877C4.3149 41.6052 4.89574 41.25 5.4213 40.8211C6.28927 40.1235 7.0226 39.2713 7.58481 38.3069C7.95883 37.6652 8.22984 36.968 8.38782 36.2412C8.4461 35.9807 8.48228 35.7158 8.49599 35.4492C8.15971 36.3535 7.66038 37.1874 7.02314 37.9089C6.36028 38.6727 5.59252 39.3372 4.74311 39.8825C4.26168 40.194 3.74836 40.4525 3.21201 40.6535C2.94169 40.7521 2.66323 40.8264 2.37988 40.8755H2.32995L2.35492 40.7917C2.4412 40.506 2.54543 40.2261 2.66697 39.9537C2.90416 39.416 3.18237 38.8977 3.49909 38.4033C4.04164 37.5488 4.70454 36.7781 5.46706 36.1154C5.98066 35.6564 6.58056 35.3059 7.23117 35.0847C7.47817 35.0065 7.73399 34.96 7.99256 34.9464C7.73104 34.8842 7.462 34.8602 7.19371 34.8751C6.4502 34.9107 5.72513 35.1201 5.07596 35.4869Z" fill="#F2C777"/>
<path d="M8.43357 34.2801C8.44517 34.4104 8.50476 34.5316 8.60062 34.6199C8.69648 34.7081 8.82167 34.7571 8.95156 34.7571C9.08145 34.7571 9.20664 34.7081 9.3025 34.6199C9.39836 34.5316 9.45795 34.4104 9.46956 34.2801C9.45795 34.1498 9.39836 34.0286 9.3025 33.9403C9.20664 33.8521 9.08145 33.8031 8.95156 33.8031C8.82167 33.8031 8.69648 33.8521 8.60062 33.9403C8.50476 34.0286 8.44517 34.1498 8.43357 34.2801Z" fill="#F2C777"/>
<path d="M6.08282 37.9759C6.08282 37.7815 6.00611 37.5949 5.86956 37.4574C5.73302 37.3199 5.54782 37.2427 5.35472 37.2427C5.16161 37.2427 4.97642 37.3199 4.83987 37.4574C4.70332 37.5949 4.62661 37.7815 4.62661 37.9759C4.62661 38.1704 4.70332 38.3569 4.83987 38.4945C4.97642 38.632 5.16161 38.7092 5.35472 38.7092C5.54782 38.7092 5.73302 38.632 5.86956 38.4945C6.00611 38.3569 6.08282 38.1704 6.08282 37.9759Z" fill="#F2C777"/>
<path d="M11.9992 30.1654L11.8827 30.1863L11.7288 30.224C11.6234 30.252 11.5235 30.2855 11.4292 30.3246C11.2398 30.4004 11.063 30.505 10.905 30.6347C10.763 30.7484 10.6467 30.8912 10.5638 31.0537C10.4558 31.2871 10.4351 31.552 10.5056 31.7996C10.5268 31.8805 10.5561 31.9591 10.5929 32.0342C10.6062 31.955 10.6242 31.8766 10.647 31.7996C10.6906 31.6116 10.7909 31.4418 10.9341 31.3135C11.1405 31.1596 11.3855 31.0668 11.6414 31.0453C11.7163 31.0453 11.7995 31.0244 11.8786 31.0202H12.0075H12.0367C12.0398 31.0183 12.0434 31.0174 12.0471 31.0174C12.0507 31.0174 12.0543 31.0183 12.0575 31.0202C12.0532 31.0519 12.0448 31.0829 12.0325 31.1124L11.9951 31.2381C11.9757 31.318 11.9507 31.3964 11.9202 31.4727C11.8454 31.7245 11.7011 31.9498 11.5041 32.1222C11.3468 32.2422 11.1648 32.3252 10.9715 32.3652C10.8218 32.3988 10.7302 32.4113 10.7302 32.4113C10.8047 32.4508 10.8827 32.4831 10.9632 32.5077C11.1677 32.5813 11.3877 32.5999 11.6015 32.5617C11.8153 32.5235 12.0155 32.4298 12.1823 32.2898C12.3442 32.1609 12.4847 32.0067 12.5984 31.8331C12.6573 31.7439 12.7115 31.6516 12.7606 31.5565L12.8272 31.4183C12.8521 31.3638 12.8646 31.3428 12.9062 31.2339C13.0394 30.8693 13.1684 30.4755 13.3015 30.0732V30.0439C12.8854 30.0439 12.5235 30.0439 12.1407 30.1067L11.9992 30.1654Z" fill="#F2C777"/>
<path d="M8.73314 30.4125L8.69153 30.5047C8.67073 30.5466 8.65825 30.5885 8.6416 30.6304C8.61092 30.7152 8.5859 30.802 8.56672 30.8902C8.52282 31.0611 8.50735 31.2381 8.52094 31.414C8.53037 31.5744 8.5759 31.7306 8.65409 31.8707C8.76037 32.0654 8.93343 32.2143 9.14088 32.2898C9.20679 32.315 9.27511 32.3332 9.34475 32.3442C9.29549 32.2958 9.24962 32.244 9.20746 32.1892C9.10089 32.065 9.0329 31.912 9.01191 31.7492C9.0079 31.5281 9.06556 31.3104 9.17833 31.1207C9.20751 31.0584 9.24087 30.9982 9.27818 30.9405L9.33643 30.8441C9.33643 30.819 9.33643 30.8441 9.33643 30.8441L9.39051 30.907L9.46125 30.995L9.58191 31.1626C9.72078 31.3383 9.80605 31.5508 9.82738 31.7744C9.83293 31.9443 9.80021 32.1134 9.73168 32.2688C9.68176 32.3903 9.64432 32.4615 9.64848 32.4615C9.65264 32.4615 9.71505 32.428 9.82738 32.3442C9.97731 32.2352 10.0972 32.0895 10.1758 31.9209C10.2544 31.7523 10.2892 31.5663 10.2767 31.3805C10.2657 31.2039 10.2278 31.0301 10.1644 30.8651C10.1311 30.7813 10.0937 30.7017 10.0521 30.6179L9.98964 30.5005C9.96052 30.4544 9.9522 30.4377 9.89811 30.3581C9.71504 30.0857 9.50702 29.7966 9.29482 29.52C9.10334 29.7892 8.92692 30.069 8.76642 30.3581L8.73314 30.4125Z" fill="#F2C777"/>
<path d="M11.009 33.1321C10.9652 33.1872 10.9262 33.2461 10.8925 33.308C10.953 33.2759 11.0155 33.2479 11.0797 33.2242C11.2369 33.1605 11.4055 33.1305 11.5748 33.1362C11.7915 33.1579 11.9978 33.2407 12.1698 33.3751L12.3321 33.4966L12.4153 33.5636C12.4403 33.5636 12.4902 33.6181 12.4735 33.6139C12.4569 33.6097 12.4735 33.6139 12.4735 33.6139L12.382 33.6684C12.3213 33.7025 12.2588 33.7333 12.1948 33.7606C12.005 33.8698 11.7892 33.9249 11.5707 33.9198C11.4173 33.8972 11.2732 33.8319 11.1546 33.7313C11.1022 33.691 11.0535 33.6462 11.009 33.5972C11.0163 33.6644 11.0317 33.7306 11.0548 33.7941C11.1196 33.9932 11.2562 34.1607 11.4375 34.2634C11.5751 34.3422 11.7289 34.3881 11.8869 34.3975C12.06 34.4083 12.2337 34.3942 12.4028 34.3556C12.4903 34.3377 12.5765 34.3139 12.6608 34.2844L12.7856 34.2383L12.8813 34.1964L12.9895 34.1419C13.2849 33.9952 13.5553 33.8192 13.8465 33.6391H13.8257C13.547 33.4337 13.2682 33.2201 12.9936 33.0483L12.8521 32.9644L12.7398 32.8974L12.4985 32.7926C12.3375 32.7288 12.1677 32.6906 11.9951 32.6795C11.8121 32.6669 11.6287 32.6984 11.4602 32.7712C11.2916 32.8441 11.1427 32.9563 11.0256 33.0985L11.009 33.1321Z" fill="#F2C777"/>
<path d="M3.6447 26.9222L3.53653 27.0311L3.45331 27.1233C3.16059 27.445 2.90129 27.796 2.67945 28.1709C2.28486 28.807 2.03217 29.5218 1.93886 30.266C1.8816 30.7529 1.9169 31.2464 2.04287 31.72C2.08815 31.887 2.14801 32.0497 2.22178 32.2061C2.22178 32.2061 2.22178 32.0217 2.2509 31.7032C2.29972 31.2695 2.41334 30.8457 2.58791 30.4462C2.84038 29.8693 3.18157 29.3362 3.59894 28.8665C3.84444 28.589 4.10414 28.3247 4.37697 28.0745L4.40193 28.0536C4.40193 28.0536 4.40193 28.1918 4.40193 28.2714C4.42428 28.6351 4.41034 29.0001 4.36033 29.3609C4.27148 29.9761 4.01839 30.5554 3.62807 31.037C3.33888 31.3869 2.99618 31.6882 2.61287 31.9295C2.33411 32.1139 2.16352 32.2019 2.16352 32.2019C2.34259 32.1919 2.52063 32.1681 2.69608 32.1306C3.19304 32.0358 3.66576 31.8405 4.08572 31.5566C4.74793 31.0958 5.23961 30.4267 5.4837 29.6542C5.6273 29.204 5.70715 28.7357 5.72086 28.2631C5.72086 28.129 5.72086 28.0577 5.72086 27.844C5.72086 27.6303 5.6834 27.425 5.65012 27.1946C5.61789 26.9895 5.57343 26.7866 5.51698 26.587L5.40464 25.9752L5.28398 25.5939C4.95529 25.8285 4.65157 26.0339 4.33536 26.2811C4.18142 26.4068 4.02332 26.5409 3.86938 26.7001L3.6447 26.9222Z" fill="#F2C777"/>
<path d="M3.911 30.203C3.87518 30.075 3.79229 29.9654 3.67918 29.8966C3.56607 29.8279 3.43121 29.805 3.30198 29.8328C3.17276 29.8605 3.05886 29.9367 2.98342 30.046C2.90798 30.1552 2.87665 30.2893 2.8958 30.4209C2.93161 30.549 3.0145 30.6586 3.12761 30.7273C3.24072 30.7961 3.37558 30.819 3.50481 30.7912C3.63404 30.7635 3.74793 30.6873 3.82337 30.578C3.89881 30.4688 3.93014 30.3347 3.911 30.203Z" fill="#F2C777"/>
<path d="M2.07615 24.651C2.07615 24.7899 2.13094 24.9232 2.22848 25.0214C2.32601 25.1196 2.45829 25.1748 2.59623 25.1748C2.73416 25.1748 2.86644 25.1196 2.96397 25.0214C3.06151 24.9232 3.1163 24.7899 3.1163 24.651C3.1163 24.5121 3.06151 24.3789 2.96397 24.2807C2.86644 24.1824 2.73416 24.1273 2.59623 24.1273C2.45829 24.1273 2.32601 24.1824 2.22848 24.2807C2.13094 24.3789 2.07615 24.5121 2.07615 24.651Z" fill="#F2C777"/>
<path d="M6.34077 22.9582C6.32691 22.7739 6.2444 22.6016 6.10977 22.4759C5.97515 22.3502 5.79833 22.2803 5.61475 22.2803C5.43116 22.2803 5.25435 22.3502 5.11972 22.4759C4.9851 22.6016 4.90259 22.7739 4.88872 22.9582C4.90259 23.1426 4.9851 23.3149 5.11972 23.4406C5.25435 23.5663 5.43116 23.6361 5.61475 23.6361C5.79833 23.6361 5.97515 23.5663 6.10977 23.4406C6.2444 23.3149 6.32691 23.1426 6.34077 22.9582Z" fill="#F2C777"/>
<path d="M4.45186 19.9748C4.03173 19.9991 3.61428 20.058 3.20368 20.1508C2.54798 20.3595 1.93392 20.6829 1.38966 21.1062C1.21029 21.2721 1.04981 21.4576 0.911188 21.6593C0.592694 22.1212 0.4109 22.6646 0.386946 23.2264C0.359414 23.6901 0.430334 24.1544 0.594977 24.5882C0.729973 24.9473 0.953306 25.2659 1.24403 25.5143C1.63424 25.8374 2.12894 26.0045 2.63368 25.9836C2.79941 25.9778 2.96402 25.9539 3.12463 25.9124C2.95866 25.93 2.79132 25.93 2.62536 25.9124C2.15011 25.8747 1.70551 25.6612 1.37717 25.3132C1.13624 25.0213 0.96516 24.6775 0.877146 24.3084C0.789133 23.9393 0.786543 23.5548 0.869579 23.1845C0.947609 22.717 1.15531 22.2812 1.46871 21.9275C1.52805 21.8642 1.59054 21.8041 1.65593 21.7473C2.41556 21.1657 3.35287 20.8693 4.30624 20.9092C4.64135 20.8813 4.97848 20.9268 5.29449 21.0425C5.61049 21.1583 5.89789 21.3415 6.13692 21.5797C6.68612 22.1789 7.99255 23.1594 7.90934 26.6875C7.83861 26.7294 7.77204 26.7755 7.70131 26.8258L7.53905 26.9599C7.49744 27.0018 7.45584 27.0353 7.42255 27.073C7.42255 26.9767 7.42255 26.8845 7.42255 26.7881C7.37794 26.3607 7.24318 25.9478 7.02729 25.5771C6.84088 25.2356 6.58068 24.9406 6.2659 24.714C6.00133 24.5191 5.67779 24.4228 5.35056 24.4416C5.23498 24.4517 5.1222 24.483 5.01772 24.5338C5.1216 24.5316 5.22526 24.5443 5.3256 24.5715C5.52193 24.6651 5.68996 24.8098 5.81239 24.9905C6.22846 25.4514 6.5197 26.2853 6.54882 27.5382L6.4448 28.9377C6.4448 29.0047 6.41985 29.0718 6.41153 29.1304C6.34912 29.6752 6.22429 30.5509 6.22013 30.5467C6.4368 30.0905 6.68137 29.6483 6.9524 29.2226C7.16875 28.9125 7.45167 28.5354 7.78452 28.1374C7.65429 28.7879 7.43442 29.4169 7.1313 30.0062C6.93992 30.3749 6.81926 30.8442 6.59875 31.2172C7.52345 30.0957 8.18353 28.7777 8.52928 27.3622C8.59169 27.3119 8.65826 27.2574 8.72483 27.2113C8.88039 27.1037 9.0415 27.0044 9.20746 26.9138C9.49154 26.7532 9.80376 26.6493 10.127 26.6079C10.3523 26.5835 10.5797 26.6273 10.7802 26.7336C10.8574 26.7761 10.9299 26.8267 10.9965 26.8845C10.9883 26.8031 10.9627 26.7245 10.9216 26.654C10.8477 26.5325 10.7483 26.4287 10.6305 26.3498C10.5126 26.271 10.3791 26.2189 10.2393 26.1973C9.75824 26.1113 9.26349 26.1473 8.79972 26.302L8.71235 26.3356C8.73731 26.1386 8.75395 25.9417 8.76227 25.7531C8.99943 20.9469 5.18829 19.9748 4.45186 19.9748Z" fill="#F2C777"/>
<path d="M2.21761 15.3613C2.60738 13.9098 2.72311 12.3975 2.55878 10.9029C2.53798 10.7185 2.51302 10.5342 2.48389 10.354C2.57688 10.4867 2.65897 10.6269 2.72937 10.773C2.94899 11.2569 3.08949 11.7734 3.14543 12.3024C3.29314 13.7574 3.15171 15.2274 2.72937 16.6268C2.61703 17.0458 2.46725 17.4271 2.31331 17.8838C2.15936 18.3406 1.99294 18.8015 1.85564 19.3043C1.72669 19.7662 1.63897 20.2388 1.59351 20.7164C1.99485 20.4539 2.42484 20.2388 2.87499 20.0753C2.89995 19.8867 2.92908 19.7024 2.96652 19.518C3.06222 19.0487 3.17455 18.5878 3.29937 18.1394C3.42419 17.6911 3.55316 17.2176 3.63638 16.7734C3.95698 15.254 3.95698 13.6836 3.63638 12.1642C3.50804 11.6124 3.29015 11.0857 2.99149 10.6054C2.84071 10.3693 2.66187 10.1526 2.45893 9.96012C2.23842 8.74076 1.88893 7.61778 1.62681 6.60794C1.46244 6.00711 1.33323 5.39709 1.23986 4.78101C1.16021 4.24726 1.13235 3.70697 1.15666 3.16778C1.19304 2.37615 1.33293 1.59281 1.57272 0.838017C1.7433 0.301671 1.86812 -2.62147e-05 1.86812 -2.62147e-05C1.30673 0.96155 0.933848 2.02272 0.769708 3.12587C0.693991 3.6896 0.675878 4.25965 0.715631 4.8271C0.762801 5.47434 0.857362 6.11719 0.99855 6.75041C1.1733 7.58845 1.41461 8.47259 1.5852 9.38606H1.55607V9.43634H1.5852C1.68505 9.93916 1.77242 10.4546 1.83067 10.9825C1.98517 12.3926 1.91494 13.8185 1.62264 15.2063C1.3522 16.4968 0.97774 17.6492 0.757227 18.6548C0.569397 19.4454 0.474442 20.2555 0.474308 21.0684C0.474146 21.3642 0.495 21.6597 0.536715 21.9525C0.561944 20.8618 0.76144 19.7822 1.12753 18.7554C1.40213 17.8042 1.86811 16.6854 2.21761 15.3613Z" fill="#F2C777"/>
<path d="M4.32704 14.6867C4.44938 14.9404 4.51608 15.2177 4.52259 15.4996C4.53345 15.8879 4.49854 16.2761 4.41857 16.6561C4.25215 17.5277 3.87769 18.5501 3.56148 19.8365C3.56148 19.8365 3.56148 19.8365 3.56148 19.8658C3.7067 19.8291 3.85397 19.8011 4.00251 19.782H4.04412C4.18905 19.7637 4.33491 19.7539 4.48098 19.7527C4.63908 18.5878 4.85127 17.5445 4.89704 16.6687C4.92497 16.2478 4.89698 15.8251 4.81382 15.4116C4.75337 15.1082 4.62691 14.822 4.44353 14.5736C4.33254 14.4299 4.19903 14.3053 4.04827 14.2049C3.99747 14.1709 3.94467 14.1401 3.89016 14.1127C3.93801 14.1507 3.98385 14.1913 4.02747 14.2342C4.15112 14.3676 4.25231 14.5205 4.32704 14.6867Z" fill="#F2C777"/>
<path d="M4.15646 23.3772C4.36071 23.552 4.59097 23.6934 4.83881 23.7963C4.68014 23.7131 4.54818 23.5862 4.45832 23.4304C4.36846 23.2746 4.32439 23.0963 4.33121 22.9163C4.32658 22.7702 4.35486 22.6249 4.41395 22.4914C4.47303 22.3579 4.56138 22.2395 4.67237 22.1453C4.60165 22.0386 4.54827 21.9212 4.51427 21.7975C4.45986 21.6092 4.42775 21.4151 4.41858 21.2193C4.04257 21.1793 3.66243 21.2135 3.29938 21.3198C3.4242 21.8813 3.7404 23.042 4.15646 23.3772Z" fill="#F2C777"/>
<path d="M1.80154 22.0909C1.93713 22.319 2.14106 22.498 2.38402 22.6021C2.50922 22.6519 2.64098 22.683 2.77512 22.6943C2.8924 22.6912 3.00901 22.7131 3.11729 22.7586C3.22556 22.8041 3.32306 22.8721 3.40338 22.9583L2.94571 21.3408C2.52244 21.5116 2.12366 21.7385 1.75993 22.0155C1.77038 22.0424 1.78438 22.0677 1.80154 22.0909Z" fill="#F2C777"/>
<path d="M7.90101 17.7456C7.90101 17.7456 7.90101 17.7456 7.90101 17.7666V17.8755L7.87605 18.0892C7.85245 18.3142 7.76588 18.5278 7.62641 18.7052C7.51303 18.8238 7.36888 18.908 7.21035 18.9482C7.14171 18.9645 7.07227 18.977 7.00232 18.9859C7.12923 19.0542 7.2693 19.094 7.41292 19.1027C7.55654 19.1114 7.70033 19.0887 7.83444 19.0362C7.98293 18.9677 8.11493 18.8676 8.22138 18.7429C8.3357 18.6065 8.42962 18.4541 8.50014 18.2903C8.53681 18.2061 8.5674 18.1192 8.59168 18.0305C8.60853 17.9872 8.62107 17.9423 8.62912 17.8965C8.63809 17.862 8.64503 17.827 8.64992 17.7917L8.67073 17.6702C8.71566 17.331 8.74343 16.9898 8.75394 16.6478H8.72897C8.37532 16.7567 8.03415 16.8615 7.71378 16.9704L7.55152 17.0333L7.43086 17.0919C7.3474 17.1309 7.26677 17.1757 7.18955 17.226C7.03257 17.3178 6.89194 17.4353 6.77349 17.5738C6.66916 17.696 6.59122 17.8387 6.54465 17.9928C6.48577 18.2024 6.48577 18.4243 6.54465 18.6339C6.59041 18.7722 6.62786 18.8393 6.6237 18.8434C6.61954 18.8476 6.62371 18.7638 6.66947 18.6297C6.71026 18.4316 6.80692 18.2495 6.94787 18.1053C7.08883 17.9612 7.26809 17.861 7.46415 17.8168L7.66802 17.7582L7.7762 17.7288C7.80949 17.7288 7.87189 17.7037 7.85941 17.7288C7.84692 17.754 7.85941 17.7288 7.85941 17.7288C7.85941 17.7288 7.85941 17.7288 7.88022 17.7288L7.90101 17.7456Z" fill="#F2C777"/>
<path d="M6.84838 20.2052C6.80101 20.1681 6.75777 20.1259 6.7194 20.0795C6.72632 20.1423 6.74028 20.2042 6.76101 20.2638C6.82147 20.4454 6.94187 20.6007 7.10217 20.7038C7.22203 20.7736 7.35544 20.8165 7.49327 20.8295C7.64484 20.8441 7.79772 20.8356 7.94678 20.8044L8.17146 20.7415L8.2838 20.6996C8.31077 20.6866 8.33856 20.6754 8.36701 20.6661L8.4627 20.62C8.72066 20.4901 8.95366 20.3309 9.20746 20.1716C8.95782 19.9789 8.7165 19.7903 8.4835 19.6227C8.44483 19.5926 8.40455 19.5646 8.36284 19.5389L8.25883 19.4803L8.05079 19.3755C7.90877 19.3158 7.75875 19.2777 7.60562 19.2624C7.46466 19.2504 7.32279 19.269 7.18956 19.3168C7.02404 19.3838 6.88007 19.4954 6.77349 19.6395C6.73428 19.6879 6.69947 19.7398 6.66948 19.7945L6.8359 19.7233C6.96837 19.671 7.10972 19.6454 7.25196 19.6479C7.44516 19.6748 7.62687 19.7562 7.7762 19.8825L7.91766 19.9957L7.99255 20.0585L8.04248 20.1046L7.95927 20.1549L7.80117 20.2345C7.63484 20.3314 7.44375 20.3766 7.25196 20.3644C7.1037 20.3575 6.96183 20.3016 6.84838 20.2052Z" fill="#F2C777"/>
<path d="M5.65428 16.1114C5.49201 16.3628 5.33391 16.5975 5.20077 16.8531L5.15085 16.9495L5.11339 17.0333C5.09561 17.0684 5.08032 17.1049 5.06763 17.1422C5.04163 17.2164 5.01941 17.292 5.00106 17.3685C4.96343 17.5162 4.94801 17.6687 4.9553 17.821C4.9582 17.9583 4.99236 18.093 5.05515 18.2149C5.14455 18.3811 5.29325 18.5069 5.47121 18.5669C5.52574 18.59 5.58313 18.6055 5.6418 18.613C5.6017 18.5706 5.56418 18.5258 5.52945 18.4789C5.44089 18.3705 5.3872 18.2375 5.37551 18.0976C5.37625 17.9045 5.42795 17.715 5.5253 17.5487C5.55026 17.4984 5.57938 17.4481 5.61267 17.3936L5.6626 17.3098C5.6626 17.3098 5.69173 17.3391 5.70837 17.3601L5.76245 17.4355C5.79989 17.4858 5.83319 17.5361 5.86231 17.5822C5.97612 17.7358 6.04397 17.919 6.05786 18.1101C6.0583 18.2549 6.02705 18.398 5.96632 18.5292C5.92472 18.6381 5.89143 18.6968 5.89559 18.6968C5.94759 18.6665 5.99762 18.6329 6.04538 18.5962C6.18865 18.4871 6.30179 18.3428 6.37406 18.1772C6.42475 18.0437 6.44741 17.901 6.44063 17.7582C6.43656 17.6062 6.40702 17.456 6.35326 17.314C6.32919 17.2408 6.3 17.1694 6.26589 17.1003L6.21596 16.9956C6.19516 16.9578 6.18683 16.9411 6.14106 16.8698C5.99544 16.6352 5.82486 16.388 5.65428 16.1365V16.1114Z" fill="#F2C777"/>
<path d="M6.42815 19.4174C6.41654 19.2871 6.35695 19.1659 6.26109 19.0777C6.16523 18.9894 6.04004 18.9405 5.91015 18.9405C5.78026 18.9405 5.65507 18.9894 5.55921 19.0777C5.46335 19.1659 5.40376 19.2871 5.39215 19.4174C5.40376 19.5477 5.46335 19.6689 5.55921 19.7572C5.65507 19.8455 5.78026 19.8944 5.91015 19.8944C6.04004 19.8944 6.16523 19.8455 6.26109 19.7572C6.35695 19.6689 6.41654 19.5477 6.42815 19.4174Z" fill="#F2C777"/>
<path d="M0.674024 38.0053C0.748284 37.2695 0.970542 36.5567 1.32724 35.9102C1.51511 35.5755 1.7383 35.2622 1.99293 34.9758C2.2051 34.7343 2.43456 34.5088 2.67945 34.3012C2.80704 34.1922 2.94573 34.0875 3.09551 33.9869C3.46515 33.7203 3.85945 33.4901 4.27296 33.2997C4.66239 33.1216 5.06781 32.9813 5.4837 32.8807C6.19914 32.6924 6.93705 32.605 7.67634 32.6209C8.18225 32.6333 8.68267 32.7296 9.15752 32.9058C9.33601 32.9737 9.50859 33.0564 9.67345 33.153C9.53979 33.0111 9.392 32.8833 9.23242 32.7717C8.78085 32.4628 8.2733 32.2464 7.73875 32.1348C6.94496 31.9668 6.12779 31.9427 5.32559 32.0636C4.31581 32.1995 3.35521 32.5854 2.52966 33.1866C2.49221 33.2117 2.46309 33.241 2.42981 33.2662C2.15466 33.4671 1.89714 33.6914 1.66009 33.9366C1.20872 34.4089 0.843897 34.9579 0.582491 35.5582C0.249249 36.3236 0.106433 37.1592 0.166428 37.9927C0.209457 38.5337 0.324202 39.0664 0.507602 39.5767C0.571641 39.7606 0.645246 39.941 0.728115 40.1172C0.728115 40.1172 0.690659 39.9119 0.653214 39.5389C0.606027 39.0284 0.613008 38.5143 0.674024 38.0053Z" fill="#F2C777"/>
<path d="M2.18848 33.019C2.02895 32.5735 1.84563 32.1371 1.63928 31.7116C1.53527 31.4937 1.42709 31.2926 1.32307 31.0747C1.26898 30.9699 1.22322 30.8861 1.18161 30.7939C1.14001 30.7018 1.10255 30.6138 1.06927 30.5216C0.938597 30.1598 0.856056 29.7822 0.823793 29.3986C0.765034 28.7343 0.887309 28.0664 1.17745 27.4669C1.38595 27.0524 1.70603 26.7054 2.10111 26.4655C2.25339 26.3738 2.41525 26.2993 2.58374 26.2434C2.39941 26.2461 2.2162 26.2729 2.0387 26.323C1.53526 26.472 1.09124 26.7769 0.769703 27.1946C0.283942 27.8316 0.0128251 28.6082 -0.0041665 29.4112C-0.0232593 29.8873 0.0372153 30.3632 0.174737 30.8191C0.212183 30.9364 0.253796 31.0579 0.299563 31.1753C0.34533 31.2926 0.407737 31.4141 0.453504 31.5105L0.75307 32.1348C0.952779 32.5538 1.14417 32.9729 1.31059 33.3542C1.36884 33.4966 1.42292 33.6349 1.47285 33.7732C1.69992 33.5323 1.94775 33.3121 2.21344 33.1153C2.20928 33.0986 2.20096 33.0483 2.18848 33.019Z" fill="#F2C777"/>
<path d="M2.07615 35.2439L2.14273 35.4912C2.18648 35.6514 2.21435 35.8156 2.22593 35.9814C2.25256 36.2887 2.2315 36.5983 2.16352 36.8991C2.06485 37.3533 1.84306 37.771 1.5228 38.1059C1.39934 38.2343 1.25941 38.3457 1.10673 38.4369C1.28519 38.3944 1.4563 38.3252 1.61433 38.2316C2.0622 37.9564 2.41406 37.5479 2.62119 37.0625C2.85485 36.5268 2.94522 35.9388 2.88331 35.3571C2.85419 35.1476 2.82923 34.959 2.79595 34.7453C2.79595 34.6866 2.77514 34.628 2.76265 34.5693C2.51676 34.7759 2.28724 35.0014 2.07615 35.2439Z" fill="#F2C777"/>
<path d="M13.0019 39.0612C13.0691 39.0739 13.1332 39.0997 13.1905 39.1373C13.2478 39.1749 13.2971 39.2235 13.3358 39.2803C13.4138 39.3951 13.4434 39.5363 13.418 39.673C13.3926 39.8097 13.3144 39.9306 13.2005 40.0092C13.0865 40.0878 12.9463 40.1176 12.8105 40.092C12.6748 40.0665 12.5547 39.9876 12.4767 39.8729C12.3987 39.7582 12.3691 39.6169 12.3945 39.4802C12.4199 39.3436 12.4981 39.2226 12.612 39.144C12.726 39.0655 12.8662 39.0357 13.0019 39.0612Z" fill="#F2C777"/>
<path d="M18.548 40.7959C18.4101 40.7959 18.2778 40.7407 18.1803 40.6425C18.0828 40.5443 18.028 40.411 18.028 40.2721C18.028 40.1332 18.0828 40 18.1803 39.9018C18.2778 39.8035 18.4101 39.7483 18.548 39.7483C18.686 39.7483 18.8183 39.8035 18.9158 39.9018C19.0133 40 19.0681 40.1332 19.0681 40.2721C19.0681 40.411 19.0133 40.5443 18.9158 40.6425C18.8183 40.7407 18.686 40.7959 18.548 40.7959Z" fill="#F2C777"/>
<path d="M20.1291 36.4507C20.3129 36.4598 20.4865 36.5387 20.6149 36.6714C20.7433 36.8042 20.817 36.981 20.8212 37.1663C20.8255 37.3516 20.7598 37.5316 20.6376 37.6702C20.5154 37.8087 20.3456 37.8955 20.1624 37.9131C19.9786 37.904 19.805 37.8251 19.6766 37.6924C19.5482 37.5596 19.4744 37.3828 19.4702 37.1975C19.466 37.0122 19.5316 36.8322 19.6538 36.6936C19.7761 36.5551 19.9459 36.4683 20.1291 36.4507Z" fill="#F2C777"/>
<path d="M23.1331 38.286C23.1193 38.7086 23.0692 39.1292 22.9833 39.5431C22.7929 40.2079 22.4872 40.8335 22.0804 41.391C21.9198 41.5763 21.7382 41.7423 21.5395 41.8854C21.0883 42.2138 20.5553 42.4097 20.0001 42.4511C19.5404 42.4875 19.0783 42.4261 18.6438 42.2709C18.2846 42.1414 17.9639 41.9223 17.7118 41.634C17.3835 41.2452 17.2074 40.749 17.2167 40.2387C17.2187 40.0722 17.2382 39.9065 17.2749 39.7442C17.2556 39.9127 17.2556 40.0828 17.2749 40.2512C17.3227 40.7332 17.5449 41.1806 17.899 41.5083C18.3865 41.874 18.9851 42.0577 19.5923 42.0279C20.1995 41.9981 20.7776 41.7566 21.2275 41.3449C21.29 41.2847 21.3484 41.2203 21.4022 41.1521C21.9626 40.3719 22.2335 39.4185 22.1678 38.4578C22.1886 38.1192 22.1361 37.7801 22.014 37.464C21.8919 37.1478 21.703 36.8621 21.4605 36.6267C20.8572 36.0904 19.8545 34.7998 16.3596 34.9506C16.318 35.0219 16.2722 35.0931 16.2264 35.1601C16.1857 35.2202 16.1412 35.2775 16.0933 35.3319L15.9851 35.4493H16.268C16.6927 35.4858 17.1051 35.6114 17.4788 35.818C17.8227 35.998 18.1215 36.2545 18.3525 36.568C18.5519 36.829 18.6536 37.1525 18.6396 37.4815C18.6296 37.5979 18.603 37.7122 18.5605 37.8209C18.5595 37.7159 18.5441 37.6116 18.5148 37.5108C18.4607 37.3307 18.2901 37.2008 18.0987 37.029C17.6327 36.6099 16.8006 36.3418 15.5566 36.346L14.1711 36.4801L13.9797 36.5178C13.443 36.5932 12.5776 36.7398 12.5776 36.744C13.027 36.5144 13.462 36.2569 13.8798 35.973C14.1794 35.751 14.5497 35.4534 14.9325 35.1057C14.2925 35.257 13.6754 35.4938 13.0976 35.8096C12.7357 36.0107 12.2655 36.1448 11.9077 36.3711C13 35.4159 14.293 34.7225 15.6897 34.343C15.7355 34.276 15.7854 34.2089 15.8312 34.1377C15.9387 33.9816 16.0347 33.8178 16.1183 33.6475C16.27 33.3567 16.366 33.0397 16.4012 32.713C16.4203 32.4853 16.3695 32.2571 16.2555 32.0594C16.2134 31.9816 16.1632 31.9086 16.1058 31.8415C16.1855 31.852 16.2629 31.876 16.3346 31.9127C16.4581 31.9836 16.5644 32.0813 16.6457 32.1987C16.727 32.3161 16.7814 32.4503 16.8048 32.5915C16.9008 33.0735 16.8751 33.572 16.7299 34.0413C16.7227 34.0728 16.7129 34.1036 16.7007 34.1335C16.8963 34.1042 17.0877 34.0832 17.2791 34.0707C22.0763 33.7271 23.1164 37.5444 23.1331 38.286Z" fill="#F2C777"/>
<path d="M27.7597 40.4356C29.1889 40.0095 30.6852 39.8588 32.1699 39.9914C32.3571 39.9914 32.536 40.0291 32.7191 40.0543C32.585 39.9668 32.4461 39.887 32.303 39.8154C31.8172 39.6065 31.3021 39.475 30.7761 39.4257C29.3284 39.3143 27.8731 39.4937 26.4948 39.9537C26.0788 40.0794 25.7085 40.2386 25.2466 40.4188C24.7848 40.599 24.3438 40.7624 23.8487 40.9091C23.3939 41.0503 22.9274 41.1499 22.4549 41.2066C22.7056 40.7953 22.9094 40.3567 23.0623 39.8992C23.2454 39.8699 23.4284 39.8364 23.6074 39.7945C24.0775 39.6897 24.531 39.564 24.972 39.4299C25.4131 39.2958 25.879 39.1492 26.3159 39.0612C27.8182 38.7071 29.3779 38.6771 30.8926 38.9732C31.4424 39.0918 31.9694 39.2998 32.4528 39.5892C32.6892 39.7353 32.9072 39.9098 33.1019 40.1087C34.3168 40.3015 35.436 40.6283 36.4553 40.8797C37.0554 41.0332 37.6639 41.1508 38.2777 41.2317C38.809 41.2983 39.3453 41.3137 39.8795 41.2778C40.6645 41.2246 41.4385 41.0639 42.1804 40.8001C42.7088 40.6158 43.0125 40.4817 43.0125 40.4859C42.7631 40.6385 42.5062 40.7784 42.2428 40.9049C41.5156 41.2686 40.7388 41.5214 39.9378 41.6549C39.3806 41.7427 38.8161 41.7736 38.2527 41.7471C37.6096 41.7144 36.9699 41.6332 36.3389 41.5041C35.5067 41.3449 34.6205 41.1353 33.7135 40.9719V41.0013H33.6594V40.9761C33.1515 40.8802 32.6391 40.8103 32.1241 40.7666C30.7219 40.6393 29.3085 40.7412 27.9386 41.0683C26.6654 41.3658 25.5296 41.7723 24.5393 42.0153C23.7595 42.2236 22.9578 42.3375 22.1511 42.3547C21.8565 42.3611 21.5618 42.3471 21.2691 42.3128C22.3501 42.2603 23.416 42.0354 24.427 41.6465C25.3548 41.3155 26.4532 40.8169 27.7597 40.4356Z" fill="#F2C777"/>
<path d="M28.3796 38.2986C28.1252 38.18 27.8486 38.1172 27.5683 38.1142C27.1829 38.1124 26.7987 38.1574 26.4241 38.2483C25.5629 38.4369 24.556 38.835 23.2912 39.1827H23.2579C23.2946 39.0368 23.321 38.8883 23.3369 38.7386V38.6925C23.3475 38.546 23.3475 38.399 23.3369 38.2525C24.4853 38.0681 25.5171 37.8335 26.3866 37.779C26.7966 37.7455 27.2091 37.7653 27.614 37.8377C27.913 37.8944 28.1966 38.0144 28.4462 38.1897C28.593 38.2991 28.7209 38.4322 28.8248 38.5835C28.8596 38.634 28.8902 38.6873 28.9163 38.7428C28.8799 38.6935 28.8395 38.6472 28.7957 38.6045C28.6749 38.4799 28.5342 38.3765 28.3796 38.2986Z" fill="#F2C777"/>
<path d="M19.7671 38.6799C19.5945 38.4765 19.4542 38.2475 19.351 38.001C19.4378 38.1586 19.5671 38.2882 19.7239 38.375C19.8807 38.4617 20.0587 38.5021 20.2373 38.4913C20.3822 38.4924 20.5256 38.4605 20.6567 38.3981C20.7878 38.3358 20.9033 38.2444 20.9945 38.1309C21.1018 38.1977 21.2181 38.2485 21.3398 38.2818C21.5273 38.3321 21.72 38.3602 21.914 38.3656C21.9637 38.7438 21.9397 39.128 21.8433 39.4969C21.2649 39.3838 20.1166 39.0821 19.7671 38.6799Z" fill="#F2C777"/>
<path d="M21.0902 41.0054C20.8619 40.8724 20.6813 40.67 20.5743 40.4272C20.5216 40.3031 20.4879 40.1717 20.4744 40.0375C20.472 39.9193 20.4461 39.8027 20.3983 39.6948C20.3504 39.5868 20.2815 39.4896 20.1956 39.4089L21.8141 39.828C21.6544 40.2591 21.4374 40.6664 21.1692 41.0389L21.0902 41.0054Z" fill="#F2C777"/>
<path d="M25.2674 34.7746C25.2674 34.7746 25.2674 34.7746 25.2466 34.7746H25.1343L24.9263 34.8081C24.7044 34.8366 24.4951 34.9282 24.323 35.0721C24.2064 35.1859 24.1254 35.3316 24.09 35.4911C24.0738 35.5586 24.0627 35.6273 24.0567 35.6964C23.9854 35.5702 23.9425 35.4297 23.931 35.2849C23.9195 35.1401 23.9397 34.9945 23.9901 34.8584C24.0504 34.7053 24.146 34.5689 24.2689 34.4603C24.4007 34.3402 24.5511 34.2426 24.7141 34.1712C24.7969 34.1334 24.8816 34.0998 24.9679 34.0706L25.101 34.0287L25.2009 34.0078L25.3257 33.9826C25.6544 33.924 25.9872 33.9072 26.3367 33.8737V33.903C26.2369 34.2592 26.1412 34.6112 26.0413 34.9296C26.0236 34.9853 26.0028 35.0398 25.9789 35.0931C25.9634 35.1374 25.9453 35.1808 25.9248 35.223C25.8874 35.3061 25.8457 35.3872 25.8 35.466C25.7096 35.6234 25.5944 35.7649 25.4588 35.885C25.3367 35.9909 25.1955 36.072 25.0428 36.1239C24.8347 36.1838 24.6142 36.1838 24.4062 36.1239C24.2689 36.0819 24.2023 36.0442 24.2023 36.0484C24.2023 36.0526 24.2772 36.0484 24.4062 35.9981C24.5735 35.9534 24.7295 35.8734 24.8639 35.7635C25.0261 35.603 25.1401 35.3997 25.1925 35.1769C25.2174 35.1101 25.2369 35.0415 25.2508 34.9715L25.2758 34.8626C25.2758 34.8291 25.3007 34.762 25.2758 34.7788L25.2674 34.7746Z" fill="#F2C777"/>
<path d="M22.8501 35.8766C22.889 35.9211 22.9307 35.9631 22.9749 36.0023C22.9125 35.9984 22.8508 35.9857 22.7919 35.9646C22.6188 35.907 22.4715 35.7898 22.3758 35.6336C22.3007 35.5146 22.2538 35.3798 22.2385 35.2397C22.2138 35.0884 22.2138 34.9342 22.2385 34.7829C22.2385 34.7075 22.2718 34.6321 22.2926 34.5567C22.3134 34.4812 22.3176 34.4812 22.3342 34.4435C22.3509 34.4058 22.3342 34.3891 22.3633 34.3597L22.4091 34.2634C22.5298 33.9994 22.6837 33.7563 22.8252 33.4965V33.5175C23.0249 33.7605 23.2163 34.0036 23.391 34.2298C23.4409 34.3011 23.4493 34.3178 23.4742 34.3555C23.4992 34.3932 23.5158 34.4184 23.5366 34.4561C23.5574 34.4938 23.6074 34.5902 23.6406 34.6656C23.7068 34.8053 23.7477 34.9557 23.7613 35.1098C23.7787 35.2679 23.7557 35.4278 23.6946 35.5745C23.6334 35.7211 23.5361 35.8496 23.4118 35.9478C23.3629 35.9875 23.3115 36.0238 23.2579 36.0568C23.2579 36.0568 23.287 35.9939 23.3244 35.885C23.3757 35.7516 23.397 35.6085 23.3868 35.4659C23.3591 35.2725 23.2752 35.0917 23.1455 34.9464L23.0332 34.8039L22.9666 34.7285L22.9209 34.6782H22.8959L22.8501 34.762C22.821 34.8165 22.796 34.8709 22.7711 34.9254C22.6798 35.0945 22.6394 35.2867 22.6546 35.4785C22.676 35.6288 22.7445 35.7683 22.8501 35.8766Z" fill="#F2C777"/>
<path d="M26.9359 36.9871C26.6904 37.1589 26.4615 37.3223 26.2119 37.4648L26.1162 37.515L26.0372 37.557L25.929 37.603C25.856 37.6325 25.7809 37.6563 25.7043 37.6743C25.5597 37.7164 25.4096 37.7362 25.2591 37.7329C25.1223 37.7311 24.9875 37.6997 24.8639 37.6408C24.7014 37.5572 24.5743 37.4173 24.5061 37.2469C24.4644 37.1337 24.4603 37.0751 24.4561 37.0751C24.4999 37.1139 24.5457 37.1503 24.5934 37.184C24.7032 37.271 24.8368 37.3222 24.9762 37.3307C25.1667 37.3276 25.3526 37.271 25.5129 37.1673L25.671 37.0793L25.7501 37.0248C25.7501 37.0248 25.7168 36.9955 25.696 36.9787L25.6169 36.9284C25.5718 36.8921 25.5246 36.8585 25.4755 36.8279C25.3204 36.717 25.1371 36.653 24.9471 36.6435C24.8029 36.6469 24.661 36.6811 24.531 36.744C24.427 36.7901 24.3688 36.8237 24.3688 36.8237C24.3952 36.7688 24.4273 36.7168 24.4644 36.6686C24.5684 36.5181 24.7127 36.4004 24.8805 36.3292C25.0121 36.2734 25.1539 36.2463 25.2966 36.2496C25.4483 36.2516 25.5987 36.2785 25.7418 36.3292C25.8145 36.3517 25.8854 36.3797 25.9539 36.413L26.0538 36.4591L26.1828 36.5303C26.4158 36.677 26.6654 36.8404 26.9192 37.008L26.9359 36.9871Z" fill="#F2C777"/>
<path d="M23.6406 36.2831C23.7786 36.2831 23.9109 36.3383 24.0084 36.4365C24.1059 36.5348 24.1607 36.668 24.1607 36.8069C24.1607 36.9458 24.1059 37.079 24.0084 37.1773C23.9109 37.2755 23.7786 37.3307 23.6406 37.3307C23.5027 37.3307 23.3704 37.2755 23.2729 37.1773C23.1754 37.079 23.1206 36.9458 23.1206 36.8069C23.1206 36.668 23.1754 36.5348 23.2729 36.4365C23.3704 36.3383 23.5027 36.2831 23.6406 36.2831Z" fill="#F2C777"/>
<path d="M5.3339 42.5014C6.05591 42.4091 6.75131 42.168 7.37677 41.7932C7.70549 41.5963 8.01235 41.3645 8.29211 41.1019C8.52625 40.8845 8.74325 40.6491 8.94117 40.3979C9.04934 40.2638 9.15336 40.1255 9.24905 39.9789C9.50582 39.6023 9.72465 39.2008 9.90227 38.7805C10.0682 38.3836 10.1991 37.9728 10.2934 37.5527C10.4627 36.8269 10.5313 36.0809 10.4972 35.3361C10.4757 34.8263 10.3702 34.3236 10.1852 33.8486C10.1141 33.6696 10.0278 33.4972 9.92723 33.3332C10.0728 33.4654 10.204 33.6129 10.3183 33.7732C10.6321 34.2214 10.8567 34.7265 10.9799 35.2607C11.1651 36.0582 11.2074 36.8827 11.1047 37.6952C11.0481 38.1827 10.9364 38.6621 10.7718 39.1241C10.5915 39.6232 10.3497 40.0976 10.0521 40.5362C10.0313 40.5697 10.0021 40.6032 9.97716 40.6409C9.78778 40.9123 9.57475 41.1661 9.34058 41.3994C8.88521 41.8678 8.34962 42.2497 7.75955 42.5265C7.00682 42.8743 6.18182 43.0339 5.35472 42.9916C4.81733 42.9627 4.28658 42.8583 3.77784 42.6816C3.42002 42.56 3.23696 42.4721 3.2328 42.4721C3.22864 42.4721 3.44083 42.5014 3.80696 42.5349C4.3157 42.578 4.82752 42.5668 5.3339 42.5014Z" fill="#F2C777"/>
<path d="M10.2518 40.863C10.6968 41.0125 11.1329 41.1874 11.5582 41.3868L12.1948 41.6885L12.4777 41.8268L12.7523 41.9357C13.1141 42.0581 13.4905 42.1314 13.8715 42.1536C14.533 42.1942 15.1926 42.0491 15.7771 41.7346C16.1835 41.5154 16.5207 41.1859 16.7507 40.7834C16.8363 40.6275 16.906 40.4633 16.9587 40.2932C16.9593 40.4785 16.9355 40.6631 16.888 40.8421C16.7537 41.3515 16.4623 41.8049 16.0558 42.1369C15.4373 42.6448 14.6729 42.9386 13.8757 42.9749C13.4046 43.0022 12.9323 42.9512 12.4777 42.8241C12.3565 42.7913 12.237 42.7521 12.1199 42.7067C11.9992 42.6606 11.8786 42.6062 11.7829 42.5601L11.1546 42.2751C10.7386 42.0824 10.3225 41.8938 9.93557 41.7388C9.79411 41.6801 9.65265 41.6299 9.51951 41.5838C9.75372 41.3491 9.96675 41.0938 10.1561 40.8211L10.2518 40.863Z" fill="#F2C777"/>
<path d="M8.04664 41.039L7.80116 40.9761C7.63994 40.9369 7.47569 40.9117 7.3102 40.9007C7.00381 40.8838 6.69666 40.9135 6.39904 40.9887C5.95063 41.0964 5.54123 41.3287 5.21741 41.6591C5.0949 41.7858 4.9874 41.9264 4.89705 42.0781C4.93836 41.8981 5.00417 41.7246 5.0926 41.5627C5.35435 41.1045 5.75137 40.7398 6.22845 40.5194C6.56258 40.3597 6.92144 40.2591 7.2894 40.2219C7.49831 40.2009 7.70876 40.2009 7.91766 40.2219C8.12569 40.2219 8.31292 40.2638 8.52511 40.2931L8.69986 40.3224C8.49972 40.577 8.2814 40.8164 8.04664 41.039Z" fill="#F2C777"/>
</g>
<defs>
<clipPath id="clip0_173_116">
<rect width="43" height="43" fill="white" transform="translate(43 43) rotate(-180)"/>
</clipPath>
</defs>
</svg>
