<svg width="43" height="43" viewBox="0 0 43 43" fill="none" xmlns="http://www.w3.org/2000/svg">
<g clip-path="url(#clip0_173_156)">
<path d="M35.4869 5.07594C36.0481 4.11721 36.7841 3.27065 37.6575 2.57957C38.1758 2.15718 38.7376 1.79039 39.3336 1.48532C39.6567 1.32249 39.9914 1.18343 40.335 1.06926L40.4943 1.01934L40.7373 0.952766C40.9007 0.91532 41.0641 0.882043 41.2275 0.85708C41.546 0.815474 41.8519 0.794666 42.1829 0.761381C42.2122 1.08591 42.2458 1.37715 42.2625 1.69336C42.2729 1.85546 42.2729 2.01805 42.2625 2.18015L42.2332 2.42979L42.2122 2.55461V2.6295C42.1372 2.99491 42.0249 3.3518 41.877 3.69463C41.6052 4.31489 41.25 4.89572 40.8211 5.42128C40.1236 6.28925 39.2714 7.02259 38.307 7.58479C37.6653 7.95881 36.9681 8.22983 36.2412 8.3878C35.9808 8.44608 35.7158 8.48226 35.4492 8.49597C36.3535 8.1597 37.1874 7.66037 37.9089 7.02312C38.6727 6.36027 39.3373 5.59251 39.8825 4.7431C40.1941 4.26167 40.4525 3.74835 40.6535 3.21199C40.7521 2.94167 40.8264 2.66321 40.8756 2.37987V2.32993L40.7918 2.35491C40.506 2.44119 40.2261 2.54541 39.9537 2.66695C39.4161 2.90415 38.8977 3.18236 38.4033 3.49908C37.5488 4.04163 36.7781 4.70453 36.1155 5.46704C35.6564 5.98065 35.3059 6.58054 35.0847 7.23115C35.0065 7.47816 34.96 7.73397 34.9464 7.99254C34.8842 7.73102 34.8603 7.46199 34.8752 7.1937C34.9107 6.45019 35.1202 5.72512 35.4869 5.07594Z" fill="#F2C777"/>
<path d="M34.2802 8.43361C34.4105 8.44522 34.5316 8.50481 34.6199 8.60067C34.7082 8.69653 34.7571 8.82172 34.7571 8.95161C34.7571 9.0815 34.7082 9.20669 34.6199 9.30255C34.5316 9.39841 34.4105 9.458 34.2802 9.4696C34.1499 9.458 34.0287 9.39841 33.9404 9.30255C33.8521 9.20669 33.8032 9.0815 33.8032 8.95161C33.8032 8.82172 33.8521 8.69653 33.9404 8.60067C34.0287 8.50481 34.1499 8.44522 34.2802 8.43361Z" fill="#F2C777"/>
<path d="M37.9759 6.08289C37.7814 6.08289 37.5949 6.00617 37.4574 5.86962C37.3199 5.73308 37.2426 5.54788 37.2426 5.35478C37.2426 5.16167 37.3199 4.97648 37.4574 4.83993C37.5949 4.70339 37.7814 4.62667 37.9759 4.62667C38.1704 4.62667 38.3569 4.70339 38.4944 4.83993C38.632 4.97648 38.7092 5.16167 38.7092 5.35478C38.7092 5.54788 38.632 5.73308 38.4944 5.86962C38.3569 6.00617 38.1704 6.08289 37.9759 6.08289Z" fill="#F2C777"/>
<path d="M30.1654 11.9992L30.1863 11.8827L30.224 11.7288C30.252 11.6234 30.2855 11.5235 30.3246 11.4292C30.4004 11.2398 30.505 11.063 30.6347 10.905C30.7484 10.763 30.8912 10.6467 31.0537 10.5638C31.2871 10.4558 31.552 10.4351 31.7995 10.5056C31.8805 10.5269 31.9591 10.5561 32.0342 10.5929C31.9549 10.6062 31.8766 10.6242 31.7995 10.647C31.6115 10.6906 31.4417 10.7909 31.3135 10.9341C31.1596 11.1405 31.0667 11.3855 31.0453 11.6414C31.0453 11.7163 31.0244 11.7995 31.0202 11.8786V12.0076V12.0367C31.0183 12.0398 31.0174 12.0434 31.0174 12.0471C31.0174 12.0507 31.0183 12.0543 31.0202 12.0575C31.0519 12.0533 31.0829 12.0449 31.1123 12.0325L31.2381 11.9951C31.318 11.9757 31.3964 11.9507 31.4727 11.9202C31.7245 11.8454 31.9498 11.7011 32.1222 11.5041C32.2422 11.3468 32.3252 11.1649 32.3652 10.9716C32.3987 10.8218 32.4113 10.7302 32.4113 10.7302C32.4508 10.8047 32.4831 10.8827 32.5077 10.9632C32.5813 11.1677 32.5999 11.3877 32.5617 11.6015C32.5235 11.8153 32.4298 12.0155 32.2898 12.1823C32.1608 12.3443 32.0066 12.4847 31.8331 12.5984C31.7439 12.6573 31.6516 12.7115 31.5565 12.7606L31.4182 12.8272C31.3638 12.8522 31.3428 12.8646 31.2339 12.9062C30.8693 13.0394 30.4754 13.1684 30.0732 13.3015H30.0438C30.0438 12.8855 30.0438 12.5235 30.1067 12.1407L30.1654 11.9992Z" fill="#F2C777"/>
<path d="M30.4126 8.73312L30.5048 8.69151C30.5467 8.67071 30.5886 8.65823 30.6305 8.64159C30.7153 8.6109 30.8021 8.58588 30.8903 8.5667C31.0611 8.52281 31.2381 8.50733 31.4141 8.52093C31.5745 8.53036 31.7307 8.57589 31.8708 8.65407C32.0654 8.76035 32.2144 8.93341 32.2898 9.14087C32.315 9.20677 32.3333 9.27509 32.3443 9.34473C32.2959 9.29548 32.2441 9.2496 32.1892 9.20744C32.065 9.10088 31.9121 9.03288 31.7493 9.01189C31.5282 9.00788 31.3104 9.06554 31.1207 9.17831C31.0585 9.2075 30.9983 9.24086 30.9406 9.27816L30.8442 9.33642C30.819 9.33642 30.8442 9.33642 30.8442 9.33642L30.907 9.3905L30.995 9.46123L31.1626 9.58189C31.3384 9.72076 31.5509 9.80603 31.7744 9.82737C31.9444 9.83292 32.1134 9.8002 32.2689 9.73167C32.3904 9.68174 32.4616 9.6443 32.4616 9.64846C32.4616 9.65263 32.4281 9.71503 32.3443 9.82737C32.2352 9.97729 32.0895 10.0972 31.9209 10.1758C31.7523 10.2544 31.5664 10.2891 31.3805 10.2767C31.204 10.2657 31.0301 10.2278 30.8651 10.1644C30.7813 10.1311 30.7017 10.0937 30.6179 10.052L30.5006 9.98963C30.4545 9.9605 30.4377 9.95218 30.3581 9.89809C30.0858 9.71502 29.7966 9.507 29.5201 9.29481C29.7893 9.10332 30.0691 8.92691 30.3581 8.7664L30.4126 8.73312Z" fill="#F2C777"/>
<path d="M33.132 11.009C33.1872 10.9652 33.2461 10.9262 33.308 10.8925C33.2759 10.953 33.2479 11.0155 33.2242 11.0797C33.1604 11.2369 33.1305 11.4055 33.1362 11.5748C33.1579 11.7915 33.2406 11.9978 33.3751 12.1698L33.4966 12.3321L33.5636 12.4153C33.5636 12.4403 33.6181 12.4902 33.6139 12.4735C33.6097 12.4569 33.6139 12.4735 33.6139 12.4735L33.6684 12.382C33.7025 12.3213 33.7332 12.2588 33.7606 12.1948C33.8698 12.005 33.9248 11.7892 33.9198 11.5707C33.8972 11.4173 33.8319 11.2732 33.7312 11.1546C33.691 11.1022 33.6461 11.0535 33.5972 11.009C33.6644 11.0163 33.7305 11.0317 33.7941 11.0548C33.9932 11.1196 34.1607 11.2562 34.2634 11.4376C34.3422 11.5751 34.3881 11.7289 34.3975 11.8869C34.4083 12.06 34.3941 12.2337 34.3556 12.4028C34.3377 12.4903 34.3139 12.5765 34.2843 12.6608L34.2383 12.7856L34.1964 12.8813L34.1419 12.9895C33.9952 13.2849 33.8192 13.5553 33.6391 13.8466V13.8257C33.4337 13.547 33.22 13.2682 33.0482 12.9936L32.9644 12.8522L32.8974 12.7398L32.7926 12.4985C32.7288 12.3376 32.6906 12.1677 32.6795 11.9951C32.6669 11.8121 32.6984 11.6287 32.7712 11.4602C32.8441 11.2916 32.9563 11.1427 33.0985 11.0257L33.132 11.009Z" fill="#F2C777"/>
<path d="M26.9221 3.64467L27.0311 3.5365L27.1233 3.45328C27.445 3.16055 27.796 2.90125 28.1708 2.67942C28.807 2.28483 29.5218 2.03214 30.2659 1.93883C30.7529 1.88157 31.2463 1.91687 31.7199 2.04284C31.887 2.08812 32.0496 2.14798 32.206 2.22175C32.206 2.22175 32.0216 2.22175 31.7032 2.25087C31.2695 2.29969 30.8457 2.41331 30.4461 2.58788C29.8693 2.84035 29.3362 3.18154 28.8664 3.59891C28.589 3.84441 28.3246 4.10411 28.0745 4.37694L28.0535 4.4019C28.0535 4.4019 28.1918 4.4019 28.2714 4.4019C28.635 4.42425 29 4.41031 29.3609 4.3603C29.976 4.27145 30.5554 4.01836 31.0369 3.62804C31.3869 3.33885 31.6881 2.99615 31.9295 2.61284C32.1138 2.33408 32.2018 2.16349 32.2018 2.16349C32.1919 2.34256 32.168 2.5206 32.1306 2.69605C32.0357 3.19301 31.8404 3.66573 31.5565 4.08569C31.0957 4.7479 30.4266 5.23958 29.6542 5.48367C29.204 5.62727 28.7357 5.70711 28.263 5.72083C28.1289 5.72083 28.0577 5.72083 27.844 5.72083C27.6303 5.72083 27.425 5.68337 27.1945 5.65009C26.9895 5.61786 26.7866 5.5734 26.5869 5.51695L25.9752 5.40461L25.5938 5.28395C25.8285 4.95526 26.0338 4.65154 26.281 4.33533C26.4067 4.18139 26.5408 4.02329 26.7001 3.86935L26.9221 3.64467Z" fill="#F2C777"/>
<path d="M30.2031 3.91101C30.075 3.87519 29.9654 3.79231 29.8967 3.6792C29.8279 3.56609 29.8051 3.43122 29.8328 3.302C29.8605 3.17277 29.9368 3.05888 30.046 2.98344C30.1552 2.90799 30.2893 2.87666 30.421 2.89581C30.5491 2.93163 30.6586 3.01451 30.7274 3.12763C30.7962 3.24074 30.819 3.3756 30.7913 3.50483C30.7635 3.63405 30.6873 3.74795 30.578 3.82339C30.4688 3.89883 30.3347 3.93016 30.2031 3.91101Z" fill="#F2C777"/>
<path d="M24.651 2.07618C24.79 2.07618 24.9232 2.13097 25.0214 2.22851C25.1196 2.32604 25.1748 2.45832 25.1748 2.59626C25.1748 2.73419 25.1196 2.86647 25.0214 2.964C24.9232 3.06154 24.79 3.11633 24.651 3.11633C24.5121 3.11633 24.3789 3.06154 24.2807 2.964C24.1825 2.86647 24.1273 2.73419 24.1273 2.59626C24.1273 2.45832 24.1825 2.32604 24.2807 2.22851C24.3789 2.13097 24.5121 2.07618 24.651 2.07618Z" fill="#F2C777"/>
<path d="M22.9582 6.34082C22.7738 6.32695 22.6016 6.24445 22.4759 6.10982C22.3501 5.97519 22.2803 5.79838 22.2803 5.6148C22.2803 5.43121 22.3501 5.2544 22.4759 5.11977C22.6016 4.98514 22.7738 4.90264 22.9582 4.88877C23.1426 4.90264 23.3148 4.98514 23.4405 5.11977C23.5662 5.2544 23.6361 5.43121 23.6361 5.6148C23.6361 5.79838 23.5662 5.97519 23.4405 6.10982C23.3148 6.24445 23.1426 6.32695 22.9582 6.34082Z" fill="#F2C777"/>
<path d="M19.9748 4.4518C19.999 4.03167 20.0579 3.61422 20.1508 3.20362C20.3594 2.54792 20.6828 1.93386 21.1061 1.3896C21.2721 1.21023 21.4576 1.04975 21.6592 0.911127C22.1211 0.592633 22.6646 0.410839 23.2264 0.386885C23.6901 0.359353 24.1543 0.430273 24.5882 0.594916C24.9473 0.729912 25.2659 0.953245 25.5142 1.24397C25.8373 1.63418 26.0044 2.12887 25.9835 2.63362C25.9778 2.79935 25.9539 2.96396 25.9123 3.12457C25.93 2.9586 25.93 2.79126 25.9123 2.6253C25.8746 2.15005 25.6612 1.70544 25.3131 1.37711C25.0212 1.13618 24.6774 0.965099 24.3083 0.877085C23.9393 0.789072 23.5547 0.786482 23.1845 0.869518C22.7169 0.947548 22.2812 1.15525 21.9274 1.46865C21.8642 1.52799 21.8041 1.59047 21.7472 1.65587C21.1657 2.41549 20.8693 3.35281 20.9092 4.30618C20.8813 4.64129 20.9268 4.97842 21.0425 5.29443C21.1582 5.61043 21.3415 5.89783 21.5796 6.13686C22.1788 6.68606 23.1593 7.99249 26.6875 7.90928C26.7294 7.83855 26.7755 7.77198 26.8258 7.70125L26.9599 7.53899C27.0018 7.49738 27.0353 7.45578 27.073 7.42249C26.9766 7.42249 26.8844 7.42249 26.7881 7.42249C26.3607 7.37788 25.9478 7.24312 25.5771 7.02723C25.2356 6.84081 24.9406 6.58062 24.7139 6.26584C24.5191 6.00127 24.4228 5.67773 24.4415 5.3505C24.4517 5.23492 24.4829 5.12214 24.5337 5.01765C24.5316 5.12154 24.5443 5.22519 24.5714 5.32554C24.6651 5.52187 24.8097 5.68989 24.9905 5.81233C25.4514 6.2284 26.2852 6.51963 27.5381 6.54876L28.9376 6.44474C29.0047 6.44474 29.0717 6.41978 29.1304 6.41146C29.6751 6.34905 30.5509 6.22423 30.5467 6.22007C30.0905 6.43674 29.6483 6.68131 29.2226 6.95234C28.9125 7.16869 28.5354 7.45161 28.1373 7.78446C28.7879 7.65423 29.4169 7.43436 30.0061 7.13124C30.3749 6.93985 30.8442 6.8192 31.2171 6.59868C30.0957 7.52339 28.7776 8.18347 27.3621 8.52922C27.3118 8.59163 27.2574 8.6582 27.2113 8.72477C27.1036 8.88033 27.0043 9.04144 26.9138 9.2074C26.7531 9.49148 26.6493 9.80369 26.6079 10.1269C26.5835 10.3522 26.6272 10.5796 26.7336 10.7801C26.7761 10.8573 26.8266 10.9298 26.8844 10.9965C26.8031 10.9882 26.7245 10.9627 26.654 10.9216C26.5325 10.8476 26.4287 10.7483 26.3498 10.6304C26.2709 10.5126 26.2189 10.3791 26.1972 10.2392C26.1112 9.75817 26.1472 9.26343 26.302 8.79965L26.3355 8.71228C26.1386 8.73725 25.9416 8.75389 25.7531 8.76221C20.9469 8.99937 19.9748 5.18823 19.9748 4.4518Z" fill="#F2C777"/>
<path d="M15.3613 2.21761C13.9098 2.60738 12.3975 2.72311 10.9029 2.55878C10.7186 2.53798 10.5342 2.51302 10.354 2.48389C10.4868 2.57688 10.6269 2.65897 10.773 2.72937C11.2569 2.94899 11.7734 3.08949 12.3025 3.14543C13.7574 3.29314 15.2275 3.15171 16.6268 2.72937C17.0458 2.61703 17.4271 2.46725 17.8838 2.31331C18.3406 2.15936 18.8015 1.99294 19.3043 1.85564C19.7662 1.72669 20.2388 1.63897 20.7164 1.59351C20.454 1.99485 20.2389 2.42484 20.0753 2.87499C19.8868 2.89995 19.7024 2.92908 19.518 2.96652C19.0487 3.06222 18.5878 3.17455 18.1394 3.29937C17.6911 3.42419 17.2176 3.55316 16.7734 3.63638C15.254 3.95698 13.6837 3.95698 12.1642 3.63638C11.6124 3.50804 11.0858 3.29015 10.6054 2.99149C10.3693 2.84071 10.1526 2.66187 9.96015 2.45893C8.74079 2.23842 7.61781 1.88893 6.60797 1.62681C6.00714 1.46244 5.39712 1.33323 4.78104 1.23986C4.24729 1.16021 3.707 1.13235 3.16781 1.15666C2.37618 1.19304 1.59284 1.33293 0.838048 1.57272C0.301701 1.7433 4.30285e-06 1.86812 4.30285e-06 1.86812C0.961581 1.30673 2.02275 0.933848 3.1259 0.769708C3.68963 0.693991 4.25968 0.675878 4.82713 0.715631C5.47437 0.762801 6.11722 0.857362 6.75044 0.99855C7.58848 1.1733 8.47262 1.41461 9.38609 1.5852V1.55607H9.43637V1.5852C9.93919 1.68505 10.4546 1.77242 10.9826 1.83067C12.3926 1.98517 13.8185 1.91494 15.2063 1.62264C16.4969 1.3522 17.6492 0.97774 18.6548 0.757227C19.4454 0.569397 20.2555 0.474442 21.0684 0.474308C21.3642 0.474146 21.6597 0.495 21.9525 0.536715C20.8618 0.561944 19.7823 0.76144 18.7554 1.12753C17.8042 1.40213 16.6855 1.86811 15.3613 2.21761Z" fill="#F2C777"/>
<path d="M14.6867 4.32699C14.9404 4.44934 15.2177 4.51603 15.4996 4.52254C15.8879 4.53341 16.2761 4.49849 16.6561 4.41852C17.5277 4.2521 18.5501 3.87765 19.8365 3.56144C19.8365 3.56144 19.8365 3.56144 19.8658 3.56144C19.829 3.70665 19.801 3.85392 19.782 4.00246V4.04407C19.7637 4.189 19.7539 4.33487 19.7527 4.48093C18.5878 4.63904 17.5444 4.85123 16.6687 4.89699C16.2478 4.92493 15.8251 4.89694 15.4116 4.81378C15.1082 4.75332 14.822 4.62687 14.5736 4.44349C14.4299 4.3325 14.3053 4.19899 14.2048 4.04822C14.1709 3.99742 14.1401 3.94462 14.1127 3.89012C14.1507 3.93796 14.1913 3.9838 14.2342 4.02743C14.3676 4.15108 14.5204 4.25227 14.6867 4.32699Z" fill="#F2C777"/>
<path d="M23.3772 4.1564C23.552 4.36065 23.6934 4.59091 23.7962 4.83875C23.713 4.68008 23.5862 4.54812 23.4304 4.45826C23.2746 4.3684 23.0963 4.32433 22.9163 4.33115C22.7702 4.32651 22.6249 4.3548 22.4914 4.41389C22.3578 4.47297 22.2395 4.56132 22.1453 4.67231C22.0386 4.60159 21.9212 4.54821 21.7975 4.51421C21.6092 4.4598 21.4151 4.42769 21.2193 4.41852C21.1793 4.04251 21.2135 3.66237 21.3198 3.29932C21.8813 3.42413 23.042 3.74034 23.3772 4.1564Z" fill="#F2C777"/>
<path d="M22.0908 1.8016C22.319 1.93719 22.498 2.14112 22.602 2.38408C22.6518 2.50928 22.6829 2.64104 22.6942 2.77518C22.6911 2.89246 22.713 3.00907 22.7585 3.11735C22.804 3.22562 22.8721 3.32312 22.9582 3.40344L21.3408 2.94577C21.5116 2.5225 21.7384 2.12372 22.0154 1.75999C22.0423 1.77044 22.0677 1.78444 22.0908 1.8016Z" fill="#F2C777"/>
<path d="M17.7456 7.90098C17.7456 7.90098 17.7456 7.90098 17.7665 7.90098H17.8755L18.0892 7.87602C18.3142 7.85242 18.5278 7.76585 18.7051 7.62638C18.8237 7.513 18.908 7.36885 18.9482 7.21032C18.9644 7.14168 18.977 7.07224 18.9859 7.00229C19.0541 7.1292 19.094 7.26927 19.1027 7.41289C19.1113 7.55651 19.0887 7.7003 19.0362 7.83441C18.9677 7.9829 18.8676 8.11489 18.7428 8.22135C18.6065 8.33567 18.454 8.42959 18.2903 8.50011C18.206 8.53678 18.1192 8.56737 18.0305 8.59165C17.9872 8.6085 17.9423 8.62104 17.8964 8.62909C17.8619 8.63806 17.827 8.645 17.7917 8.64989L17.6701 8.6707C17.331 8.71563 16.9897 8.7434 16.6477 8.75391V8.72894C16.7567 8.37529 16.8614 8.03412 16.9704 7.71375L17.0332 7.55149L17.0919 7.43083C17.1308 7.34737 17.1756 7.26674 17.226 7.18952C17.3177 7.03254 17.4353 6.89191 17.5738 6.77346C17.6959 6.66913 17.8386 6.59119 17.9928 6.54462C18.2024 6.48574 18.4243 6.48574 18.6339 6.54462C18.7722 6.59038 18.8392 6.62783 18.8434 6.62367C18.8476 6.61951 18.7638 6.62368 18.6297 6.66944C18.4316 6.71023 18.2495 6.80689 18.1053 6.94784C17.9611 7.0888 17.861 7.26806 17.8168 7.46412L17.7581 7.66799L17.7288 7.77617C17.7288 7.80946 17.7037 7.87186 17.7288 7.85937C17.754 7.84689 17.7288 7.85937 17.7288 7.85937C17.7288 7.85937 17.7288 7.85938 17.7288 7.88019L17.7456 7.90098Z" fill="#F2C777"/>
<path d="M20.2052 6.84832C20.1681 6.80095 20.126 6.75771 20.0795 6.71934C20.1424 6.72626 20.2042 6.74022 20.2639 6.76095C20.4455 6.82141 20.6008 6.9418 20.7039 7.10211C20.7737 7.22197 20.8165 7.35538 20.8296 7.49321C20.8441 7.64478 20.8357 7.79765 20.8044 7.94672L20.7416 8.17139L20.6997 8.28374C20.6867 8.31071 20.6755 8.3385 20.6661 8.36694L20.6201 8.46264C20.4902 8.7206 20.3309 8.9536 20.1717 9.2074C19.979 8.95776 19.7904 8.71644 19.6228 8.48344C19.5927 8.44477 19.5647 8.40449 19.539 8.36278L19.4803 8.25876L19.3756 8.05073C19.3159 7.90871 19.2778 7.75869 19.2624 7.60556C19.2505 7.4646 19.269 7.32273 19.3169 7.1895C19.3839 7.02398 19.4955 6.88001 19.6396 6.77343C19.688 6.73422 19.7399 6.69941 19.7946 6.66942L19.7234 6.83584C19.6711 6.96831 19.6455 7.10966 19.6479 7.2519C19.6749 7.4451 19.7562 7.62681 19.8826 7.77614L19.9957 7.9176L20.0586 7.99249L20.1047 8.04242L20.1549 7.95921L20.2346 7.80111C20.3315 7.63478 20.3767 7.44369 20.3645 7.2519C20.3576 7.10364 20.3016 6.96177 20.2052 6.84832Z" fill="#F2C777"/>
<path d="M16.1114 5.65425C16.3628 5.49198 16.5975 5.33388 16.8531 5.20074L16.9494 5.15082L17.0332 5.11336C17.0684 5.09558 17.1048 5.08029 17.1422 5.0676C17.2164 5.0416 17.2919 5.01938 17.3684 5.00103C17.5161 4.9634 17.6687 4.94798 17.821 4.95527C17.9583 4.95817 18.093 4.99233 18.2149 5.05512C18.3811 5.14452 18.5069 5.29322 18.5669 5.47118C18.5899 5.52571 18.6054 5.5831 18.6129 5.64177C18.5706 5.60167 18.5258 5.56415 18.4788 5.52942C18.3704 5.44086 18.2374 5.38717 18.0975 5.37548C17.9044 5.37622 17.715 5.42792 17.5486 5.52527C17.4983 5.55023 17.4481 5.57935 17.3936 5.61264L17.3098 5.66256C17.3098 5.66256 17.3391 5.6917 17.3601 5.70834L17.4355 5.76242C17.4858 5.79986 17.5361 5.83315 17.5821 5.86228C17.7358 5.97609 17.919 6.04394 18.1101 6.05783C18.2549 6.05827 18.3979 6.02702 18.5291 5.96629C18.6381 5.92469 18.6967 5.8914 18.6967 5.89556C18.6665 5.94755 18.6329 5.99759 18.5962 6.04535C18.487 6.18862 18.3428 6.30176 18.1772 6.37403C18.0436 6.42472 17.9009 6.44738 17.7581 6.4406C17.6062 6.43653 17.456 6.40699 17.314 6.35323C17.2407 6.32916 17.1693 6.29997 17.1003 6.26586L16.9955 6.21593C16.9578 6.19513 16.941 6.1868 16.8698 6.14103C16.6352 5.99541 16.3879 5.82483 16.1365 5.65425H16.1114Z" fill="#F2C777"/>
<path d="M19.4175 6.4281C19.2872 6.41649 19.166 6.3569 19.0777 6.26104C18.9894 6.16518 18.9405 6.03999 18.9405 5.9101C18.9405 5.78022 18.9894 5.65503 19.0777 5.55917C19.166 5.46331 19.2872 5.40371 19.4175 5.39211C19.5478 5.40371 19.6689 5.46331 19.7572 5.55917C19.8455 5.65503 19.8944 5.78022 19.8944 5.9101C19.8944 6.03999 19.8455 6.16518 19.7572 6.26104C19.6689 6.3569 19.5478 6.41649 19.4175 6.4281Z" fill="#F2C777"/>
<path d="M38.0053 0.67404C37.2695 0.748299 36.5566 0.970557 35.9102 1.32726C35.5755 1.51513 35.2622 1.73831 34.9757 1.99295C34.7343 2.20511 34.5088 2.43457 34.3011 2.67946C34.1922 2.80705 34.0874 2.94574 33.9868 3.09552C33.7202 3.46516 33.4901 3.85947 33.2996 4.27297C33.1215 4.66241 32.9812 5.06783 32.8806 5.48372C32.6923 6.19915 32.6049 6.93706 32.6208 7.67636C32.6333 8.18227 32.7295 8.68269 32.9058 9.15754C32.9736 9.33602 33.0563 9.5086 33.153 9.67346C33.011 9.5398 32.8832 9.39202 32.7717 9.23244C32.4627 8.78086 32.2463 8.27332 32.1348 7.73876C31.9668 6.94498 31.9426 6.12781 32.0635 5.32561C32.1995 4.31583 32.5853 3.35523 33.1865 2.52967C33.2117 2.49223 33.241 2.46311 33.2661 2.42982C33.467 2.15467 33.6913 1.89715 33.9366 1.6601C34.4088 1.20874 34.9578 0.843912 35.5582 0.582506C36.3235 0.249264 37.1592 0.106448 37.9927 0.166443C38.5336 0.209472 39.0663 0.324217 39.5766 0.507618C39.7605 0.571656 39.941 0.645262 40.1171 0.72813C40.1171 0.72813 39.9118 0.690675 39.5389 0.653229C39.0284 0.606043 38.5143 0.613024 38.0053 0.67404Z" fill="#F2C777"/>
<path d="M33.0189 2.18848C32.5735 2.02895 32.137 1.84563 31.7116 1.63928C31.4937 1.53527 31.2925 1.42709 31.0746 1.32307C30.9699 1.26898 30.8861 1.22322 30.7939 1.18161C30.7017 1.14001 30.6137 1.10255 30.5215 1.06927C30.1598 0.938597 29.7822 0.856056 29.3986 0.823793C28.7343 0.765034 28.0664 0.887309 27.4669 1.17745C27.0524 1.38595 26.7054 1.70603 26.4654 2.10111C26.3737 2.25339 26.2993 2.41525 26.2433 2.58374C26.246 2.39941 26.2728 2.2162 26.3229 2.0387C26.4719 1.53526 26.7769 1.09124 27.1945 0.769703C27.8315 0.283942 28.6081 0.0128251 29.4111 -0.0041665C29.8872 -0.0232593 30.3631 0.0372153 30.819 0.174737C30.9364 0.212183 31.0579 0.253796 31.1752 0.299563C31.2925 0.34533 31.4141 0.407737 31.5104 0.453504L32.1348 0.75307C32.5538 0.952779 32.9728 1.14417 33.3541 1.31059C33.4966 1.36884 33.6349 1.42292 33.7731 1.47285C33.5322 1.69992 33.3121 1.94775 33.1153 2.21344C33.0985 2.20928 33.0482 2.20096 33.0189 2.18848Z" fill="#F2C777"/>
<path d="M35.2439 2.07611L35.4911 2.14268C35.6514 2.18644 35.8156 2.2143 35.9814 2.22588C36.2887 2.25251 36.5983 2.23146 36.8991 2.16348C37.3532 2.0648 37.771 1.84302 38.1058 1.52275C38.2343 1.39929 38.3456 1.25937 38.4369 1.10669C38.3944 1.28514 38.3252 1.45625 38.2315 1.61429C37.9564 2.06216 37.5479 2.41401 37.0625 2.62115C36.5268 2.85481 35.9388 2.94518 35.357 2.88327C35.1475 2.85414 34.959 2.82918 34.7453 2.7959C34.6866 2.7959 34.6279 2.77509 34.5693 2.76261C34.7759 2.51672 35.0014 2.28719 35.2439 2.07611Z" fill="#F2C777"/>
<path d="M39.0612 13.0019C39.0738 13.0691 39.0997 13.1332 39.1373 13.1905C39.1749 13.2478 39.2235 13.2971 39.2803 13.3358C39.395 13.4138 39.5363 13.4434 39.673 13.418C39.8097 13.3926 39.9306 13.3144 40.0092 13.2005C40.0878 13.0865 40.1175 12.9463 40.092 12.8105C40.0664 12.6748 39.9876 12.5547 39.8729 12.4767C39.7582 12.3987 39.6169 12.3691 39.4802 12.3945C39.3435 12.4199 39.2226 12.4981 39.144 12.612C39.0654 12.726 39.0356 12.8662 39.0612 13.0019Z" fill="#F2C777"/>
<path d="M40.7959 18.548C40.7959 18.4101 40.7408 18.2778 40.6425 18.1803C40.5443 18.0828 40.4111 18.028 40.2722 18.028C40.1333 18.028 40 18.0828 39.9018 18.1803C39.8036 18.2778 39.7484 18.4101 39.7484 18.548C39.7484 18.686 39.8036 18.8183 39.9018 18.9158C40 19.0133 40.1333 19.0681 40.2722 19.0681C40.4111 19.0681 40.5443 19.0133 40.6425 18.9158C40.7408 18.8183 40.7959 18.686 40.7959 18.548Z" fill="#F2C777"/>
<path d="M36.4507 20.1291C36.4598 20.3129 36.5387 20.4864 36.6714 20.6149C36.8042 20.7433 36.981 20.817 37.1663 20.8212C37.3516 20.8254 37.5316 20.7598 37.6702 20.6376C37.8087 20.5153 37.8955 20.3456 37.9131 20.1624C37.904 19.9785 37.8251 19.805 37.6924 19.6766C37.5596 19.5481 37.3828 19.4744 37.1975 19.4702C37.0122 19.466 36.8322 19.5316 36.6936 19.6538C36.5551 19.7761 36.4683 19.9459 36.4507 20.1291Z" fill="#F2C777"/>
<path d="M38.286 23.1331C38.7086 23.1193 39.1292 23.0692 39.5431 22.9833C40.2078 22.7929 40.8334 22.4872 41.391 22.0804C41.5763 21.9198 41.7423 21.7382 41.8854 21.5395C42.2138 21.0883 42.4096 20.5553 42.4511 20.0001C42.4875 19.5404 42.4261 19.0783 42.2709 18.6438C42.1414 18.2846 41.9223 17.9639 41.634 17.7118C41.2451 17.3835 40.749 17.2074 40.2387 17.2167C40.0722 17.2187 39.9065 17.2382 39.7442 17.2749C39.9127 17.2556 40.0828 17.2556 40.2512 17.2749C40.7332 17.3227 41.1806 17.5449 41.5083 17.899C41.874 18.3865 42.0577 18.9851 42.0279 19.5923C41.9981 20.1995 41.7566 20.7776 41.3449 21.2275C41.2847 21.29 41.2203 21.3484 41.1521 21.4022C40.3719 21.9626 39.4185 22.2335 38.4578 22.1678C38.1192 22.1886 37.7801 22.1361 37.464 22.014C37.1478 21.8919 36.8621 21.703 36.6267 21.4605C36.0903 20.8572 34.7998 19.8545 34.9506 16.3596C35.0218 16.318 35.0931 16.2722 35.1601 16.2264C35.2201 16.1857 35.2775 16.1412 35.3319 16.0933L35.4492 15.9851V16.268C35.4858 16.6927 35.6114 17.1051 35.818 17.4788C35.998 17.8227 36.2545 18.1215 36.568 18.3525C36.829 18.5519 37.1525 18.6536 37.4815 18.6396C37.5979 18.6296 37.7122 18.603 37.8209 18.5605C37.7159 18.5595 37.6116 18.5441 37.5108 18.5148C37.3306 18.4607 37.2008 18.2901 37.029 18.0987C36.6099 17.6327 36.3418 16.8006 36.3459 15.5566L36.48 14.1711L36.5177 13.9797C36.5932 13.443 36.7398 12.5776 36.744 12.5776C36.5143 13.027 36.2569 13.462 35.973 13.8798C35.7509 14.1794 35.4534 14.5497 35.1056 14.9325C35.257 14.2925 35.4937 13.6754 35.8096 13.0976C36.0107 12.7357 36.1448 12.2655 36.3711 11.9077C35.4159 13 34.7225 14.293 34.343 15.6897C34.276 15.7355 34.2089 15.7854 34.1377 15.8312C33.9816 15.9387 33.8178 16.0347 33.6474 16.1183C33.3566 16.27 33.0396 16.366 32.713 16.4012C32.4853 16.4203 32.2571 16.3695 32.0594 16.2555C31.9816 16.2134 31.9086 16.1632 31.8415 16.1058C31.8519 16.1855 31.876 16.2629 31.9127 16.3346C31.9836 16.4581 32.0813 16.5644 32.1987 16.6457C32.3161 16.727 32.4503 16.7814 32.5915 16.8048C33.0735 16.9008 33.572 16.8751 34.0413 16.7299C34.0728 16.7227 34.1036 16.7129 34.1335 16.7007C34.1042 16.8963 34.0832 17.0877 34.0707 17.2791C33.7271 22.0763 37.5443 23.1164 38.286 23.1331Z" fill="#F2C777"/>
<path d="M40.4356 27.7596C40.0095 29.1889 39.8588 30.6851 39.9914 32.1699C39.9914 32.3571 40.0291 32.536 40.0543 32.7191C39.9668 32.585 39.887 32.4461 39.8154 32.303C39.6065 31.8172 39.475 31.3021 39.4257 30.7761C39.3143 29.3283 39.4937 27.873 39.9537 26.4948C40.0794 26.0787 40.2386 25.7084 40.4188 25.2466C40.599 24.7848 40.7624 24.3438 40.9091 23.8486C41.0503 23.3939 41.1499 22.9274 41.2066 22.4548C40.7953 22.7056 40.3567 22.9094 39.8992 23.0623C39.8699 23.2454 39.8364 23.4284 39.7945 23.6073C39.6897 24.0775 39.564 24.531 39.4299 24.972C39.2958 25.413 39.1492 25.879 39.0612 26.3159C38.7071 27.8182 38.6771 29.3779 38.9732 30.8926C39.0918 31.4424 39.2998 31.9694 39.5892 32.4528C39.7353 32.6892 39.9098 32.9071 40.1087 33.1019C40.3015 34.3168 40.6283 35.436 40.8797 36.4553C41.0332 37.0553 41.1508 37.6638 41.2317 38.2777C41.2983 38.8089 41.3137 39.3453 41.2778 39.8795C41.2246 40.6644 41.0639 41.4385 40.8001 42.1803C40.6158 42.7087 40.4817 43.0125 40.4859 43.0125C40.6385 42.7631 40.7784 42.5062 40.9049 42.2427C41.2686 41.5156 41.5214 40.7388 41.6549 39.9378C41.7427 39.3806 41.7736 38.816 41.7471 38.2527C41.7144 37.6096 41.6332 36.9698 41.5041 36.3388C41.3449 35.5067 41.1353 34.6205 40.9719 33.7135H41.0013V33.6594H40.9761C40.8802 33.1515 40.8103 32.639 40.7666 32.1241C40.6393 30.7219 40.7412 29.3085 41.0683 27.9385C41.3658 26.6654 41.7723 25.5295 42.0153 24.5393C42.2236 23.7595 42.3375 22.9577 42.3547 22.1511C42.3611 21.8565 42.3471 21.5618 42.3128 21.2691C42.2603 22.3501 42.0354 23.4159 41.6465 24.427C41.3155 25.3548 40.8169 26.4532 40.4356 27.7596Z" fill="#F2C777"/>
<path d="M38.2986 28.3795C38.18 28.1251 38.1171 27.8486 38.1142 27.5682C38.1124 27.1829 38.1574 26.7987 38.2483 26.4241C38.4368 25.5628 38.8349 24.5559 39.1827 23.2911V23.2578C39.0367 23.2946 38.8883 23.321 38.7385 23.3369H38.6925C38.546 23.3474 38.3989 23.3474 38.2525 23.3369C38.0681 24.4852 37.8335 25.517 37.779 26.3866C37.7455 26.7965 37.7652 27.209 37.8376 27.614C37.8944 27.913 38.0144 28.1966 38.1896 28.4461C38.2991 28.5929 38.4322 28.7208 38.5835 28.8247C38.634 28.8595 38.6872 28.8901 38.7427 28.9163C38.6934 28.8798 38.6472 28.8395 38.6045 28.7956C38.4799 28.6748 38.3765 28.5342 38.2986 28.3795Z" fill="#F2C777"/>
<path d="M38.6799 19.7671C38.4765 19.5946 38.2476 19.4542 38.0011 19.3511C38.1586 19.4379 38.2883 19.5671 38.375 19.7239C38.4618 19.8807 38.5021 20.0587 38.4913 20.2373C38.4924 20.3823 38.4606 20.5257 38.3982 20.6568C38.3358 20.7878 38.2445 20.9033 38.131 20.9945C38.1977 21.1018 38.2485 21.2181 38.2818 21.3399C38.3321 21.5274 38.3603 21.7201 38.3656 21.914C38.7438 21.9637 39.1281 21.9397 39.497 21.8433C39.3838 21.265 39.0821 20.1166 38.6799 19.7671Z" fill="#F2C777"/>
<path d="M41.0054 21.0901C40.8724 20.8618 40.67 20.6812 40.4272 20.5742C40.3031 20.5215 40.1717 20.4879 40.0375 20.4744C39.9193 20.472 39.8028 20.4461 39.6948 20.3982C39.5868 20.3503 39.4896 20.2814 39.409 20.1956L39.828 21.8141C40.2591 21.6543 40.6664 21.4374 41.039 21.1692L41.0054 21.0901Z" fill="#F2C777"/>
<path d="M34.7746 25.2674C34.7746 25.2674 34.7746 25.2674 34.7746 25.2466V25.1343L34.8081 24.9262C34.8366 24.7043 34.9282 24.495 35.0721 24.3229C35.1859 24.2063 35.3316 24.1253 35.4911 24.0899C35.5586 24.0738 35.6273 24.0626 35.6964 24.0567C35.5702 23.9854 35.4297 23.9425 35.2849 23.931C35.1401 23.9195 34.9945 23.9396 34.8584 23.9901C34.7053 24.0504 34.5689 24.1459 34.4603 24.2688C34.3402 24.4006 34.2426 24.551 34.1712 24.714C34.1334 24.7969 34.0998 24.8816 34.0706 24.9678L34.0287 25.101L34.0078 25.2008L33.9826 25.3256C33.924 25.6543 33.9072 25.9872 33.8737 26.3367H33.903C34.2592 26.2368 34.6112 26.1411 34.9296 26.0413C34.9853 26.0236 35.0398 26.0027 35.0931 25.9789C35.1374 25.9634 35.1808 25.9453 35.223 25.9248C35.3061 25.8873 35.3872 25.8457 35.466 25.8C35.6234 25.7095 35.7649 25.5943 35.885 25.4588C35.9909 25.3367 36.072 25.1954 36.1239 25.0427C36.1838 24.8347 36.1838 24.6142 36.1239 24.4061C36.0819 24.2688 36.0442 24.2023 36.0484 24.2023C36.0526 24.2023 36.0484 24.2772 35.9981 24.4061C35.9534 24.5735 35.8734 24.7295 35.7635 24.8638C35.603 25.0261 35.3997 25.14 35.1769 25.1925C35.1101 25.2174 35.0415 25.2369 34.9715 25.2507L34.8626 25.2757C34.8291 25.2757 34.762 25.3007 34.7788 25.2757L34.7746 25.2674Z" fill="#F2C777"/>
<path d="M35.8766 22.8502C35.9212 22.889 35.9632 22.9307 36.0023 22.975C35.9984 22.9125 35.9857 22.8509 35.9646 22.7919C35.9071 22.6188 35.7898 22.4715 35.6336 22.3758C35.5146 22.3008 35.3799 22.2538 35.2397 22.2385C35.0885 22.2138 34.9342 22.2138 34.783 22.2385C34.7076 22.2385 34.6321 22.2718 34.5567 22.2926C34.4813 22.3134 34.4813 22.3176 34.4436 22.3342C34.4059 22.3509 34.3891 22.3342 34.3598 22.3634L34.2634 22.4091C33.9994 22.5298 33.7564 22.6837 33.4966 22.8252H33.5175C33.7606 23.0249 34.0036 23.2163 34.2299 23.391C34.3011 23.441 34.3179 23.4493 34.3556 23.4742C34.3933 23.4992 34.4184 23.5159 34.4561 23.5367C34.4939 23.5575 34.5902 23.6074 34.6657 23.6407C34.8053 23.7068 34.9557 23.7477 35.1098 23.7613C35.2679 23.7787 35.4279 23.7557 35.5745 23.6946C35.7212 23.6334 35.8497 23.5361 35.9479 23.4118C35.9875 23.3629 36.0239 23.3115 36.0568 23.2579C36.0568 23.2579 35.994 23.287 35.885 23.3245C35.7517 23.3757 35.6086 23.3971 35.466 23.3869C35.2726 23.3592 35.0918 23.2752 34.9464 23.1456L34.8039 23.0332L34.7285 22.9667L34.6782 22.9209V22.8959L34.762 22.8502C34.8165 22.821 34.871 22.7961 34.9255 22.7711C35.0946 22.6799 35.2867 22.6394 35.4786 22.6546C35.6288 22.676 35.7683 22.7445 35.8766 22.8502Z" fill="#F2C777"/>
<path d="M36.987 26.9358C37.1588 26.6903 37.3223 26.4615 37.4647 26.2118L37.515 26.1161L37.5569 26.0371L37.603 25.9289C37.6324 25.8559 37.6562 25.7808 37.6742 25.7042C37.7163 25.5596 37.7361 25.4095 37.7329 25.2591C37.7311 25.1223 37.6997 24.9875 37.6407 24.8638C37.5571 24.7013 37.4172 24.5742 37.2468 24.506C37.1337 24.4644 37.075 24.4602 37.075 24.4561C37.1139 24.4998 37.1502 24.5456 37.184 24.5934C37.2709 24.7032 37.3221 24.8367 37.3306 24.9761C37.3275 25.1667 37.2709 25.3525 37.1672 25.5129L37.0792 25.671L37.0247 25.75C37.0247 25.75 36.9954 25.7167 36.9787 25.6959L36.9284 25.6169C36.8921 25.5717 36.8585 25.5245 36.8278 25.4754C36.7169 25.3203 36.653 25.137 36.6434 24.947C36.6468 24.8028 36.6811 24.661 36.744 24.531C36.7901 24.4269 36.8236 24.3687 36.8236 24.3687C36.7687 24.3952 36.7168 24.4272 36.6686 24.4644C36.518 24.5683 36.4003 24.7126 36.3292 24.8804C36.2734 25.012 36.2462 25.1538 36.2496 25.2965C36.2515 25.4482 36.2784 25.5986 36.3292 25.7417C36.3516 25.8144 36.3796 25.8854 36.413 25.9539L36.4591 26.0537L36.5303 26.1827C36.677 26.4157 36.8404 26.6654 37.008 26.9192L36.987 26.9358Z" fill="#F2C777"/>
<path d="M36.2831 23.6407C36.2831 23.7786 36.3383 23.9109 36.4365 24.0084C36.5347 24.106 36.668 24.1608 36.8069 24.1608C36.9458 24.1608 37.079 24.106 37.1772 24.0084C37.2755 23.9109 37.3306 23.7786 37.3306 23.6407C37.3306 23.5028 37.2755 23.3705 37.1772 23.2729C37.079 23.1754 36.9458 23.1206 36.8069 23.1206C36.668 23.1206 36.5347 23.1754 36.4365 23.2729C36.3383 23.3705 36.2831 23.5028 36.2831 23.6407Z" fill="#F2C777"/>
<path d="M42.5014 5.33386C42.4091 6.05587 42.168 6.75126 41.7932 7.37673C41.5963 7.70544 41.3645 8.01231 41.1018 8.29207C40.8845 8.5262 40.6491 8.74321 40.3979 8.94112C40.2638 9.0493 40.1255 9.15331 39.9789 9.249C39.6023 9.50578 39.2008 9.7246 38.7805 9.90222C38.3836 10.0682 37.9728 10.199 37.5527 10.2933C36.8269 10.4627 36.0809 10.5313 35.3361 10.4972C34.8263 10.4757 34.3236 10.3702 33.8486 10.1851C33.6696 10.114 33.4972 10.0277 33.3332 9.92719C33.4653 10.0728 33.6128 10.2039 33.7732 10.3183C34.2214 10.6321 34.7265 10.8567 35.2607 10.9798C36.0582 11.1651 36.8827 11.2073 37.6952 11.1046C38.1827 11.0481 38.6621 10.9364 39.1241 10.7718C39.6232 10.5914 40.0976 10.3496 40.5362 10.052C40.5697 10.0312 40.6032 10.0021 40.6409 9.97711C40.9123 9.78774 41.1661 9.5747 41.3993 9.34054C41.8678 8.88517 42.2497 8.34957 42.5265 7.75951C42.8743 7.00678 43.0339 6.18178 42.9916 5.35467C42.9627 4.81728 42.8583 4.28653 42.6816 3.77779C42.56 3.41998 42.472 3.23691 42.472 3.23275C42.472 3.22859 42.5014 3.44078 42.5349 3.80692C42.578 4.31565 42.5667 4.82747 42.5014 5.33386Z" fill="#F2C777"/>
<path d="M40.863 10.2518C41.0125 10.6968 41.1874 11.133 41.3868 11.5583L41.6885 12.1948L41.8267 12.4777L41.9357 12.7523C42.0581 13.1141 42.1314 13.4905 42.1536 13.8716C42.1941 14.533 42.049 15.1926 41.7346 15.7771C41.5153 16.1835 41.1858 16.5208 40.7834 16.7507C40.6275 16.8363 40.4632 16.906 40.2931 16.9587C40.4784 16.9594 40.663 16.9356 40.842 16.888C41.3515 16.7538 41.8048 16.4624 42.1368 16.0559C42.6447 15.4374 42.9386 14.6729 42.9749 13.8757C43.0021 13.4047 42.9512 12.9324 42.824 12.4777C42.7912 12.3565 42.7521 12.2371 42.7067 12.1199C42.6606 11.9993 42.6061 11.8786 42.56 11.7829L42.2751 11.1547C42.0823 10.7386 41.8938 10.3226 41.7387 9.93562C41.6801 9.79415 41.6298 9.65269 41.5837 9.51955C41.349 9.75376 41.0938 9.96679 40.8211 10.1561L40.863 10.2518Z" fill="#F2C777"/>
<path d="M41.039 8.04661L40.9761 7.80113C40.937 7.63991 40.9117 7.47566 40.9007 7.31017C40.8838 7.00378 40.9135 6.69663 40.9887 6.39901C41.0964 5.9506 41.3287 5.5412 41.6591 5.21738C41.7859 5.09487 41.9265 4.98736 42.0782 4.89702C41.8981 4.93833 41.7247 5.00414 41.5628 5.09257C41.1045 5.35432 40.7399 5.75134 40.5194 6.22842C40.3598 6.56255 40.2591 6.92141 40.2219 7.28937C40.2009 7.49827 40.2009 7.70873 40.2219 7.91763C40.2219 8.12566 40.2638 8.31289 40.2931 8.52508L40.3225 8.69983C40.577 8.49969 40.8165 8.28137 41.039 8.04661Z" fill="#F2C777"/>
</g>
<defs>
<clipPath id="clip0_173_156">
<rect width="43" height="43" fill="white" transform="matrix(0 -1 -1 0 43 43)"/>
</clipPath>
</defs>
</svg>
