<svg width="130" height="33" viewBox="0 0 130 33" fill="none" xmlns="http://www.w3.org/2000/svg">
<g clip-path="url(#clip0_244_19)">
<path d="M96.0855 15.5067C96.2088 15.4167 97.2363 13.8937 97.2979 13.7691C97.6658 13.0497 97.92 12.2765 98.0514 11.4777V11.3116V11.0624C98.0514 10.8824 98.0514 10.7093 98.0857 10.5293C98.1063 10.1766 98.1063 9.82291 98.0857 9.47017C98.024 8.77791 97.9144 8.12718 97.8185 7.39339V7.35876C97.1335 7.51798 96.4074 7.66335 95.7156 7.8295C95.3731 7.91949 95.0306 8.00949 94.6881 8.11332L94.4346 8.19639L94.2771 8.25178L94.0031 8.34869C93.3117 8.60903 92.6446 8.93105 92.0097 9.31094C90.8159 9.95436 89.8562 10.9655 89.2697 12.1977C89.053 12.7177 88.9934 13.291 89.0984 13.8452C89.1751 14.2261 89.329 14.5867 89.5505 14.9044C89.7213 15.1624 89.9264 15.3954 90.1602 15.5966C90.0735 15.3213 90.0116 15.0387 89.9752 14.7521C89.9218 14.4302 89.9442 14.1001 90.0406 13.7886C90.137 13.4771 90.3047 13.1929 90.5301 12.9591C91.2675 12.3087 92.141 11.8354 93.0852 11.5746C93.64 11.3877 94.236 11.2216 94.873 11.0624L95.1128 11.0001H95.2087H95.2566V11.1177C95.2306 11.6841 95.1433 12.2459 94.9963 12.793C94.8587 13.3157 94.6706 13.8235 94.4346 14.3091C94.2543 14.7185 94.0116 15.0969 93.7154 15.4305C93.5003 15.6895 93.2362 15.9025 92.9386 16.0571C92.641 16.2116 92.3159 16.3045 91.9823 16.3304C91.702 16.3366 91.4225 16.2992 91.1534 16.2197C91.3565 16.4561 91.6061 16.6471 91.8864 16.7804C92.2376 16.947 92.6219 17.0299 93.0098 17.0227C93.5426 17.0166 94.0672 16.8888 94.5442 16.6489C95.126 16.3721 95.6494 15.9843 96.0855 15.5067Z" fill="#F2C777"/>
<path d="M129.938 14.5444C129.686 13.3367 129.113 12.2214 128.281 11.3185C127.413 10.3159 126.364 9.48905 125.191 8.88174C124.881 8.71464 124.561 8.56668 124.232 8.43868C123.924 8.321 123.595 8.18948 123.246 8.07872C122.552 7.86557 121.845 7.69907 121.129 7.58029C119.632 7.34646 118.116 7.25376 116.601 7.30339C114.975 7.34746 113.356 7.54446 111.765 7.89181C110.915 8.06481 110.077 8.2961 109.258 8.58407C108.443 8.87482 107.641 9.19326 106.833 9.53247C105.217 10.2247 103.586 10.9516 101.922 11.7615C101.086 12.1631 100.25 12.5853 99.4009 13.0353L98.9967 13.2499C98.62 13.8799 96.5718 15.8943 96.428 16.3235C97.8528 16.0328 99.305 16.3235 99.5448 16.1989C99.9215 15.9566 100.305 15.7282 100.689 15.5067C101.47 15.0498 102.251 14.6136 103.031 14.1914C104.593 13.3399 106.141 12.5507 107.662 11.8308C108.416 11.4639 109.169 11.1385 109.909 10.8062C110.619 10.505 111.346 10.2484 112.087 10.0378C113.526 9.63678 114.998 9.36574 116.485 9.22787C119.369 8.97866 122.136 9.13788 124.369 10.0724C125.438 10.5202 126.415 11.1632 127.253 11.9692C128.018 12.6698 128.593 13.5562 128.925 14.5444C129.062 14.9652 129.103 15.4122 129.044 15.8513C128.984 16.2905 128.826 16.7101 128.582 17.0781C128.341 17.4266 128.047 17.7349 127.712 17.9919C127.407 18.2513 127.068 18.4679 126.705 18.6357C126.119 18.928 125.458 19.0323 124.812 18.9345C124.166 18.8368 123.564 18.5417 123.088 18.0888C122.923 17.925 122.8 17.7224 122.73 17.4989C122.661 17.2755 122.648 17.0381 122.691 16.8081C122.79 16.4726 122.995 16.1787 123.273 15.9705C123.502 15.7911 123.756 15.6465 124.027 15.5413C123.752 15.6224 123.489 15.7412 123.246 15.8943C122.939 16.0909 122.7 16.3787 122.561 16.7181C122.481 16.9702 122.465 17.2384 122.514 17.4984C122.563 17.7584 122.676 18.0018 122.842 18.2065C123.316 18.7683 123.949 19.1692 124.656 19.3549C125.363 19.5407 126.11 19.5023 126.794 19.2449C127.222 19.106 127.628 18.9055 128 18.6495C128.411 18.3895 128.783 18.07 129.103 17.7011C129.462 17.2869 129.726 16.7976 129.877 16.2681C130.021 15.705 130.042 15.1167 129.938 14.5444Z" fill="#F2C777"/>
<path d="M29.2702 15.4997C29.6606 15.7351 30.0579 15.9704 30.4347 16.192C30.8115 16.4135 33.3049 16.4758 34.031 16.6142C34.031 16.6142 32.7158 14.7036 31.9075 13.7621C31.5333 13.4545 31.1059 13.2198 30.647 13.0699C29.8113 12.6268 28.9893 12.2114 28.1673 11.8099C26.5279 11.0115 24.9113 10.2777 23.3175 9.60856C22.5229 9.26935 21.7283 8.95092 20.9268 8.66017C20.1173 8.35848 19.2889 8.11103 18.4471 7.91944C16.8715 7.56118 15.2662 7.3526 13.6521 7.29642C12.1436 7.23149 10.6324 7.30798 9.13793 7.52487C8.42314 7.63276 7.71608 7.78768 7.02127 7.98867C6.67877 8.09251 6.33626 8.2102 6.01431 8.3348C5.69236 8.45941 5.32931 8.59786 5.05531 8.74324C3.86587 9.3296 2.79497 10.1348 1.89744 11.1177C1.04134 12.0046 0.429713 13.1024 0.123287 14.3021C-0.00325394 14.8812 -0.00325394 15.4813 0.123287 16.0604C0.235796 16.6051 0.470107 17.1166 0.808291 17.5557C1.11745 17.9475 1.48487 18.2884 1.89744 18.5664C2.26918 18.8284 2.67189 19.0424 3.0962 19.2033C3.8613 19.4919 4.69529 19.5378 5.48687 19.3348C6.13788 19.1708 6.72067 18.8024 7.15142 18.2826C7.32637 18.0786 7.44859 17.8341 7.50717 17.5707C7.56574 17.3074 7.55884 17.0334 7.48708 16.7734C7.36211 16.4168 7.12045 16.114 6.80207 15.9151C6.55308 15.7585 6.28628 15.633 6.00747 15.5412C6.26623 15.6547 6.51199 15.7963 6.74041 15.9635C7.01646 16.1639 7.22268 16.4474 7.32952 16.7734C7.38066 16.9968 7.37614 17.2294 7.31636 17.4505C7.25658 17.6716 7.14341 17.8743 6.98702 18.0403C6.53441 18.5009 5.95332 18.8108 5.32158 18.9283C4.68985 19.0458 4.03767 18.9655 3.45241 18.6979C3.08863 18.5453 2.74746 18.3427 2.43859 18.0957C2.09891 17.8481 1.79663 17.5519 1.54124 17.2165C1.27703 16.8663 1.0958 16.4596 1.01148 16.0275C0.92717 15.5955 0.942021 15.1497 1.05489 14.7244C1.33938 13.7332 1.88097 12.8369 2.62355 12.1284C3.44225 11.3037 4.40339 10.6374 5.45946 10.1624C7.66517 9.18629 10.4189 8.98552 13.3233 9.21397C14.8207 9.33699 16.3041 9.5965 17.7553 9.98931C18.5051 10.195 19.2417 10.447 19.961 10.7439C20.7008 11.0554 21.4611 11.4015 22.2283 11.7615C23.7628 12.4953 25.3314 13.2914 26.9206 14.1498C27.681 14.5928 28.4824 15.0359 29.2702 15.4997Z" fill="#F2C777"/>
<path d="M42.6963 13.4436C42.9104 13.575 43.1407 13.6774 43.3813 13.7482C43.2499 13.5507 43.1353 13.3423 43.0388 13.1252C42.7973 12.625 42.7182 12.0605 42.8127 11.5122C42.989 10.7837 43.3448 10.1122 43.8471 9.56005C44.1411 9.20573 44.4592 8.87265 44.7992 8.56321L45.0732 8.31399L45.1417 8.25862C45.1492 8.24228 45.1627 8.22952 45.1793 8.22306C45.1959 8.2166 45.2144 8.21693 45.2308 8.22399C45.481 8.57171 45.7098 8.93469 45.9158 9.31084C46.2511 9.88122 46.3727 10.5543 46.2583 11.2076C46.1483 11.7504 45.9687 12.2763 45.724 12.7721L45.4294 13.3675C45.6346 13.2795 45.8337 13.1778 46.0254 13.0629C46.5947 12.7495 47.0937 12.3205 47.4913 11.803C47.8132 11.3952 48.0466 10.9234 48.1763 10.4185C48.2999 9.82267 48.2999 9.20744 48.1763 8.61165C48.0608 8.00902 47.8721 7.42311 47.6146 6.86717C47.1556 5.93262 46.5734 5.00498 45.9774 4.02197L44.9842 4.66579C44.4997 4.97279 44.0415 5.32013 43.6142 5.70418L43.2922 6.00185L43.1415 6.15414L43.0525 6.24414L42.7237 6.62487C42.3182 7.12995 41.9755 7.68326 41.703 8.27245C41.1856 9.32339 41.0592 10.5272 41.3468 11.6645C41.5527 12.4113 42.0362 13.0487 42.6963 13.4436V13.4436Z" fill="#F2C777"/>
<path d="M54.3003 14.8005L54.5469 14.4682L54.6633 14.2951L54.725 14.2051L54.814 14.0528C55.0752 13.6087 55.3041 13.146 55.499 12.6683C55.6908 12.1976 55.8689 11.7269 56.0607 11.2215L55.1565 10.7923C54.6586 10.5519 54.1461 10.3439 53.6221 10.1693C53.492 10.1277 53.3618 10.0862 53.218 10.0516L53.0125 9.99619H52.8892C52.7248 9.99619 52.5604 9.9339 52.396 9.92005C51.7488 9.82625 51.0905 9.84734 50.4505 9.98235C49.8455 10.0931 49.2695 10.3288 48.7586 10.6746C48.3306 10.9802 47.9692 11.3713 47.6968 11.8238C47.3412 12.4196 47.1365 13.0949 47.1009 13.7898C47.0854 14.0203 47.0854 14.2515 47.1009 14.482C47.1009 14.482 47.2516 14.2674 47.5187 13.9351C47.8659 13.4928 48.2852 13.1135 48.7586 12.8137C49.3416 12.4697 50.0203 12.3286 50.6903 12.4122C51.0901 12.449 51.4849 12.5279 51.8685 12.6476L52.1836 12.7445H52.259C52.259 12.7445 52.3138 12.7445 52.3412 12.7929C52.3686 12.8414 52.3412 12.7929 52.3412 12.7929L52.3069 12.876L52.2384 13.0352L52.1014 13.3467L51.8342 13.9559C51.5307 14.6414 51.154 15.2914 50.7108 15.8943C50.4325 16.302 50.0313 16.6079 49.5669 16.7665C49.3706 16.8201 49.167 16.8412 48.9641 16.8288C49.1287 16.99 49.3247 17.1149 49.5395 17.1957C50.1902 17.4045 50.896 17.3474 51.5054 17.0365C52.3738 16.6341 53.1487 16.0515 53.7797 15.3266C53.9578 15.2297 54.129 15.022 54.3003 14.8005Z" fill="#F2C777"/>
<path d="M49.9779 21.467C49.5442 21.5642 49.0991 21.5992 48.6558 21.5708C48.3136 21.5169 47.9945 21.3629 47.7379 21.1278C47.5256 20.934 47.4091 20.7886 47.4091 20.7955C47.3599 20.9572 47.3323 21.1249 47.3269 21.2939C47.3117 21.8133 47.4846 22.3204 47.8133 22.72C48.3256 23.3131 49.012 23.7254 49.7724 23.8968C50.3404 24.0282 50.9231 24.0841 51.5054 24.063C52.1904 24.063 52.9713 24.063 53.7385 24.0076V23.6546C53.6871 22.9546 53.5795 22.2601 53.4166 21.5778C53.316 21.2373 53.1924 20.9043 53.0467 20.5809C52.9782 20.4286 52.896 20.2694 52.8206 20.131C52.7647 20.0349 52.7029 19.9424 52.6357 19.8541C52.2009 19.2253 51.6136 18.72 50.93 18.3865C50.467 18.1501 49.9405 18.0723 49.4299 18.1649C49.2565 18.1997 49.0899 18.2628 48.9367 18.3518C49.0752 18.4324 49.2079 18.5226 49.334 18.6218C49.6146 18.8619 49.8352 19.1655 49.9779 19.5079C50.1755 19.9757 50.3247 20.4629 50.4231 20.9617C50.4274 21.0262 50.4274 21.0909 50.4231 21.1555C50.4231 21.1555 50.4231 21.1555 50.4231 21.197C50.4036 21.2158 50.3802 21.2299 50.3546 21.2386C50.3322 21.2444 50.3086 21.2444 50.2861 21.2386C50.308 21.2606 50.3203 21.2905 50.3204 21.3216C50.2793 21.3493 50.3478 21.4186 49.9779 21.467Z" fill="#F2C777"/>
<path d="M31.9212 11.0623V11.3115V11.4777C32.1679 12.989 32.8547 14.3917 33.894 15.5066C34.3197 15.994 34.8365 16.3916 35.4147 16.6765C35.8918 16.9164 36.4163 17.0442 36.9491 17.0504C37.3391 17.0567 37.7255 16.9738 38.0794 16.8081C38.3586 16.6763 38.6063 16.485 38.8055 16.2473C38.5367 16.3283 38.257 16.3657 37.9766 16.3581C37.6432 16.3314 37.3183 16.2382 37.0208 16.0837C36.7233 15.9292 36.4592 15.7166 36.2436 15.4582C35.9473 15.1246 35.7046 14.7462 35.5243 14.3367C35.2913 13.8499 35.1033 13.3424 34.9626 12.8207C34.8156 12.2735 34.7283 11.7117 34.7023 11.1454V11.0416H34.7502H34.8461L35.0859 11.1039C35.723 11.2631 36.3258 11.4292 36.8806 11.6161C37.8221 11.8783 38.6931 12.3516 39.4288 13.0006C39.6542 13.2344 39.8219 13.5186 39.9183 13.8301C40.0147 14.1416 40.0371 14.4717 39.9837 14.7936C39.9473 15.0802 39.8854 15.3628 39.7987 15.6382C40.0325 15.4369 40.2377 15.2039 40.4084 14.9459C40.6325 14.6289 40.7888 14.2682 40.8673 13.8867C40.9688 13.3323 40.9093 12.7602 40.6961 12.2392C40.1104 11.0065 39.1504 9.99509 37.9561 9.35244C37.3212 8.97256 36.6541 8.65055 35.9627 8.39022L35.6956 8.29329L35.538 8.23792L35.2846 8.15483C34.9421 8.05099 34.5995 7.96101 34.2502 7.87102C33.5652 7.70488 32.8802 7.55949 32.1472 7.40027V7.43489C32.0513 8.12715 31.9486 8.81941 31.8801 9.51167C31.8801 9.8578 31.8458 10.2039 31.8801 10.5708C31.9006 10.7162 31.9075 10.8823 31.9212 11.0623Z" fill="#F2C777"/>
<path d="M34.1611 23.2806C33.0339 23.2825 31.9187 23.0468 30.8868 22.5884C30.3036 22.3348 29.7499 22.0168 29.236 21.64L28.8592 21.3423L28.7839 21.2731C28.7839 21.2731 28.7839 21.2731 28.8592 21.2177L29.2976 20.9339C29.8738 20.5833 30.4684 20.2644 31.0786 19.9786C32.1009 19.4709 33.1971 19.132 34.3255 18.9748C35.0751 18.8517 35.8432 19.0119 36.4833 19.4247C36.7303 19.6086 36.9495 19.8278 37.1341 20.0755C37.0907 19.7417 36.9837 19.4196 36.8189 19.1271C36.6101 18.7604 36.325 18.4439 35.9832 18.1995C35.5249 17.8723 35.0087 17.6373 34.4625 17.5072C33.0848 17.2147 31.6583 17.2526 30.2977 17.618C29.5058 17.8102 28.7348 18.0815 27.9961 18.4279C27.7974 18.5179 27.6057 18.6217 27.407 18.7256C27.3454 18.7602 27.1398 18.8779 26.9823 18.9817C26.8247 19.0855 26.6535 19.1963 26.4891 19.314C25.8868 19.779 25.319 20.288 24.7903 20.837L24.9615 21.1139C25.3404 21.7852 25.8006 22.4061 26.3315 22.9622C26.4685 23.1076 26.6192 23.2391 26.7699 23.3706L26.996 23.5575L27.1535 23.6752C27.3522 23.8137 27.5509 23.9452 27.7495 24.0629C28.5122 24.5028 29.3368 24.8226 30.195 25.0113C31.6172 25.339 33.1014 25.2624 34.4831 24.7898C35.4046 24.4769 36.2035 23.8756 36.7641 23.073C36.9548 22.7942 37.0983 22.4854 37.1889 22.1592C36.9644 22.3831 36.7136 22.5784 36.4422 22.7407C35.7435 23.1242 34.9556 23.3107 34.1611 23.2806V23.2806Z" fill="#F2C777"/>
<path d="M90.9479 17.8187C90.2263 16.3141 88.9538 15.1523 87.3996 14.579C86.1293 14.1143 84.729 14.174 83.5019 14.7451C83.0681 14.9513 82.6828 15.2487 82.3717 15.6173C81.9962 15.9407 81.7244 16.3696 81.5908 16.8496C81.4493 17.326 81.4493 17.8339 81.5908 18.3102C81.6819 18.6217 81.8361 18.9105 82.0437 19.1584C82.2512 19.4063 82.5076 19.6078 82.7964 19.7501C82.9889 19.8421 83.1911 19.9118 83.3992 19.9578C83.2113 19.8722 83.0323 19.7679 82.8649 19.6463C82.7034 19.5222 82.5603 19.3754 82.4402 19.2102C82.3922 19.1202 82.3237 18.9817 82.2415 18.7879C82.1405 18.536 82.067 18.2737 82.0223 18.0057C82.0064 17.6311 82.0999 17.26 82.2911 16.9388C82.4824 16.6175 82.7629 16.3602 83.0978 16.1989C83.5593 16.0163 84.0612 15.9637 84.55 16.0466C85.0959 16.145 85.6078 16.3833 86.0365 16.7388C87.0528 17.5929 87.7332 18.7863 87.9545 20.1032C88.0123 20.4344 88.0261 20.772 87.9956 21.107C87.9816 21.2609 87.9564 21.4137 87.9202 21.5639C87.8723 21.7508 87.8175 21.9308 87.7627 22.1107C87.533 22.8294 87.1652 23.4951 86.6804 24.0698C85.5162 25.2697 84.0138 26.0772 82.3785 26.382C81.5566 26.5353 80.7139 26.5353 79.892 26.382C78.9695 26.226 78.0668 25.9683 77.1999 25.6136C73.6242 24.1529 70.7403 21.3354 69.8772 18.1926C69.664 17.424 69.5534 16.6301 69.5484 15.832C69.5586 15.0827 69.6762 14.3388 69.8978 13.6237C70.3041 12.2798 71.0067 11.0467 71.9528 10.017C72.7553 9.14862 73.7377 8.47019 74.8298 8.03019C75.6824 7.68944 76.5853 7.49525 77.5013 7.45562C78.3039 7.41613 79.1083 7.46953 79.8988 7.61483C79.1349 7.30187 78.3333 7.09238 77.515 6.9918C76.5304 6.8648 75.5314 6.91166 74.5627 7.13026C73.2413 7.44027 72.0083 8.05379 70.9595 8.92321C69.6672 9.99407 68.6497 11.3643 67.9935 12.9175C67.6179 13.799 67.3755 14.7324 67.2742 15.6866C67.1877 16.7076 67.2477 17.7358 67.4523 18.7394C67.9168 20.8931 68.9624 22.8746 70.4732 24.4644C72.0402 26.1474 73.9527 27.4635 76.0765 28.3203C77.1599 28.7679 78.2944 29.0772 79.4536 29.241C80.6541 29.4242 81.8787 29.3654 83.0567 29.068C84.1192 28.7703 85.1408 28.3401 86.0981 27.7873C87.0683 27.2231 87.9163 26.4674 88.5915 25.5651C89.2175 24.6978 89.6626 23.711 89.8999 22.6646C89.9547 22.42 90.0026 22.1777 90.0437 21.9377C90.0856 21.6629 90.1039 21.385 90.0985 21.107C90.0911 20.5964 90.0174 20.089 89.8793 19.5978C89.4135 17.8746 88.3228 16.3917 86.8242 15.4443C86.6672 15.3494 86.5048 15.2639 86.3379 15.1881C86.5714 15.2502 86.8003 15.3288 87.0229 15.4235C88.2541 16.0127 89.2185 17.0517 89.7218 18.331C90.0195 19.0457 90.22 19.7979 90.3177 20.567C90.441 21.3698 90.441 22.1871 90.3177 22.9899C90.0295 24.6997 89.2116 26.2729 87.9819 27.4827C86.6342 28.816 84.9899 29.8035 83.1868 30.3625C81.3807 30.9429 79.4731 31.1294 77.5904 30.9094C75.8184 30.6827 74.1 30.1413 72.5145 29.3102C69.7744 27.9172 67.4609 25.797 65.822 23.1768C65.7124 22.9968 65.6165 22.8099 65.5138 22.6299C66.5315 20.1364 66.693 17.3701 65.9727 14.7728C66.0763 15.562 66.1107 16.3589 66.0754 17.1542C66.001 18.6965 65.6409 20.2111 65.0137 21.6192C64.393 20.2089 64.0331 18.6956 63.952 17.1542C63.9211 16.3589 63.9555 15.5624 64.0547 14.7728C63.3454 17.3712 63.5068 20.1339 64.5136 22.6299C64.4177 22.8099 64.3218 22.9968 64.2054 23.1768C62.5535 25.8218 60.2149 27.9577 57.4444 29.3518C55.8593 30.1838 54.1407 30.7252 52.3685 30.9509C50.4858 31.1707 48.5783 30.9843 46.772 30.404C44.9697 29.8433 43.3259 28.856 41.977 27.5242C41.0558 26.653 40.3623 25.565 39.9583 24.3571C39.5543 23.1492 39.4524 21.859 39.6617 20.6016C39.7626 19.8331 39.963 19.0814 40.2577 18.3656C40.7609 17.0863 41.7254 16.0474 42.9566 15.4581C43.1788 15.3626 43.4078 15.284 43.6416 15.2228C43.4718 15.297 43.307 15.3826 43.1484 15.4789C41.6498 16.4264 40.5591 17.9092 40.0933 19.6325C39.9585 20.1244 39.8849 20.6313 39.8741 21.1416C39.8712 21.4198 39.8919 21.6977 39.9357 21.9723C39.97 22.2146 40.0179 22.4569 40.0727 22.6992C40.31 23.7456 40.7551 24.7324 41.3811 25.5997C42.0563 26.502 42.9043 27.2577 43.8745 27.8219C44.8336 28.3759 45.8577 28.8062 46.9227 29.1026C48.0984 29.4002 49.3207 29.459 50.519 29.2756C51.6784 29.1127 52.8129 28.8034 53.8961 28.3549C56.0208 27.4999 57.9337 26.1836 59.4994 24.499C61.0098 22.9079 62.0573 20.9272 62.5271 18.7741C62.7262 17.7697 62.7838 16.7419 62.6984 15.7212C62.6003 14.7664 62.3578 13.8325 61.9791 12.9522C61.3229 11.3989 60.3054 10.0287 59.0131 8.95781C57.966 8.08975 56.7356 7.47634 55.4168 7.16487C54.4457 6.94629 53.4445 6.89946 52.4576 7.02643C51.6393 7.127 50.8377 7.33649 50.0738 7.64946C50.8666 7.50399 51.6733 7.45057 52.4781 7.49023C53.3918 7.53062 54.2924 7.72482 55.1428 8.06482C56.2349 8.50482 57.2173 9.18325 58.0198 10.0516C58.9682 11.0796 59.6712 12.3133 60.0748 13.6583C60.2963 14.3734 60.414 15.1173 60.4242 15.8666C60.4192 16.6647 60.3086 17.4586 60.0954 18.2272C59.2391 21.37 56.3552 24.1875 52.7795 25.6482C51.9103 26.003 51.0053 26.2607 50.0806 26.4166C49.2587 26.5699 48.416 26.5699 47.594 26.4166C45.9599 26.1084 44.4586 25.3014 43.2922 24.1045C42.8071 23.5311 42.4414 22.8648 42.2168 22.1454C42.1551 21.9654 42.1003 21.7854 42.0524 21.5985C42.0162 21.4483 41.991 21.2955 41.977 21.1416C41.9499 20.8066 41.9637 20.4694 42.0181 20.1378C42.2423 18.8219 42.9221 17.6295 43.9361 16.7734C44.3673 16.4176 44.8814 16.1793 45.4294 16.0812C45.916 15.9995 46.4154 16.0522 46.8748 16.2335C47.2097 16.3948 47.4902 16.6521 47.6815 16.9734C47.8727 17.2946 47.9662 17.6657 47.9503 18.0403C47.9056 18.3083 47.8321 18.5706 47.7311 18.8225C47.6739 18.9674 47.6076 19.1085 47.5324 19.2448C47.4122 19.41 47.2692 19.5569 47.1077 19.6809C46.9403 19.8025 46.7613 19.9068 46.5734 19.9924C46.7818 19.9476 46.9841 19.8779 47.1762 19.7848C47.4653 19.6418 47.7222 19.4402 47.9308 19.1924C48.1394 18.9447 48.2953 18.6562 48.3887 18.3449C48.5262 17.8679 48.5262 17.3612 48.3887 16.8842C48.2577 16.4048 47.9882 15.9757 47.6146 15.652C47.3006 15.2864 46.916 14.9896 46.4843 14.7797C45.2573 14.2086 43.857 14.1489 42.5867 14.6136C41.0303 15.186 39.7553 16.3479 39.0315 17.8534C38.6269 18.6629 38.3342 19.5247 38.1616 20.4147C37.8256 21.9224 37.8744 23.4917 38.3034 24.9751C38.7323 26.4585 39.5274 27.8073 40.6139 28.8949C42.1332 30.5008 44.0303 31.6916 46.1281 32.3562C48.2057 33.0296 50.4076 33.2166 52.5672 32.9031C54.5482 32.5946 56.4539 31.9112 58.1842 30.8886C61.0763 29.2487 63.4329 26.7925 64.9657 23.8206C66.5014 26.7928 68.8602 29.2488 71.7541 30.8886C73.4834 31.9133 75.3895 32.5969 77.3712 32.9031C79.5285 33.2155 81.728 33.0286 83.8033 32.3562C85.9028 31.6907 87.8019 30.5002 89.3245 28.8949C90.7805 27.3704 91.7021 25.4056 91.948 23.3014C92.0361 22.3357 91.976 21.362 91.7699 20.4147C91.6183 19.5146 91.3416 18.6406 90.9479 17.8187V17.8187Z" fill="#F2C777"/>
<path d="M82.5224 11.803C82.9199 12.3206 83.419 12.7495 83.9883 13.063C84.1809 13.1806 84.3824 13.2824 84.5911 13.3675L84.2965 12.7722C84.0463 12.2781 83.8642 11.7517 83.7554 11.2077C83.641 10.5544 83.7626 9.88128 84.0979 9.3109C84.3039 8.93474 84.5327 8.57177 84.7829 8.22405C84.7993 8.21699 84.8178 8.21666 84.8344 8.22312C84.851 8.22958 84.8645 8.24234 84.8719 8.25867V8.25867L84.9405 8.31405L85.2144 8.56327C85.5549 8.87449 85.8752 9.20744 86.1734 9.5601C86.674 10.1124 87.0275 10.7841 87.201 11.5123C87.2976 12.0599 87.2209 12.6243 86.9818 13.1253C86.8819 13.3406 86.7675 13.5488 86.6393 13.7483C86.8787 13.6744 87.1086 13.5722 87.3243 13.4437C87.9856 13.0518 88.4752 12.4209 88.6943 11.6784C88.9755 10.54 88.8468 9.33765 88.3312 8.28635C88.0613 7.69574 87.7184 7.14213 87.3106 6.63877C87.201 6.51416 87.0982 6.38264 86.9818 6.25803L86.8927 6.16804L86.742 6.01574L86.4269 5.71807C85.9982 5.33581 85.5401 4.98858 85.0569 4.67968L84.0636 4.03589C83.4745 5.0189 82.8923 5.94651 82.4265 6.88106C82.1712 7.43727 81.9848 8.02321 81.8716 8.62557C81.748 9.22136 81.748 9.83657 81.8716 10.4324C81.9928 10.9297 82.2144 11.3963 82.5224 11.803V11.803Z" fill="#F2C777"/>
<path d="M77.6315 9.89934C77.467 9.89934 77.3095 9.94779 77.1451 9.97548H77.0149L76.8094 10.0309L76.4053 10.1485C75.8813 10.3231 75.3687 10.5312 74.8709 10.7716L73.9667 11.2008C74.1585 11.7061 74.3366 12.1769 74.5284 12.6476C74.7232 13.1253 74.9522 13.588 75.2134 14.0321L75.3093 14.1844L75.3641 14.2744L75.4874 14.4475L75.734 14.7798C75.8943 14.9964 76.0658 15.2043 76.2477 15.4028C76.8795 16.1268 77.6542 16.7092 78.5219 17.1127C79.134 17.4233 79.8417 17.4804 80.4948 17.2719C80.7071 17.1901 80.9006 17.0652 81.0633 16.905C80.8604 16.9172 80.6568 16.8962 80.4605 16.8427C79.9961 16.6841 79.5949 16.3782 79.3166 15.9705C78.8734 15.3689 78.4988 14.7187 78.2 14.0321L77.926 13.4229L77.789 13.1114L77.7205 12.9522V12.8691C77.7205 12.8691 77.7821 12.8138 77.7958 12.8207H77.8712L78.1863 12.7238C78.5699 12.6041 78.9647 12.5252 79.3645 12.4884C80.0345 12.4048 80.7132 12.5459 81.2962 12.8899C81.7696 13.1897 82.1889 13.569 82.5361 14.0114C82.8101 14.3437 82.9471 14.5582 82.9539 14.5582C82.9694 14.3277 82.9694 14.0965 82.9539 13.866C82.9183 13.1711 82.7136 12.4958 82.358 11.9C82.0856 11.4475 81.7242 11.0564 81.2962 10.7508C80.786 10.4037 80.2097 10.168 79.6042 10.0586C78.9611 9.8879 78.2932 9.834 77.6315 9.89934V9.89934Z" fill="#F2C777"/>
<path d="M80.0838 19.501C80.2288 19.1599 80.4491 18.8568 80.7277 18.6149C80.8538 18.5156 80.9865 18.4254 81.125 18.3449C80.9748 18.2547 80.8102 18.1915 80.6387 18.158C80.1258 18.0654 79.5971 18.1431 79.1316 18.3795C78.4481 18.7131 77.8608 19.2184 77.426 19.8471C77.3643 19.9371 77.3164 19.9994 77.241 20.124C77.1657 20.2486 77.0903 20.4217 77.015 20.574C76.8693 20.8973 76.7457 21.2304 76.6451 21.5708C76.4822 22.2531 76.3745 22.9477 76.3231 23.6476L76.2889 24.0007C77.0561 24.0353 77.8233 24.056 78.522 24.056C79.1122 24.0726 79.7019 24.0097 80.2756 23.8691C81.0379 23.6977 81.7265 23.2855 82.2416 22.6923C82.5661 22.2908 82.7364 21.7844 82.7211 21.2662C82.7108 21.0982 82.6856 20.9313 82.6457 20.7678C82.6457 20.7678 82.5293 20.9063 82.3101 21.1001C82.056 21.335 81.7392 21.4891 81.399 21.5432C80.9557 21.5717 80.5106 21.5367 80.077 21.4393C79.7002 21.3908 79.7687 21.3216 79.755 21.2801C79.753 21.2644 79.7551 21.2485 79.7611 21.2339C79.7671 21.2193 79.7768 21.2066 79.7893 21.197V21.197C79.7669 21.2036 79.7431 21.2036 79.7208 21.197C79.6973 21.1881 79.6763 21.1739 79.6591 21.1555C79.6591 21.1555 79.6591 21.1555 79.6248 21.1139C79.5906 21.0724 79.6249 20.9824 79.6591 20.9201C79.7531 20.4338 79.8954 19.9584 80.0838 19.501V19.501Z" fill="#F2C777"/>
<path d="M103.059 18.9264L102.627 18.6703C102.429 18.5664 102.237 18.4626 102.045 18.3726C101.303 18.0272 100.53 17.7559 99.7365 17.5627C98.3759 17.1973 96.9495 17.1594 95.5717 17.4519C95.0256 17.582 94.5093 17.817 94.051 18.1442C93.7111 18.3906 93.4264 18.7067 93.2153 19.0718C93.0542 19.366 92.9474 19.6873 92.9002 20.0202C93.0946 19.7694 93.3256 19.55 93.5852 19.3694C94.2227 18.9564 94.9888 18.7961 95.7361 18.9195C96.8649 19.0748 97.9614 19.4138 98.983 19.9232C99.5948 20.2104 100.192 20.5293 100.771 20.8786L101.202 21.1624C101.312 21.2247 101.271 21.2109 101.278 21.2178L101.196 21.287C101.079 21.3908 100.949 21.4878 100.826 21.5847C100.309 21.9615 99.7534 22.2796 99.168 22.5331C98.1382 22.9907 97.0254 23.2265 95.9005 23.2253C95.1079 23.2344 94.3274 23.0288 93.64 22.63C93.3702 22.4653 93.1197 22.2702 92.8934 22.0485C92.9839 22.3747 93.1274 22.6835 93.3181 22.9623C93.8801 23.7664 94.6817 24.3679 95.606 24.6791C96.9854 25.1515 98.4673 25.2281 99.8873 24.9006C100.746 24.7132 101.571 24.3933 102.333 23.9522C102.531 23.8345 102.737 23.703 102.929 23.5645L103.086 23.4469L103.312 23.2599C103.463 23.1284 103.614 22.9969 103.751 22.8515C104.281 22.2951 104.742 21.6743 105.121 21.0032L105.292 20.7263C104.761 20.1773 104.191 19.6683 103.586 19.2033C103.388 19.141 103.223 19.0233 103.059 18.9264Z" fill="#F2C777"/>
<path d="M64.1506 13.776C64.4745 13.9488 64.8237 14.068 65.1849 14.129C64.9084 13.9281 64.6556 13.6958 64.4314 13.4367C63.8797 12.7558 63.5495 11.9193 63.4861 11.0415C63.4097 9.76426 63.5843 8.48434 63.9999 7.27563C64.2272 6.5614 64.5113 5.86688 64.8493 5.19885L64.9794 4.94272C64.9794 4.89426 64.9794 4.9081 65.0137 4.90118L65.089 5.02578L65.2466 5.27501C65.6371 5.89172 65.9719 6.54277 66.2467 7.22026C66.7211 8.33409 66.8593 9.56474 66.644 10.7577C66.4576 11.6379 66.1216 12.4788 65.6507 13.2429C65.3151 13.8175 65.089 14.129 65.089 14.129C65.4031 13.9625 65.7033 13.7704 65.9864 13.5544C66.8132 12.9539 67.4986 12.1762 67.9934 11.2769C68.3464 10.6134 68.5784 9.89119 68.6785 9.14474C68.7925 8.27787 68.76 7.39773 68.5825 6.54183C68.3934 5.62865 68.0871 4.74433 67.6715 3.91126L67.5071 3.5928L67.4249 3.4405L67.281 3.18437C67.0755 2.83132 66.8289 2.45057 66.596 2.09752C66.1028 1.40526 65.5891 0.713011 65.0548 0.020752L64.8493 0.242269C64.2801 0.805074 63.747 1.40393 63.2532 2.03522C62.997 2.38602 62.7679 2.75633 62.5682 3.14284C62.4723 3.32975 62.3696 3.55128 62.3079 3.68973L62.1641 4.03586C61.8286 4.90452 61.5986 5.81106 61.4791 6.73567C61.2252 8.31604 61.3931 9.93625 61.9654 11.4292C62.3876 12.4537 63.1643 13.2879 64.1506 13.776V13.776Z" fill="#F2C777"/>
<path d="M64.9452 9.0271C64.6818 9.0271 64.4291 9.13285 64.2429 9.32109C64.0566 9.50933 63.952 9.76467 63.952 10.0309C63.952 10.2971 64.0566 10.5524 64.2429 10.7407C64.4291 10.9289 64.6818 11.0346 64.9452 11.0346C65.2086 11.0346 65.4613 10.9289 65.6475 10.7407C65.8338 10.5524 65.9385 10.2971 65.9385 10.0309C65.9385 9.76467 65.8338 9.50933 65.6475 9.32109C65.4613 9.13285 65.2086 9.0271 64.9452 9.0271V9.0271Z" fill="#F2C777"/>
<path d="M45.4774 17.0712C45.2139 17.073 44.9616 17.1791 44.7746 17.3667C44.5876 17.5544 44.4809 17.8087 44.4773 18.075V18.2203C44.498 18.473 44.612 18.7086 44.7967 18.8804C44.9813 19.0521 45.223 19.1474 45.474 19.1474C45.7249 19.1474 45.9667 19.0521 46.1513 18.8804C46.3359 18.7086 46.4499 18.473 46.4706 18.2203V18.075C46.4689 17.8093 46.3636 17.555 46.1778 17.3672C45.9919 17.1793 45.7403 17.073 45.4774 17.0712V17.0712Z" fill="#F2C777"/>
<path d="M4.39773 15.922C4.13431 15.922 3.88167 16.0278 3.6954 16.216C3.50913 16.4043 3.40448 16.6596 3.40448 16.9258C3.40448 17.192 3.50913 17.4473 3.6954 17.6356C3.88167 17.8238 4.13431 17.9296 4.39773 17.9296C4.66116 17.9296 4.91381 17.8238 5.10008 17.6356C5.28635 17.4473 5.39099 17.192 5.39099 16.9258C5.39099 16.6596 5.28635 16.4043 5.10008 16.216C4.91381 16.0278 4.66116 15.922 4.39773 15.922V15.922Z" fill="#F2C777"/>
<path d="M33.6953 20.2278C33.4452 20.2488 33.2121 20.364 33.0422 20.5505C32.8722 20.7371 32.7779 20.9814 32.7779 21.235C32.7779 21.4886 32.8722 21.7329 33.0422 21.9195C33.2121 22.1061 33.4452 22.2213 33.6953 22.2423C33.9454 22.2213 34.1785 22.1061 34.3485 21.9195C34.5184 21.7329 34.6127 21.4886 34.6127 21.235C34.6127 20.9814 34.5184 20.7371 34.3485 20.5505C34.1785 20.364 33.9454 20.2488 33.6953 20.2278V20.2278Z" fill="#F2C777"/>
<path d="M37.5176 13.0491C37.336 13.0491 37.1617 13.1221 37.0333 13.2519C36.9048 13.3817 36.8326 13.5578 36.8326 13.7414V13.8868C36.8326 14.0777 36.9077 14.2609 37.0413 14.3959C37.1749 14.5309 37.3561 14.6067 37.545 14.6067C37.734 14.6067 37.9152 14.5309 38.0488 14.3959C38.1824 14.2609 38.2574 14.0777 38.2574 13.8868V13.7414C38.2485 13.551 38.166 13.3718 38.0277 13.2423C37.8893 13.1129 37.7061 13.0435 37.5176 13.0491V13.0491Z" fill="#F2C777"/>
<path d="M44.765 10.6055H44.6554C44.4674 10.6055 44.287 10.681 44.1541 10.8153C44.0211 10.9497 43.9464 11.1319 43.9464 11.322C43.9464 11.512 44.0211 11.6942 44.1541 11.8286C44.287 11.963 44.4674 12.0385 44.6554 12.0385H44.7992C44.9873 12.0385 45.1676 11.963 45.3006 11.8286C45.4335 11.6942 45.5082 11.512 45.5082 11.322C45.5082 11.1319 45.4335 10.9497 45.3006 10.8153C45.1676 10.681 44.9873 10.6055 44.7992 10.6055H44.765Z" fill="#F2C777"/>
<path d="M49.882 13.4852C49.6939 13.4852 49.5136 13.5607 49.3806 13.6951C49.2477 13.8294 49.173 14.0117 49.173 14.2017C49.173 14.3917 49.2477 14.574 49.3806 14.7083C49.5136 14.8427 49.6939 14.9182 49.882 14.9182C50.07 14.9182 50.2503 14.8427 50.3833 14.7083C50.5162 14.574 50.5909 14.3917 50.5909 14.2017C50.5909 14.0117 50.5162 13.8294 50.3833 13.6951C50.2503 13.5607 50.07 13.4852 49.882 13.4852V13.4852Z" fill="#F2C777"/>
<path d="M48.7654 19.5079C48.5765 19.5079 48.3953 19.5838 48.2617 19.7188C48.1281 19.8538 48.053 20.0369 48.053 20.2279C48.053 20.4188 48.1281 20.6019 48.2617 20.737C48.3953 20.872 48.5765 20.9478 48.7654 20.9478C48.9544 20.9478 49.1356 20.872 49.2692 20.737C49.4028 20.6019 49.4778 20.4188 49.4778 20.2279C49.4778 20.0369 49.4028 19.8538 49.2692 19.7188C49.1356 19.5838 48.9544 19.5079 48.7654 19.5079Z" fill="#F2C777"/>
<path d="M84.7144 17.0712C84.9773 17.073 85.2289 17.1793 85.4147 17.3672C85.6006 17.555 85.7058 17.8093 85.7076 18.075V18.2203C85.7076 18.4865 85.603 18.7418 85.4167 18.9301C85.2305 19.1183 84.9778 19.2241 84.7144 19.2241C84.451 19.2241 84.1983 19.1183 84.012 18.9301C83.8258 18.7418 83.7211 18.4865 83.7211 18.2203V18.075C83.7229 17.8093 83.8281 17.555 84.014 17.3672C84.1999 17.1793 84.4515 17.073 84.7144 17.0712V17.0712Z" fill="#F2C777"/>
<path d="M125.787 15.922C126.051 15.922 126.303 16.0278 126.49 16.216C126.676 16.4043 126.78 16.6596 126.78 16.9258C126.78 17.192 126.676 17.4473 126.49 17.6356C126.303 17.8238 126.051 17.9296 125.787 17.9296C125.524 17.9296 125.271 17.8238 125.085 17.6356C124.899 17.4473 124.794 17.192 124.794 16.9258C124.794 16.6596 124.899 16.4043 125.085 16.216C125.271 16.0278 125.524 15.922 125.787 15.922V15.922Z" fill="#F2C777"/>
<path d="M96.5102 20.2278C96.7603 20.2488 96.9934 20.364 97.1633 20.5505C97.3333 20.7371 97.4276 20.9814 97.4276 21.235C97.4276 21.4886 97.3333 21.7329 97.1633 21.9195C96.9934 22.1061 96.7603 22.2213 96.5102 22.2423C96.2601 22.2213 96.027 22.1061 95.8571 21.9195C95.6871 21.7329 95.5928 21.4886 95.5928 21.235C95.5928 20.9814 95.6871 20.7371 95.8571 20.5505C96.027 20.364 96.2601 20.2488 96.5102 20.2278V20.2278Z" fill="#F2C777"/>
<path d="M92.6742 13.0491C92.8559 13.0491 93.0301 13.122 93.1585 13.2518C93.287 13.3817 93.3592 13.5577 93.3592 13.7413V13.8867C93.3592 14.0767 93.2845 14.259 93.1515 14.3933C93.0186 14.5277 92.8382 14.6032 92.6502 14.6032C92.4622 14.6032 92.2818 14.5277 92.1489 14.3933C92.0159 14.259 91.9412 14.0767 91.9412 13.8867V13.7413C91.941 13.6462 91.9602 13.552 91.9976 13.4647C92.0349 13.3774 92.0897 13.2988 92.1585 13.2339C92.2273 13.1689 92.3086 13.119 92.3973 13.0872C92.486 13.0554 92.5803 13.0424 92.6742 13.0491Z" fill="#F2C777"/>
<path d="M85.4268 10.6055H85.5638C85.7519 10.6055 85.9322 10.681 86.0651 10.8153C86.1981 10.9497 86.2728 11.1319 86.2728 11.322C86.2728 11.512 86.1981 11.6942 86.0651 11.8286C85.9322 11.963 85.7519 12.0385 85.5638 12.0385H85.4268C85.2388 12.0385 85.0585 11.963 84.9255 11.8286C84.7925 11.6942 84.7178 11.512 84.7178 11.322C84.7178 11.1319 84.7925 10.9497 84.9255 10.8153C85.0585 10.681 85.2388 10.6055 85.4268 10.6055Z" fill="#F2C777"/>
<path d="M80.3099 13.4852C80.4979 13.4852 80.6782 13.5607 80.8112 13.6951C80.9442 13.8294 81.0188 14.0117 81.0188 14.2017C81.0188 14.3917 80.9442 14.574 80.8112 14.7083C80.6782 14.8427 80.4979 14.9182 80.3099 14.9182C80.1218 14.9182 79.9415 14.8427 79.8085 14.7083C79.6756 14.574 79.6009 14.3917 79.6009 14.2017C79.6009 14.0117 79.6756 13.8294 79.8085 13.6951C79.9415 13.5607 80.1218 13.4852 80.3099 13.4852V13.4852Z" fill="#F2C777"/>
<path d="M81.4469 19.5079C81.6359 19.5079 81.8171 19.5838 81.9507 19.7188C82.0843 19.8538 82.1594 20.0369 82.1594 20.2279C82.1594 20.4188 82.0843 20.6019 81.9507 20.737C81.8171 20.872 81.6359 20.9478 81.4469 20.9478C81.258 20.9478 81.0768 20.872 80.9432 20.737C80.8096 20.6019 80.7346 20.4188 80.7346 20.2279C80.7346 20.0369 80.8096 19.8538 80.9432 19.7188C81.0768 19.5838 81.258 19.5079 81.4469 19.5079Z" fill="#F2C777"/>
<path d="M64.9452 16.3512C64.7572 16.3512 64.5768 16.4267 64.4439 16.561C64.3109 16.6954 64.2362 16.8776 64.2362 17.0677C64.2362 17.2577 64.3109 17.4399 64.4439 17.5743C64.5768 17.7087 64.7572 17.7842 64.9452 17.7842C65.1332 17.7842 65.3136 17.7087 65.4465 17.5743C65.5795 17.4399 65.6542 17.2577 65.6542 17.0677C65.6542 16.8776 65.5795 16.6954 65.4465 16.561C65.3136 16.4267 65.1332 16.3512 64.9452 16.3512V16.3512Z" fill="#F2C777"/>
</g>
<defs>
<clipPath id="clip0_244_19">
<rect width="130" height="33" fill="white"/>
</clipPath>
</defs>
</svg>
