<svg width="43" height="43" viewBox="0 0 43 43" fill="none" xmlns="http://www.w3.org/2000/svg">
<g clip-path="url(#clip0_173_196)">
<path d="M37.924 35.4869C38.8828 36.048 39.7293 36.7841 40.4204 37.6575C40.8428 38.1757 41.2096 38.7376 41.5147 39.3335C41.6775 39.6567 41.8166 39.9914 41.9307 40.335L41.9806 40.4942L42.0472 40.7373C42.0847 40.9007 42.1179 41.0641 42.1429 41.2275C42.1845 41.546 42.2053 41.8519 42.2386 42.1829C41.9141 42.2122 41.6228 42.2457 41.3066 42.2625C41.1445 42.2729 40.9819 42.2729 40.8198 42.2625L40.5702 42.2332L40.4454 42.2122H40.3705C40.0051 42.1372 39.6482 42.0248 39.3054 41.877C38.6851 41.6052 38.1043 41.25 37.5787 40.8211C36.7107 40.1235 35.9774 39.2713 35.4152 38.3069C35.0412 37.6652 34.7702 36.968 34.6122 36.2412C34.5539 35.9807 34.5177 35.7158 34.504 35.4492C34.8403 36.3535 35.3396 37.1874 35.9769 37.9089C36.6397 38.6727 37.4075 39.3372 38.2569 39.8825C38.7383 40.194 39.2516 40.4525 39.788 40.6535C40.0583 40.7521 40.3368 40.8264 40.6201 40.8755H40.6701L40.6451 40.7917C40.5588 40.506 40.4546 40.2261 40.333 39.9537C40.0958 39.416 39.8176 38.8977 39.5009 38.4033C38.9584 37.5488 38.2955 36.7781 37.5329 36.1154C37.0193 35.6564 36.4194 35.3059 35.7688 35.0847C35.5218 35.0065 35.266 34.96 35.0074 34.9464C35.269 34.8842 35.538 34.8602 35.8063 34.8751C36.5498 34.9107 37.2749 35.1201 37.924 35.4869Z" fill="#F2C777"/>
<path d="M34.5664 34.2801C34.5548 34.4104 34.4952 34.5316 34.3994 34.6199C34.3035 34.7081 34.1783 34.7571 34.0484 34.7571C33.9185 34.7571 33.7934 34.7081 33.6975 34.6199C33.6016 34.5316 33.542 34.4104 33.5304 34.2801C33.542 34.1498 33.6016 34.0286 33.6975 33.9403C33.7934 33.8521 33.9185 33.8031 34.0484 33.8031C34.1783 33.8031 34.3035 33.8521 34.3994 33.9403C34.4952 34.0286 34.5548 34.1498 34.5664 34.2801Z" fill="#F2C777"/>
<path d="M36.9172 37.9759C36.9172 37.7815 36.9939 37.5949 37.1304 37.4574C37.267 37.3199 37.4522 37.2427 37.6453 37.2427C37.8384 37.2427 38.0236 37.3199 38.1601 37.4574C38.2967 37.5949 38.3734 37.7815 38.3734 37.9759C38.3734 38.1704 38.2967 38.3569 38.1601 38.4945C38.0236 38.632 37.8384 38.7092 37.6453 38.7092C37.4522 38.7092 37.267 38.632 37.1304 38.4945C36.9939 38.3569 36.9172 38.1704 36.9172 37.9759Z" fill="#F2C777"/>
<path d="M31.0008 30.1654L31.1173 30.1863L31.2712 30.224C31.3766 30.252 31.4765 30.2855 31.5708 30.3246C31.7602 30.4004 31.937 30.505 32.095 30.6347C32.237 30.7484 32.3533 30.8912 32.4362 31.0537C32.5442 31.2871 32.5649 31.552 32.4944 31.7996C32.4732 31.8805 32.4439 31.9591 32.4071 32.0342C32.3938 31.955 32.3758 31.8766 32.353 31.7996C32.3094 31.6116 32.2091 31.4418 32.0659 31.3135C31.8595 31.1596 31.6145 31.0668 31.3586 31.0453C31.2837 31.0453 31.2005 31.0244 31.1214 31.0202H30.9925H30.9633C30.9602 31.0183 30.9566 31.0174 30.9529 31.0174C30.9493 31.0174 30.9457 31.0183 30.9425 31.0202C30.9468 31.0519 30.9552 31.0829 30.9675 31.1124L31.0049 31.2381C31.0243 31.318 31.0493 31.3964 31.0798 31.4727C31.1546 31.7245 31.2989 31.9498 31.4959 32.1222C31.6532 32.2422 31.8352 32.3252 32.0285 32.3652C32.1782 32.3988 32.2698 32.4113 32.2698 32.4113C32.1953 32.4508 32.1173 32.4831 32.0368 32.5077C31.8323 32.5813 31.6123 32.5999 31.3985 32.5617C31.1847 32.5235 30.9845 32.4298 30.8177 32.2898C30.6558 32.1609 30.5153 32.0067 30.4016 31.8331C30.3427 31.7439 30.2885 31.6516 30.2394 31.5565L30.1728 31.4183C30.1479 31.3638 30.1354 31.3428 30.0938 31.2339C29.9606 30.8693 29.8316 30.4755 29.6985 30.0732V30.0439C30.1146 30.0439 30.4765 30.0439 30.8593 30.1067L31.0008 30.1654Z" fill="#F2C777"/>
<path d="M34.2669 30.4125L34.3085 30.5047C34.3293 30.5466 34.3418 30.5885 34.3584 30.6304C34.3891 30.7152 34.4141 30.802 34.4333 30.8902C34.4772 31.0611 34.4927 31.2381 34.4791 31.414C34.4696 31.5744 34.4241 31.7306 34.3459 31.8707C34.2396 32.0654 34.0666 32.2143 33.8591 32.2898C33.7932 32.315 33.7249 32.3332 33.6552 32.3442C33.7045 32.2958 33.7504 32.244 33.7925 32.1892C33.8991 32.065 33.9671 31.912 33.9881 31.7492C33.9921 31.5281 33.9344 31.3104 33.8217 31.1207C33.7925 31.0584 33.7591 30.9982 33.7218 30.9405L33.6636 30.8441C33.6636 30.819 33.6636 30.8441 33.6636 30.8441L33.6095 30.907L33.5388 30.995L33.4181 31.1626C33.2792 31.3383 33.194 31.5508 33.1726 31.7744C33.1671 31.9443 33.1998 32.1134 33.2683 32.2688C33.3182 32.3903 33.3557 32.4615 33.3515 32.4615C33.3474 32.4615 33.285 32.428 33.1726 32.3442C33.0227 32.2352 32.9028 32.0895 32.8242 31.9209C32.7456 31.7523 32.7108 31.5663 32.7233 31.3805C32.7343 31.2039 32.7722 31.0301 32.8356 30.8651C32.8689 30.7813 32.9063 30.7017 32.9479 30.6179L33.0104 30.5005C33.0395 30.4544 33.0478 30.4377 33.1019 30.3581C33.285 30.0857 33.493 29.7966 33.7052 29.52C33.8967 29.7892 34.0731 30.069 34.2336 30.3581L34.2669 30.4125Z" fill="#F2C777"/>
<path d="M31.991 33.1321C32.0348 33.1872 32.0738 33.2461 32.1075 33.308C32.047 33.2759 31.9845 33.2479 31.9203 33.2242C31.7631 33.1605 31.5945 33.1305 31.4252 33.1362C31.2085 33.1579 31.0022 33.2407 30.8302 33.3751L30.6679 33.4966L30.5847 33.5636C30.5597 33.5636 30.5098 33.6181 30.5265 33.6139C30.5431 33.6097 30.5265 33.6139 30.5265 33.6139L30.618 33.6684C30.6787 33.7025 30.7412 33.7333 30.8052 33.7606C30.995 33.8698 31.2108 33.9249 31.4293 33.9198C31.5827 33.8972 31.7268 33.8319 31.8454 33.7313C31.8978 33.691 31.9465 33.6462 31.991 33.5972C31.9837 33.6644 31.9683 33.7306 31.9452 33.7941C31.8804 33.9932 31.7438 34.1607 31.5625 34.2634C31.4249 34.3422 31.2711 34.3881 31.1131 34.3975C30.94 34.4083 30.7663 34.3942 30.5972 34.3556C30.5097 34.3377 30.4235 34.3139 30.3392 34.2844L30.2144 34.2383L30.1187 34.1964L30.0105 34.1419C29.7151 33.9952 29.4447 33.8192 29.1535 33.6391H29.1743C29.453 33.4337 29.7318 33.2201 30.0064 33.0483L30.1479 32.9644L30.2602 32.8974L30.5015 32.7926C30.6625 32.7288 30.8323 32.6906 31.0049 32.6795C31.1879 32.6669 31.3713 32.6984 31.5398 32.7712C31.7084 32.8441 31.8573 32.9563 31.9744 33.0985L31.991 33.1321Z" fill="#F2C777"/>
<path d="M39.3553 26.9222L39.4635 27.0311L39.5467 27.1233C39.8394 27.445 40.0987 27.796 40.3206 28.1709C40.7151 28.807 40.9678 29.5218 41.0611 30.266C41.1184 30.7529 41.0831 31.2464 40.9571 31.72C40.9119 31.887 40.852 32.0497 40.7782 32.2061C40.7782 32.2061 40.7782 32.0217 40.7491 31.7032C40.7003 31.2695 40.5867 30.8457 40.4121 30.4462C40.1596 29.8693 39.8184 29.3362 39.4011 28.8665C39.1556 28.589 38.8959 28.3247 38.623 28.0745L38.5981 28.0536C38.5981 28.0536 38.5981 28.1918 38.5981 28.2714C38.5757 28.6351 38.5897 29.0001 38.6397 29.3609C38.7285 29.9761 38.9816 30.5554 39.3719 31.037C39.6611 31.3869 40.0038 31.6882 40.3871 31.9295C40.6659 32.1139 40.8365 32.2019 40.8365 32.2019C40.6574 32.1919 40.4794 32.1681 40.3039 32.1306C39.807 32.0358 39.3342 31.8405 38.9143 31.5566C38.2521 31.0958 37.7604 30.4267 37.5163 29.6542C37.3727 29.204 37.2929 28.7357 37.2791 28.2631C37.2791 28.129 37.2791 28.0577 37.2791 27.844C37.2791 27.6303 37.3166 27.425 37.3499 27.1946C37.3821 26.9895 37.4266 26.7866 37.483 26.587L37.5954 25.9752L37.716 25.5939C38.0447 25.8285 38.3484 26.0339 38.6646 26.2811C38.8186 26.4068 38.9767 26.5409 39.1306 26.7001L39.3553 26.9222Z" fill="#F2C777"/>
<path d="M39.089 30.203C39.1248 30.075 39.2077 29.9654 39.3208 29.8966C39.4339 29.8279 39.5688 29.805 39.698 29.8328C39.8272 29.8605 39.9411 29.9367 40.0166 30.046C40.092 30.1552 40.1234 30.2893 40.1042 30.4209C40.0684 30.549 39.9855 30.6586 39.8724 30.7273C39.7593 30.7961 39.6244 30.819 39.4952 30.7912C39.366 30.7635 39.2521 30.6873 39.1766 30.578C39.1012 30.4688 39.0699 30.3347 39.089 30.203Z" fill="#F2C777"/>
<path d="M40.9239 24.651C40.9239 24.7899 40.8691 24.9232 40.7715 25.0214C40.674 25.1196 40.5417 25.1748 40.4038 25.1748C40.2658 25.1748 40.1336 25.1196 40.036 25.0214C39.9385 24.9232 39.8837 24.7899 39.8837 24.651C39.8837 24.5121 39.9385 24.3789 40.036 24.2807C40.1336 24.1824 40.2658 24.1273 40.4038 24.1273C40.5417 24.1273 40.674 24.1824 40.7715 24.2807C40.8691 24.3789 40.9239 24.5121 40.9239 24.651Z" fill="#F2C777"/>
<path d="M36.6592 22.9582C36.6731 22.7739 36.7556 22.6016 36.8902 22.4759C37.0249 22.3502 37.2017 22.2803 37.3853 22.2803C37.5688 22.2803 37.7456 22.3502 37.8803 22.4759C38.0149 22.6016 38.0974 22.7739 38.1113 22.9582C38.0974 23.1426 38.0149 23.3149 37.8803 23.4406C37.7456 23.5663 37.5688 23.6361 37.3853 23.6361C37.2017 23.6361 37.0249 23.5663 36.8902 23.4406C36.7556 23.3149 36.6731 23.1426 36.6592 22.9582Z" fill="#F2C777"/>
<path d="M38.5481 19.9748C38.9683 19.9991 39.3857 20.058 39.7963 20.1508C40.452 20.3595 41.0661 20.6829 41.6103 21.1062C41.7897 21.2721 41.9502 21.4576 42.0888 21.6593C42.4073 22.1212 42.5891 22.6646 42.6131 23.2264C42.6406 23.6901 42.5697 24.1544 42.405 24.5882C42.27 24.9473 42.0467 25.2659 41.756 25.5143C41.3658 25.8374 40.8711 26.0045 40.3663 25.9836C40.2006 25.9778 40.036 25.9539 39.8754 25.9124C40.0413 25.93 40.2087 25.93 40.3746 25.9124C40.8499 25.8747 41.2945 25.6612 41.6228 25.3132C41.8638 25.0213 42.0348 24.6775 42.1229 24.3084C42.2109 23.9393 42.2135 23.5548 42.1304 23.1845C42.0524 22.717 41.8447 22.2812 41.5313 21.9275C41.4719 21.8642 41.4095 21.8041 41.3441 21.7473C40.5844 21.1657 39.6471 20.8693 38.6938 20.9092C38.3587 20.8813 38.0215 20.9268 37.7055 21.0425C37.3895 21.1583 37.1021 21.3415 36.8631 21.5797C36.3139 22.1789 35.0075 23.1594 35.0907 26.6875C35.1614 26.7294 35.228 26.7755 35.2987 26.8258L35.461 26.9599C35.5026 27.0018 35.5442 27.0353 35.5774 27.073C35.5774 26.9767 35.5774 26.8845 35.5774 26.7881C35.6221 26.3607 35.7568 25.9478 35.9727 25.5771C36.1591 25.2356 36.4193 24.9406 36.7341 24.714C36.9987 24.5191 37.3222 24.4228 37.6494 24.4416C37.765 24.4517 37.8778 24.483 37.9823 24.5338C37.8784 24.5316 37.7747 24.5443 37.6744 24.5715C37.4781 24.6651 37.31 24.8098 37.1876 24.9905C36.7715 25.4514 36.4803 26.2853 36.4512 27.5382L36.5552 28.9377C36.5552 29.0047 36.5802 29.0718 36.5885 29.1304C36.6509 29.6752 36.7757 30.5509 36.7799 30.5467C36.5632 30.0905 36.3186 29.6483 36.0476 29.2226C35.8312 28.9125 35.5483 28.5354 35.2155 28.1374C35.3457 28.7879 35.5656 29.4169 35.8687 30.0062C36.0601 30.3749 36.1807 30.8442 36.4013 31.2172C35.4765 30.0957 34.8165 28.7777 34.4707 27.3622C34.4083 27.3119 34.3417 27.2574 34.2752 27.2113C34.1196 27.1037 33.9585 27.0044 33.7925 26.9138C33.5085 26.7532 33.1962 26.6493 32.873 26.6079C32.6477 26.5835 32.4203 26.6273 32.2198 26.7336C32.1426 26.7761 32.0701 26.8267 32.0035 26.8845C32.0117 26.8031 32.0373 26.7245 32.0784 26.654C32.1523 26.5325 32.2517 26.4287 32.3695 26.3498C32.4874 26.271 32.6209 26.2189 32.7607 26.1973C33.2418 26.1113 33.7365 26.1473 34.2003 26.302L34.2877 26.3356C34.2627 26.1386 34.246 25.9417 34.2377 25.7531C34.0006 20.9469 37.8117 19.9748 38.5481 19.9748Z" fill="#F2C777"/>
<path d="M40.7824 15.3613C40.3926 13.9098 40.2769 12.3975 40.4412 10.9029C40.462 10.7185 40.487 10.5342 40.5161 10.354C40.4231 10.4867 40.341 10.6269 40.2706 10.773C40.051 11.2569 39.9105 11.7734 39.8546 12.3024C39.7069 13.7574 39.8483 15.2274 40.2706 16.6268C40.383 17.0458 40.5328 17.4271 40.6867 17.8838C40.8406 18.3406 41.0071 18.8015 41.1444 19.3043C41.2733 19.7662 41.361 20.2388 41.4065 20.7164C41.0051 20.4539 40.5752 20.2388 40.125 20.0753C40.1 19.8867 40.0709 19.7024 40.0335 19.518C39.9378 19.0487 39.8254 18.5878 39.7006 18.1394C39.5758 17.6911 39.4468 17.2176 39.3636 16.7734C39.043 15.254 39.043 13.6836 39.3636 12.1642C39.492 11.6124 39.7098 11.0857 40.0085 10.6054C40.1593 10.3693 40.3381 10.1526 40.5411 9.96012C40.7616 8.74076 41.1111 7.61778 41.3732 6.60794C41.5376 6.00711 41.6668 5.39709 41.7601 4.78101C41.8398 4.24726 41.8676 3.70697 41.8433 3.16778C41.807 2.37615 41.6671 1.59281 41.4273 0.838017C41.2567 0.301671 41.1319 -2.62147e-05 41.1319 -2.62147e-05C41.6933 0.96155 42.0662 2.02272 42.2303 3.12587C42.306 3.6896 42.3241 4.25965 42.2844 4.8271C42.2372 5.47434 42.1426 6.11719 42.0015 6.75041C41.8267 7.58845 41.5854 8.47259 41.4148 9.38606H41.4439V9.43634H41.4148C41.3149 9.93916 41.2276 10.4546 41.1693 10.9825C41.0148 12.3926 41.0851 13.8185 41.3774 15.2063C41.6478 16.4968 42.0223 17.6492 42.2428 18.6548C42.4306 19.4454 42.5256 20.2555 42.5257 21.0684C42.5259 21.3642 42.505 21.6597 42.4633 21.9525C42.4381 20.8618 42.2386 19.7822 41.8725 18.7554C41.5979 17.8042 41.1319 16.6854 40.7824 15.3613Z" fill="#F2C777"/>
<path d="M38.673 14.6867C38.5506 14.9404 38.4839 15.2177 38.4774 15.4996C38.4665 15.8879 38.5015 16.2761 38.5814 16.6561C38.7479 17.5277 39.1223 18.5501 39.4385 19.8365C39.4385 19.8365 39.4385 19.8365 39.4385 19.8658C39.2933 19.8291 39.146 19.8011 38.9975 19.782H38.9559C38.811 19.7637 38.6651 19.7539 38.519 19.7527C38.3609 18.5878 38.1487 17.5445 38.103 16.6687C38.075 16.2478 38.103 15.8251 38.1862 15.4116C38.2466 15.1082 38.3731 14.822 38.5565 14.5736C38.6675 14.4299 38.801 14.3053 38.9517 14.2049C39.0025 14.1709 39.0553 14.1401 39.1098 14.1127C39.062 14.1507 39.0162 14.1913 38.9725 14.2342C38.8489 14.3676 38.7477 14.5205 38.673 14.6867Z" fill="#F2C777"/>
<path d="M38.8435 23.3772C38.6393 23.552 38.409 23.6934 38.1612 23.7963C38.3199 23.7131 38.4518 23.5862 38.5417 23.4304C38.6315 23.2746 38.6756 23.0963 38.6688 22.9163C38.6734 22.7702 38.6451 22.6249 38.5861 22.4914C38.527 22.3579 38.4386 22.2395 38.3276 22.1453C38.3984 22.0386 38.4517 21.9212 38.4857 21.7975C38.5401 21.6092 38.5722 21.4151 38.5814 21.2193C38.9574 21.1793 39.3376 21.2135 39.7006 21.3198C39.5758 21.8813 39.2596 23.042 38.8435 23.3772Z" fill="#F2C777"/>
<path d="M41.1985 22.0909C41.0629 22.319 40.8589 22.498 40.616 22.6021C40.4908 22.6519 40.359 22.683 40.2249 22.6943C40.1076 22.6912 39.991 22.7131 39.8827 22.7586C39.7744 22.8041 39.6769 22.8721 39.5966 22.9583L40.0543 21.3408C40.4776 21.5116 40.8763 21.7385 41.2401 22.0155C41.2296 22.0424 41.2156 22.0677 41.1985 22.0909Z" fill="#F2C777"/>
<path d="M35.099 17.7456C35.099 17.7456 35.099 17.7456 35.099 17.7666V17.8755L35.1239 18.0892C35.1475 18.3142 35.2341 18.5278 35.3736 18.7052C35.487 18.8238 35.6311 18.908 35.7897 18.9482C35.8583 18.9645 35.9277 18.977 35.9977 18.9859C35.8708 19.0542 35.7307 19.094 35.5871 19.1027C35.4435 19.1114 35.2997 19.0887 35.1656 19.0362C35.0171 18.9677 34.8851 18.8676 34.7786 18.7429C34.6643 18.6065 34.5704 18.4541 34.4999 18.2903C34.4632 18.2061 34.4326 18.1192 34.4083 18.0305C34.3915 17.9872 34.3789 17.9423 34.3709 17.8965C34.3619 17.862 34.355 17.827 34.3501 17.7917L34.3293 17.6702C34.2843 17.331 34.2566 16.9898 34.2461 16.6478H34.271C34.6247 16.7567 34.9659 16.8615 35.2862 16.9704L35.4485 17.0333L35.5691 17.0919C35.6526 17.1309 35.7332 17.1757 35.8104 17.226C35.9674 17.3178 36.1081 17.4353 36.2265 17.5738C36.3308 17.696 36.4088 17.8387 36.4554 17.9928C36.5142 18.2024 36.5142 18.4243 36.4554 18.6339C36.4096 18.7722 36.3721 18.8393 36.3763 18.8434C36.3805 18.8476 36.3763 18.7638 36.3305 18.6297C36.2897 18.4316 36.1931 18.2495 36.0521 18.1053C35.9112 17.9612 35.7319 17.861 35.5358 17.8168L35.332 17.7582L35.2238 17.7288C35.1905 17.7288 35.1281 17.7037 35.1406 17.7288C35.1531 17.754 35.1406 17.7288 35.1406 17.7288C35.1406 17.7288 35.1406 17.7288 35.1198 17.7288L35.099 17.7456Z" fill="#F2C777"/>
<path d="M36.1516 20.2052C36.199 20.1681 36.2422 20.1259 36.2806 20.0795C36.2737 20.1423 36.2597 20.2042 36.239 20.2638C36.1785 20.4454 36.0581 20.6007 35.8978 20.7038C35.778 20.7736 35.6446 20.8165 35.5067 20.8295C35.3552 20.8441 35.2023 20.8356 35.0532 20.8044L34.8285 20.7415L34.7162 20.6996C34.6892 20.6866 34.6614 20.6754 34.633 20.6661L34.5373 20.62C34.2793 20.4901 34.0463 20.3309 33.7925 20.1716C34.0422 19.9789 34.2835 19.7903 34.5165 19.6227C34.5552 19.5926 34.5955 19.5646 34.6372 19.5389L34.7412 19.4803L34.9492 19.3755C35.0912 19.3158 35.2412 19.2777 35.3944 19.2624C35.5353 19.2504 35.6772 19.269 35.8104 19.3168C35.976 19.3838 36.1199 19.4954 36.2265 19.6395C36.2657 19.6879 36.3005 19.7398 36.3305 19.7945L36.1641 19.7233C36.0316 19.671 35.8903 19.6454 35.748 19.6479C35.5548 19.6748 35.3731 19.7562 35.2238 19.8825L35.0823 19.9957L35.0074 20.0585L34.9575 20.1046L35.0407 20.1549L35.1988 20.2345C35.3652 20.3314 35.5563 20.3766 35.748 20.3644C35.8963 20.3575 36.0382 20.3016 36.1516 20.2052Z" fill="#F2C777"/>
<path d="M37.3457 16.1114C37.508 16.3628 37.6661 16.5975 37.7992 16.8531L37.8492 16.9495L37.8866 17.0333C37.9044 17.0684 37.9197 17.1049 37.9324 17.1422C37.9584 17.2164 37.9806 17.292 37.9989 17.3685C38.0366 17.5162 38.052 17.6687 38.0447 17.821C38.0418 17.9583 38.0076 18.093 37.9449 18.2149C37.8555 18.3811 37.7067 18.5069 37.5288 18.5669C37.4743 18.59 37.4169 18.6055 37.3582 18.613C37.3983 18.5706 37.4358 18.5258 37.4705 18.4789C37.5591 18.3705 37.6128 18.2375 37.6245 18.0976C37.6237 17.9045 37.572 17.715 37.4747 17.5487C37.4497 17.4984 37.4206 17.4481 37.3873 17.3936L37.3374 17.3098C37.3374 17.3098 37.3083 17.3391 37.2916 17.3601L37.2376 17.4355C37.2001 17.4858 37.1668 17.5361 37.1377 17.5822C37.0239 17.7358 36.956 17.919 36.9421 18.1101C36.9417 18.2549 36.973 18.398 37.0337 18.5292C37.0753 18.6381 37.1086 18.6968 37.1044 18.6968C37.0524 18.6665 37.0024 18.6329 36.9546 18.5962C36.8114 18.4871 36.6982 18.3428 36.6259 18.1772C36.5753 18.0437 36.5526 17.901 36.5594 17.7582C36.5634 17.6062 36.593 17.456 36.6467 17.314C36.6708 17.2408 36.7 17.1694 36.7341 17.1003L36.784 16.9956C36.8048 16.9578 36.8132 16.9411 36.8589 16.8698C37.0046 16.6352 37.1751 16.388 37.3457 16.1365V16.1114Z" fill="#F2C777"/>
<path d="M36.5719 19.4174C36.5835 19.2871 36.6431 19.1659 36.7389 19.0777C36.8348 18.9894 36.96 18.9405 37.0898 18.9405C37.2197 18.9405 37.3449 18.9894 37.4408 19.0777C37.5366 19.1659 37.5962 19.2871 37.6078 19.4174C37.5962 19.5477 37.5366 19.6689 37.4408 19.7572C37.3449 19.8455 37.2197 19.8944 37.0898 19.8944C36.96 19.8944 36.8348 19.8455 36.7389 19.7572C36.6431 19.6689 36.5835 19.5477 36.5719 19.4174Z" fill="#F2C777"/>
<path d="M42.326 38.0053C42.2517 37.2695 42.0295 36.5567 41.6728 35.9102C41.4849 35.5755 41.2617 35.2622 41.0071 34.9758C40.7949 34.7343 40.5654 34.5088 40.3206 34.3012C40.193 34.1922 40.0543 34.0875 39.9045 33.9869C39.5349 33.7203 39.1405 33.4901 38.727 33.2997C38.3376 33.1216 37.9322 32.9813 37.5163 32.8807C36.8009 32.6924 36.063 32.605 35.3237 32.6209C34.8177 32.6333 34.3173 32.7296 33.8425 32.9058C33.664 32.9737 33.4914 33.0564 33.3266 33.153C33.4602 33.0111 33.608 32.8833 33.7676 32.7717C34.2192 32.4628 34.7267 32.2464 35.2613 32.1348C36.055 31.9668 36.8722 31.9427 37.6744 32.0636C38.6842 32.1995 39.6448 32.5854 40.4703 33.1866C40.5078 33.2117 40.5369 33.241 40.5702 33.2662C40.8453 33.4671 41.1029 33.6914 41.3399 33.9366C41.7913 34.4089 42.1561 34.9579 42.4175 35.5582C42.7508 36.3236 42.8936 37.1592 42.8336 37.9927C42.7905 38.5337 42.6758 39.0664 42.4924 39.5767C42.4284 39.7606 42.3548 39.941 42.2719 40.1172C42.2719 40.1172 42.3093 39.9119 42.3468 39.5389C42.394 39.0284 42.387 38.5143 42.326 38.0053Z" fill="#F2C777"/>
<path d="M40.8115 33.019C40.971 32.5735 41.1544 32.1371 41.3607 31.7116C41.4647 31.4937 41.5729 31.2926 41.6769 31.0747C41.731 30.9699 41.7768 30.8861 41.8184 30.7939C41.86 30.7018 41.8974 30.6138 41.9307 30.5216C42.0614 30.1598 42.1439 29.7822 42.1762 29.3986C42.235 28.7343 42.1127 28.0664 41.8226 27.4669C41.614 27.0524 41.294 26.7054 40.8989 26.4655C40.7466 26.3738 40.5848 26.2993 40.4163 26.2434C40.6006 26.2461 40.7838 26.2729 40.9613 26.323C41.4647 26.472 41.9088 26.7769 42.2303 27.1946C42.7161 27.8316 42.9872 28.6082 43.0042 29.4112C43.0233 29.8873 42.9628 30.3632 42.8253 30.8191C42.7878 30.9364 42.7462 31.0579 42.7004 31.1753C42.6547 31.2926 42.5923 31.4141 42.5465 31.5105L42.2469 32.1348C42.0472 32.5538 41.8558 32.9729 41.6894 33.3542C41.6312 33.4966 41.5771 33.6349 41.5272 33.7732C41.3001 33.5323 41.0522 33.3121 40.7866 33.1153C40.7907 33.0986 40.799 33.0483 40.8115 33.019Z" fill="#F2C777"/>
<path d="M40.9238 35.2439L40.8573 35.4912C40.8135 35.6514 40.7856 35.8156 40.7741 35.9814C40.7474 36.2887 40.7685 36.5983 40.8365 36.8991C40.9352 37.3533 41.1569 37.771 41.4772 38.1059C41.6007 38.2343 41.7406 38.3457 41.8933 38.4369C41.7148 38.3944 41.5437 38.3252 41.3857 38.2316C40.9378 37.9564 40.5859 37.5479 40.3788 37.0625C40.1451 36.5268 40.0548 35.9388 40.1167 35.3571C40.1458 35.1476 40.1708 34.959 40.2041 34.7453C40.2041 34.6866 40.2249 34.628 40.2373 34.5693C40.4832 34.7759 40.7128 35.0014 40.9238 35.2439Z" fill="#F2C777"/>
<path d="M29.9981 39.0612C29.9309 39.0739 29.8668 39.0997 29.8095 39.1373C29.7522 39.1749 29.7029 39.2235 29.6642 39.2803C29.5862 39.3951 29.5566 39.5363 29.582 39.673C29.6074 39.8097 29.6856 39.9306 29.7995 40.0092C29.9135 40.0878 30.0537 40.1176 30.1895 40.092C30.3252 40.0665 30.4453 39.9876 30.5233 39.8729C30.6013 39.7582 30.6309 39.6169 30.6055 39.4802C30.5801 39.3436 30.5019 39.2226 30.388 39.144C30.274 39.0655 30.1338 39.0357 29.9981 39.0612Z" fill="#F2C777"/>
<path d="M24.452 40.7959C24.5899 40.7959 24.7222 40.7407 24.8197 40.6425C24.9172 40.5443 24.972 40.411 24.972 40.2721C24.972 40.1332 24.9172 40 24.8197 39.9018C24.7222 39.8035 24.5899 39.7483 24.452 39.7483C24.314 39.7483 24.1817 39.8035 24.0842 39.9018C23.9867 40 23.9319 40.1332 23.9319 40.2721C23.9319 40.411 23.9867 40.5443 24.0842 40.6425C24.1817 40.7407 24.314 40.7959 24.452 40.7959Z" fill="#F2C777"/>
<path d="M22.8709 36.4507C22.6871 36.4598 22.5135 36.5387 22.3851 36.6714C22.2567 36.8042 22.183 36.981 22.1788 37.1663C22.1745 37.3516 22.2402 37.5316 22.3624 37.6702C22.4846 37.8087 22.6544 37.8955 22.8376 37.9131C23.0214 37.904 23.195 37.8251 23.3234 37.6924C23.4518 37.5596 23.5256 37.3828 23.5298 37.1975C23.534 37.0122 23.4684 36.8322 23.3462 36.6936C23.2239 36.5551 23.0541 36.4683 22.8709 36.4507Z" fill="#F2C777"/>
<path d="M19.8669 38.286C19.8807 38.7086 19.9308 39.1292 20.0167 39.5431C20.2071 40.2079 20.5128 40.8335 20.9196 41.391C21.0802 41.5763 21.2618 41.7423 21.4605 41.8854C21.9117 42.2138 22.4447 42.4097 22.9999 42.4511C23.4596 42.4875 23.9217 42.4261 24.3562 42.2709C24.7154 42.1414 25.0361 41.9223 25.2882 41.634C25.6165 41.2452 25.7926 40.749 25.7833 40.2387C25.7813 40.0722 25.7618 39.9065 25.7251 39.7442C25.7444 39.9127 25.7444 40.0828 25.7251 40.2512C25.6773 40.7332 25.4551 41.1806 25.101 41.5083C24.6135 41.874 24.0149 42.0577 23.4077 42.0279C22.8005 41.9981 22.2224 41.7566 21.7725 41.3449C21.71 41.2847 21.6516 41.2203 21.5978 41.1521C21.0374 40.3719 20.7665 39.4185 20.8322 38.4578C20.8114 38.1192 20.8639 37.7801 20.986 37.464C21.1081 37.1478 21.297 36.8621 21.5395 36.6267C22.1428 36.0904 23.1455 34.7998 26.6404 34.9506C26.682 35.0219 26.7278 35.0931 26.7736 35.1601C26.8143 35.2202 26.8588 35.2775 26.9067 35.3319L27.0149 35.4493H26.732C26.3073 35.4858 25.8949 35.6114 25.5212 35.818C25.1773 35.998 24.8785 36.2545 24.6475 36.568C24.4481 36.829 24.3464 37.1525 24.3604 37.4815C24.3704 37.5979 24.397 37.7122 24.4395 37.8209C24.4405 37.7159 24.4559 37.6116 24.4852 37.5108C24.5393 37.3307 24.7099 37.2008 24.9013 37.029C25.3673 36.6099 26.1994 36.3418 27.4434 36.346L28.8289 36.4801L29.0203 36.5178C29.557 36.5932 30.4224 36.7398 30.4224 36.744C29.973 36.5144 29.538 36.2569 29.1202 35.973C28.8206 35.751 28.4503 35.4534 28.0675 35.1057C28.7075 35.257 29.3246 35.4938 29.9024 35.8096C30.2643 36.0107 30.7345 36.1448 31.0923 36.3711C30 35.4159 28.707 34.7225 27.3103 34.343C27.2645 34.276 27.2146 34.2089 27.1688 34.1377C27.0613 33.9816 26.9653 33.8178 26.8817 33.6475C26.73 33.3567 26.634 33.0397 26.5988 32.713C26.5797 32.4853 26.6305 32.2571 26.7445 32.0594C26.7866 31.9816 26.8368 31.9086 26.8942 31.8415C26.8145 31.852 26.7371 31.876 26.6654 31.9127C26.5419 31.9836 26.4356 32.0813 26.3543 32.1987C26.273 32.3161 26.2186 32.4503 26.1952 32.5915C26.0992 33.0735 26.1249 33.572 26.2701 34.0413C26.2773 34.0728 26.2871 34.1036 26.2993 34.1335C26.1037 34.1042 25.9123 34.0832 25.7209 34.0707C20.9237 33.7271 19.8836 37.5444 19.8669 38.286Z" fill="#F2C777"/>
<path d="M15.2403 40.4356C13.8111 40.0095 12.3148 39.8588 10.8301 39.9914C10.6429 39.9914 10.464 40.0291 10.2809 40.0543C10.415 39.9668 10.5539 39.887 10.697 39.8154C11.1828 39.6065 11.6979 39.475 12.2239 39.4257C13.6716 39.3143 15.1269 39.4937 16.5052 39.9537C16.9212 40.0794 17.2915 40.2386 17.7534 40.4188C18.2152 40.599 18.6562 40.7624 19.1513 40.9091C19.6061 41.0503 20.0726 41.1499 20.5451 41.2066C20.2944 40.7953 20.0906 40.3567 19.9377 39.8992C19.7546 39.8699 19.5716 39.8364 19.3926 39.7945C18.9225 39.6897 18.469 39.564 18.028 39.4299C17.5869 39.2958 17.121 39.1492 16.6841 39.0612C15.1818 38.7071 13.6221 38.6771 12.1074 38.9732C11.5576 39.0918 11.0306 39.2998 10.5472 39.5892C10.3108 39.7353 10.0928 39.9098 9.89811 40.1087C8.68321 40.3015 7.564 40.6283 6.54465 40.8797C5.94464 41.0332 5.33613 41.1508 4.7223 41.2317C4.19102 41.2983 3.65465 41.3137 3.12046 41.2778C2.33553 41.2246 1.56146 41.0639 0.819642 40.8001C0.291244 40.6158 -0.0124817 40.4817 -0.0124817 40.4859C0.236903 40.6385 0.493806 40.7784 0.757235 40.9049C1.48439 41.2686 2.26121 41.5214 3.06222 41.6549C3.61939 41.7427 4.18393 41.7736 4.74727 41.7471C5.39037 41.7144 6.03012 41.6332 6.66115 41.5041C7.49327 41.3449 8.37949 41.1353 9.28651 40.9719V41.0013H9.34059V40.9761C9.84851 40.8802 10.3609 40.8103 10.8759 40.7666C12.2781 40.6393 13.6915 40.7412 15.0614 41.0683C16.3346 41.3658 17.4704 41.7723 18.4607 42.0153C19.2405 42.2236 20.0422 42.3375 20.8489 42.3547C21.1435 42.3611 21.4382 42.3471 21.7309 42.3128C20.6499 42.2603 19.584 42.0354 18.573 41.6465C17.6452 41.3155 16.5468 40.8169 15.2403 40.4356Z" fill="#F2C777"/>
<path d="M14.6204 38.2986C14.8748 38.18 15.1514 38.1172 15.4317 38.1142C15.8171 38.1124 16.2013 38.1574 16.5759 38.2483C17.4371 38.4369 18.444 38.835 19.7088 39.1827H19.7421C19.7054 39.0368 19.679 38.8883 19.6631 38.7386V38.6925C19.6525 38.546 19.6525 38.399 19.6631 38.2525C18.5147 38.0681 17.4829 37.8335 16.6134 37.779C16.2034 37.7455 15.7909 37.7653 15.386 37.8377C15.087 37.8944 14.8034 38.0144 14.5538 38.1897C14.407 38.2991 14.2791 38.4322 14.1752 38.5835C14.1404 38.634 14.1098 38.6873 14.0837 38.7428C14.1201 38.6935 14.1605 38.6472 14.2043 38.6045C14.3251 38.4799 14.4658 38.3765 14.6204 38.2986Z" fill="#F2C777"/>
<path d="M23.2329 38.6799C23.4055 38.4765 23.5458 38.2475 23.649 38.001C23.5622 38.1586 23.4329 38.2882 23.2761 38.375C23.1193 38.4617 22.9413 38.5021 22.7627 38.4913C22.6178 38.4924 22.4744 38.4605 22.3433 38.3981C22.2122 38.3358 22.0967 38.2444 22.0055 38.1309C21.8982 38.1977 21.7819 38.2485 21.6602 38.2818C21.4727 38.3321 21.28 38.3602 21.086 38.3656C21.0363 38.7438 21.0603 39.128 21.1567 39.4969C21.7351 39.3838 22.8834 39.0821 23.2329 38.6799Z" fill="#F2C777"/>
<path d="M21.9098 41.0054C22.1381 40.8724 22.3187 40.67 22.4257 40.4272C22.4784 40.3031 22.5121 40.1717 22.5256 40.0375C22.528 39.9193 22.5539 39.8027 22.6017 39.6948C22.6496 39.5868 22.7185 39.4896 22.8044 39.4089L21.1859 39.828C21.3456 40.2591 21.5626 40.6664 21.8308 41.0389L21.9098 41.0054Z" fill="#F2C777"/>
<path d="M17.7326 34.7746C17.7326 34.7746 17.7326 34.7746 17.7534 34.7746H17.8657L18.0737 34.8081C18.2956 34.8366 18.5049 34.9282 18.677 35.0721C18.7936 35.1859 18.8746 35.3316 18.91 35.4911C18.9262 35.5586 18.9373 35.6273 18.9433 35.6964C19.0146 35.5702 19.0575 35.4297 19.069 35.2849C19.0805 35.1401 19.0603 34.9945 19.0099 34.8584C18.9496 34.7053 18.854 34.5689 18.7311 34.4603C18.5993 34.3402 18.4489 34.2426 18.2859 34.1712C18.2031 34.1334 18.1184 34.0998 18.0321 34.0706L17.899 34.0287L17.7991 34.0078L17.6743 33.9826C17.3456 33.924 17.0128 33.9072 16.6633 33.8737V33.903C16.7631 34.2592 16.8588 34.6112 16.9587 34.9296C16.9764 34.9853 16.9972 35.0398 17.0211 35.0931C17.0366 35.1374 17.0547 35.1808 17.0752 35.223C17.1126 35.3061 17.1543 35.3872 17.2 35.466C17.2904 35.6234 17.4056 35.7649 17.5412 35.885C17.6633 35.9909 17.8045 36.072 17.9572 36.1239C18.1653 36.1838 18.3858 36.1838 18.5938 36.1239C18.7311 36.0819 18.7977 36.0442 18.7977 36.0484C18.7977 36.0526 18.7228 36.0484 18.5938 35.9981C18.4265 35.9534 18.2705 35.8734 18.1361 35.7635C17.9739 35.603 17.8599 35.3997 17.8075 35.1769C17.7826 35.1101 17.7631 35.0415 17.7492 34.9715L17.7242 34.8626C17.7242 34.8291 17.6993 34.762 17.7242 34.7788L17.7326 34.7746Z" fill="#F2C777"/>
<path d="M20.1499 35.8766C20.111 35.9211 20.0693 35.9631 20.0251 36.0023C20.0875 35.9984 20.1492 35.9857 20.2081 35.9646C20.3812 35.907 20.5285 35.7898 20.6242 35.6336C20.6993 35.5146 20.7462 35.3798 20.7615 35.2397C20.7862 35.0884 20.7862 34.9342 20.7615 34.7829C20.7615 34.7075 20.7282 34.6321 20.7074 34.5567C20.6866 34.4812 20.6824 34.4812 20.6658 34.4435C20.6491 34.4058 20.6658 34.3891 20.6367 34.3597L20.5909 34.2634C20.4702 33.9994 20.3163 33.7563 20.1748 33.4965V33.5175C19.9751 33.7605 19.7837 34.0036 19.609 34.2298C19.5591 34.3011 19.5507 34.3178 19.5258 34.3555C19.5008 34.3932 19.4842 34.4184 19.4634 34.4561C19.4426 34.4938 19.3926 34.5902 19.3594 34.6656C19.2932 34.8053 19.2523 34.9557 19.2387 35.1098C19.2213 35.2679 19.2443 35.4278 19.3054 35.5745C19.3666 35.7211 19.4639 35.8496 19.5882 35.9478C19.6371 35.9875 19.6885 36.0238 19.7421 36.0568C19.7421 36.0568 19.713 35.9939 19.6756 35.885C19.6243 35.7516 19.603 35.6085 19.6132 35.4659C19.6409 35.2725 19.7248 35.0917 19.8545 34.9464L19.9668 34.8039L20.0334 34.7285L20.0791 34.6782H20.1041L20.1499 34.762C20.179 34.8165 20.204 34.8709 20.2289 34.9254C20.3202 35.0945 20.3606 35.2867 20.3454 35.4785C20.324 35.6288 20.2555 35.7683 20.1499 35.8766Z" fill="#F2C777"/>
<path d="M16.0641 36.9871C16.3096 37.1589 16.5385 37.3223 16.7881 37.4648L16.8838 37.515L16.9628 37.557L17.071 37.603C17.144 37.6325 17.2191 37.6563 17.2957 37.6743C17.4403 37.7164 17.5904 37.7362 17.7409 37.7329C17.8777 37.7311 18.0125 37.6997 18.1361 37.6408C18.2986 37.5572 18.4257 37.4173 18.4939 37.2469C18.5356 37.1337 18.5397 37.0751 18.5439 37.0751C18.5001 37.1139 18.4543 37.1503 18.4066 37.184C18.2968 37.271 18.1632 37.3222 18.0238 37.3307C17.8333 37.3276 17.6474 37.271 17.4871 37.1673L17.329 37.0793L17.2499 37.0248C17.2499 37.0248 17.2832 36.9955 17.304 36.9787L17.3831 36.9284C17.4282 36.8921 17.4754 36.8585 17.5245 36.8279C17.6796 36.717 17.8629 36.653 18.0529 36.6435C18.1971 36.6469 18.339 36.6811 18.469 36.744C18.573 36.7901 18.6312 36.8237 18.6312 36.8237C18.6048 36.7688 18.5727 36.7168 18.5356 36.6686C18.4316 36.5181 18.2873 36.4004 18.1195 36.3292C17.9879 36.2734 17.8461 36.2463 17.7034 36.2496C17.5517 36.2516 17.4013 36.2785 17.2582 36.3292C17.1855 36.3517 17.1146 36.3797 17.0461 36.413L16.9462 36.4591L16.8172 36.5303C16.5842 36.677 16.3346 36.8404 16.0808 37.008L16.0641 36.9871Z" fill="#F2C777"/>
<path d="M19.3594 36.2831C19.2214 36.2831 19.0891 36.3383 18.9916 36.4365C18.8941 36.5348 18.8393 36.668 18.8393 36.8069C18.8393 36.9458 18.8941 37.079 18.9916 37.1773C19.0891 37.2755 19.2214 37.3307 19.3594 37.3307C19.4973 37.3307 19.6296 37.2755 19.7271 37.1773C19.8246 37.079 19.8794 36.9458 19.8794 36.8069C19.8794 36.668 19.8246 36.5348 19.7271 36.4365C19.6296 36.3383 19.4973 36.2831 19.3594 36.2831Z" fill="#F2C777"/>
<path d="M37.6661 42.5014C36.9441 42.4091 36.2487 42.168 35.6232 41.7932C35.2945 41.5963 34.9876 41.3645 34.7079 41.1019C34.4738 40.8845 34.2567 40.6491 34.0588 40.3979C33.9507 40.2638 33.8466 40.1255 33.751 39.9789C33.4942 39.6023 33.2754 39.2008 33.0977 38.7805C32.9318 38.3836 32.8009 37.9728 32.7066 37.5527C32.5373 36.8269 32.4687 36.0809 32.5028 35.3361C32.5243 34.8263 32.6298 34.3236 32.8148 33.8486C32.8859 33.6696 32.9722 33.4972 33.0728 33.3332C32.9272 33.4654 32.796 33.6129 32.6817 33.7732C32.3679 34.2214 32.1433 34.7265 32.0201 35.2607C31.8349 36.0582 31.7926 36.8827 31.8953 37.6952C31.9519 38.1827 32.0636 38.6621 32.2282 39.1241C32.4085 39.6232 32.6503 40.0976 32.9479 40.5362C32.9687 40.5697 32.9979 40.6032 33.0228 40.6409C33.2122 40.9123 33.4253 41.1661 33.6594 41.3994C34.1148 41.8678 34.6504 42.2497 35.2404 42.5265C35.9932 42.8743 36.8182 43.0339 37.6453 42.9916C38.1827 42.9627 38.7134 42.8583 39.2222 42.6816C39.58 42.56 39.763 42.4721 39.7672 42.4721C39.7714 42.4721 39.5592 42.5014 39.193 42.5349C38.6843 42.578 38.1725 42.5668 37.6661 42.5014Z" fill="#F2C777"/>
<path d="M32.7482 40.863C32.3032 41.0125 31.8671 41.1874 31.4418 41.3868L30.8052 41.6885L30.5223 41.8268L30.2477 41.9357C29.8859 42.0581 29.5095 42.1314 29.1285 42.1536C28.467 42.1942 27.8074 42.0491 27.2229 41.7346C26.8165 41.5154 26.4793 41.1859 26.2493 40.7834C26.1637 40.6275 26.094 40.4633 26.0413 40.2932C26.0407 40.4785 26.0645 40.6631 26.112 40.8421C26.2463 41.3515 26.5377 41.8049 26.9442 42.1369C27.5627 42.6448 28.3271 42.9386 29.1243 42.9749C29.5954 43.0022 30.0677 42.9512 30.5223 42.8241C30.6435 42.7913 30.763 42.7521 30.8801 42.7067C31.0008 42.6606 31.1214 42.6062 31.2171 42.5601L31.8454 42.2751C32.2614 42.0824 32.6775 41.8938 33.0644 41.7388C33.2059 41.6801 33.3474 41.6299 33.4805 41.5838C33.2463 41.3491 33.0333 41.0938 32.8439 40.8211L32.7482 40.863Z" fill="#F2C777"/>
<path d="M34.9534 41.039L35.1988 40.9761C35.3601 40.9369 35.5243 40.9117 35.6898 40.9007C35.9962 40.8838 36.3033 40.9135 36.601 40.9887C37.0494 41.0964 37.4588 41.3287 37.7826 41.6591C37.9051 41.7858 38.0126 41.9264 38.103 42.0781C38.0616 41.8981 37.9958 41.7246 37.9074 41.5627C37.6456 41.1045 37.2486 40.7398 36.7715 40.5194C36.4374 40.3597 36.0786 40.2591 35.7106 40.2219C35.5017 40.2009 35.2912 40.2009 35.0823 40.2219C34.8743 40.2219 34.6871 40.2638 34.4749 40.2931L34.3001 40.3224C34.5003 40.577 34.7186 40.8164 34.9534 41.039Z" fill="#F2C777"/>
</g>
<defs>
<clipPath id="clip0_173_196">
<rect width="43" height="43" fill="white" transform="matrix(1 0 0 -1 0 43)"/>
</clipPath>
</defs>
</svg>
