<svg width="103" height="31" viewBox="0 0 103 31" fill="none" xmlns="http://www.w3.org/2000/svg">
<g clip-path="url(#clip0_204_784)">
<path d="M49.154 15.7673C49.2639 15.7673 49.3783 15.7231 49.5058 15.6877C49.8334 15.6009 50.1411 15.4509 50.4117 15.246C50.2745 15.4225 50.1131 15.5787 49.9323 15.7098C49.723 15.8593 49.4858 15.9649 49.235 16.0203C48.9842 16.0757 48.7248 16.0798 48.4724 16.0323C48.7136 15.9859 48.9445 15.8961 49.154 15.7673Z" fill="black"/>
<path d="M102.974 30.9956C102.916 30.9956 102.789 30.7526 102.534 30.2887C102.146 29.6162 101.658 29.0069 101.087 28.4818C100.176 27.6652 99.1356 27.0067 98.009 26.5336C96.5012 25.8954 94.9318 25.4157 93.3258 25.1022C89.7419 24.3556 85.3401 24.0331 80.4502 23.9535C75.5603 23.874 70.1603 24.0419 64.4789 24.1965C61.6426 24.2716 58.8634 24.3379 56.1678 24.3202C53.5508 24.3463 50.9356 24.172 48.3449 23.7989C48.0546 23.7503 47.7688 23.6929 47.4654 23.6266C48.0626 23.3732 48.6003 22.997 49.0441 22.5222C49.0968 22.4647 49.1452 22.4029 49.198 22.341C51.5099 22.5871 53.8344 22.6933 56.159 22.6591C58.8195 22.6591 61.5854 22.5796 64.4217 22.5045C70.0987 22.3499 75.5295 22.2262 80.4766 22.394C85.4236 22.5619 89.9002 23.0081 93.5808 23.9314C95.2552 24.3325 96.8782 24.9254 98.4179 25.6986C99.6013 26.2767 100.667 27.0707 101.562 28.04C102.126 28.6549 102.564 29.3755 102.85 30.1606C103 30.6819 103.026 30.9823 102.974 30.9956Z" fill="black"/>
<path d="M50.3325 14.9677C50.0866 15.2238 49.7858 15.4202 49.453 15.542C49.5665 15.4362 49.6655 15.3159 49.7476 15.1841C49.9769 14.939 50.1298 14.6319 50.1874 14.3006C50.2283 14.0643 50.2142 13.8217 50.1464 13.5918C50.0785 13.3619 49.9586 13.1508 49.796 12.9752C49.3958 12.5357 48.8568 12.2485 48.2701 12.1623C47.0169 11.9635 45.3678 12.5688 44.2817 13.8058C44.0149 14.1095 43.8089 14.462 43.6749 14.844C43.5213 15.2733 43.4122 15.7175 43.3494 16.1693C43.2142 17.1037 43.3375 18.0573 43.7056 18.926C43.9 19.384 44.1527 19.8147 44.4576 20.2072C44.6168 20.4095 44.7871 20.6027 44.9677 20.786C45.138 20.9661 45.3218 21.133 45.5174 21.2852C45.7918 21.4673 46.0871 21.6156 46.3968 21.727C46.188 21.8284 45.9701 21.9097 45.746 21.9699C45.2682 22.0915 44.7787 22.1611 44.2861 22.1776C44.1542 22.0539 44.0354 21.9302 43.9123 21.7976C43.6972 21.5685 43.496 21.3266 43.3099 21.0731C42.9397 20.5749 42.6366 20.0297 42.4084 19.4518C41.9764 18.3424 41.8562 17.135 42.061 15.9617C42.1544 15.4253 42.3018 14.8998 42.5008 14.3933C42.703 13.8787 43.0015 13.4078 43.3802 13.0061C44.0602 12.2921 44.9021 11.754 45.834 11.4378C46.6676 11.1349 47.5676 11.0661 48.4372 11.239C48.6942 11.2921 48.9438 11.3767 49.1804 11.4908C49.5595 11.7441 49.8939 12.0591 50.1698 12.423C50.4876 12.8206 50.6832 13.3027 50.7327 13.8102C50.7485 14.0204 50.7212 14.2316 50.6523 14.4307C50.5835 14.6298 50.4746 14.8126 50.3325 14.9677Z" fill="black"/>
<path d="M50.4029 12.4627C50.0773 12.0465 49.6584 11.7134 49.1804 11.4908C48.5264 11.0477 47.7684 10.7842 46.9817 10.7265C46.2334 10.6984 45.487 10.819 44.7853 11.0813C44.0835 11.3436 43.4401 11.7425 42.8921 12.2551C42.2433 12.7868 41.6849 13.4209 41.2387 14.1327C40.7952 14.8655 40.5314 15.6938 40.4692 16.5492C40.3372 18.2943 41.1068 20.1498 42.3732 21.6739C42.5139 21.8374 42.6591 21.9964 42.813 22.1599C42.3732 22.129 41.9335 22.0892 41.4937 22.0406L40.5615 21.9081C40.1032 21.2289 39.7323 20.4941 39.4578 19.7212C39.0785 18.664 38.9403 17.5347 39.0532 16.4167C39.1726 15.3462 39.5499 14.3212 40.1525 13.4302C40.7067 12.627 41.3903 11.9222 42.1753 11.345C42.8961 10.791 43.707 10.3665 44.5719 10.0903C45.3821 9.83707 46.2379 9.76618 47.0784 9.8827C47.789 9.98345 48.4702 10.2349 49.0767 10.6203C49.6832 11.0057 50.2012 11.5163 50.5963 12.1181C50.9335 12.6222 51.1128 13.2161 51.1108 13.8234C51.1082 14.0782 51.0533 14.3298 50.9497 14.5624C50.846 14.7949 50.6958 15.0036 50.5084 15.1753L50.3985 15.2592C50.59 15.0184 50.7293 14.74 50.8074 14.4419C50.8983 14.1032 50.9091 13.7478 50.8389 13.4041C50.7686 13.0604 50.6193 12.7381 50.4029 12.4627Z" fill="black"/>
<path d="M44.6555 24.1258C44.5647 24.3169 44.4412 24.4903 44.2905 24.6383C44.0883 24.8277 43.8526 24.9776 43.5957 25.0801C43.0987 24.7104 42.6271 24.3075 42.1841 23.874C42.6459 23.9579 43.1208 24.0331 43.6221 24.0816C43.9563 24.1037 44.3037 24.1214 44.6555 24.1258Z" fill="black"/>
<path d="M46.9025 25.058L47.3423 25.2656C48.3082 25.6085 49.3256 25.7818 50.3501 25.7781C51.4186 25.8223 52.4916 25.8134 53.5514 25.7781C55.6709 25.7251 57.7289 25.6191 59.7077 25.544C63.2057 25.3387 66.7131 25.3578 70.2087 25.6014C71.5669 25.7075 72.9108 25.9533 74.2191 26.3348C75.2397 26.5949 76.1646 27.1438 76.8839 27.9163C77.3074 28.4366 77.5124 29.1022 77.4556 29.7718C77.4389 29.9959 77.4006 30.2178 77.3412 30.4345C77.3745 30.2153 77.3877 29.9935 77.3808 29.7718C77.3719 29.1435 77.1232 28.5425 76.686 28.0931C75.9501 27.4415 75.0464 27.0113 74.0784 26.8516C72.7884 26.5908 71.4762 26.4561 70.1603 26.4496C67.2185 26.3789 63.7049 26.6528 59.7913 26.9709C57.8344 27.1255 55.7765 27.2978 53.6349 27.4127C52.5532 27.4613 51.4362 27.4922 50.3105 27.4569C49.7432 27.4569 49.1628 27.3995 48.5516 27.3199C48.2439 27.2784 47.9386 27.2209 47.6369 27.1476C47.3232 27.0679 47.016 26.9645 46.7178 26.8384C46.4232 26.7147 46.1286 26.5821 45.8384 26.4408L45.9131 26.3833C46.3252 26.01 46.6612 25.5599 46.9025 25.058Z" fill="black"/>
<path d="M50.8206 14.4243C50.7425 14.7224 50.6032 15.0008 50.4117 15.2416C50.1411 15.4465 49.8334 15.5965 49.5058 15.6833C49.3783 15.7187 49.2639 15.7408 49.154 15.7629C49.258 15.6978 49.3553 15.6223 49.4442 15.5376C49.777 15.4158 50.0778 15.2193 50.3237 14.9632C50.4658 14.8082 50.5747 14.6254 50.6435 14.4263C50.7124 14.2272 50.7397 14.0159 50.7239 13.8058C50.6744 13.2982 50.4788 12.8162 50.161 12.4186C49.8851 12.0547 49.5507 11.7397 49.1716 11.4864C49.6496 11.709 50.0685 12.0421 50.3941 12.4583C50.6122 12.7302 50.7644 13.0494 50.8384 13.3907C50.9125 13.7319 50.9064 14.0858 50.8206 14.4243Z" fill="black"/>
<path d="M45.425 26.7545C45.0793 26.9858 44.7054 27.1714 44.3125 27.3067C43.7842 27.4828 43.2362 27.5926 42.681 27.6336C41.683 27.696 40.6812 27.6307 39.6996 27.4392C39.2291 27.3509 38.7718 27.2448 38.3232 27.13L37.6592 26.94L37.0568 26.7589C35.4636 26.375 33.8481 26.0917 32.2197 25.9106C30.6146 25.7118 29.0447 25.5572 27.5276 25.4335C22.3193 24.983 17.0889 24.8444 11.8642 25.0182C7.56351 25.1994 4.19511 25.6544 2.09316 26.5071C1.04218 26.9223 0.334204 27.5055 0.136322 28.0577C0.0216486 28.3373 -0.00892702 28.6445 0.0483756 28.9413C-0.0369128 28.653 -0.0369128 28.346 0.0483756 28.0577C0.206682 27.479 0.879482 26.8119 1.90407 26.3171C3.95765 25.2966 7.28208 24.6206 11.5783 24.1789C16.8302 23.6935 22.1081 23.5533 27.3781 23.7592C28.926 23.8122 30.5267 23.8961 32.1889 24.0242C33.9304 24.1427 35.6632 24.3669 37.3778 24.6957C37.5977 24.7443 37.8703 24.815 38.0594 24.868L38.675 25.0182C39.084 25.111 39.4973 25.195 39.9151 25.2568C40.7258 25.3911 41.5498 25.4252 42.3688 25.3584C42.626 25.3334 42.8805 25.2861 43.1296 25.217C43.8023 25.8567 44.5786 26.3766 45.425 26.7545Z" fill="black"/>
<path d="M44.6555 24.1258H45.1612C45.7225 24.4858 46.3106 24.8019 46.9201 25.0713C46.6814 25.5724 46.3484 26.0225 45.9395 26.3966L45.8648 26.454C45.0747 26.0684 44.3211 25.6115 43.6133 25.0889C43.8702 24.9864 44.1059 24.8366 44.3081 24.6471C44.4533 24.4951 44.5709 24.3187 44.6555 24.1258Z" fill="black"/>
<path d="M47.4566 23.6266L47.3467 23.6796V23.6089L47.4566 23.6266Z" fill="black"/>
<path d="M49.0133 22.0494C48.2755 21.9261 47.5521 21.7277 46.8542 21.4575C47.0212 21.3323 47.1694 21.1835 47.2939 21.0157C47.5932 20.6138 47.7922 20.1457 47.8744 19.6506C47.8963 19.7036 47.9183 19.7522 47.9447 19.8052C48.331 20.465 48.8971 21 49.5761 21.347L49.7652 21.4442C49.6457 21.6719 49.5075 21.8891 49.3519 22.0936C49.2399 22.0725 49.1269 22.0577 49.0133 22.0494Z" fill="black"/>
<path d="M41.4981 23.7326L41.3179 23.6973C38.442 23.0435 36.1157 22.2173 34.1545 21.7623C32.1933 21.3072 30.6366 21.1615 29.6428 21.5016C29.2607 21.6199 28.9103 21.8238 28.6182 22.098C28.5192 22.1936 28.428 22.297 28.3456 22.4073C28.4097 22.2868 28.4832 22.1715 28.5654 22.0627C28.8182 21.7346 29.1434 21.47 29.5153 21.2896C30.1293 21.0048 30.7922 20.8414 31.4677 20.808C32.3804 20.7563 33.2958 20.7874 34.2029 20.9008C35.8475 21.0731 37.7604 21.4707 39.9195 21.8065C40.3561 22.5176 40.8872 23.1657 41.4981 23.7326Z" fill="black"/>
<path d="M47.4566 23.6266H47.3599C47.395 23.4234 47.4214 23.2246 47.439 23.0302L45.2403 22.8888C45.0206 22.7765 44.8103 22.6465 44.6115 22.5001C44.4891 22.4062 44.3717 22.3059 44.2597 22.1997C44.7523 22.1832 45.2418 22.1136 45.7196 21.992C45.9437 21.9318 46.1616 21.8504 46.3705 21.749C46.5332 21.8109 46.7003 21.8683 46.8761 21.9169C47.4279 22.073 47.989 22.194 48.556 22.2792L49.1716 22.3587C49.1188 22.4205 49.0704 22.4824 49.0177 22.5398C48.5774 23.0063 48.0459 23.3763 47.4566 23.6266Z" fill="black"/>
<path d="M42.7998 22.1599C43.4002 22.7946 44.0649 23.3646 44.783 23.8608C44.7449 23.9512 44.7024 24.0397 44.6555 24.1259C44.3037 24.1259 43.9563 24.1258 43.6221 24.0728C43.1208 24.0242 42.6459 23.9491 42.1841 23.8652C41.8044 23.4987 41.4489 23.1076 41.12 22.6945C40.9177 22.4382 40.733 22.1776 40.5571 21.9081L41.4893 22.0406C41.9159 22.0892 42.36 22.129 42.7998 22.1599Z" fill="black"/>
<path d="M45.2579 22.8712L47.4566 23.0125C47.439 23.2069 47.4126 23.4057 47.3774 23.6089C47.074 23.5383 46.7706 23.4543 46.4672 23.3615C46.0502 23.235 45.6455 23.0709 45.2579 22.8712Z" fill="black"/>
<path d="M44.6555 24.1259C44.7024 24.0397 44.7449 23.9512 44.783 23.8608C44.9061 23.9447 45.0292 24.0331 45.1612 24.1126L44.6555 24.1259Z" fill="black"/>
<path d="M54.897 8.69871C54.7051 9.18499 54.4146 9.62582 54.0439 9.99313C53.7256 10.2948 53.3503 10.5292 52.9401 10.6823C52.4106 10.8661 51.8504 10.9441 51.2911 10.9121C51.0978 10.9034 50.9053 10.8813 50.7151 10.8458L51.2032 10.5542C51.6134 10.3135 51.9879 10.0161 52.3157 9.67064C52.6995 9.25318 52.9198 8.71015 52.9357 8.14207C52.9604 7.77433 52.9604 7.40534 52.9357 7.03761C52.9251 7.02735 52.9109 7.02162 52.8962 7.02162C52.8814 7.02162 52.8672 7.02735 52.8566 7.03761H52.7774L52.4652 7.0862C52.0755 7.15352 51.6907 7.2465 51.3131 7.36452C50.693 7.52801 50.1251 7.84901 49.6641 8.29668C49.3427 8.64746 49.1396 9.09114 49.0836 9.5646C49.0553 9.76655 49.0421 9.97034 49.0441 10.1743C48.9054 10.0097 48.7873 9.82865 48.6923 9.63529C48.4003 9.04567 48.3422 8.36667 48.5296 7.73562C48.843 6.77895 49.4894 5.96796 50.3501 5.45159C50.8176 5.14999 51.3215 4.90949 51.8496 4.7359L52.2673 4.6122L52.3685 4.58569L52.5488 4.55036L52.9182 4.48408C53.4084 4.40765 53.904 4.37219 54.4001 4.37805H55.4159C55.4159 5.36323 55.4159 6.30865 55.2971 7.19664C55.2254 7.71189 55.091 8.21634 54.897 8.69871Z" fill="black"/>
<path d="M57.1177 16.1207L56.9857 16.187L56.9022 16.2223L56.7351 16.293L56.4009 16.4211C56.1766 16.5006 55.9611 16.5669 55.7413 16.6243C54.9478 16.8555 54.1146 16.9158 53.2963 16.801C52.7112 16.7359 52.1731 16.4482 51.7924 15.997C51.6742 15.8385 51.5916 15.6561 51.5506 15.4624C51.6917 15.5674 51.8492 15.648 52.0167 15.701C52.427 15.8002 52.8581 15.7661 53.248 15.6038C53.8472 15.373 54.4194 15.0767 54.9541 14.7202L55.4291 14.411L55.6709 14.2475L55.794 14.1636L55.8556 14.1194C55.8556 14.1194 55.8336 14.0487 55.8204 14.0487C55.8204 14.0487 55.8204 14.0487 55.7853 14.0001L55.6006 13.7792C55.3746 13.5144 55.1227 13.2731 54.8486 13.0591C54.4005 12.6885 53.8453 12.4732 53.2656 12.445C52.7823 12.4411 52.3019 12.5203 51.8452 12.6792C51.4934 12.7985 51.2911 12.8868 51.2911 12.8824C51.3816 12.6989 51.4891 12.5243 51.6121 12.3611C51.9502 11.8753 52.4037 11.482 52.9314 11.2169C53.3439 11.017 53.7929 10.9043 54.2506 10.8856C54.7847 10.8632 55.3176 10.952 55.816 11.1462C56.3438 11.3579 56.8328 11.6565 57.2628 12.0298C57.3683 12.1225 57.4738 12.2153 57.5794 12.3169C57.619 12.3523 57.7025 12.4406 57.7861 12.5334C57.8696 12.6262 57.9444 12.7101 58.0235 12.8029C58.324 13.1722 58.5988 13.5619 58.8458 13.9692L59.2856 14.707C58.9162 14.9809 58.5688 15.2415 58.2126 15.4934C57.8618 15.7265 57.496 15.9361 57.1177 16.1207Z" fill="black"/>
<path d="M32.3208 16.0323C32.4043 15.9396 32.4923 15.8512 32.5275 15.8159C32.633 15.7143 32.7385 15.6215 32.8485 15.5287C33.2769 15.1555 33.7644 14.8568 34.2908 14.6451C34.7892 14.4509 35.3222 14.3622 35.8563 14.3845C36.314 14.4032 36.7629 14.5159 37.1755 14.7158C37.7019 14.983 38.1549 15.3759 38.4947 15.86C38.6136 16.0261 38.7209 16.2003 38.8157 16.3814C38.8157 16.3814 38.6135 16.2974 38.2573 16.1781C37.8021 16.0191 37.3232 15.9399 36.8413 15.944C36.2601 15.9712 35.7032 16.1866 35.2539 16.5581C34.9817 16.7744 34.73 17.0154 34.5019 17.2782L34.3172 17.4991C34.2732 17.5477 34.2776 17.5477 34.282 17.5477C34.282 17.5477 34.2425 17.5697 34.2469 17.6183C34.2512 17.6669 34.2469 17.6183 34.2469 17.6183L34.3084 17.6625L34.4315 17.7465L34.6734 17.9099L35.1483 18.2192C35.6831 18.5756 36.2553 18.8719 36.8545 19.1027C37.2433 19.2694 37.6758 19.3035 38.0858 19.1999C38.2546 19.147 38.4136 19.0664 38.5563 18.9614C38.5152 19.1559 38.431 19.3386 38.31 19.4959C37.9294 19.9471 37.3913 20.2348 36.8061 20.3C35.9893 20.4149 35.1575 20.3547 34.3656 20.1233C34.1457 20.0658 33.9258 19.9996 33.7016 19.92L33.3718 19.7919L33.2047 19.7212L33.1211 19.6859L32.9848 19.6196C32.5932 19.4222 32.2156 19.1978 31.8547 18.9481C31.4985 18.6963 31.1511 18.4356 30.7817 18.1617L31.2215 17.424C31.4685 17.0166 31.7433 16.6269 32.0438 16.2577C32.1625 16.2135 32.2416 16.1207 32.3208 16.0323Z" fill="black"/>
<path d="M47.9623 19.169C47.9455 19.3368 47.9191 19.5035 47.8832 19.6682C47.7795 19.4268 47.7256 19.1668 47.7248 18.9039C47.7255 18.6832 47.772 18.4651 47.8612 18.2633C47.9312 18.1031 48.0246 17.9542 48.1382 17.8216C48.1634 17.9723 48.2032 18.1203 48.2569 18.2633C48.3124 18.421 48.3996 18.5655 48.5131 18.6879C48.6266 18.8102 48.7639 18.9079 48.9165 18.9746C49.3743 19.1553 49.8531 19.277 50.3413 19.3369L51.3087 19.4959C51.3703 19.4959 51.3395 19.4959 51.3527 19.4959C51.3582 19.5047 51.3661 19.5119 51.3754 19.5166C51.3847 19.5212 51.3951 19.5233 51.4055 19.5224H51.4362C51.4362 19.5224 51.4758 19.4297 51.489 19.3722C51.5286 19.2353 51.5594 19.1027 51.5901 18.9746C51.7069 18.513 51.7382 18.0339 51.6825 17.5609C51.6273 17.2026 51.4752 16.8664 51.2427 16.589C51.1453 16.4669 51.038 16.3531 50.9217 16.2488C51.0865 16.2244 51.2539 16.2244 51.4187 16.2488C51.9224 16.3096 52.3892 16.5456 52.7379 16.9159C53.2662 17.4794 53.602 18.1975 53.6965 18.9658C53.7298 19.1792 53.7474 19.3948 53.7493 19.6108C53.7587 19.7387 53.7587 19.8672 53.7493 19.9951C53.7273 20.1719 53.7053 20.3486 53.6701 20.5253C53.4994 21.2268 53.2547 21.9081 52.9401 22.5575L52.8346 22.531L51.7001 22.2129L51.1504 22.0539L50.8822 21.9743L50.6579 21.8992C50.357 21.783 50.0633 21.6488 49.7784 21.4972C50.0886 20.8952 50.3037 20.2483 50.4161 19.5799L47.9623 19.169Z" fill="black"/>
<path d="M47.9535 19.8229C47.9271 19.7698 47.9051 19.7213 47.8832 19.6682C47.9191 19.5035 47.9455 19.3368 47.9623 19.169L50.4117 19.5445C50.2993 20.213 50.0842 20.8598 49.774 21.4619L49.5849 21.3647C48.9058 21.0177 48.3398 20.4826 47.9535 19.8229Z" fill="black"/>
<path d="M46.7134 8.76942C46.4814 9.00904 46.2031 9.19848 45.8955 9.32607C45.6544 9.42446 45.4017 9.49127 45.1436 9.52486C45.3304 9.36557 45.5039 9.19122 45.6625 9.00356C45.8543 8.79772 45.9943 8.54875 46.0708 8.27745C46.1473 8.00615 46.1581 7.7204 46.1022 7.44406C45.8629 6.63365 45.4451 5.88775 44.8797 5.26165C44.5631 4.86404 44.2025 4.46202 43.8156 4.05116L43.6705 3.89654L43.6089 3.83469H43.5825L43.5385 3.91421C43.2989 4.33469 43.1029 4.77881 42.9537 5.23956C42.8169 5.68333 42.7213 6.13882 42.6678 6.60025C42.6083 6.97931 42.6083 7.36542 42.6678 7.74447C42.7058 8.03194 42.8004 8.30893 42.9461 8.55924C43.0919 8.80956 43.2858 9.0282 43.5165 9.20237C43.7167 9.34063 43.938 9.44508 44.1718 9.51161C43.9169 9.58885 43.6484 9.60995 43.3846 9.57347C43.0503 9.53221 42.7298 9.41431 42.448 9.22888C42.0656 8.97262 41.7443 8.6347 41.5069 8.23927C41.2167 7.76242 41.0238 7.23228 40.9397 6.67977C40.829 6.07831 40.7994 5.46461 40.8517 4.85521C40.9132 4.16249 41.0839 3.48399 41.3574 2.84509L41.4146 2.71697L41.5113 2.52259C41.5773 2.38564 41.6564 2.2531 41.7312 2.12057C41.8855 1.86081 42.0543 1.61005 42.2369 1.36953C42.5975 0.901237 42.9801 0.485967 43.3758 0.00883961V-0.013258C43.8156 0.428526 44.2553 0.870311 44.695 1.31209C44.9061 1.53741 45.1128 1.75388 45.3107 2.00128L45.4602 2.17358L45.5481 2.28845L45.6976 2.48724C46.0822 2.99792 46.4206 3.54199 46.709 4.11301C47.2874 5.13676 47.5261 6.31899 47.3906 7.48824C47.2951 7.97288 47.0596 8.41849 46.7134 8.76942Z" fill="black"/>
<path d="M41.3091 10.6028C41.2962 10.8908 41.226 11.1732 41.1024 11.4334C41.0813 11.1685 41.022 10.9081 40.9265 10.6603C40.649 10.0672 40.166 9.59602 39.5677 9.33491C38.6744 8.9225 37.7214 8.65556 36.7446 8.54411C36.1614 8.46385 35.5741 8.41667 34.9856 8.40275H34.5459C34.4403 8.40275 34.4711 8.40275 34.4667 8.40275H34.4447L34.4711 8.4911C34.5107 8.61921 34.5547 8.75175 34.603 8.87987C34.8075 9.39044 35.0654 9.87768 35.3726 10.3333C35.9084 11.1507 36.6059 11.8484 37.4218 12.3832C37.9938 12.7589 38.6562 12.9726 39.339 13.0017C39.6105 13.0094 39.882 12.9857 40.1482 12.931C39.9312 13.116 39.6862 13.2652 39.4226 13.3728C38.6441 13.6921 37.7847 13.754 36.9688 13.5495C35.7458 13.2493 34.6308 12.6111 33.75 11.7073C33.2123 11.1719 32.7599 10.5565 32.4087 9.88271C32.3164 9.70158 32.2329 9.51604 32.1537 9.32165L32.0921 9.16262L32.013 8.92405C31.9646 8.75617 31.9162 8.59271 31.8811 8.42483C31.7593 7.77564 31.715 7.1142 31.7491 6.45448V6.17615C32.3867 6.02343 33.0351 5.92003 33.6884 5.8669C33.8555 5.8669 34.027 5.8669 34.1941 5.8669C34.3612 5.8669 34.5635 5.8669 34.6338 5.8669C34.8273 5.8669 35.012 5.89782 35.1967 5.92433C35.8946 6.01733 36.5812 6.18165 37.2459 6.41472C38.402 6.78569 39.456 7.42254 40.324 8.27463C40.663 8.6224 40.9331 9.03168 41.12 9.4807C41.2682 9.83513 41.3329 10.2191 41.3091 10.6028Z" fill="black"/>
<path d="M44.1542 8.42041C43.9664 8.40591 43.7909 8.32073 43.663 8.1819C43.535 8.04306 43.4639 7.86082 43.4639 7.6716C43.4639 7.48237 43.535 7.30011 43.663 7.16128C43.7909 7.02245 43.9664 6.93727 44.1542 6.92277C44.342 6.93727 44.5174 7.02245 44.6454 7.16128C44.7733 7.30011 44.8444 7.48237 44.8444 7.6716C44.8444 7.86082 44.7733 8.04306 44.6454 8.1819C44.5174 8.32073 44.342 8.40591 44.1542 8.42041Z" fill="black"/>
<path d="M50.4864 9.91806C50.2986 9.90356 50.1232 9.81837 49.9952 9.67953C49.8672 9.5407 49.7961 9.35846 49.7961 9.16923C49.7961 8.98001 49.8672 8.79777 49.9952 8.65893C50.1232 8.5201 50.2986 8.43491 50.4864 8.42041C50.6742 8.43491 50.8496 8.5201 50.9776 8.65893C51.1056 8.79777 51.1767 8.98001 51.1767 9.16923C51.1767 9.35846 51.1056 9.5407 50.9776 9.67953C50.8496 9.81837 50.6742 9.90356 50.4864 9.91806Z" fill="black"/>
<path d="M52.795 14.707C52.6072 14.6925 52.4318 14.6073 52.3038 14.4685C52.1759 14.3297 52.1048 14.1474 52.1048 13.9582C52.1048 13.769 52.1759 13.5867 52.3038 13.4479C52.4318 13.309 52.6072 13.2238 52.795 13.2093C52.9828 13.2238 53.1583 13.309 53.2862 13.4479C53.4142 13.5867 53.4853 13.769 53.4853 13.9582C53.4853 14.1474 53.4142 14.3297 53.2862 14.4685C53.1583 14.6073 52.9828 14.6925 52.795 14.707Z" fill="black"/>
<path d="M49.9631 18.3031H49.8884C49.7006 18.2886 49.5251 18.2034 49.3972 18.0646C49.2692 17.9258 49.1981 17.7435 49.1981 17.5543C49.1981 17.3651 49.2692 17.1828 49.3972 17.044C49.5251 16.9051 49.7006 16.82 49.8884 16.8055H49.9631C50.0658 16.7975 50.169 16.811 50.2663 16.8451C50.3636 16.8791 50.4528 16.9329 50.5284 17.0033C50.6039 17.0736 50.6642 17.1588 50.7055 17.2536C50.7467 17.3485 50.768 17.4508 50.768 17.5543C50.768 17.6578 50.7467 17.7601 50.7055 17.8549C50.6642 17.9498 50.6039 18.035 50.5284 18.1053C50.4528 18.1756 50.3636 18.2295 50.2663 18.2635C50.169 18.2976 50.0658 18.3111 49.9631 18.3031Z" fill="black"/>
<path d="M36.9249 18.4489C36.7278 18.4489 36.5387 18.3703 36.3994 18.2302C36.26 18.0902 36.1817 17.9003 36.1817 17.7023C36.1817 17.5043 36.26 17.3144 36.3994 17.1744C36.5387 17.0343 36.7278 16.9557 36.9249 16.9557C37.122 16.9557 37.311 17.0343 37.4504 17.1744C37.5897 17.3144 37.668 17.5043 37.668 17.7023C37.668 17.9003 37.5897 18.0902 37.4504 18.2302C37.311 18.3703 37.122 18.4489 36.9249 18.4489Z" fill="black"/>
<path d="M38.5651 11.7161C38.3773 11.7016 38.2019 11.6164 38.0739 11.4776C37.9459 11.3388 37.8748 11.1565 37.8748 10.9673C37.8748 10.7781 37.9459 10.5958 38.0739 10.457C38.2019 10.3182 38.3773 10.233 38.5651 10.2185C38.7529 10.233 38.9283 10.3182 39.0563 10.457C39.1843 10.5958 39.2554 10.7781 39.2554 10.9673C39.2554 11.1565 39.1843 11.3388 39.0563 11.4776C38.9283 11.6164 38.7529 11.7016 38.5651 11.7161Z" fill="black"/>
<path d="M47.8788 15.5906C46.5332 15.5906 46.5332 13.4921 47.8788 13.4921C49.2244 13.4921 49.2244 15.5906 47.8788 15.5906Z" fill="black"/>
</g>
<defs>
<clipPath id="clip0_204_784">
<rect width="103" height="31" fill="white" transform="matrix(1 0 0 -1 0 31)"/>
</clipPath>
</defs>
</svg>
