<svg width="39" height="41" viewBox="0 0 39 41" fill="none" xmlns="http://www.w3.org/2000/svg">
<g clip-path="url(#clip0_178_621)">
<path d="M20.4825 13.6596C20.3386 13.3235 20.3216 12.9485 20.4346 12.6013C20.5749 12.1832 20.7935 11.7941 21.0794 11.4538C21.4767 10.9625 21.9015 10.4929 22.3517 10.0471C22.9233 9.49731 23.4304 8.88722 23.8636 8.22805C23.9758 8.04056 24.065 7.84085 24.1294 7.63304C24.1833 7.42537 24.2183 7.21347 24.2339 6.99979C24.2663 6.55475 24.2055 6.10794 24.0553 5.68653C23.6702 4.75635 23.0916 3.91414 22.3561 3.21302L21.2494 2.07826L20.9792 1.79351L20.635 1.41526C20.2908 1.02001 19.9597 0.543999 19.6198 0.101996L19.5458 0C19.2103 0.425003 18.8748 0.879755 18.5349 1.27501L18.2778 1.57676L18.1471 1.72126L17.8814 2.00176C17.5284 2.37151 17.1494 2.73277 16.7703 3.09402C16.3866 3.45325 16.0257 3.83505 15.6898 4.23728C15.369 4.61724 15.1184 5.04865 14.9491 5.51228C14.8059 5.92238 14.7394 6.35426 14.753 6.78729C14.753 6.89354 14.753 6.99554 14.753 7.10604C14.7722 7.2252 14.8043 7.34202 14.8488 7.45454C14.9312 7.65133 15.0288 7.84171 15.1408 8.02404C15.5765 8.7253 16.047 9.29906 16.4479 9.87281C17.1177 10.6875 17.6663 11.5903 18.0774 12.5546C18.2183 12.8897 18.2532 13.2582 18.1776 13.6128C18.3367 13.2739 18.3824 12.8948 18.3083 12.5291C18.0868 11.5137 17.6874 10.5432 17.1276 9.66031C16.8052 9.07805 16.413 8.4448 16.0906 7.77755C16.0123 7.61889 15.9482 7.45395 15.8989 7.28454C15.8786 7.21388 15.8669 7.14112 15.864 7.06779V6.80429C15.8893 6.43419 15.9776 6.07078 16.1255 5.72903C16.5547 4.93341 17.1481 4.23306 17.8683 3.67202C18.2561 3.32352 18.6656 2.95377 19.0578 2.56277L19.3453 2.26526L19.4847 2.11651L19.5414 2.18026L19.6852 2.32901L19.9727 2.62651L21.1186 3.74427C21.8009 4.34732 22.3636 5.06765 22.7787 5.86929C22.9304 6.20788 23.0161 6.57108 23.0314 6.94029C23.0371 7.11367 23.0269 7.28719 23.0009 7.4588C22.9687 7.62584 22.916 7.7885 22.844 7.9433C22.5109 8.57893 22.1124 9.17986 21.6546 9.73681C21.2876 10.2357 20.9557 10.7582 20.6612 11.3008C20.4258 11.6913 20.2773 12.1257 20.2254 12.5758C20.195 12.8543 20.24 13.1357 20.3562 13.3918C20.3915 13.484 20.4338 13.5734 20.4825 13.6596Z" fill="#735032"/>
<path d="M24.7176 12.4738C24.7973 12.2691 24.9275 12.0866 25.0966 11.9425C25.6217 11.5613 26.2117 11.2735 26.8395 11.0925C27.2963 10.9382 27.7346 10.7358 28.1466 10.489C28.618 10.1737 28.9689 9.71488 29.1443 9.18428C29.3246 8.60087 29.3824 7.98797 29.3143 7.38227L29.1923 6.07751C29.1618 5.45701 29.1923 4.68775 29.1923 4.02475V3.995C28.6171 4.3095 27.9767 4.68775 27.4059 4.9895C27.2621 5.066 27.1183 5.12975 26.9702 5.19775L26.578 5.3635L26.1423 5.542C25.5454 5.75454 25.0081 6.10104 24.5738 6.55351C24.3977 6.76456 24.2512 6.99753 24.1381 7.24627C24.0703 7.38041 24.0233 7.52365 23.9987 7.67127C23.9748 7.80029 23.9632 7.93117 23.9638 8.06227C23.9638 8.56378 23.9638 9.01003 23.9987 9.42228C24.0597 10.0475 24.051 10.6774 23.9725 11.3008C23.9483 11.5209 23.8738 11.7329 23.7547 11.9213C23.9499 11.7922 24.1099 11.6186 24.2209 11.4155C24.5204 10.8654 24.725 10.271 24.8265 9.65603C24.9093 9.27353 24.979 8.84428 25.0836 8.42778C25.1082 8.32838 25.1388 8.23046 25.1751 8.13452C25.2084 8.0524 25.2555 7.97628 25.3145 7.90927C25.4387 7.73343 25.5851 7.57351 25.7502 7.43326C26.1631 7.1291 26.6298 6.9015 27.127 6.76177L27.5627 6.60451H27.6019V6.65976L27.6717 7.08477C27.765 7.584 27.7797 8.09421 27.7152 8.59777C27.6514 9.00392 27.4683 9.38332 27.188 9.69003C26.8804 9.96778 26.548 10.2181 26.1946 10.438C25.6252 10.7553 25.1437 11.2031 24.7917 11.7428C24.694 11.9741 24.6682 12.2283 24.7176 12.4738Z" fill="#735032"/>
<path d="M20.4825 27.3405C20.3386 27.6766 20.3216 28.0516 20.4346 28.3987C20.5749 28.8169 20.7935 29.206 21.0794 29.5462C21.4756 30.0384 21.9004 30.5081 22.3517 30.953C22.9233 31.5027 23.4304 32.1128 23.8636 32.772C23.9758 32.961 24.065 33.1621 24.1294 33.3712C24.1836 33.5774 24.2186 33.7879 24.2339 34.0003C24.2663 34.4467 24.2055 34.8949 24.0553 35.3178C23.669 36.2461 23.0905 37.0867 22.3561 37.787L21.2494 38.926L20.9792 39.2108L20.635 39.589C20.2908 39.9843 19.9597 40.4645 19.6198 40.9023L19.5457 41.0043C19.2103 40.5793 18.8748 40.1288 18.5349 39.7293L18.2778 39.4318L18.1471 39.283L17.8814 39.0025C17.5284 38.6328 17.1494 38.2758 16.7703 37.9103C16.3877 37.5515 16.0269 37.1712 15.6898 36.7713C15.3705 36.3903 15.1201 35.9592 14.9491 35.4963C14.803 35.0795 14.7365 34.6402 14.753 34.2C14.753 34.098 14.753 33.9918 14.753 33.8813C14.7729 33.7622 14.805 33.6455 14.8488 33.5328C14.9312 33.336 15.0288 33.1456 15.1408 32.9632C15.5765 32.262 16.047 31.6882 16.4479 31.1145C17.1177 30.2998 17.6663 29.397 18.0774 28.4327C18.2181 28.0976 18.253 27.7291 18.1776 27.3745C18.3367 27.7134 18.3824 28.0925 18.3083 28.4582C18.0868 29.4736 17.6874 30.4441 17.1276 31.327C16.8052 31.9092 16.413 32.5425 16.0906 33.2097C16.013 33.3687 15.9489 33.5336 15.8989 33.7027C15.8786 33.7734 15.8669 33.8462 15.864 33.9195V34.183C15.89 34.5544 15.9783 34.9191 16.1255 35.2625C16.5561 36.056 17.1493 36.7547 17.8683 37.3153C18.2561 37.668 18.6656 38.0335 19.0578 38.4245L19.3453 38.722L19.4847 38.8708L19.5414 38.8113L19.6852 38.6583L19.9727 38.3608L21.1186 37.243C21.8019 36.6408 22.3647 35.9203 22.7787 35.118C22.9304 34.7794 23.0161 34.4162 23.0314 34.047C23.0369 33.8736 23.0267 33.7001 23.0009 33.5285C22.9687 33.3615 22.916 33.1988 22.844 33.044C22.5119 32.4091 22.1133 31.8095 21.6546 31.2547C21.2647 30.7661 20.9095 30.2521 20.5914 29.7162C20.356 29.3258 20.2076 28.8913 20.1557 28.4412C20.1252 28.1627 20.1703 27.8813 20.2865 27.6252C20.3434 27.5251 20.409 27.4298 20.4825 27.3405Z" fill="#735032"/>
<path d="M15.0275 28.9512C14.8862 29.1212 14.7904 29.3227 14.7486 29.5377C14.6815 30.1696 14.7272 30.8081 14.8837 31.4247C14.9817 31.8902 15.027 32.3648 15.0188 32.84C14.9772 33.3973 14.7491 33.9259 14.3696 34.3445C13.9416 34.7872 13.4276 35.1426 12.8577 35.39L11.6377 35.9468C11.08 36.24 10.4134 36.6565 9.82516 36.988H9.79902C9.79902 36.3463 9.79902 35.6153 9.79902 34.982C9.79902 34.8205 9.77723 34.6717 9.76416 34.5145L9.71623 34.0895L9.65959 33.639C9.54946 33.0301 9.58526 32.4046 9.76416 31.8115C9.85807 31.5515 9.98858 31.3054 10.1519 31.0805C10.2374 30.9567 10.3384 30.8439 10.4526 30.7447C10.5659 30.6597 10.6748 30.5832 10.7837 30.5152C11.2194 30.2517 11.6333 30.0562 12.0037 29.8692C12.5867 29.6006 13.14 29.2745 13.655 28.896C13.8333 28.7624 13.9816 28.5946 14.0907 28.403C14.0728 28.6317 13.9997 28.8531 13.8772 29.049C13.5421 29.5765 13.1196 30.0462 12.6267 30.4387C12.3261 30.7065 11.9819 30.9827 11.6682 31.2887C11.5898 31.3652 11.5157 31.4417 11.4547 31.514C11.3982 31.5828 11.3541 31.6604 11.324 31.7435C11.2353 31.9426 11.1695 32.1507 11.1279 32.364C11.066 32.863 11.1 33.3689 11.2281 33.8557L11.3153 34.3105C11.3153 34.37 11.3153 34.3487 11.3153 34.353L11.3719 34.3275L11.8076 34.1617C12.2994 33.9908 12.7598 33.744 13.1714 33.4307C13.5012 33.1763 13.7455 32.8314 13.8729 32.4405C13.9635 32.0408 14.0174 31.634 14.0341 31.225C14.0226 30.5874 14.1722 29.9568 14.4698 29.389C14.6103 29.1953 14.8034 29.0437 15.0275 28.9512Z" fill="#735032"/>
<path d="M13.9164 16.2478C13.5457 16.206 13.2034 16.0337 12.9535 15.7633C12.6529 15.4339 12.4166 15.0537 12.2564 14.6413C12.02 14.0585 11.8149 13.4641 11.6421 12.8605C11.4351 12.1032 11.1428 11.3706 10.7706 10.676C10.6596 10.4874 10.5266 10.312 10.3741 10.1533C10.2202 9.99599 10.0509 9.85365 9.86873 9.72827C9.48816 9.47875 9.05988 9.30673 8.60954 9.22251C7.58974 9.08076 6.55082 9.14881 5.5596 9.42226L3.99542 9.78777L3.60764 9.87277L3.10222 9.97477C2.57502 10.0683 1.98682 10.1108 1.42476 10.1745H1.2984C1.50754 10.6675 1.73411 11.1818 1.93453 11.6705L2.0696 12.0403L2.13495 12.223L2.2526 12.5843C2.40509 13.073 2.53145 13.5703 2.66652 14.0718C2.7917 14.5753 2.94885 15.0706 3.13708 15.555C3.31705 16.0192 3.57633 16.4503 3.90392 16.8301C4.2045 17.1742 4.56793 17.461 4.97576 17.6758L5.26768 17.8203C5.38339 17.8627 5.50305 17.894 5.62496 17.9138C5.84148 17.943 6.05998 17.9558 6.27852 17.9521C7.11507 17.9521 7.88191 17.8331 8.57468 17.7693C9.63213 17.6103 10.7073 17.5974 11.7684 17.7311C12.1348 17.7755 12.4801 17.9232 12.7618 18.1561C12.5397 17.8531 12.2258 17.6257 11.8643 17.5058C10.8518 17.1873 9.79025 17.0435 8.72718 17.0808C8.04748 17.0808 7.28935 17.0808 6.54865 17.0128C6.368 16.9983 6.1888 16.9699 6.01274 16.9278C5.94059 16.9092 5.87052 16.8835 5.80359 16.8513L5.57703 16.7068C5.25984 16.5012 4.98128 16.2438 4.75355 15.9461C4.27427 15.3383 4.03463 14.45 3.80371 13.4385C3.69042 12.9328 3.56843 12.4015 3.41593 11.8788L3.29393 11.4835L3.23293 11.3008H3.31572L3.5205 11.254L3.93007 11.1563L5.49425 10.7313C6.37469 10.4577 7.29941 10.3453 8.22176 10.3998C8.60003 10.438 8.96705 10.5477 9.30231 10.7228C9.45514 10.8061 9.60085 10.9014 9.73801 11.0075C9.87051 11.1167 9.98771 11.2425 10.0866 11.3815C10.4867 11.9788 10.8211 12.6156 11.0843 13.2813C11.3226 13.8544 11.6006 14.4111 11.9165 14.9473C12.1411 15.3424 12.4484 15.6871 12.8185 15.9588C13.0513 16.1214 13.3227 16.2237 13.6071 16.2563C13.7102 16.2628 13.8138 16.26 13.9164 16.2478Z" fill="#735032"/>
<path d="M14.997 12.0743C14.8546 11.9066 14.7586 11.7062 14.7181 11.4921C14.645 10.8595 14.6863 10.2194 14.8401 9.6008C14.9363 9.13508 14.9802 8.66052 14.9708 8.18554C14.9247 7.62814 14.692 7.101 14.3086 6.68528C13.8806 6.24276 13.3647 5.88992 12.7923 5.64827L11.5723 5.09577C11.0103 4.80676 10.3393 4.39451 9.75544 4.06726H9.72494C9.72494 4.71326 9.72494 5.44427 9.72494 6.07753C9.72494 6.23903 9.70316 6.38778 9.69009 6.54078L9.64652 6.96578L9.59424 7.41203C9.48516 8.02264 9.52244 8.64959 9.70316 9.24379C9.80076 9.50386 9.93414 9.74978 10.0996 9.9748C10.181 10.1004 10.2842 10.2111 10.4046 10.302C10.5083 10.3868 10.6174 10.4649 10.7314 10.5358C11.1671 10.7993 11.6028 10.9906 11.9558 11.1818C12.5431 11.4425 13.0997 11.7645 13.6158 12.1423C13.7941 12.2758 13.9424 12.4436 14.0515 12.6353C14.0336 12.4066 13.9604 12.1852 13.838 11.9893C13.4963 11.4627 13.0696 10.9934 12.5745 10.5996C12.2738 10.3403 11.9296 10.0641 11.6115 9.74955C11.5357 9.67878 11.4645 9.60355 11.3981 9.5243C11.3416 9.45548 11.2974 9.3779 11.2673 9.29479C11.1758 9.09781 11.1086 8.89095 11.0669 8.67854C11.0033 8.17839 11.0358 7.67105 11.1628 7.18253L11.2456 6.72778C11.2456 6.67253 11.2456 6.68953 11.2456 6.68528H11.3022L11.7379 6.85103C12.2292 7.02198 12.6907 7.26567 13.106 7.57353C13.4358 7.82801 13.6801 8.17286 13.8075 8.56379C13.9034 8.96137 13.9603 9.36695 13.9774 9.77505C13.9746 10.4142 14.1317 11.0444 14.4349 11.6111C14.576 11.8121 14.7702 11.9721 14.997 12.0743Z" fill="#735032"/>
<path d="M26.0639 23.0904C26.29 23.3801 26.6143 23.582 26.9789 23.6599C27.4206 23.7495 27.8754 23.7596 28.3209 23.6897C28.9562 23.5985 29.586 23.4736 30.2075 23.3157C30.9817 23.1099 31.7763 22.9859 32.5777 22.9459C32.7993 22.9465 33.0201 22.9721 33.2356 23.0224C33.4485 23.0789 33.6556 23.1543 33.8543 23.2477C34.2637 23.4455 34.6282 23.7216 34.9261 24.0594C35.5599 24.8484 36.0183 25.7573 36.2725 26.7284L36.73 28.233L36.8476 28.6027L37.0132 29.0787C37.1875 29.5717 37.4489 30.0902 37.6711 30.596L37.7234 30.7107C37.1831 30.783 36.608 30.8382 36.0764 30.919L35.6843 30.9912L35.4882 31.0295L35.1048 31.1102C34.5994 31.225 34.0896 31.3652 33.5798 31.5012C33.0691 31.6471 32.5496 31.7621 32.0243 31.8455C31.5269 31.9286 31.0186 31.9286 30.5212 31.8455C30.0775 31.7598 29.6537 31.5956 29.2707 31.361C29.1777 31.3074 29.0875 31.2492 29.0006 31.1867C28.9028 31.1127 28.815 31.027 28.7391 30.9317C28.6042 30.7644 28.4832 30.5867 28.3775 30.4005C27.9723 29.6865 27.6804 28.9895 27.3928 28.369C27.0029 27.3965 26.4749 26.4824 25.8243 25.6532C25.6018 25.3691 25.2989 25.1548 24.9529 25.0369C25.3321 25.0728 25.6909 25.2211 25.9811 25.4619C26.7732 26.1551 27.4352 26.9778 27.9374 27.893C28.2947 28.4582 28.6564 29.1042 29.0921 29.712C29.1956 29.8619 29.3107 30.004 29.4363 30.137C29.4879 30.188 29.5448 30.2336 29.6062 30.273L29.8458 30.3962C30.1882 30.56 30.5565 30.6663 30.9351 30.7107C31.8581 30.7429 32.7779 30.5881 33.6365 30.256C34.1462 30.103 34.6734 29.9415 35.2181 29.8097L35.6276 29.712L35.8281 29.6695V29.593L35.7627 29.3932L35.6451 29.0022L35.2094 27.4764C35.0107 26.5955 34.649 25.7573 34.1419 25.0029C33.916 24.7055 33.6353 24.4519 33.314 24.2549C33.163 24.1649 33.0041 24.0881 32.8391 24.0254C32.6762 23.9668 32.5064 23.9283 32.3337 23.9107C31.6056 23.8753 30.8756 23.9123 30.1552 24.0212C29.5272 24.1066 28.8939 24.1506 28.2599 24.1529C27.7961 24.158 27.3363 24.0698 26.9092 23.8937C26.6484 23.778 26.422 23.5996 26.2512 23.3752C26.1803 23.2858 26.1176 23.1905 26.0639 23.0904Z" fill="#735032"/>
<path d="M24.7611 28.5007C24.8404 28.7056 24.9725 28.8871 25.1446 29.0277C25.6701 29.4083 26.26 29.6959 26.8874 29.8777C27.3433 30.0291 27.7814 30.2271 28.1945 30.4685C28.6684 30.7823 29.0235 31.2392 29.2053 31.769C29.3849 32.354 29.4441 32.9679 29.3796 33.5753L29.2663 34.88C29.2402 35.5005 29.2663 36.2698 29.2663 36.9285V36.9625C28.6868 36.648 28.042 36.274 27.4712 35.9765C27.3275 35.9 27.1837 35.8363 27.0355 35.7725L26.6434 35.6068L26.2077 35.4283C25.6113 35.2188 25.074 34.8751 24.6392 34.4253C24.4532 34.2171 24.2991 33.9837 24.1817 33.7325C24.1084 33.6002 24.0597 33.4563 24.0379 33.3075C24.0146 33.1769 24.0015 33.0448 23.9987 32.9123C23.9987 32.4108 23.9987 31.9645 24.0292 31.5565C24.0838 30.9294 24.0721 30.2985 23.9943 29.6737C23.9642 29.457 23.8886 29.2487 23.7721 29.0617C23.967 29.1889 24.1282 29.3593 24.2427 29.559C24.5419 30.1111 24.7479 30.7066 24.8526 31.3227C24.9354 31.701 25.0095 32.126 25.1184 32.5468C25.1446 32.6488 25.1794 32.7508 25.2099 32.84C25.246 32.9208 25.2929 32.9965 25.3494 33.0653C25.4765 33.2363 25.6226 33.3931 25.7851 33.5328C26.1956 33.8388 26.6632 34.064 27.1619 34.1958L27.5976 34.3573C27.6542 34.3573 27.6368 34.3573 27.6412 34.3573V34.302L27.7109 33.8558C27.7996 33.3545 27.8114 32.8431 27.7457 32.3385C27.6823 31.9331 27.4956 31.5555 27.2098 31.2548C26.8994 30.9772 26.5657 30.7255 26.212 30.5025C25.6412 30.1878 25.1569 29.7431 24.8004 29.2062C24.7217 28.9789 24.7081 28.735 24.7611 28.5007Z" fill="#735032"/>
<path d="M12.9317 23.0904C12.7032 23.3774 12.3799 23.5786 12.0168 23.6599C11.575 23.7494 11.1202 23.7595 10.6748 23.6897C10.0394 23.5985 9.40963 23.4736 8.78818 23.3157C8.01397 23.1099 7.21933 22.9859 6.41794 22.9459C6.19504 22.9486 5.97304 22.9742 5.75567 23.0224C5.54447 23.0797 5.33889 23.155 5.14133 23.2477C4.73062 23.4454 4.36469 23.7214 4.06514 24.0594C3.43504 24.8506 2.97693 25.7588 2.71881 26.7284L2.2831 28.233L2.16546 28.6027L1.99989 29.0787C1.82125 29.5717 1.56419 30.0902 1.34198 30.596L1.28969 30.7107C1.82996 30.783 2.40509 30.8382 2.9323 30.919L3.32879 30.9912L3.52486 31.0295L3.90392 31.1102C4.4137 31.225 4.91912 31.3652 5.43325 31.5012C5.94251 31.6471 6.46054 31.7621 6.98436 31.8455C7.48326 31.9286 7.99301 31.9286 8.49191 31.8455C8.93419 31.7598 9.35657 31.5956 9.73802 31.361C9.83245 31.3074 9.92406 31.2493 10.0125 31.1867C10.1102 31.1127 10.1981 31.027 10.2739 30.9317C10.4075 30.7643 10.527 30.5867 10.6312 30.4005C11.0408 29.6865 11.3283 28.9895 11.6203 28.369C12.0076 27.3962 12.5342 26.4819 13.1845 25.6532C13.4076 25.3698 13.7103 25.1557 14.0559 25.0369C13.6765 25.0723 13.3175 25.2207 13.0276 25.4619C12.2376 26.1494 11.577 26.9664 11.0756 27.876C10.7184 28.4412 10.3524 29.0872 9.92102 29.695C9.81746 29.8449 9.70239 29.987 9.57681 30.12C9.52522 30.171 9.46827 30.2166 9.40688 30.256L9.16289 30.3792C8.82074 30.5436 8.45238 30.65 8.07363 30.6937C7.15065 30.7256 6.2309 30.5707 5.37225 30.239C4.86683 30.086 4.33527 29.9245 3.79499 29.7927L3.38544 29.695L3.18501 29.6525L3.21115 29.576L3.27651 29.3762L3.39415 28.9852L3.82985 27.4595C4.02662 26.5779 4.38851 25.7394 4.89734 24.9859C5.12217 24.6877 5.4031 24.4338 5.72517 24.2379C5.87576 24.1471 6.03477 24.0703 6.20009 24.0084C6.36301 23.9498 6.5328 23.9113 6.70551 23.8937C7.43365 23.8584 8.16358 23.8954 8.88404 24.0042C9.51204 24.0897 10.1453 24.1338 10.7794 24.1359C11.2417 24.1415 11.7002 24.0533 12.1257 23.8767C12.3867 23.7633 12.6133 23.5862 12.7836 23.3624C12.8404 23.2758 12.89 23.1849 12.9317 23.0904Z" fill="#735032"/>
<path d="M12.5614 16.1968C12.3818 16.1356 12.2223 16.0284 12.0995 15.8866C11.7722 15.4548 11.5259 14.9699 11.3719 14.4543C11.2382 14.073 11.0629 13.7068 10.8491 13.3621C10.5745 12.9734 10.1764 12.6837 9.71624 12.5376C9.21082 12.3911 8.68044 12.3448 8.15641 12.4016L7.01922 12.5036C6.4833 12.5036 5.81667 12.5036 5.24589 12.5036H5.2154C5.48989 12.9796 5.81667 13.5066 6.08681 13.9783C6.15652 14.0973 6.2088 14.2121 6.2698 14.3311L6.41359 14.6541L6.57044 15.0026C6.75669 15.4872 7.05487 15.9235 7.44185 16.2776C7.62362 16.4287 7.82596 16.5546 8.04312 16.6516C8.15906 16.7062 8.28225 16.7449 8.40912 16.7663C8.52325 16.782 8.63814 16.7919 8.75332 16.7961C9.18903 16.7961 9.57681 16.7961 9.92973 16.7621C10.4722 16.7146 11.0183 16.7217 11.5593 16.7833C11.7499 16.8065 11.9337 16.8672 12.0995 16.9618C11.9852 16.8044 11.8364 16.6737 11.6638 16.5793C11.1866 16.3339 10.6715 16.1659 10.1389 16.0821C9.80338 16.0141 9.43302 15.9588 9.07139 15.8696C8.98528 15.8504 8.90081 15.8248 8.81868 15.7931C8.74674 15.7687 8.6802 15.7312 8.62261 15.6826C8.47047 15.5753 8.33157 15.4512 8.20869 15.3128C7.94359 14.9738 7.74694 14.5887 7.6292 14.1781L7.48978 13.8083C7.48978 13.7658 7.48978 13.7786 7.48978 13.7743H7.55078L7.93419 13.7148C8.36549 13.6377 8.80642 13.6263 9.24131 13.6808C9.59289 13.7273 9.92218 13.8753 10.1868 14.1058C10.4299 14.3576 10.6487 14.6308 10.8404 14.9218C11.1134 15.3918 11.501 15.7888 11.9688 16.0778C12.1503 16.1729 12.3562 16.2142 12.5614 16.1968Z" fill="#735032"/>
<path d="M25.0792 16.2478C25.4493 16.2041 25.791 16.0321 26.0421 15.7633C26.3436 15.4346 26.58 15.0541 26.7393 14.6413C26.976 14.0591 27.1796 13.4646 27.3492 12.8605C27.5562 12.1032 27.8485 11.3706 28.2206 10.676C28.3332 10.4873 28.4677 10.3119 28.6215 10.1533C28.7747 9.99518 28.944 9.85277 29.1269 9.72825C29.5075 9.47873 29.9358 9.30671 30.3861 9.2225C31.4059 9.0815 32.4447 9.14954 33.436 9.42225L35.0002 9.78775L35.388 9.87275L35.8934 9.97475C36.4206 10.0683 37.0088 10.1108 37.5665 10.1745H37.6972C37.4881 10.6675 37.2615 11.1818 37.0611 11.6705L36.926 12.0403L36.8607 12.223L36.743 12.5843C36.5905 13.073 36.4642 13.5703 36.3291 14.0718C36.2025 14.5753 36.0439 15.0707 35.8542 15.555C35.6757 16.019 35.4179 16.4501 35.0917 16.83C34.793 17.1601 34.4358 17.4351 34.0373 17.6418C33.9458 17.6928 33.85 17.7395 33.7498 17.7863C33.6339 17.8281 33.5143 17.8594 33.3925 17.8798C33.176 17.909 32.9574 17.9218 32.7389 17.9181C31.898 17.9181 31.1355 17.799 30.4427 17.7353C29.3838 17.5763 28.3072 17.5635 27.2447 17.6971C26.8797 17.7421 26.536 17.8898 26.2556 18.1221C26.4777 17.8191 26.7916 17.5917 27.1532 17.4718C28.1654 17.1527 29.2271 17.0089 30.2902 17.0468C30.9699 17.0468 31.7281 17.0468 32.4688 16.9788C32.648 16.9646 32.8258 16.9362 33.0003 16.8938C33.0727 16.8759 33.1429 16.8502 33.2095 16.8173L33.4404 16.6728C33.7566 16.466 34.035 16.2088 34.2639 15.912C34.7432 15.3043 34.9828 14.416 35.2094 13.4045C35.327 12.8988 35.449 12.3675 35.6015 11.8448L35.7235 11.4495L35.7845 11.2625H35.7017L35.4926 11.2158L35.0874 11.118L33.5232 10.693C32.6427 10.4196 31.718 10.3072 30.7957 10.3615C30.4174 10.3997 30.0504 10.5094 29.7151 10.6845C29.5623 10.7679 29.4166 10.8631 29.2794 10.9693C29.1469 11.0785 29.0297 11.2042 28.9308 11.3433C28.5316 11.941 28.1972 12.5777 27.9331 13.243C27.6948 13.8162 27.4168 14.3728 27.1009 14.909C26.875 15.3033 26.5679 15.6477 26.199 15.9205C25.9661 16.0831 25.6948 16.1855 25.4103 16.218C25.3012 16.2387 25.1903 16.2486 25.0792 16.2478Z" fill="#735032"/>
<path d="M26.8525 24.1826C27.0002 24.2993 27.1754 24.3782 27.3623 24.4121C27.9111 24.4678 28.4656 24.4289 29.0006 24.2974C29.4035 24.2183 29.8139 24.1812 30.2249 24.1869C30.7096 24.2182 31.1697 24.4067 31.532 24.7224C31.9177 25.074 32.2273 25.4974 32.4426 25.9676L32.9263 26.9706C33.179 27.4339 33.5406 27.9864 33.8282 28.4666V28.4921C33.2705 28.4921 32.6387 28.4921 32.0854 28.4921C31.9459 28.4921 31.8152 28.4921 31.6801 28.5219L31.3229 28.5601L30.9351 28.6069C30.4069 28.7008 29.8635 28.6717 29.3491 28.5219C29.1229 28.445 28.9088 28.3377 28.713 28.2031C28.6042 28.1365 28.5071 28.0533 28.4254 27.9566C28.3526 27.8704 28.2856 27.7795 28.225 27.6846C27.9941 27.3234 27.8242 26.9834 27.6586 26.6774C27.4267 26.1958 27.145 25.7387 26.8177 25.3131C26.6978 25.1663 26.5498 25.0436 26.382 24.9519C26.5808 24.9661 26.7733 25.0258 26.944 25.1261C27.4019 25.4065 27.8108 25.7566 28.1553 26.1631C28.3819 26.4054 28.6215 26.6901 28.8829 26.9494C28.9427 27.0132 29.0083 27.0715 29.079 27.1236C29.137 27.1707 29.2035 27.2067 29.275 27.2299C29.4453 27.3072 29.6256 27.3615 29.811 27.3914C30.2482 27.445 30.692 27.4162 31.1181 27.3064L31.5146 27.2384H31.5494V27.1959L31.4013 26.8431C31.2542 26.437 31.0409 26.0567 30.7695 25.7169C30.5437 25.4457 30.2404 25.246 29.8981 25.1431C29.5517 25.0663 29.1987 25.0208 28.8437 25.0071C28.2894 25.0152 27.7416 24.8896 27.249 24.6416C27.0766 24.5266 26.9395 24.3679 26.8525 24.1826Z" fill="#735032"/>
<path d="M12.1998 24.2463C12.054 24.3668 11.8781 24.4475 11.69 24.4801C11.1435 24.5415 10.5901 24.5069 10.0561 24.3781C9.6513 24.3023 9.23948 24.2681 8.82739 24.2761C8.3416 24.3098 7.88139 24.5013 7.52028 24.8201C7.13654 25.1732 6.82978 25.5982 6.61837 26.0696L6.13909 27.0811C5.89074 27.5444 5.53346 28.0969 5.26768 28.5814V28.6069C5.82538 28.6069 6.45716 28.6069 7.0105 28.6069C7.14993 28.6069 7.285 28.6069 7.41571 28.6324L7.77299 28.6706L8.16076 28.7131C8.69116 28.8021 9.23549 28.7701 9.75109 28.6196C9.97582 28.5406 10.1884 28.4319 10.3829 28.2966C10.4885 28.2259 10.5837 28.1416 10.6661 28.0459C10.7376 27.9586 10.8044 27.8678 10.8665 27.7739C11.0931 27.4126 11.263 27.0684 11.4242 26.7624C11.6512 26.2787 11.9301 25.82 12.2564 25.3938C12.3748 25.2445 12.523 25.1201 12.6921 25.0283C12.4947 25.0458 12.304 25.1069 12.1344 25.2068C11.6779 25.4874 11.2716 25.8392 10.9318 26.2481C10.7053 26.4946 10.4656 26.7794 10.2086 27.0429C10.1477 27.1055 10.0821 27.1638 10.0125 27.2171C9.9548 27.2656 9.8883 27.303 9.81645 27.3276C9.64483 27.4025 9.46503 27.4581 9.28053 27.4934C8.84369 27.5459 8.40069 27.5199 7.97341 27.4169L7.57692 27.3489H7.54206V27.3021L7.68585 26.9494C7.83195 26.5432 8.04216 26.1618 8.3089 25.8189C8.5356 25.5467 8.83827 25.3445 9.18031 25.2366C9.52692 25.16 9.87974 25.113 10.2347 25.0963C10.7886 25.0992 11.3347 24.9693 11.825 24.7181C11.9915 24.5969 12.121 24.4338 12.1998 24.2463Z" fill="#735032"/>
<path d="M26.4343 16.1671C26.6111 16.1009 26.7684 15.9928 26.8917 15.8526C27.2153 15.4167 27.4586 14.9291 27.6107 14.4118C27.7411 14.0307 27.9135 13.6645 28.1248 13.3196C28.3926 12.9208 28.79 12.6214 29.2533 12.4696C29.7576 12.3178 30.2885 12.2686 30.8131 12.3251L31.9459 12.4143C32.4818 12.4356 33.1528 12.4143 33.7236 12.4143H33.7323C33.4622 12.8903 33.1398 13.4258 32.8609 13.8976C32.7956 14.0166 32.7433 14.1313 32.6866 14.2503L32.5428 14.5733L32.3904 14.9218C32.2067 15.4151 31.9084 15.8603 31.5189 16.2223C31.3362 16.3733 31.1341 16.5005 30.9177 16.6006C30.8019 16.6567 30.6787 16.6967 30.5517 16.7196C30.439 16.7353 30.3256 16.7452 30.2118 16.7493C29.7761 16.7493 29.3883 16.7493 29.0311 16.7238C28.4882 16.6793 27.942 16.6907 27.4015 16.7578C27.2123 16.7837 27.0302 16.8459 26.8656 16.9406C26.9788 16.781 27.1278 16.6487 27.3013 16.5538C27.7775 16.3043 28.2928 16.1334 28.8263 16.0481C29.1574 15.9758 29.5278 15.9163 29.8894 15.8271C29.9756 15.8065 30.0601 15.7795 30.1421 15.7463C30.2141 15.722 30.2806 15.6844 30.3382 15.6358C30.488 15.5259 30.6254 15.4005 30.7477 15.2618C31.0111 14.9208 31.2062 14.5344 31.3229 14.1228L31.4536 13.7531C31.4536 13.7106 31.4536 13.7233 31.4536 13.7191H31.4013L31.0179 13.6638C30.5862 13.5891 30.1452 13.5805 29.7108 13.6383C29.3611 13.6868 29.0338 13.8346 28.7696 14.0633C28.5278 14.3172 28.3119 14.5933 28.1248 14.8878C27.853 15.3596 27.4671 15.7594 27.0007 16.0523C26.8244 16.1353 26.6298 16.1747 26.4343 16.1671Z" fill="#735032"/>
<path d="M19.1667 28.5771C19.1958 28.7596 19.1794 28.9462 19.1188 29.1212C18.8975 29.6145 18.5893 30.0662 18.2081 30.4557C17.9375 30.7588 17.7008 31.0894 17.5023 31.4417C17.2947 31.8678 17.2365 32.3486 17.3367 32.8102C17.4603 33.3105 17.6855 33.7817 17.999 34.1957L18.6526 35.1052C18.9445 35.5302 19.2538 36.1252 19.524 36.6055V36.631C19.8072 36.1635 20.1122 35.6194 20.3954 35.1647C20.4651 35.0457 20.5435 34.9437 20.6176 34.8332L20.8311 34.5527L21.0969 34.2509C21.4411 33.8478 21.6843 33.372 21.8071 32.8612C21.8515 32.6329 21.8618 32.3996 21.8376 32.1684C21.831 32.0416 21.803 31.9167 21.7548 31.7987C21.7147 31.6947 21.6666 31.5938 21.611 31.4969C21.4062 31.1229 21.1753 30.8084 20.9966 30.5194C20.6801 30.0849 20.4114 29.6191 20.1949 29.1297C20.1225 28.957 20.0854 28.7722 20.086 28.5857C20.0039 28.7633 19.9623 28.9561 19.964 29.1509C19.9863 29.6763 20.0966 30.1946 20.2908 30.6852C20.3954 30.9997 20.5304 31.3439 20.635 31.6924C20.6592 31.7762 20.6782 31.8614 20.6917 31.9474C20.7026 32.0207 20.7026 32.0951 20.6917 32.1684C20.6703 32.3492 20.6294 32.5273 20.5697 32.6997C20.402 33.0942 20.1579 33.4535 19.8507 33.7579L19.5937 34.0597C19.5632 34.0979 19.5719 34.0852 19.5675 34.0852L19.537 34.0469L19.293 33.7537C19.0064 33.4262 18.7728 33.0578 18.6003 32.6614C18.4719 32.338 18.4416 31.9854 18.5131 31.6457C18.6176 31.3147 18.7518 30.9932 18.914 30.6852C19.1873 30.2166 19.3384 29.6898 19.354 29.1509C19.3468 28.9465 19.282 28.748 19.1667 28.5771Z" fill="#735032"/>
<path d="M19.1057 12.5121C19.1374 12.3294 19.1193 12.1418 19.0534 11.9681C18.8313 11.4767 18.5215 11.0277 18.1384 10.642C17.8638 10.3415 17.6241 10.0123 17.4239 9.66029C17.213 9.23524 17.1518 8.75423 17.2496 8.29178C17.3672 7.7904 17.5881 7.31757 17.8988 6.90202L18.548 5.98826C18.8355 5.56326 19.1405 4.96401 19.4194 4.48376V4.45825C19.707 4.92575 20.0163 5.46551 20.2908 5.92026C20.3649 6.03501 20.4433 6.14126 20.5174 6.24752L20.7352 6.52802L20.9661 6.83402C21.3131 7.23394 21.5606 7.70665 21.6894 8.21528C21.7309 8.44527 21.7426 8.67944 21.7243 8.91228C21.7145 9.03692 21.6881 9.15979 21.6458 9.27779C21.6049 9.38276 21.5568 9.48499 21.5021 9.58379C21.2973 9.95779 21.0664 10.2723 20.8921 10.5655C20.5802 11.0022 20.3159 11.4694 20.1034 11.9596C20.0306 12.1319 19.995 12.3171 19.9989 12.5036C19.9116 12.329 19.8683 12.1367 19.8725 11.9425C19.8911 11.4152 19.997 10.8942 20.1862 10.3998C20.2864 10.0853 20.4215 9.74103 20.5217 9.39253C20.5459 9.30874 20.5649 9.22359 20.5784 9.13753C20.5913 9.06584 20.5913 8.99248 20.5784 8.92078C20.558 8.73805 20.5156 8.5583 20.452 8.38528C20.2829 7.99171 20.0373 7.63379 19.7287 7.33127L19.4673 7.03377C19.4368 6.99552 19.4673 7.00827 19.4455 7.00827H19.4194L19.3889 7.04652L19.1493 7.34402C18.8649 7.67309 18.6341 8.04293 18.4652 8.44053C18.3372 8.76422 18.3099 9.11755 18.3868 9.45629C18.4923 9.78685 18.6294 10.107 18.7963 10.4125C19.0771 10.8782 19.2385 11.403 19.2669 11.9425C19.2678 12.1432 19.212 12.3403 19.1057 12.5121Z" fill="#735032"/>
<path d="M24.7176 12.4738C24.7973 12.2691 24.9275 12.0866 25.0966 11.9425C25.6217 11.5613 26.2117 11.2735 26.8395 11.0925C27.2963 10.9382 27.7346 10.7358 28.1466 10.489C28.618 10.1737 28.9689 9.71488 29.1443 9.18428C29.3246 8.60087 29.3824 7.98797 29.3143 7.38227L29.1923 6.07751C29.1618 5.45701 29.1923 4.68775 29.1923 4.02475V3.995C28.6171 4.3095 27.9767 4.68775 27.4059 4.9895C27.2621 5.066 27.1183 5.12975 26.9702 5.19775L26.578 5.3635L26.1423 5.542C25.5454 5.75454 25.0081 6.10104 24.5738 6.55351C24.3977 6.76456 24.2512 6.99753 24.1381 7.24627C24.0703 7.38041 24.0233 7.52365 23.9987 7.67127C23.9748 7.80029 23.9632 7.93117 23.9638 8.06227C23.9638 8.56378 23.9638 9.01003 23.9987 9.42228C24.0597 10.0475 24.051 10.6774 23.9725 11.3008C23.9483 11.5209 23.8738 11.7329 23.7547 11.9213C23.9499 11.7922 24.1099 11.6186 24.2209 11.4155C24.5204 10.8654 24.725 10.271 24.8265 9.65603C24.9093 9.27353 24.979 8.84428 25.0836 8.42778C25.1082 8.32838 25.1388 8.23046 25.1751 8.13452C25.2084 8.0524 25.2555 7.97628 25.3145 7.90927C25.4387 7.73343 25.5851 7.57351 25.7502 7.43326C26.1631 7.1291 26.6298 6.9015 27.127 6.76177L27.5627 6.60451H27.6019V6.65976L27.6717 7.08477C27.765 7.584 27.7797 8.09421 27.7152 8.59777C27.6514 9.00392 27.4683 9.38332 27.188 9.69003C26.8804 9.96778 26.548 10.2181 26.1946 10.438C25.6252 10.7553 25.1437 11.2031 24.7917 11.7428C24.694 11.9741 24.6682 12.2283 24.7176 12.4738Z" fill="#735032"/>
<path d="M15.0275 28.9512C14.8862 29.1212 14.7904 29.3227 14.7486 29.5377C14.6815 30.1696 14.7272 30.8081 14.8837 31.4247C14.9817 31.8902 15.027 32.3648 15.0188 32.84C14.9772 33.3973 14.7491 33.9259 14.3696 34.3445C13.9416 34.7872 13.4276 35.1426 12.8577 35.39L11.6377 35.9468C11.08 36.24 10.4134 36.6565 9.82516 36.988H9.79902C9.79902 36.3463 9.79902 35.6153 9.79902 34.982C9.79902 34.8205 9.77723 34.6717 9.76416 34.5145L9.71623 34.0895L9.65959 33.639C9.54946 33.0301 9.58526 32.4046 9.76416 31.8115C9.85807 31.5515 9.98858 31.3054 10.1519 31.0805C10.2374 30.9567 10.3384 30.8439 10.4526 30.7447C10.5659 30.6597 10.6748 30.5832 10.7837 30.5152C11.2194 30.2517 11.6333 30.0562 12.0037 29.8692C12.5867 29.6006 13.14 29.2745 13.655 28.896C13.8333 28.7624 13.9816 28.5946 14.0907 28.403C14.0728 28.6317 13.9997 28.8531 13.8772 29.049C13.5421 29.5765 13.1196 30.0462 12.6267 30.4387C12.3261 30.7065 11.9819 30.9827 11.6682 31.2887C11.5898 31.3652 11.5157 31.4417 11.4547 31.514C11.3982 31.5828 11.3541 31.6604 11.324 31.7435C11.2353 31.9426 11.1695 32.1507 11.1279 32.364C11.066 32.863 11.1 33.3689 11.2281 33.8557L11.3153 34.3105C11.3153 34.37 11.3153 34.3487 11.3153 34.353L11.3719 34.3275L11.8076 34.1617C12.2994 33.9908 12.7598 33.744 13.1714 33.4307C13.5012 33.1763 13.7455 32.8314 13.8729 32.4405C13.9635 32.0408 14.0174 31.634 14.0341 31.225C14.0226 30.5874 14.1722 29.9568 14.4698 29.389C14.6103 29.1953 14.8034 29.0437 15.0275 28.9512Z" fill="#735032"/>
<path d="M14.997 12.0743C14.8546 11.9066 14.7586 11.7062 14.7181 11.4921C14.645 10.8595 14.6863 10.2194 14.8401 9.6008C14.9363 9.13508 14.9802 8.66052 14.9708 8.18554C14.9247 7.62814 14.692 7.101 14.3086 6.68528C13.8806 6.24276 13.3647 5.88992 12.7923 5.64827L11.5723 5.09577C11.0103 4.80676 10.3393 4.39451 9.75544 4.06726H9.72494C9.72494 4.71326 9.72494 5.44427 9.72494 6.07753C9.72494 6.23903 9.70316 6.38778 9.69009 6.54078L9.64652 6.96578L9.59424 7.41203C9.48516 8.02264 9.52244 8.64959 9.70316 9.24379C9.80076 9.50386 9.93414 9.74978 10.0996 9.9748C10.181 10.1004 10.2842 10.2111 10.4046 10.302C10.5083 10.3868 10.6174 10.4649 10.7314 10.5358C11.1671 10.7993 11.6028 10.9906 11.9558 11.1818C12.5431 11.4425 13.0997 11.7645 13.6158 12.1423C13.7941 12.2758 13.9424 12.4436 14.0515 12.6353C14.0336 12.4066 13.9604 12.1852 13.838 11.9893C13.4963 11.4627 13.0696 10.9934 12.5745 10.5996C12.2738 10.3403 11.9296 10.0641 11.6115 9.74955C11.5357 9.67878 11.4645 9.60355 11.3981 9.5243C11.3416 9.45548 11.2974 9.3779 11.2673 9.29479C11.1758 9.09781 11.1086 8.89095 11.0669 8.67854C11.0033 8.17839 11.0358 7.67105 11.1628 7.18253L11.2456 6.72778C11.2456 6.67253 11.2456 6.68953 11.2456 6.68528H11.3022L11.7379 6.85103C12.2292 7.02198 12.6907 7.26567 13.106 7.57353C13.4358 7.82801 13.6801 8.17286 13.8075 8.56379C13.9034 8.96137 13.9603 9.36695 13.9774 9.77505C13.9746 10.4142 14.1317 11.0444 14.4349 11.6111C14.576 11.8121 14.7702 11.9721 14.997 12.0743Z" fill="#735032"/>
<path d="M24.7611 28.5007C24.8404 28.7056 24.9725 28.8871 25.1446 29.0277C25.6701 29.4083 26.26 29.6959 26.8874 29.8777C27.3433 30.0291 27.7814 30.2271 28.1945 30.4685C28.6684 30.7823 29.0235 31.2392 29.2053 31.769C29.3849 32.354 29.4441 32.9679 29.3796 33.5753L29.2663 34.88C29.2402 35.5005 29.2663 36.2698 29.2663 36.9285V36.9625C28.6868 36.648 28.042 36.274 27.4712 35.9765C27.3275 35.9 27.1837 35.8363 27.0355 35.7725L26.6434 35.6068L26.2077 35.4283C25.6113 35.2188 25.074 34.8751 24.6392 34.4253C24.4532 34.2171 24.2991 33.9837 24.1817 33.7325C24.1084 33.6002 24.0597 33.4563 24.0379 33.3075C24.0146 33.1769 24.0015 33.0448 23.9987 32.9123C23.9987 32.4108 23.9987 31.9645 24.0292 31.5565C24.0838 30.9294 24.0721 30.2985 23.9943 29.6737C23.9642 29.457 23.8886 29.2487 23.7721 29.0617C23.967 29.1889 24.1282 29.3593 24.2427 29.559C24.5419 30.1111 24.7479 30.7066 24.8526 31.3227C24.9354 31.701 25.0095 32.126 25.1184 32.5468C25.1446 32.6488 25.1794 32.7508 25.2099 32.84C25.246 32.9208 25.2929 32.9965 25.3494 33.0653C25.4765 33.2363 25.6226 33.3931 25.7851 33.5328C26.1956 33.8388 26.6632 34.064 27.1619 34.1958L27.5976 34.3573C27.6542 34.3573 27.6368 34.3573 27.6412 34.3573V34.302L27.7109 33.8558C27.7996 33.3545 27.8114 32.8431 27.7457 32.3385C27.6823 31.9331 27.4956 31.5555 27.2098 31.2548C26.8994 30.9772 26.5657 30.7255 26.212 30.5025C25.6412 30.1878 25.1569 29.7431 24.8004 29.2062C24.7217 28.9789 24.7081 28.735 24.7611 28.5007Z" fill="#735032"/>
<path d="M9.76852 20.1026C9.54694 20.1415 9.31881 20.1239 9.10624 20.0516C8.51046 19.7938 7.96501 19.4372 7.49413 18.9976C7.12613 18.6861 6.72605 18.4126 6.3003 18.1816C5.78332 17.9423 5.20015 17.8751 4.64026 17.9903C4.03192 18.132 3.45867 18.3906 2.95408 18.7511L1.8561 19.5076C1.32019 19.8391 0.618701 20.1961 0.0392125 20.5276H0.00871658C0.575134 20.8548 1.22869 21.2076 1.78639 21.5348L2.18288 21.7941L2.52709 22.0406L2.89744 22.3083C3.38292 22.7063 3.95755 22.9873 4.57491 23.1286C4.84914 23.1894 5.13055 23.2137 5.41146 23.2008C5.56053 23.1874 5.70707 23.1545 5.84717 23.1031C5.97394 23.0568 6.09763 23.0029 6.21752 22.9416C6.65323 22.6994 7.04972 22.4528 7.40264 22.2318C7.92836 21.8675 8.49209 21.5583 9.08446 21.3096C9.29257 21.2243 9.51666 21.1823 9.74238 21.1863C9.53165 21.0838 9.29804 21.0341 9.06268 21.0418C8.42476 21.07 7.7954 21.1962 7.19786 21.4158C6.81879 21.5348 6.40052 21.6921 5.97788 21.8111C5.87802 21.8409 5.77609 21.8636 5.67289 21.8791C5.58331 21.8918 5.49232 21.8918 5.40275 21.8791C5.18289 21.8572 4.96645 21.8102 4.7579 21.7388C4.28323 21.542 3.84918 21.2626 3.47693 20.9143L3.11094 20.6168L3.08044 20.5871L3.12401 20.5488L3.48564 20.2683C3.87843 19.9415 4.31898 19.6736 4.79276 19.4736C5.18494 19.3232 5.61389 19.2892 6.02581 19.3758C6.42661 19.4971 6.81585 19.6521 7.18914 19.8391C7.75434 20.1614 8.39125 20.3451 9.04524 20.3746C9.30898 20.3573 9.56117 20.2625 9.76852 20.1026Z" fill="#735032"/>
<path d="M29.2315 20.0516C29.4535 20.0877 29.6812 20.0687 29.8938 19.9964C30.4884 19.7352 31.0323 19.3757 31.5015 18.9339C31.8677 18.6209 32.2664 18.346 32.691 18.1136C33.207 17.8715 33.7902 17.8013 34.351 17.9139C34.9596 18.0505 35.5332 18.3065 36.0372 18.6661L37.1395 19.4141C37.6798 19.7456 38.3813 20.1026 38.9651 20.4299H38.9956C38.4292 20.7571 37.7757 21.1142 37.2267 21.4457C37.0829 21.5349 36.9565 21.6242 36.8302 21.7092L36.486 21.9599L36.1156 22.2277C35.6306 22.6281 35.0561 22.912 34.4382 23.0564C34.1612 23.1089 33.878 23.1218 33.5973 23.0947C33.4483 23.0859 33.3015 23.0558 33.1615 23.0054C33.0353 22.9596 32.9129 22.9041 32.7956 22.8397C32.3381 22.6059 31.959 22.3552 31.6061 22.1342C31.0762 21.7749 30.5097 21.4701 29.9155 21.2247C29.7078 21.1385 29.4832 21.0979 29.2576 21.1057C29.4704 21.004 29.7048 20.9531 29.9417 20.9569C30.5781 20.9789 31.2066 21.1024 31.8021 21.3224C32.1856 21.4371 32.6038 21.5987 33.0308 21.7134C33.1312 21.7403 33.233 21.7616 33.3358 21.7772C33.4239 21.79 33.5135 21.79 33.6016 21.7772C33.8227 21.7518 34.0403 21.7034 34.2508 21.6327C34.7256 21.4271 35.1582 21.1391 35.5274 20.7826L35.8891 20.4766L35.9196 20.4511L35.8716 20.4171L35.51 20.1366C35.1198 19.8086 34.6786 19.5432 34.2029 19.3504C33.8122 19.2002 33.3847 19.1662 32.9742 19.2526C32.574 19.3753 32.1861 19.5332 31.8152 19.7244C31.2488 20.0488 30.6107 20.2354 29.9547 20.2684C29.6974 20.2648 29.4465 20.1896 29.2315 20.0516Z" fill="#735032"/>
<path d="M19.5414 31.344C19.4112 31.3451 19.2866 31.3961 19.1945 31.4859C19.1024 31.5757 19.0502 31.6972 19.049 31.8242V31.9178C19.049 32.0451 19.1009 32.1673 19.1932 32.2573C19.2856 32.3474 19.4108 32.398 19.5414 32.398C19.672 32.398 19.7972 32.3474 19.8895 32.2573C19.9819 32.1673 20.0337 32.0451 20.0337 31.9178V31.8242C20.0326 31.6972 19.9804 31.5757 19.8883 31.4859C19.7962 31.3961 19.6716 31.3451 19.5414 31.344Z" fill="#735032"/>
<path d="M19.4412 8.58081C19.3106 8.58081 19.1854 8.63141 19.093 8.72147C19.0007 8.81154 18.9488 8.93369 18.9488 9.06106C18.9488 9.18843 19.0007 9.31059 19.093 9.40065C19.1854 9.49072 19.3106 9.54131 19.4412 9.54131C19.5718 9.54131 19.697 9.49072 19.7893 9.40065C19.8817 9.31059 19.9335 9.18843 19.9335 9.06106C19.9335 8.93369 19.8817 8.81154 19.7893 8.72147C19.697 8.63141 19.5718 8.58081 19.4412 8.58081Z" fill="#735032"/>
<path d="M29.1574 25.8827C29.0936 25.9929 29.0766 26.1231 29.11 26.2454C29.1434 26.3678 29.2245 26.4725 29.3361 26.5372L29.4232 26.5839C29.535 26.6367 29.6632 26.6464 29.782 26.6109C29.9008 26.5753 30.0014 26.4973 30.0637 26.3925C30.126 26.2876 30.1454 26.1637 30.1179 26.0455C30.0904 25.9273 30.0181 25.8236 29.9155 25.7552L29.8284 25.7042C29.7149 25.6423 29.581 25.6264 29.4555 25.6598C29.3301 25.6931 29.223 25.7732 29.1574 25.8827Z" fill="#735032"/>
<path d="M8.89711 14.586C8.83182 14.6987 8.81511 14.8321 8.85065 14.9569C8.8862 15.0816 8.97108 15.1875 9.08664 15.2512C9.2022 15.3148 9.33896 15.3311 9.46683 15.2965C9.59471 15.2618 9.70323 15.179 9.76852 15.0663C9.83381 14.9536 9.85053 14.8202 9.81498 14.6954C9.77944 14.5707 9.69455 14.4648 9.57899 14.4012C9.46344 14.3375 9.32668 14.3212 9.1988 14.3558C9.07092 14.3905 8.9624 14.4733 8.89711 14.586Z" fill="#735032"/>
<path d="M29.1138 15.0281C29.1795 15.1387 29.2873 15.2196 29.4138 15.253C29.5403 15.2864 29.6752 15.2697 29.7892 15.2066L29.872 15.1556C29.9329 15.1268 29.9872 15.086 30.0312 15.0359C30.0753 14.9857 30.1083 14.9272 30.1282 14.864C30.148 14.8008 30.1543 14.7344 30.1466 14.6687C30.1389 14.6031 30.1174 14.5397 30.0834 14.4825C30.0495 14.4253 30.0038 14.3756 29.9492 14.3365C29.8946 14.2973 29.8324 14.2695 29.7663 14.2549C29.7003 14.2403 29.6318 14.2392 29.5653 14.2515C29.4988 14.2639 29.4355 14.2895 29.3796 14.3268L29.2968 14.3736C29.1837 14.4368 29.1009 14.5412 29.0666 14.6639C29.0323 14.7866 29.0493 14.9176 29.1138 15.0281Z" fill="#735032"/>
<path d="M8.95811 26.4946C9.0234 26.6074 9.13192 26.6902 9.2598 26.7248C9.38767 26.7595 9.52443 26.7432 9.63999 26.6795C9.75554 26.6158 9.84043 26.51 9.87598 26.3852C9.91152 26.2605 9.89481 26.1271 9.82952 26.0144C9.76423 25.9017 9.65571 25.8189 9.52783 25.7842C9.39995 25.7495 9.2632 25.7658 9.14764 25.8295C9.03208 25.8932 8.94719 25.999 8.91165 26.1238C8.87611 26.2485 8.89282 26.3819 8.95811 26.4946Z" fill="#735032"/>
<path d="M26.3515 31.9858C26.2142 32.0648 26.114 32.1931 26.0725 32.3432C26.031 32.4933 26.0513 32.6533 26.1292 32.789L26.1903 32.891C26.2738 33.0194 26.4048 33.1114 26.5561 33.148C26.7074 33.1845 26.8673 33.1627 27.0026 33.0872C27.1378 33.0116 27.238 32.8881 27.2823 32.7423C27.3266 32.5966 27.3116 32.4397 27.2403 32.3045L27.1793 32.2025C27.0967 32.0691 26.9644 31.972 26.8101 31.9316C26.6558 31.8912 26.4914 31.9106 26.3515 31.9858Z" fill="#735032"/>
<path d="M11.9688 7.87102C11.9002 7.90953 11.84 7.96086 11.7916 8.02207C11.7433 8.08328 11.7078 8.15318 11.6872 8.22777C11.6455 8.37841 11.6669 8.53902 11.7466 8.67429C11.8264 8.80955 11.9579 8.90837 12.1123 8.94902C12.2668 8.98967 12.4314 8.96881 12.5701 8.89104C12.7088 8.81326 12.8101 8.68494 12.8518 8.5343C12.8934 8.38366 12.872 8.22304 12.7923 8.08778C12.7126 7.95252 12.581 7.85369 12.4266 7.81304C12.2722 7.77239 12.1075 7.79325 11.9688 7.87102Z" fill="#735032"/>
<path d="M33.1398 20.4468C33.1409 20.6024 33.2045 20.7514 33.3169 20.8619C33.4293 20.9723 33.5815 21.0354 33.741 21.0376H33.863C34.0237 21.0376 34.1777 20.9753 34.2913 20.8645C34.4049 20.7538 34.4687 20.6035 34.4687 20.4468C34.4687 20.2902 34.4049 20.1399 34.2913 20.0291C34.1777 19.9183 34.0237 19.8561 33.863 19.8561H33.7323C33.5736 19.8583 33.4223 19.9217 33.3112 20.0323C33.2002 20.143 33.1386 20.292 33.1398 20.4468Z" fill="#735032"/>
<path d="M4.54005 20.5404C4.54005 20.6959 4.6034 20.8451 4.71616 20.9551C4.82892 21.0651 4.98186 21.1269 5.14133 21.1269C5.3008 21.1269 5.45373 21.0651 5.56649 20.9551C5.67925 20.8451 5.7426 20.6959 5.7426 20.5404C5.7426 20.3848 5.67925 20.2356 5.56649 20.1256C5.45373 20.0156 5.3008 19.9539 5.14133 19.9539C4.98186 19.9539 4.82892 20.0156 4.71616 20.1256C4.6034 20.2356 4.54005 20.3848 4.54005 20.5404Z" fill="#735032"/>
<path d="M26.2817 8.94628C26.4215 9.02249 26.5862 9.04248 26.7408 9.00199C26.8955 8.96151 27.0278 8.86375 27.1096 8.72952L27.1706 8.62753C27.2503 8.49227 27.2717 8.33165 27.23 8.18101C27.1884 8.03037 27.087 7.90205 26.9484 7.82427C26.8797 7.78576 26.8039 7.76082 26.7254 7.75087C26.6469 7.74092 26.5671 7.74616 26.4906 7.76629C26.3362 7.80693 26.2046 7.90576 26.1249 8.04102L26.0639 8.14303C25.9867 8.27842 25.9663 8.4377 26.0069 8.58746C26.0475 8.73722 26.146 8.86582 26.2817 8.94628Z" fill="#735032"/>
<path d="M12.069 33.1545C12.207 33.23 12.3699 33.2495 12.5225 33.2087C12.6751 33.1678 12.805 33.07 12.8841 32.9363C12.9632 32.8027 12.9852 32.644 12.9451 32.4947C12.9051 32.3454 12.8064 32.2175 12.6703 32.1387C12.5324 32.0631 12.3694 32.0437 12.2169 32.0845C12.0643 32.1253 11.9343 32.2232 11.8552 32.3568C11.7761 32.4905 11.7542 32.6492 11.7942 32.7985C11.8342 32.9478 11.933 33.0757 12.069 33.1545Z" fill="#735032"/>
</g>
<defs>
<clipPath id="clip0_178_621">
<rect width="39" height="41" fill="white"/>
</clipPath>
</defs>
</svg>
