<svg width="65" height="53" viewBox="0 0 65 53" fill="none" xmlns="http://www.w3.org/2000/svg">
<g clip-path="url(#clip0_173_281)">
<path d="M22.1034 52.9889C18.2205 52.9889 14.6299 50.9165 12.5009 47.433C11.9019 46.3788 11.4209 45.2607 11.0669 44.0995C10.8352 43.43 10.5981 42.7411 10.3057 42.0744C9.44098 40.1023 8.0263 38.4256 6.23353 37.248C4.44077 36.0704 2.34709 35.4425 0.206832 35.4407C0.177853 35.4441 0.148492 35.4413 0.120674 35.4324C0.0928556 35.4236 0.0672116 35.4089 0.0454261 35.3894C0.0236406 35.3698 0.00620529 35.3458 -0.00573272 35.319C-0.0176707 35.2922 -0.0238419 35.2632 -0.0238419 35.2338C-0.0238419 35.2044 -0.0176707 35.1753 -0.00573272 35.1485C0.00620529 35.1217 0.0236406 35.0977 0.0454261 35.0782C0.0672116 35.0586 0.0928556 35.044 0.120674 35.0351C0.148492 35.0263 0.177853 35.0234 0.206832 35.0268C3.94635 35.0268 7.40458 33.0267 9.45911 29.6765C10.0428 28.6507 10.5108 27.5624 10.8545 26.4319C11.0889 25.7569 11.3289 25.0596 11.6267 24.379C12.521 22.3299 13.9881 20.5872 15.849 19.3637C17.7098 18.1401 19.884 17.4886 22.1062 17.4886C24.3284 17.4886 26.5025 18.1401 28.3634 19.3637C30.2242 20.5872 31.6913 22.3299 32.5857 24.379C32.8835 25.0596 33.1372 25.768 33.3606 26.4347C33.7031 27.5648 34.1712 28.6523 34.756 29.6765C36.8105 33.0267 40.2715 35.0268 44.0083 35.0268C44.0587 35.0327 44.1052 35.0571 44.1389 35.0952C44.1726 35.1334 44.1913 35.1827 44.1913 35.2338C44.1913 35.2849 44.1726 35.3342 44.1389 35.3723C44.1052 35.4105 44.0587 35.4348 44.0083 35.4407C41.8675 35.4401 39.7728 36.0669 37.9795 37.2449C36.1863 38.4228 34.7721 40.1008 33.9094 42.0744C33.6171 42.7411 33.3771 43.43 33.1482 44.0995C32.7942 45.2607 32.3132 46.3788 31.7142 47.433C29.5687 50.9277 25.9836 52.9889 22.1034 52.9889ZM2.33582 35.2491C4.15869 35.5968 5.87048 36.3852 7.32406 37.5465C8.77765 38.7078 9.92956 40.2073 10.6808 41.9161C10.9786 42.5967 11.2323 43.305 11.453 43.9717C11.7979 45.1009 12.2659 46.1882 12.8484 47.2136C14.9029 50.5637 18.3639 52.5639 22.1034 52.5639C25.8429 52.5639 29.3012 50.5637 31.3557 47.2136C31.9393 46.1887 32.4074 45.1014 32.7511 43.9717C32.9855 43.2939 33.2255 42.5967 33.526 41.9161C34.2765 40.2068 35.4282 38.7068 36.8819 37.5454C38.3356 36.384 40.0478 35.5959 41.871 35.2491C40.3291 34.9287 38.8694 34.2911 37.5834 33.3762C36.2974 32.4613 35.2128 31.2888 34.3975 29.9321C33.799 28.8776 33.318 27.7596 32.9635 26.5986C32.7318 25.9291 32.4946 25.2402 32.2023 24.5735C31.3407 22.5985 29.927 20.9188 28.1337 19.7395C26.3404 18.5602 24.2451 17.9322 22.1034 17.9322C19.9618 17.9322 17.8665 18.5602 16.0732 19.7395C14.2799 20.9188 12.8661 22.5985 12.0045 24.5735C11.7122 25.2402 11.4723 25.9291 11.2434 26.5986C10.8888 27.7596 10.4079 28.8776 9.80934 29.9321C8.99492 31.2907 7.91073 32.4651 6.62472 33.382C5.3387 34.2988 3.87858 34.9382 2.33582 35.2602V35.2491Z" fill="#F2C777"/>
<path d="M9.33776 40.2104C9.30021 40.2106 9.26335 40.2003 9.23123 40.1807C9.19912 40.161 9.173 40.1329 9.15574 40.0993C9.13193 40.0508 9.12752 39.9949 9.14343 39.9432C9.15934 39.8915 9.19435 39.8479 9.24123 39.8215C11.8004 38.4492 13.7336 35.7435 14.9057 33.7101C15.4719 32.6851 15.9551 31.6159 16.3507 30.5127C16.996 28.8459 17.5062 27.5347 18.6479 26.6236C19.6312 25.8312 20.8472 25.3888 22.1062 25.3652C23.3358 25.362 24.5306 25.7759 25.4982 26.5403C26.6703 27.4625 27.1005 28.6515 27.7044 30.296C28.0779 31.4103 28.5457 32.4902 29.1026 33.524C30.0926 35.2685 32.1775 38.3937 35.029 39.7298C35.0537 39.7415 35.0758 39.7579 35.0942 39.7782C35.1125 39.7984 35.1267 39.8221 35.1359 39.848C35.1452 39.8738 35.1492 39.9012 35.1479 39.9286C35.1466 39.956 35.1399 39.9828 35.1283 40.0076C35.117 40.0327 35.1009 40.0553 35.0808 40.074C35.0607 40.0927 35.0371 40.1071 35.0114 40.1164C34.9857 40.1258 34.9584 40.1298 34.9311 40.1283C34.9038 40.1268 34.8771 40.1198 34.8525 40.1076C31.899 38.7187 29.7562 35.5213 28.7413 33.7323C28.1727 32.6785 27.6957 31.5771 27.3156 30.4405C26.7447 28.8626 26.3311 27.7209 25.2528 26.8708C24.3623 26.1587 23.2597 25.7693 22.1227 25.7652C20.9559 25.789 19.8294 26.2001 18.9182 26.9347C17.862 27.7681 17.3711 29.0432 16.7478 30.6516C16.3433 31.7735 15.8509 32.8612 15.2752 33.9045C14.0756 35.9796 12.0928 38.7492 9.44807 40.1687C9.41624 40.1934 9.37783 40.2079 9.33776 40.2104Z" fill="#F2C777"/>
<path d="M22.1034 42.4605C21.884 42.4605 21.6736 42.3727 21.5184 42.2165C21.3633 42.0602 21.2761 41.8482 21.2761 41.6272V37.8436C21.2761 37.6226 21.3633 37.4106 21.5184 37.2543C21.6736 37.0981 21.884 37.0103 22.1034 37.0103C22.3228 37.0103 22.5333 37.0981 22.6884 37.2543C22.8436 37.4106 22.9307 37.6226 22.9307 37.8436V41.6299C22.93 41.8505 22.8425 42.0617 22.6875 42.2174C22.5324 42.3731 22.3224 42.4605 22.1034 42.4605Z" fill="#F2C777"/>
<path d="M22.1034 44.3912C21.884 44.3912 21.6736 44.479 21.5184 44.6353C21.3633 44.7916 21.2761 45.0036 21.2761 45.2246V52.7639C21.5519 52.7861 21.8276 52.8 22.1034 52.8C22.3792 52.8 22.655 52.7861 22.9307 52.7639V45.2107C22.9271 44.9921 22.8384 44.7837 22.6836 44.6304C22.5288 44.4771 22.3205 44.3912 22.1034 44.3912Z" fill="#F2C777"/>
<path d="M16.7947 44.3912C16.5753 44.3912 16.3649 44.479 16.2097 44.6353C16.0546 44.7916 15.9674 45.0036 15.9674 45.2246V50.8694C16.4906 51.2313 17.0443 51.5464 17.6221 51.8111V45.2107C17.6184 44.9921 17.5297 44.7837 17.3749 44.6304C17.2202 44.4771 17.0118 44.3912 16.7947 44.3912Z" fill="#F2C777"/>
<path d="M27.4093 44.3912C27.1899 44.3912 26.9795 44.479 26.8243 44.6353C26.6692 44.7916 26.582 45.0036 26.582 45.2246V51.8111C27.1603 51.5475 27.7141 51.2323 28.2367 50.8694V45.2107C28.2331 44.9921 28.1443 44.7837 27.9895 44.6304C27.8348 44.4771 27.6264 44.3912 27.4093 44.3912Z" fill="#F2C777"/>
<path d="M22.9252 33.8629C22.9247 34.0594 22.8663 34.2515 22.7575 34.4146C22.6487 34.5778 22.4943 34.7048 22.3139 34.7797C22.1334 34.8545 21.935 34.8738 21.7437 34.8352C21.5523 34.7965 21.3767 34.7015 21.2389 34.5623C21.1011 34.4231 21.0073 34.2459 20.9695 34.0531C20.9316 33.8603 20.9513 33.6604 21.0261 33.4789C21.1009 33.2973 21.2274 33.1422 21.3897 33.033C21.552 32.9239 21.7428 32.8656 21.938 32.8656C22.0678 32.8656 22.1964 32.8914 22.3164 32.9416C22.4364 32.9917 22.5453 33.0652 22.637 33.1579C22.7288 33.2505 22.8014 33.3605 22.8509 33.4814C22.9003 33.6024 22.9256 33.732 22.9252 33.8629Z" fill="#F2C777"/>
<path d="M17.6165 41.53C17.616 41.726 17.5578 41.9174 17.4493 42.0802C17.3408 42.2429 17.1868 42.3696 17.0069 42.4442C16.8269 42.5188 16.6291 42.5381 16.4383 42.4995C16.2475 42.4609 16.0723 42.3662 15.9349 42.2274C15.7975 42.0886 15.704 41.9119 15.6662 41.7196C15.6285 41.5273 15.6481 41.3281 15.7227 41.147C15.7973 40.966 15.9235 40.8113 16.0853 40.7024C16.2472 40.5936 16.4374 40.5355 16.632 40.5355C16.8934 40.5362 17.1438 40.6413 17.3284 40.8277C17.5129 41.0141 17.6165 41.2667 17.6165 41.53Z" fill="#F2C777"/>
<path d="M27.572 42.5245C28.1158 42.5245 28.5566 42.0792 28.5566 41.53C28.5566 40.9807 28.1158 40.5355 27.572 40.5355C27.0283 40.5355 26.5875 40.9807 26.5875 41.53C26.5875 42.0792 27.0283 42.5245 27.572 42.5245Z" fill="#F2C777"/>
<path d="M38.3273 36.8408C35.5171 36.7825 33.0876 33.0351 32.1554 31.4072C31.6748 30.5003 31.2708 29.5544 30.9475 28.5793C30.2774 26.7264 29.5852 24.8124 27.6713 23.3012C26.1144 22.071 24.1897 21.4081 22.211 21.4206C20.2198 21.4518 18.2949 22.1463 16.7368 23.3957C14.8891 24.868 14.128 26.8348 13.3917 28.7349C13.0418 29.713 12.6167 30.6623 12.1203 31.5739C11.2241 33.1267 8.95444 36.5742 6.32906 37.0881C6.51107 37.2075 6.69308 37.3242 6.88061 37.4547C7.24076 37.7232 7.58428 38.0136 7.90925 38.3242C10.4629 37.1742 12.4651 34.2963 13.5489 32.4184C14.0882 31.4315 14.5492 30.4032 14.9277 29.3432C15.6144 27.5737 16.2625 25.9014 17.7544 24.7124C19.0245 23.6915 20.5945 23.123 22.2192 23.0957C23.8185 23.0897 25.373 23.627 26.6317 24.6208C28.1705 25.8375 28.7276 27.3737 29.3701 29.1515C29.7235 30.2172 30.1683 31.2498 30.6993 32.2378C31.8025 34.1657 33.8459 37.1492 36.5155 38.1659C36.7888 37.9139 37.0751 37.6765 37.3731 37.4547C37.6806 37.2339 37.9991 37.029 38.3273 36.8408Z" fill="#F2C777"/>
<path d="M65.8966 52.9889C62.0137 52.9889 58.4231 50.9165 56.2941 47.433C55.695 46.3788 55.2141 45.2607 54.86 44.0995C54.6284 43.43 54.3912 42.7411 54.0989 42.0744C53.2362 40.1008 51.8219 38.4228 50.0287 37.2449C48.2355 36.0669 46.1408 35.4401 44 35.4407C43.971 35.4441 43.9417 35.4413 43.9138 35.4324C43.886 35.4236 43.8604 35.4089 43.8386 35.3894C43.8168 35.3698 43.7994 35.3458 43.7874 35.319C43.7755 35.2922 43.7693 35.2632 43.7693 35.2338C43.7693 35.2044 43.7755 35.1753 43.7874 35.1485C43.7994 35.1217 43.8168 35.0977 43.8386 35.0782C43.8604 35.0586 43.886 35.044 43.9138 35.0351C43.9417 35.0263 43.971 35.0234 44 35.0268C47.7395 35.0268 51.1977 33.0267 53.2523 29.6765C53.837 28.6523 54.3051 27.5648 54.6477 26.4347C54.8821 25.7569 55.122 25.0457 55.4226 24.379C56.3169 22.3299 57.784 20.5872 59.6449 19.3637C61.5057 18.1401 63.6799 17.4886 65.9021 17.4886C68.1243 17.4886 70.2984 18.1401 72.1593 19.3637C74.0202 20.5872 75.4872 22.3299 76.3816 24.379C76.6822 25.0596 76.9331 25.768 77.1565 26.4347C77.5002 27.5643 77.9683 28.6517 78.5519 29.6765C80.6064 33.0267 84.0674 35.0268 87.8042 35.0268C87.8332 35.0234 87.8625 35.0263 87.8903 35.0351C87.9182 35.044 87.9438 35.0586 87.9656 35.0782C87.9874 35.0977 88.0048 35.1217 88.0167 35.1485C88.0287 35.1753 88.0349 35.2044 88.0349 35.2338C88.0349 35.2632 88.0287 35.2922 88.0167 35.319C88.0048 35.3458 87.9874 35.3698 87.9656 35.3894C87.9438 35.4089 87.9182 35.4236 87.8903 35.4324C87.8625 35.4413 87.8332 35.4441 87.8042 35.4407C85.6639 35.4425 83.5702 36.0704 81.7775 37.248C79.9847 38.4256 78.57 40.1023 77.7053 42.0744C77.413 42.7411 77.1758 43.43 76.9441 44.0995C76.5901 45.2607 76.1091 46.3788 75.5101 47.433C73.3701 50.9277 69.7795 52.9889 65.8966 52.9889ZM46.129 35.2491C47.9522 35.5959 49.6644 36.384 51.1181 37.5454C52.5718 38.7068 53.7235 40.2068 54.4739 41.9161C54.7745 42.5967 55.0255 43.305 55.2489 43.9717C55.5914 45.1018 56.0595 46.1893 56.6443 47.2136C58.6988 50.5637 62.1598 52.5639 65.8966 52.5639C69.6333 52.5639 73.0943 50.5637 75.1488 47.2136C75.7336 46.1893 76.2017 45.1018 76.5443 43.9717C76.7787 43.2939 77.0214 42.5967 77.3192 41.9161C78.0696 40.2068 79.2213 38.7068 80.675 37.5454C82.1287 36.384 83.8409 35.5959 85.6642 35.2491C84.1222 34.9287 82.6625 34.2911 81.3765 33.3762C80.0906 32.4613 79.0059 31.2888 78.1906 29.9321C77.5921 28.8776 77.1112 27.7596 76.7566 26.5986C76.5277 25.9291 76.2878 25.2402 75.9955 24.5735C75.1339 22.5985 73.7201 20.9188 71.9268 19.7395C70.1335 18.5602 68.0382 17.9322 65.8966 17.9322C63.7549 17.9322 61.6596 18.5602 59.8663 19.7395C58.073 20.9188 56.6593 22.5985 55.7977 24.5735C55.5053 25.2402 55.2682 25.9291 55.0365 26.5986C54.682 27.7596 54.201 28.8776 53.6025 29.9321C52.7883 31.2909 51.7042 32.4655 50.4182 33.3824C49.1321 34.2992 47.6718 34.9385 46.129 35.2602V35.2491Z" fill="#F2C777"/>
<path d="M53.1309 40.2104C53.085 40.21 53.0406 40.1943 53.0045 40.1657C52.9685 40.137 52.9429 40.0972 52.9319 40.0523C52.9208 40.0074 52.9249 39.9601 52.9435 39.9178C52.962 39.8756 52.994 39.8407 53.0344 39.8187C55.5936 38.4464 57.5295 35.7407 58.7016 33.7073C59.2658 32.6817 59.7481 31.6126 60.1439 30.5099C60.7892 28.8432 61.2994 27.532 62.4439 26.6208C63.4261 25.8285 64.6412 25.386 65.8993 25.3624C67.1293 25.3619 68.3243 25.7755 69.2941 26.5375C70.4634 27.4598 70.8936 28.6487 71.5003 30.2932C71.8729 31.4075 72.3397 32.4874 72.8958 33.5212C73.8858 35.2657 75.9707 38.3909 78.8222 39.7271C78.8466 39.7386 78.8686 39.7548 78.8868 39.7748C78.905 39.7949 78.9191 39.8183 78.9284 39.8439C78.9376 39.8694 78.9417 39.8965 78.9405 39.9237C78.9394 39.9508 78.9329 39.9775 78.9215 40.0021C78.91 40.0267 78.8939 40.0488 78.8741 40.0672C78.8542 40.0855 78.8309 40.0998 78.8055 40.109C78.7802 40.1183 78.7532 40.1225 78.7263 40.1213C78.6993 40.1201 78.6729 40.1136 78.6484 40.1021C75.6949 38.7131 73.5521 35.5157 72.54 33.7268C71.9702 32.6735 71.4931 31.572 71.1143 30.4349C70.5406 28.8571 70.1297 27.7153 69.0515 26.8653C68.1549 26.1512 67.045 25.7636 65.9021 25.7652C64.7352 25.789 63.6088 26.2001 62.6976 26.9347C61.6414 27.7681 61.1505 29.0432 60.5272 30.6516C60.1237 31.7735 59.6322 32.8612 59.0573 33.9045C57.8577 35.9796 55.8721 38.7492 53.2274 40.1688C53.1995 40.191 53.1662 40.2054 53.1309 40.2104Z" fill="#F2C777"/>
<path d="M60.5907 44.3912C60.3712 44.3912 60.1608 44.479 60.0057 44.6353C59.8505 44.7916 59.7633 45.0036 59.7633 45.2246V50.8694C60.2862 51.2318 60.8399 51.547 61.418 51.8111V45.2107C61.4144 44.9921 61.3256 44.7837 61.1709 44.6304C61.0161 44.4771 60.8077 44.3912 60.5907 44.3912Z" fill="#F2C777"/>
<path d="M66.7184 33.8629C66.7178 34.0596 66.6594 34.2517 66.5505 34.4149C66.4415 34.5782 66.287 34.7052 66.1064 34.78C65.9258 34.8547 65.7272 34.8738 65.5358 34.8349C65.3444 34.796 65.1687 34.7008 65.0311 34.5613C64.8934 34.4219 64.7998 34.2444 64.7623 34.0514C64.7247 33.8584 64.7448 33.6585 64.82 33.477C64.8953 33.2954 65.0222 33.1405 65.1849 33.0317C65.3476 32.9228 65.5386 32.8651 65.7339 32.8656C65.8635 32.866 65.9918 32.8921 66.1115 32.9424C66.2311 32.9927 66.3397 33.0662 66.4312 33.1589C66.5226 33.2515 66.595 33.3613 66.6443 33.4821C66.6936 33.6029 66.7187 33.7323 66.7184 33.8629Z" fill="#F2C777"/>
<path d="M61.4125 41.53C61.4125 41.7266 61.3546 41.9189 61.2461 42.0825C61.1376 42.246 60.9834 42.3735 60.803 42.4488C60.6226 42.524 60.4241 42.5437 60.2326 42.5053C60.0411 42.467 59.8652 42.3722 59.7271 42.2332C59.589 42.0941 59.495 41.9169 59.4569 41.724C59.4188 41.5311 59.4384 41.3311 59.5131 41.1494C59.5878 40.9677 59.7143 40.8123 59.8767 40.7031C60.0391 40.5938 60.2299 40.5355 60.4252 40.5355C60.687 40.5355 60.9382 40.6402 61.1233 40.8267C61.3085 41.0132 61.4125 41.2662 61.4125 41.53Z" fill="#F2C777"/>
<path d="M82.1205 36.8408C79.3131 36.7825 76.8807 33.0351 75.9486 31.4072C75.4668 30.5009 75.0627 29.5548 74.7407 28.5793C74.0678 26.7264 73.3756 24.8124 71.4617 23.3012C69.9055 22.0716 67.982 21.4088 66.0041 21.4206C64.012 21.4514 62.0861 22.1459 60.5272 23.3957C58.6823 24.868 57.9184 26.8347 57.1821 28.7348C56.8322 29.713 56.4071 30.6623 55.9107 31.5739C55.0145 33.1267 52.7448 36.5741 50.1333 37.0881C50.3153 37.2075 50.4973 37.3242 50.6848 37.4547C51.0453 37.7239 51.3897 38.0142 51.7162 38.3242C54.2671 37.1742 56.2693 34.2962 57.3558 32.4184C57.8952 31.4315 58.3563 30.4033 58.7347 29.3432C59.4214 27.5737 60.0694 25.9014 61.5641 24.7124C62.8333 23.6917 64.4024 23.1232 66.0262 23.0957C67.6254 23.0896 69.18 23.6269 70.4386 24.6207C71.9774 25.8375 72.5345 27.3737 73.1798 29.1515C73.5366 30.2176 73.9851 31.2502 74.5201 32.2378C75.6232 34.1657 77.6667 37.1492 80.3362 38.1659C80.612 37.9159 80.8877 37.677 81.1939 37.4547C81.5 37.2325 81.8006 37.0325 82.1205 36.8408Z" fill="#F2C777"/>
<path d="M44 35.488C40.1171 35.488 36.5265 33.4128 34.3975 29.9321C33.7986 28.8777 33.3177 27.7597 32.9635 26.5986C32.7318 25.9319 32.4946 25.2402 32.2023 24.5763C31.3376 22.6042 29.9229 20.9275 28.1301 19.7499C26.3373 18.5722 24.2437 17.9444 22.1034 17.9426C22.0486 17.9426 21.9959 17.9206 21.9572 17.8816C21.9184 17.8425 21.8966 17.7895 21.8966 17.7342C21.8966 17.679 21.9184 17.626 21.9572 17.5869C21.9959 17.5479 22.0486 17.5259 22.1034 17.5259C25.8429 17.5259 29.3012 15.5258 31.3557 12.1756C31.9393 11.1508 32.4074 10.0634 32.7511 8.93378C32.9855 8.25875 33.2254 7.55871 33.526 6.87812C34.4204 4.82895 35.8874 3.08628 37.7483 1.86274C39.6091 0.639191 41.7833 -0.0123291 44.0055 -0.0123291C46.2277 -0.0123291 48.4019 0.639191 50.2627 1.86274C52.1236 3.08628 53.5907 4.82895 54.485 6.87812C54.7856 7.55871 55.0365 8.26708 55.2599 8.93378C55.6024 10.0639 56.0706 11.1514 56.6553 12.1756C58.7099 15.5258 62.1708 17.5259 65.9076 17.5259C65.9625 17.5259 66.0151 17.5479 66.0538 17.5869C66.0926 17.626 66.1144 17.679 66.1144 17.7342C66.1144 17.7895 66.0926 17.8425 66.0538 17.8816C66.0151 17.9206 65.9625 17.9426 65.9076 17.9426C63.7668 17.9419 61.6721 18.5688 59.8789 19.7467C58.0856 20.9246 56.6714 22.6027 55.8087 24.5763C55.5164 25.2402 55.2792 25.9319 55.0476 26.5986C54.6933 27.7597 54.2124 28.8777 53.6135 29.9321C51.4735 33.399 47.8829 35.488 44 35.488ZM24.2324 17.7481C26.056 18.0939 27.7687 18.8815 29.2226 20.043C30.6765 21.2046 31.8279 22.7052 32.5774 24.4152C32.8752 25.0957 33.1289 25.8041 33.3523 26.4708C33.6948 27.6009 34.1629 28.6884 34.7477 29.7126C36.8022 33.0628 40.2632 35.0629 44 35.0629C47.7367 35.0629 51.1977 33.0628 53.2523 29.7126C53.837 28.6884 54.3051 27.6009 54.6477 26.4708C54.8821 25.7958 55.122 25.0819 55.4226 24.4152C56.1721 22.7052 57.3234 21.2046 58.7773 20.043C60.2312 18.8815 61.9439 18.0939 63.7676 17.7481C62.2242 17.4249 60.7638 16.7841 59.4778 15.8658C58.1918 14.9475 57.1079 13.7716 56.2941 12.4117C55.6952 11.3574 55.2142 10.2394 54.86 9.07823C54.6284 8.41153 54.3912 7.71983 54.0989 7.0559C53.2373 5.0809 51.8235 3.40125 50.0302 2.22194C48.2369 1.04262 46.1416 0.414647 44 0.414647C41.8584 0.414647 39.763 1.04262 37.9697 2.22194C36.1764 3.40125 34.7627 5.0809 33.9011 7.0559C33.6088 7.71983 33.3688 8.41153 33.1399 9.07823C32.7857 10.2394 32.3048 11.3574 31.7059 12.4117C30.8907 13.769 29.8062 14.9423 28.5202 15.8581C27.2343 16.7739 25.7746 17.4126 24.2324 17.7342V17.7481Z" fill="#F2C777"/>
<path d="M31.2233 22.6706C31.1771 22.6716 31.1319 22.6568 31.0951 22.6285C31.0584 22.6002 31.0322 22.5602 31.021 22.515C31.0098 22.4698 31.0142 22.4221 31.0334 22.3797C31.0526 22.3373 31.0855 22.3028 31.1268 22.2817C33.686 20.8928 35.6192 18.201 36.794 16.1703C37.3577 15.1454 37.8399 14.0772 38.2363 12.9757C38.8816 11.3089 39.3918 9.99497 40.5363 9.08659C41.5191 8.29535 42.7338 7.853 43.9917 7.82819C45.221 7.82674 46.4154 8.24047 47.3838 9.00325C48.5558 9.9283 48.986 11.1145 49.59 12.759C49.9603 13.8741 50.4272 14.9542 50.9854 15.987C51.9754 17.7315 54.0603 20.8594 56.9118 22.1928C56.9365 22.2045 56.9586 22.2209 56.977 22.2412C56.9953 22.2614 57.0095 22.2852 57.0187 22.311C57.028 22.3368 57.032 22.3642 57.0307 22.3916C57.0294 22.419 57.0227 22.4458 57.0111 22.4706C56.9998 22.4957 56.9837 22.5183 56.9637 22.5371C56.9436 22.5558 56.9201 22.5704 56.8945 22.58C56.8688 22.5895 56.8416 22.5939 56.8143 22.5928C56.7869 22.5916 56.7601 22.5851 56.7353 22.5734C53.7818 21.1844 51.639 17.9843 50.6269 16.1842C50.0571 15.1319 49.5801 14.0313 49.2011 12.8951C48.6275 11.3145 48.2166 10.1728 47.1383 9.32271C46.2428 8.61621 45.1375 8.23364 44 8.23654C42.8329 8.25891 41.706 8.67018 40.7955 9.40605C39.7393 10.2394 39.2484 11.5145 38.6251 13.1201C38.2216 14.2425 37.7292 15.3303 37.1525 16.3731C35.9529 18.4482 33.97 21.2206 31.3254 22.6401C31.2947 22.6594 31.2595 22.67 31.2233 22.6706Z" fill="#F2C777"/>
<path d="M44 24.9319C43.7806 24.9319 43.5701 24.8441 43.415 24.6878C43.2598 24.5315 43.1727 24.3195 43.1727 24.0985V20.3149C43.1727 20.0939 43.2598 19.8819 43.415 19.7257C43.5701 19.5694 43.7806 19.4816 44 19.4816C44.2194 19.4816 44.4298 19.5694 44.585 19.7257C44.7402 19.8819 44.8273 20.0939 44.8273 20.3149V24.0985C44.8273 24.3195 44.7402 24.5315 44.585 24.6878C44.4298 24.8441 44.2194 24.9319 44 24.9319Z" fill="#F2C777"/>
<path d="M44 26.8764C43.7806 26.8764 43.5701 26.9642 43.415 27.1205C43.2598 27.2768 43.1727 27.4888 43.1727 27.7098V35.2491C43.4484 35.2685 43.7242 35.2824 44 35.2824C44.2758 35.2824 44.5515 35.2685 44.8273 35.2491V27.6931C44.823 27.475 44.7339 27.2673 44.5792 27.1146C44.4245 26.9619 44.2166 26.8764 44 26.8764Z" fill="#F2C777"/>
<path d="M38.6941 26.8764C38.4747 26.8764 38.2642 26.9642 38.1091 27.1205C37.9539 27.2768 37.8667 27.4888 37.8667 27.7098V33.3545C38.3901 33.7155 38.9437 34.0296 39.5214 34.2935V27.7098C39.5214 27.4888 39.4342 27.2768 39.2791 27.1205C39.1239 26.9642 38.9135 26.8764 38.6941 26.8764Z" fill="#F2C777"/>
<path d="M49.3059 26.8764C49.0865 26.8764 48.8761 26.9642 48.7209 27.1205C48.5658 27.2768 48.4786 27.4888 48.4786 27.7098V34.2935C49.0566 34.0304 49.6104 33.7162 50.1333 33.3545V27.6931C50.1289 27.475 50.0399 27.2673 49.8852 27.1146C49.7305 26.9619 49.5225 26.8764 49.3059 26.8764Z" fill="#F2C777"/>
<path d="M44.8218 16.3342C44.8218 16.531 44.7638 16.7234 44.6552 16.887C44.5466 17.0506 44.3923 17.178 44.2117 17.2532C44.0311 17.3284 43.8325 17.3479 43.6409 17.3093C43.4493 17.2707 43.2734 17.1757 43.1355 17.0364C42.9975 16.897 42.9037 16.7196 42.8659 16.5265C42.8281 16.3334 42.8481 16.1333 42.9232 15.9517C42.9984 15.77 43.1253 15.6149 43.288 15.5059C43.4508 15.397 43.6419 15.3391 43.8373 15.3397C43.9668 15.3397 44.0951 15.3654 44.2147 15.4154C44.3343 15.4654 44.443 15.5387 44.5344 15.6311C44.6259 15.7235 44.6983 15.8332 44.7477 15.9538C44.797 16.0744 44.8222 16.2037 44.8218 16.3342Z" fill="#F2C777"/>
<path d="M39.5159 24.004C39.5159 24.2007 39.458 24.393 39.3495 24.5565C39.241 24.7201 39.0868 24.8475 38.9064 24.9228C38.726 24.9981 38.5275 25.0178 38.336 24.9794C38.1445 24.941 37.9686 24.8463 37.8305 24.7072C37.6924 24.5682 37.5984 24.391 37.5603 24.198C37.5222 24.0051 37.5418 23.8052 37.6165 23.6234C37.6912 23.4417 37.8178 23.2864 37.9801 23.1771C38.1425 23.0678 38.3334 23.0095 38.5286 23.0095C38.7905 23.0095 39.0416 23.1143 39.2267 23.3008C39.4119 23.4873 39.5159 23.7403 39.5159 24.004Z" fill="#F2C777"/>
<path d="M48.4841 24.004C48.4841 24.2007 48.542 24.393 48.6505 24.5565C48.759 24.7201 48.9132 24.8475 49.0936 24.9228C49.274 24.9981 49.4725 25.0178 49.664 24.9794C49.8555 24.941 50.0314 24.8463 50.1695 24.7072C50.3076 24.5682 50.4016 24.391 50.4397 24.198C50.4778 24.0051 50.4582 23.8052 50.3835 23.6234C50.3088 23.4417 50.1822 23.2864 50.0199 23.1771C49.8575 23.0678 49.6666 23.0095 49.4714 23.0095C49.2095 23.0095 48.9584 23.1143 48.7733 23.3008C48.5881 23.4873 48.4841 23.7403 48.4841 24.004Z" fill="#F2C777"/>
<path d="M60.2239 19.3121C57.4137 19.2538 54.9841 15.5064 54.052 13.8785C53.5695 12.9693 53.1645 12.0205 52.8414 11.0423C52.1712 9.18939 51.479 7.2754 49.5652 5.76421C48.0098 4.53262 46.0859 3.86866 44.1075 3.88078C42.1152 3.91263 40.1893 4.60812 38.6306 5.85866C36.7829 7.32818 36.0218 9.29495 35.2855 11.1951C34.9351 12.1739 34.51 13.124 34.0142 14.0369C33.1179 15.5869 30.8483 19.0371 28.2229 19.5483C28.4049 19.6677 28.5869 19.7872 28.7744 19.9177C29.1349 20.1859 29.4793 20.4753 29.8058 20.7844C32.3567 19.6344 34.3589 16.7565 35.4454 14.8786C35.9842 13.8924 36.4453 12.8651 36.8243 11.8062C37.511 10.0339 38.1591 8.36157 39.651 7.17262C40.9211 6.15168 42.4911 5.58317 44.1158 5.55587C45.7151 5.55216 47.2692 6.09029 48.5282 7.08372C50.0671 8.29768 50.6241 9.83387 51.2667 11.6145C51.6218 12.6795 52.0665 13.712 52.5959 14.7008C53.699 16.6259 55.7425 19.6122 58.412 20.6289C58.9601 20.1211 59.5622 19.6758 60.2073 19.301L60.2239 19.3121Z" fill="#F2C777"/>
</g>
<defs>
<clipPath id="clip0_173_281">
<rect width="88" height="53" fill="white"/>
</clipPath>
</defs>
</svg>
