<svg width="92" height="31" viewBox="0 0 92 31" fill="none" xmlns="http://www.w3.org/2000/svg">
<g clip-path="url(#clip0_173_2)">
<rect width="92" height="31" fill="#F2C777"/>
<path d="M91.7534 25.1035C91.4935 25.5781 91.176 26.018 90.8083 26.413C90.2183 27.0387 89.5224 27.5526 88.7536 27.9305C87.6953 28.4331 86.5649 28.7629 85.4046 28.9074C82.1801 29.2515 78.9203 28.9405 75.8162 27.9928C74.8985 27.7364 74.0287 27.4039 73.0151 27.0228C72.296 26.7595 71.5494 26.4962 70.7755 26.2536C70.7755 26.1982 70.7276 26.1428 70.707 26.0943C70.1344 24.8343 69.4633 23.6226 68.7003 22.4705C68.4743 22.1309 68.2483 21.7776 68.0155 21.4658C67.7826 21.154 67.6525 20.9669 67.4607 20.7244C66.7117 19.7326 65.8824 18.8055 64.9814 17.9528C63.2563 16.2695 61.1345 15.0602 58.8175 14.4398C57.8032 14.201 56.7549 14.147 55.7218 14.2805C55.2764 14.3424 54.8382 14.4492 54.4137 14.5992C54.0339 14.741 53.6728 14.9295 53.3385 15.1604C52.7369 15.6009 52.2096 16.1367 51.777 16.7472L51.9619 16.3245C52.1171 15.9394 52.2363 15.5404 52.318 15.1327C52.3963 14.7165 52.4444 14.295 52.4618 13.8717C52.4976 12.9902 52.4077 12.1081 52.1947 11.2525C51.698 9.49088 50.9007 7.83067 49.8387 6.34687L48.3115 4.09497L47.9348 3.53372L47.4622 2.78539C46.9828 2.00242 46.5239 1.05317 46.0513 0.180121L45.9486 -0.020813C45.4966 0.824516 45.0377 1.73913 44.5788 2.54981L44.2227 3.15263L44.0446 3.44365L43.6817 4.00489C43.2022 4.75321 42.6817 5.47382 42.1681 6.20136C41.6339 6.93649 41.1423 7.70226 40.6956 8.49483C40.2441 9.29555 39.9052 10.1561 39.6888 11.0516C39.4954 11.8986 39.4103 12.7672 39.4354 13.6361C39.4354 13.844 39.4354 14.0518 39.4354 14.2666C39.4583 14.5016 39.5042 14.7337 39.5724 14.9595C39.68 15.3453 39.815 15.7228 39.9765 16.0889C40.2504 16.7195 40.5312 17.3015 40.812 17.8558C40.2555 16.7977 39.4771 15.8754 38.5314 15.1535C38.197 14.9226 37.8359 14.7341 37.4561 14.5923C37.0316 14.4423 36.5934 14.3355 36.148 14.2735C35.1172 14.1399 34.0711 14.1938 33.0592 14.4329C30.7419 15.0527 28.62 16.262 26.8952 17.9459C25.9943 18.7986 25.165 19.7257 24.416 20.7174C24.2242 20.96 24.0393 21.2094 23.8612 21.4588C23.6831 21.7083 23.3955 22.1517 23.1763 22.4635C22.4108 23.614 21.7397 24.826 21.1696 26.0874C21.1313 26.164 21.097 26.2426 21.0669 26.3229C20.4231 26.5308 19.7999 26.7456 19.1972 26.9673C18.1836 27.3484 17.3206 27.6602 16.4097 27.9443C13.3088 28.9076 10.0494 29.2373 6.82138 28.9144C5.63631 28.7851 4.47982 28.4622 3.39698 27.9582C2.60569 27.5877 1.88838 27.0733 1.2807 26.4407C0.773294 25.901 0.356835 25.2807 0.0479126 24.6046C0.0479126 24.6046 0.0958572 24.7847 0.232833 25.1312C0.429593 25.6519 0.694488 26.1437 1.02044 26.5932C1.56279 27.3354 2.23618 27.9696 3.0066 28.464C4.0742 29.1364 5.24211 29.6301 6.46525 29.926C9.84908 30.6688 13.3498 30.6806 16.7385 29.9606C17.7247 29.7805 18.7931 29.4825 19.7656 29.1984C20.7382 28.9144 21.8203 28.658 22.8339 28.4501C23.8548 28.2211 24.8976 28.1072 25.9432 28.1106C28.6828 28.0621 29.7306 28.8035 29.7306 28.8035C29.8058 28.5658 29.8473 28.3185 29.8539 28.069C29.8246 27.7693 29.7532 27.4753 29.6416 27.196C29.4178 26.644 29.0238 26.1799 28.5184 25.8726C28.2789 25.728 28.0239 25.6118 27.7582 25.5261C27.55 25.4609 27.337 25.4122 27.1212 25.3806C26.7516 25.3268 26.3781 25.3059 26.0049 25.3183C24.7655 25.382 23.5379 25.5936 22.3476 25.9488C21.9504 26.0596 21.56 26.1774 21.1765 26.3022C21.7341 25.8904 22.3306 25.5353 22.9572 25.242L23.4229 25.0619L23.6489 24.9857L24.0872 24.8748C24.6524 24.7538 25.2286 24.6934 25.8063 24.6946C26.3747 24.6946 26.9569 24.6946 27.587 24.6946C28.2171 24.6946 28.8882 24.6947 29.5868 24.5976C30.2854 24.5006 30.9566 24.4313 31.6415 24.3482L32.1483 24.2858C32.3421 24.2608 32.5342 24.2238 32.7236 24.175C33.0729 24.0988 33.4085 24.0087 33.6893 23.9325C34.7699 23.6294 35.8783 23.439 36.9972 23.3643C37.7505 23.3183 38.5066 23.3601 39.2505 23.489C38.3236 23.4762 37.4 23.6046 36.511 23.8701C35.2035 24.2702 33.9783 24.9064 32.8948 25.7479C32.0303 26.4066 31.2442 27.1646 30.5525 28.0067C29.9202 28.7685 29.365 29.5926 28.8951 30.4664C28.8951 30.4664 29.9224 30.1616 31.5319 29.7736C32.4515 29.5568 33.382 29.3902 34.3193 29.2747C35.3769 29.1258 36.4506 29.1398 37.504 29.3162C37.9839 29.4117 38.446 29.5824 38.8738 29.8221L39.1751 30.0022L39.5313 30.2655C39.8355 30.4721 40.1677 30.6332 40.5175 30.7436C41.6278 31.1152 42.8379 31.0306 43.8871 30.508C44.2896 30.3024 44.6302 29.9914 44.8733 29.6073C44.9106 29.5502 44.9427 29.4899 44.9692 29.4271C45.0142 29.5167 45.0531 29.6093 45.0857 29.7043C45.192 29.9362 45.2436 30.1901 45.2363 30.4457C45.3543 30.2072 45.4131 29.9432 45.4076 29.6765C45.3977 29.2299 45.3262 28.7867 45.1952 28.36C45.1952 28.4224 45.3596 28.8035 45.1952 28.36C45.1952 28.2838 45.1542 28.2007 45.1268 28.1245C45.0872 27.9534 45.0322 27.7864 44.9624 27.6256C44.9624 27.6256 44.9624 27.6256 44.9624 27.5909C44.8117 27.1614 44.6268 26.6902 44.483 26.2052C44.4467 26.092 44.4192 25.9762 44.4008 25.8587C44.3836 25.7602 44.3836 25.6593 44.4008 25.5608C44.4286 25.3105 44.4837 25.0642 44.5651 24.8263C44.8008 24.2888 45.1329 23.8002 45.5445 23.3851L45.9007 22.9693L45.9349 22.9347L45.9828 22.9832L46.3185 23.3851L46.4623 23.5722V23.6207C46.7909 24.0039 47.0589 24.4363 47.2567 24.9025C47.4369 25.3408 47.4799 25.8245 47.38 26.2883C47.2375 26.7409 47.0541 27.1793 46.8321 27.5979C46.4529 28.2258 46.2384 28.9413 46.2089 29.6765C46.2237 29.9491 46.3113 30.2125 46.4623 30.4387C46.4199 30.1898 46.4435 29.934 46.5308 29.6973C46.5852 29.5209 46.6635 29.353 46.7636 29.1984C46.8094 29.3393 46.8715 29.4742 46.9485 29.6003C47.1917 29.9844 47.5323 30.2955 47.9348 30.5011C48.984 31.0237 50.1941 31.1083 51.3044 30.7367C51.6542 30.6262 51.9864 30.4652 52.2906 30.2586L52.6467 29.9953L52.9481 29.8151C53.3762 29.576 53.8382 29.4054 54.3179 29.3093C55.3689 29.1328 56.4404 29.1188 57.4957 29.2677C58.433 29.3833 59.3635 29.5498 60.2832 29.7666C61.8926 30.1339 62.9131 30.4595 62.9199 30.4595C62.4501 29.5856 61.8948 28.7616 61.2625 27.9998C60.5708 27.1577 59.7848 26.3996 58.9202 25.7409C57.8367 24.8994 56.6116 24.2633 55.3041 23.8632C54.415 23.5977 53.4915 23.4692 52.5646 23.4821C53.3084 23.3532 54.0645 23.3113 54.8178 23.3574C55.9367 23.4321 57.0452 23.6225 58.1258 23.9255C58.434 24.0018 58.7422 24.0918 59.0915 24.1681C59.2808 24.2168 59.4729 24.2539 59.6668 24.2789L60.1736 24.3413C60.8585 24.4244 61.5433 24.5214 62.2282 24.5907C62.9131 24.66 63.598 24.6877 64.2212 24.6877C64.8445 24.6877 65.4335 24.6877 66.0019 24.6877C66.5796 24.6865 67.1558 24.7469 67.721 24.8679L68.1593 24.9787L68.3853 25.055L68.851 25.2351C69.4174 25.498 69.9585 25.8134 70.4673 26.1774L69.7824 25.9765C68.585 25.6016 67.3484 25.3691 66.0978 25.2836C65.7225 25.2719 65.3469 25.2905 64.9746 25.339C64.7588 25.3667 64.5457 25.4131 64.3377 25.4776C64.0707 25.5566 63.8133 25.6658 63.5706 25.8033C63.0461 26.1043 62.6345 26.5719 62.3994 27.1336C62.2848 27.4171 62.211 27.7158 62.1803 28.0205C62.1521 28.29 62.1521 28.5617 62.1803 28.8312C62.1803 28.8312 63.0432 27.7988 66.0293 28.069C67.0581 28.0563 68.0851 28.1609 69.0907 28.3808C70.1249 28.5887 71.1454 28.8451 72.1247 29.1153C73.1041 29.3855 74.1383 29.6973 75.1245 29.8844C78.5111 30.6123 82.0111 30.6123 85.3977 29.8844C86.6355 29.5977 87.8196 29.111 88.9043 28.4432C89.7 27.951 90.3971 27.3116 90.959 26.5585C91.2955 26.1012 91.5696 25.6001 91.774 25.0688C91.9109 24.7154 91.9589 24.5214 91.9589 24.5284C91.9589 24.5353 91.9315 24.7847 91.7534 25.1035ZM43.483 29.5657C42.671 29.6826 41.8433 29.5346 41.1202 29.143C40.9406 29.0514 40.7746 28.9348 40.6271 28.7966C40.5276 28.6915 40.4224 28.592 40.312 28.4986C40.1741 28.3801 40.0301 28.2691 39.8806 28.166C39.2609 27.7406 38.5616 27.4482 37.8259 27.3069C36.5101 27.0813 35.1601 27.1763 33.8879 27.584C32.9482 27.8717 32.0449 28.2693 31.1963 28.7689C32.9833 27.5197 34.9426 26.5438 37.0109 25.8726C38.0939 25.5294 39.2256 25.3702 40.36 25.4014C41.2275 25.4335 42.0789 25.6483 42.8598 26.0319C42.8571 26.055 42.8571 26.0782 42.8598 26.1012C42.9135 26.2456 42.98 26.3847 43.0584 26.517C43.3392 27.0228 43.6474 27.4454 43.9077 27.8473C44.1679 28.2492 44.4145 28.6026 44.5925 28.9213C44.3076 29.2596 43.9155 29.4873 43.483 29.5657ZM54.7699 25.8726C56.8382 26.5438 58.7975 27.5197 60.5845 28.7689C59.7359 28.2693 58.8326 27.8717 57.8929 27.584C56.6207 27.1763 55.2707 27.0813 53.9549 27.3069C53.2191 27.4482 52.5199 27.7406 51.9002 28.166C51.7517 28.2674 51.6098 28.3785 51.4756 28.4986C51.3455 28.6095 51.1811 28.7619 51.1537 28.7966C51.0062 28.9348 50.8402 29.0514 50.6606 29.143C49.9375 29.5346 49.1097 29.6826 48.2977 29.5657C48.0495 29.529 47.8111 29.442 47.5969 29.3098C47.3827 29.1777 47.1971 29.0031 47.0513 28.7966C47.2499 28.5263 47.4896 28.2353 47.7704 27.9097C48.138 27.4971 48.4616 27.0465 48.7361 26.5655C48.8202 26.3926 48.8867 26.2115 48.9347 26.025C49.7102 25.6477 50.5541 25.4354 51.414 25.4014C52.5507 25.3695 53.6847 25.5287 54.7699 25.8726ZM67.5018 22.7546L67.2621 22.713L66.7758 22.6645C66.1672 22.6238 65.5559 22.6541 64.954 22.7546C63.8844 23.0146 62.7929 23.1723 61.694 23.2257C61.1256 23.2257 60.5366 23.2257 59.9407 23.1911H59.5024L59.1394 23.1426L58.2696 22.9693C57.1463 22.711 55.9971 22.5854 54.8452 22.5952C53.3336 22.588 51.8504 23.0105 50.5647 23.8147C49.9774 23.9964 49.4208 24.2674 48.9141 24.6184C48.7302 23.9596 48.4259 23.3415 48.0169 22.7961L47.1472 21.5697C46.7499 20.9669 46.3184 20.1839 45.9212 19.491C45.5377 20.1354 45.1199 20.8768 44.7295 21.5004C44.6268 21.6598 44.5241 21.7984 44.4213 21.9508L44.1268 22.3388L43.8118 22.7546C43.3555 23.2908 43.0274 23.9262 42.8529 24.6115C42.3482 24.2691 41.7967 24.003 41.2161 23.8216C39.9308 23.0164 38.4473 22.5938 36.9356 22.6021C35.7837 22.5927 34.6345 22.7183 33.5112 22.9763C33.2167 23.0317 32.9222 23.101 32.6414 23.1495L32.2784 23.198C32.1368 23.198 31.993 23.198 31.8469 23.198C31.2511 23.198 30.6552 23.2465 30.0936 23.2326C28.9925 23.1797 27.8987 23.022 26.8267 22.7615C26.2355 22.6492 25.6335 22.605 25.0324 22.6298L24.5461 22.6783L24.3064 22.7199L24.416 22.5675L24.6899 22.1864L25.2515 21.4588C25.9754 20.5442 26.7701 19.6892 27.6281 18.9021C29.0988 17.4825 30.8762 16.4291 32.8195 15.8256C33.6237 15.5999 34.4581 15.504 35.2919 15.5415C35.6564 15.5629 36.0185 15.6163 36.374 15.7009C36.6879 15.7765 36.9914 15.8905 37.278 16.0404C38.2907 16.6181 39.1744 17.4013 39.8737 18.3408C40.5586 19.1792 41.1065 20.0176 41.627 20.766C42.0702 21.4283 42.5504 22.0645 43.0653 22.6714L43.2639 22.8931C43.4372 22.6289 43.6247 22.3745 43.8255 22.131C43.5036 21.2856 43.1406 20.371 42.7023 19.3594C42.2571 18.2023 41.7092 16.9481 41.264 15.6178C41.1537 15.2961 41.0645 14.9674 40.9969 14.6339C40.9649 14.4952 40.9465 14.3536 40.9421 14.2112V13.6846C40.9721 12.9541 41.0918 12.2303 41.2983 11.5297C41.8363 10.0178 42.6467 8.61995 43.6885 7.40699C44.2159 6.7141 44.7775 5.96578 45.3048 5.17588L45.7021 4.57999L45.887 4.28204L45.9623 4.39983L46.1609 4.70471L46.565 5.28673L48.1471 7.504C49.1345 8.7806 49.9116 10.2102 50.4483 11.7376C50.6691 12.4276 50.789 13.1466 50.8044 13.8717C50.8175 14.2185 50.8061 14.5658 50.7702 14.911C50.7313 15.2378 50.6625 15.5602 50.5647 15.8741C50.1248 17.1147 49.5818 18.3154 48.9415 19.4633C48.5032 20.3086 48.106 21.1055 47.7773 21.8607C47.9005 22.0201 48.0101 22.1794 48.1197 22.3388C48.2511 22.5331 48.3723 22.7343 48.4827 22.9416L48.7224 22.6783C49.2376 22.07 49.72 21.4339 50.1675 20.7729C50.688 20.0246 51.2427 19.1862 51.9208 18.3478C52.6167 17.4051 53.5012 16.6212 54.5165 16.0474C54.8002 15.8963 55.1016 15.7822 55.4137 15.7078C55.7691 15.6232 56.1312 15.5699 56.4958 15.5485C57.3296 15.5106 58.164 15.6065 58.9682 15.8326C60.9128 16.4374 62.6923 17.4905 64.1664 18.909C65.0204 19.6981 65.8127 20.5529 66.5361 21.4658L67.0977 22.1933L67.3717 22.5744L67.4813 22.7268L67.5018 22.7546ZM41.9147 20.08L42.4831 21.2163C42.3804 21.0154 42.2708 20.8075 42.1612 20.5858C42.0516 20.3641 41.9968 20.2393 41.9147 20.0661V20.08Z" fill="#621109"/>
<path d="M48.9621 15.2159C48.8044 14.2493 48.497 13.314 48.0512 12.4443L47.1472 10.6497C46.7499 9.76977 46.3185 8.61957 45.9212 7.66338V7.61487C45.5377 8.55027 45.1199 9.63119 44.7295 10.5458C44.6268 10.7814 44.5241 10.9893 44.4213 11.2387L44.1268 11.8069L43.8118 12.4166C43.3237 13.2723 42.9963 14.212 42.8461 15.1882C42.7886 15.6477 42.7749 16.1118 42.805 16.574C42.8177 16.8223 42.8567 17.0686 42.9215 17.3084C42.9732 17.514 43.0395 17.7154 43.1201 17.9113C43.4009 18.6527 43.7091 19.297 43.9693 19.8583C44.2296 20.4195 44.4282 20.8561 44.6063 21.2926L44.8323 20.863C44.9173 20.6825 45.0158 20.5088 45.1268 20.3433C45.072 20.08 45.0103 19.8028 44.9418 19.5188C44.7912 18.8882 44.6063 18.2023 44.4624 17.5094C44.4267 17.3446 44.3993 17.1781 44.3802 17.0105C44.3631 16.8632 44.3631 16.7144 44.3802 16.567C44.4072 16.2075 44.4621 15.8507 44.5446 15.5C44.7657 14.7611 45.0959 14.0603 45.524 13.4213L45.8801 12.8185C45.9212 12.7423 45.8801 12.77 45.9144 12.77L45.9623 12.8462L46.2979 13.4352C46.7058 14.1163 47.0257 14.8475 47.2499 15.6109C47.4314 16.269 47.4734 16.9584 47.3732 17.6341C47.2351 18.2838 47.052 18.9228 46.8253 19.5465C46.7431 19.789 46.6678 20.0246 46.5993 20.2394C46.7432 20.5595 46.908 20.8697 47.0924 21.1678C47.2773 20.8006 47.5033 20.3918 47.7773 19.9553C48.1574 19.3279 48.4806 18.6669 48.7429 17.9805C49.0365 17.0906 49.1117 16.1418 48.9621 15.2159Z" fill="#621109"/>
<path d="M60.1599 18.5972C59.4709 18.2735 58.7617 17.9958 58.0368 17.7657C57.0211 17.4221 55.9466 17.2924 54.8795 17.3847C53.9727 17.4523 53.1079 17.7979 52.4002 18.3755C51.9319 18.8083 51.5343 19.3135 51.2222 19.8721C50.8147 20.6389 50.3571 21.3773 49.8525 22.0825C49.6529 22.3408 49.4229 22.5735 49.1676 22.7754C49.4906 22.6394 49.7927 22.4574 50.0648 22.2349C50.769 21.624 51.4325 20.9666 52.0509 20.2671C52.4583 19.8372 52.9186 19.4623 53.4207 19.1515C54.0118 18.8451 54.6674 18.6882 55.3315 18.6942C56.1609 18.7016 56.9831 18.8516 57.7628 19.1377C57.9957 19.2139 58.2217 19.2901 58.4477 19.3802H58.5368C58.5368 19.3802 58.5368 19.3802 58.4957 19.3802L58.0505 19.6643C57.5596 20.0315 57.0315 20.3451 56.4753 20.5997C56.2013 20.7175 55.9068 20.8214 55.6123 20.9184C55.4923 20.9641 55.3686 20.9988 55.2425 21.0223L54.7905 21.0985C54.1768 21.1762 53.5684 21.2919 52.9687 21.445C52.0725 21.6643 51.2323 22.0728 50.5031 22.6437C50.2389 22.8548 50.0179 23.1161 49.8525 23.4128C50.0846 23.1873 50.3504 23.0002 50.6401 22.8585C51.4253 22.501 52.2671 22.2875 53.1262 22.228C53.6741 22.1725 54.2768 22.1587 54.9617 22.1448H55.5164C55.7281 22.1317 55.9386 22.1039 56.1465 22.0617C56.5164 21.9993 56.893 21.9231 57.2834 21.8192C58.0256 21.6163 58.7477 21.345 59.4408 21.0085L59.9134 20.8075C60.064 20.7452 60.2079 20.6898 60.3585 20.6413C60.534 20.5813 60.7122 20.5305 60.8927 20.4888C61.7138 20.328 62.5497 20.2583 63.3857 20.2809L63.3378 20.2394C62.3301 19.5952 61.2664 19.0456 60.1599 18.5972Z" fill="#621109"/>
<path d="M33.3537 19.401C33.5797 19.3109 33.8057 19.2347 34.0385 19.1585C34.8186 18.8736 35.6406 18.7237 36.4699 18.7151C37.134 18.709 37.7896 18.8659 38.3807 19.1723C38.8827 19.4831 39.3431 19.8581 39.7504 20.2879C40.3692 20.9895 41.0351 21.647 41.7434 22.2557C42.0139 22.477 42.3136 22.6589 42.6338 22.7962C42.3822 22.59 42.1527 22.3578 41.9489 22.1033C41.456 21.3971 41.0099 20.6587 40.6134 19.893C40.3013 19.3343 39.9037 18.8291 39.4354 18.3963C38.7296 17.82 37.8674 17.4745 36.963 17.4055C35.8959 17.3129 34.8213 17.4425 33.8057 17.7866C33.0782 18.0155 32.3666 18.2933 31.6757 18.618C30.5515 19.0951 29.4739 19.6773 28.4568 20.3572L28.4088 20.3988C29.2448 20.3761 30.0807 20.4458 30.9018 20.6066C31.0823 20.6483 31.2606 20.6992 31.436 20.7591C31.5867 20.8076 31.7373 20.863 31.8812 20.9254L32.3537 21.1263C33.0468 21.4628 33.769 21.7342 34.5111 21.937C34.9015 22.0409 35.285 22.1172 35.6549 22.1795C35.8626 22.2226 36.0732 22.2504 36.2849 22.2627H36.8328C37.5177 22.2627 38.1204 22.2627 38.6683 22.3458C39.5275 22.4044 40.3695 22.618 41.1544 22.9763C41.4455 23.1157 41.7117 23.303 41.942 23.5306C41.7666 23.2307 41.5338 22.9693 41.2572 22.7615C40.528 22.1906 39.6878 21.7821 38.7916 21.5628C38.1919 21.4098 37.5835 21.2941 36.9698 21.2164L36.5247 21.1402C36.3961 21.1177 36.27 21.0829 36.148 21.0362C35.8535 20.9392 35.559 20.8353 35.285 20.7175C34.7296 20.4612 34.2018 20.1477 33.7098 19.7821L33.2646 19.498H33.2235L33.3537 19.401Z" fill="#621109"/>
<path d="M45.7774 24.5699C45.5141 24.5699 45.2615 24.6758 45.0752 24.8642C44.889 25.0526 44.7844 25.3082 44.7844 25.5746C44.7844 25.8411 44.889 26.0967 45.0752 26.2851C45.2615 26.4735 45.5141 26.5793 45.7774 26.5793C46.0408 26.5793 46.2934 26.4735 46.4796 26.2851C46.6659 26.0967 46.7705 25.8411 46.7705 25.5746C46.7705 25.3082 46.6659 25.0526 46.4796 24.8642C46.2934 24.6758 46.0408 24.5699 45.7774 24.5699Z" fill="#621109"/>
<path d="M45.7774 15.5554C45.5274 15.5764 45.2943 15.6917 45.1244 15.8785C44.9545 16.0652 44.8602 16.3098 44.8602 16.5636C44.8602 16.8174 44.9545 17.0619 45.1244 17.2487C45.2943 17.4354 45.5274 17.5507 45.7774 17.5717C46.0274 17.5507 46.2605 17.4354 46.4304 17.2487C46.6003 17.0619 46.6946 16.8174 46.6946 16.5636C46.6946 16.3098 46.6003 16.0652 46.4304 15.8785C46.2605 15.6917 46.0274 15.5764 45.7774 15.5554Z" fill="#621109"/>
<path d="M41.6271 26.8704C41.4391 26.8704 41.2588 26.9459 41.1258 27.0804C40.9929 27.2149 40.9182 27.3973 40.9182 27.5875C40.9182 27.7777 40.9929 27.9601 41.1258 28.0946C41.2588 28.2291 41.4391 28.3047 41.6271 28.3047C41.8151 28.3047 41.9954 28.2291 42.1283 28.0946C42.2612 27.9601 42.3359 27.7777 42.3359 27.5875C42.3359 27.3973 42.2612 27.2149 42.1283 27.0804C41.9954 26.9459 41.8151 26.8704 41.6271 26.8704Z" fill="#621109"/>
<path d="M49.6812 27.0574C49.4923 27.0574 49.3111 27.1334 49.1775 27.2685C49.044 27.4036 48.9689 27.5869 48.9689 27.778C48.9689 27.9692 49.044 28.1524 49.1775 28.2876C49.3111 28.4227 49.4923 28.4987 49.6812 28.4987C49.8701 28.4987 50.0513 28.4227 50.1849 28.2876C50.3184 28.1524 50.3935 27.9692 50.3935 27.778C50.3935 27.5869 50.3184 27.4036 50.1849 27.2685C50.0513 27.1334 49.8701 27.0574 49.6812 27.0574Z" fill="#621109"/>
<path d="M36.511 19.103C36.3221 19.103 36.1409 19.1789 36.0073 19.3141C35.8738 19.4492 35.7987 19.6325 35.7987 19.8236C35.7987 20.0147 35.8738 20.198 36.0073 20.3332C36.1409 20.4683 36.3221 20.5442 36.511 20.5442C36.6999 20.5442 36.8811 20.4683 37.0146 20.3332C37.1482 20.198 37.2233 20.0147 37.2233 19.8236C37.2233 19.6325 37.1482 19.4492 37.0146 19.3141C36.8811 19.1789 36.6999 19.103 36.511 19.103Z" fill="#621109"/>
<path d="M54.7973 19.2C54.6084 19.2 54.4272 19.2759 54.2936 19.4111C54.1601 19.5462 54.085 19.7295 54.085 19.9206C54.085 20.1117 54.1601 20.295 54.2936 20.4302C54.4272 20.5653 54.6084 20.6412 54.7973 20.6412C54.9862 20.6412 55.1674 20.5653 55.301 20.4302C55.4345 20.295 55.5096 20.1117 55.5096 19.9206C55.5096 19.7295 55.4345 19.5462 55.301 19.4111C55.1674 19.2759 54.9862 19.2 54.7973 19.2Z" fill="#621109"/>
</g>
<defs>
<clipPath id="clip0_173_2">
<rect width="92" height="31" fill="white"/>
</clipPath>
</defs>
</svg>
