<svg width="60" height="46" viewBox="0 0 60 46" fill="none" xmlns="http://www.w3.org/2000/svg">
<g clip-path="url(#clip0_173_250)">
<path d="M-5.89659 52.9889C-9.77951 52.9889 -13.3701 50.9166 -15.4991 47.4331C-16.0981 46.3788 -16.5791 45.2608 -16.9331 44.0996C-17.1648 43.4301 -17.402 42.7412 -17.6943 42.0745C-18.559 40.1024 -19.9737 38.4257 -21.7665 37.2481C-23.5592 36.0705 -25.6529 35.4426 -27.7932 35.4408C-27.8222 35.4442 -27.8515 35.4414 -27.8793 35.4325C-27.9072 35.4236 -27.9328 35.409 -27.9546 35.3894C-27.9764 35.3699 -27.9938 35.3459 -28.0057 35.3191C-28.0177 35.2923 -28.0238 35.2632 -28.0238 35.2338C-28.0238 35.2044 -28.0177 35.1754 -28.0057 35.1486C-27.9938 35.1218 -27.9764 35.0978 -27.9546 35.0783C-27.9328 35.0587 -27.9072 35.044 -27.8793 35.0352C-27.8515 35.0263 -27.8222 35.0235 -27.7932 35.0269C-24.0537 35.0269 -20.5954 33.0268 -18.5409 29.6766C-17.9572 28.6508 -17.4892 27.5625 -17.1455 26.432C-16.9111 25.7569 -16.6711 25.0597 -16.3733 24.3791C-15.479 22.3299 -14.0119 20.5873 -12.151 19.3637C-10.2902 18.1402 -8.11603 17.4886 -5.89383 17.4886C-3.67163 17.4886 -1.49747 18.1402 0.36338 19.3637C2.22423 20.5873 3.69132 22.3299 4.58564 24.3791C4.88348 25.0597 5.1372 25.7681 5.36057 26.4348C5.70311 27.5648 6.17122 28.6523 6.756 29.6766C8.81052 33.0268 12.2715 35.0269 16.0083 35.0269C16.0587 35.0328 16.1051 35.0571 16.1389 35.0953C16.1726 35.1334 16.1913 35.1827 16.1913 35.2338C16.1913 35.2849 16.1726 35.3343 16.1389 35.3724C16.1051 35.4106 16.0587 35.4349 16.0083 35.4408C13.8675 35.4401 11.7727 36.067 9.97953 37.2449C8.18631 38.4228 6.77211 40.1009 5.90937 42.0745C5.61705 42.7412 5.37712 43.4301 5.14822 44.0996C4.79418 45.2608 4.31322 46.3788 3.71419 47.4331C1.56866 50.9277 -2.01643 52.9889 -5.89659 52.9889ZM-25.6642 35.2491C-23.8413 35.5969 -22.1295 36.3853 -20.6759 37.5466C-19.2224 38.7079 -18.0705 40.2074 -17.3192 41.9161C-17.0214 42.5967 -16.7677 43.3051 -16.547 43.9718C-16.2021 45.101 -15.7341 46.1882 -15.1516 47.2136C-13.0971 50.5638 -9.63611 52.5639 -5.89659 52.5639C-2.15707 52.5639 1.30116 50.5638 3.35568 47.2136C3.93931 46.1888 4.40736 45.1014 4.75111 43.9718C4.98552 43.294 5.22544 42.5967 5.52604 41.9161C6.27649 40.2068 7.42816 38.7069 8.88188 37.5454C10.3356 36.384 12.0478 35.596 13.871 35.2491C12.3291 34.9288 10.8694 34.2912 9.5834 33.3763C8.2974 32.4614 7.21279 31.2889 6.39749 29.9322C5.79895 28.8776 5.31801 27.7597 4.96346 26.5987C4.7318 25.9292 4.49464 25.2403 4.20232 24.5736C3.3407 22.5985 1.92697 20.9189 0.133671 19.7396C-1.65963 18.5603 -3.75496 17.9323 -5.89659 17.9323C-8.03823 17.9323 -10.1335 18.5603 -11.9268 19.7396C-13.7201 20.9189 -15.1339 22.5985 -15.9955 24.5736C-16.2878 25.2403 -16.5277 25.9292 -16.7566 26.5987C-17.1112 27.7597 -17.5921 28.8776 -18.1907 29.9322C-19.0051 31.2907 -20.0893 32.4652 -21.3753 33.382C-22.6613 34.2989 -24.1214 34.9383 -25.6642 35.2602V35.2491Z" fill="#F2C777"/>
<path d="M-18.6622 40.2105C-18.6998 40.2106 -18.7367 40.2003 -18.7688 40.1807C-18.8009 40.1611 -18.827 40.133 -18.8443 40.0994C-18.8681 40.0508 -18.8725 39.995 -18.8566 39.9433C-18.8407 39.8916 -18.8056 39.848 -18.7588 39.8216C-16.1996 38.4493 -14.2664 35.7436 -13.0943 33.7101C-12.5281 32.6852 -12.0449 31.6159 -11.6493 30.5127C-11.004 28.846 -10.4938 27.5348 -9.35206 26.6237C-8.36875 25.8313 -7.15284 25.3888 -5.89383 25.3653C-4.66423 25.3621 -3.46937 25.776 -2.50179 26.5403C-1.32974 27.4626 -0.899534 28.6515 -0.295586 30.2961C0.0779476 31.4104 0.545723 32.4903 1.10259 33.524C2.09263 35.2685 4.17749 38.3937 7.02901 39.7299C7.05368 39.7415 7.07582 39.7579 7.09417 39.7782C7.11251 39.7985 7.12671 39.8222 7.13593 39.848C7.14515 39.8738 7.14923 39.9012 7.14792 39.9286C7.14661 39.956 7.13994 39.9829 7.12829 40.0077C7.11704 40.0328 7.1009 40.0554 7.08082 40.074C7.06075 40.0927 7.03715 40.1072 7.01143 40.1165C6.9857 40.1258 6.95838 40.1299 6.93108 40.1283C6.90378 40.1268 6.87707 40.1198 6.85252 40.1077C3.89896 38.7187 1.75618 35.5213 0.741329 33.7324C0.172688 32.6786 -0.304346 31.5772 -0.684429 30.4405C-1.25529 28.8627 -1.66895 27.7209 -2.74723 26.8709C-3.63775 26.1588 -4.74029 25.7693 -5.87729 25.7653C-7.04415 25.7891 -8.17058 26.2002 -9.0818 26.9348C-10.138 27.7682 -10.6289 29.0432 -11.2522 30.6516C-11.6567 31.7735 -12.1491 32.8613 -12.7248 33.9046C-13.9244 35.9797 -15.9072 38.7493 -18.5519 40.1688C-18.5838 40.1935 -18.6222 40.208 -18.6622 40.2105Z" fill="#F2C777"/>
<path d="M-0.590656 44.3912C-0.810077 44.3912 -1.02051 44.479 -1.17567 44.6353C-1.33082 44.7916 -1.41798 45.0036 -1.41798 45.2246V51.8111C-0.839655 51.5475 -0.285896 51.2323 0.236671 50.8694V45.2107C0.233054 44.9921 0.144295 44.7837 -0.010469 44.6304C-0.165233 44.4771 -0.373604 44.3912 -0.590656 44.3912Z" fill="#F2C777"/>
<path d="M-0.427956 42.5244C0.11578 42.5244 0.556564 42.0791 0.556564 41.5299C0.556564 40.9807 0.11578 40.5354 -0.427956 40.5354C-0.971691 40.5354 -1.41248 40.9807 -1.41248 41.5299C-1.41248 42.0791 -0.971691 42.5244 -0.427956 42.5244Z" fill="#F2C777"/>
<path d="M10.3273 36.8408C7.51714 36.7825 5.08756 33.0351 4.15544 31.4072C3.67482 30.5003 3.27076 29.5544 2.94754 28.5793C2.27741 26.7264 1.58521 24.8124 -0.328672 23.3012C-1.88563 22.071 -3.81026 21.4081 -5.78903 21.4206C-7.78022 21.4518 -9.70511 22.1463 -11.2632 23.3957C-13.1109 24.868 -13.872 26.8348 -14.6083 28.7349C-14.9582 29.713 -15.3833 30.6623 -15.8797 31.5739C-16.7759 33.1267 -19.0456 36.5742 -21.6709 37.0881C-21.4889 37.2075 -21.3069 37.3242 -21.1194 37.4547C-20.7592 37.7232 -20.4157 38.0136 -20.0908 38.3242C-17.5371 37.1742 -15.5349 34.2963 -14.4511 32.4184C-13.9118 31.4315 -13.4508 30.4032 -13.0723 29.3432C-12.3856 27.5737 -11.7375 25.9014 -10.2456 24.7124C-8.97545 23.6915 -7.40546 23.123 -5.78075 23.0957C-4.18153 23.0897 -2.627 23.627 -1.36834 24.6208C0.170485 25.8375 0.727551 27.3737 1.37011 29.1515C1.72349 30.2172 2.16825 31.2498 2.69935 32.2378C3.80245 34.1657 5.84595 37.1492 8.51545 38.1659C8.78881 37.9139 9.07509 37.6765 9.37312 37.4547C9.68064 37.2339 9.99911 37.029 10.3273 36.8408Z" fill="#F2C777"/>
<path d="M37.8966 52.9889C34.0137 52.9889 30.4231 50.9166 28.2941 47.4331C27.695 46.3788 27.2141 45.2608 26.86 44.0996C26.6284 43.4301 26.3912 42.7412 26.0989 42.0745C25.2362 40.1009 23.8219 38.4228 22.0287 37.2449C20.2355 36.067 18.1408 35.4401 16 35.4408C15.971 35.4442 15.9417 35.4414 15.9138 35.4325C15.886 35.4236 15.8604 35.409 15.8386 35.3894C15.8168 35.3699 15.7994 35.3459 15.7874 35.3191C15.7755 35.2923 15.7693 35.2632 15.7693 35.2338C15.7693 35.2044 15.7755 35.1754 15.7874 35.1486C15.7994 35.1218 15.8168 35.0978 15.8386 35.0783C15.8604 35.0587 15.886 35.044 15.9138 35.0352C15.9417 35.0263 15.971 35.0235 16 35.0269C19.7395 35.0269 23.1977 33.0268 25.2523 29.6766C25.837 28.6523 26.3051 27.5648 26.6477 26.4348C26.8821 25.7569 27.122 25.0458 27.4226 24.3791C28.3169 22.3299 29.784 20.5873 31.6449 19.3637C33.5057 18.1402 35.6799 17.4886 37.9021 17.4886C40.1243 17.4886 42.2984 18.1402 44.1593 19.3637C46.0202 20.5873 47.4872 22.3299 48.3816 24.3791C48.6822 25.0597 48.9331 25.7681 49.1565 26.4348C49.5002 27.5644 49.9683 28.6517 50.5519 29.6766C52.6064 33.0268 56.0674 35.0269 59.8042 35.0269C59.8332 35.0235 59.8625 35.0263 59.8903 35.0352C59.9182 35.044 59.9438 35.0587 59.9656 35.0783C59.9874 35.0978 60.0048 35.1218 60.0167 35.1486C60.0287 35.1754 60.0349 35.2044 60.0349 35.2338C60.0349 35.2632 60.0287 35.2923 60.0167 35.3191C60.0048 35.3459 59.9874 35.3699 59.9656 35.3894C59.9438 35.409 59.9182 35.4236 59.8903 35.4325C59.8625 35.4414 59.8332 35.4442 59.8042 35.4408C57.6639 35.4426 55.5702 36.0705 53.7775 37.2481C51.9847 38.4257 50.57 40.1024 49.7053 42.0745C49.413 42.7412 49.1758 43.4301 48.9441 44.0996C48.5901 45.2608 48.1091 46.3788 47.5101 47.4331C45.3701 50.9277 41.7795 52.9889 37.8966 52.9889ZM18.129 35.2491C19.9522 35.596 21.6644 36.384 23.1181 37.5454C24.5718 38.7069 25.7235 40.2068 26.4739 41.9161C26.7745 42.5967 27.0255 43.3051 27.2489 43.9718C27.5914 45.1019 28.0595 46.1894 28.6443 47.2136C30.6988 50.5638 34.1598 52.5639 37.8966 52.5639C41.6333 52.5639 45.0943 50.5638 47.1488 47.2136C47.7336 46.1894 48.2017 45.1019 48.5443 43.9718C48.7787 43.294 49.0214 42.5967 49.3192 41.9161C50.0696 40.2068 51.2213 38.7069 52.675 37.5454C54.1287 36.384 55.8409 35.596 57.6642 35.2491C56.1222 34.9288 54.6625 34.2912 53.3765 33.3763C52.0906 32.4614 51.0059 31.2889 50.1906 29.9322C49.5921 28.8776 49.1112 27.7597 48.7566 26.5987C48.5277 25.9292 48.2878 25.2403 47.9955 24.5736C47.1339 22.5985 45.7201 20.9189 43.9268 19.7396C42.1335 18.5603 40.0382 17.9323 37.8966 17.9323C35.7549 17.9323 33.6596 18.5603 31.8663 19.7396C30.073 20.9189 28.6593 22.5985 27.7977 24.5736C27.5053 25.2403 27.2682 25.9292 27.0365 26.5987C26.682 27.7597 26.201 28.8776 25.6025 29.9322C24.7883 31.2909 23.7042 32.4656 22.4182 33.3824C21.1321 34.2993 19.6718 34.9386 18.129 35.2602V35.2491Z" fill="#F2C777"/>
<path d="M25.1309 40.2104C25.085 40.21 25.0406 40.1943 25.0045 40.1657C24.9685 40.137 24.9429 40.0972 24.9319 40.0523C24.9208 40.0074 24.9249 39.9601 24.9435 39.9178C24.962 39.8756 24.994 39.8407 25.0344 39.8187C27.5936 38.4464 29.5295 35.7407 30.7016 33.7073C31.2658 32.6817 31.7481 31.6126 32.1439 30.5099C32.7892 28.8432 33.2994 27.532 34.4439 26.6208C35.4261 25.8285 36.6412 25.386 37.8993 25.3624C39.1293 25.3619 40.3243 25.7755 41.2941 26.5375C42.4634 27.4598 42.8936 28.6487 43.5003 30.2932C43.8729 31.4075 44.3397 32.4874 44.8958 33.5212C45.8858 35.2657 47.9707 38.3909 50.8222 39.7271C50.8466 39.7386 50.8686 39.7548 50.8868 39.7748C50.905 39.7949 50.9191 39.8183 50.9284 39.8439C50.9376 39.8694 50.9417 39.8965 50.9405 39.9237C50.9394 39.9508 50.9329 39.9775 50.9215 40.0021C50.91 40.0267 50.8939 40.0488 50.8741 40.0672C50.8542 40.0855 50.8309 40.0998 50.8055 40.109C50.7802 40.1183 50.7532 40.1225 50.7263 40.1213C50.6993 40.1201 50.6729 40.1136 50.6484 40.1021C47.6949 38.7131 45.5521 35.5157 44.54 33.7268C43.9702 32.6735 43.4931 31.572 43.1143 30.4349C42.5406 28.8571 42.1297 27.7153 41.0515 26.8653C40.1549 26.1512 39.045 25.7636 37.9021 25.7652C36.7352 25.789 35.6088 26.2001 34.6976 26.9347C33.6414 27.7681 33.1505 29.0432 32.5272 30.6516C32.1237 31.7735 31.6322 32.8612 31.0573 33.9045C29.8577 35.9796 27.8721 38.7492 25.2274 40.1688C25.1995 40.191 25.1662 40.2054 25.1309 40.2104Z" fill="#F2C777"/>
<path d="M37.8966 42.4605C37.6772 42.4605 37.4667 42.3727 37.3116 42.2165C37.1564 42.0602 37.0693 41.8482 37.0693 41.6272V37.8436C37.0693 37.6226 37.1564 37.4106 37.3116 37.2543C37.4667 37.0981 37.6772 37.0103 37.8966 37.0103C38.116 37.0103 38.3264 37.0981 38.4816 37.2543C38.6367 37.4106 38.7239 37.6226 38.7239 37.8436V41.6299C38.7232 41.8505 38.6357 42.0617 38.4806 42.2174C38.3255 42.3731 38.1155 42.4605 37.8966 42.4605Z" fill="#F2C777"/>
<path d="M37.8966 44.3912C37.6772 44.3912 37.4667 44.479 37.3116 44.6353C37.1564 44.7916 37.0693 45.0036 37.0693 45.2246V52.7639C37.345 52.7861 37.6208 52.8 37.8966 52.8C38.1724 52.8 38.4481 52.7861 38.7239 52.7639V45.2107C38.7203 44.9921 38.6315 44.7837 38.4768 44.6304C38.322 44.4771 38.1136 44.3912 37.8966 44.3912Z" fill="#F2C777"/>
<path d="M32.5907 44.3912C32.3712 44.3912 32.1608 44.479 32.0057 44.6353C31.8505 44.7916 31.7633 45.0036 31.7633 45.2246V50.8694C32.2862 51.2318 32.8399 51.547 33.418 51.8111V45.2107C33.4144 44.9921 33.3256 44.7837 33.1709 44.6304C33.0161 44.4771 32.8077 44.3912 32.5907 44.3912Z" fill="#F2C777"/>
<path d="M43.2108 44.3912C42.9914 44.3912 42.7809 44.479 42.6258 44.6353C42.4706 44.7916 42.3835 45.0036 42.3835 45.2246V51.8111C42.9621 51.5481 43.5159 51.2329 44.0381 50.8694V45.2107C44.0345 44.9921 43.9457 44.7837 43.791 44.6304C43.6362 44.4771 43.4278 44.3912 43.2108 44.3912Z" fill="#F2C777"/>
<path d="M38.7184 33.8629C38.7178 34.0596 38.6594 34.2517 38.5505 34.4149C38.4415 34.5782 38.287 34.7052 38.1064 34.78C37.9258 34.8547 37.7272 34.8738 37.5358 34.8349C37.3444 34.796 37.1687 34.7008 37.0311 34.5613C36.8934 34.4219 36.7998 34.2444 36.7623 34.0514C36.7247 33.8584 36.7448 33.6585 36.82 33.477C36.8953 33.2954 37.0222 33.1405 37.1849 33.0317C37.3476 32.9228 37.5386 32.8651 37.7339 32.8656C37.8635 32.866 37.9918 32.8921 38.1115 32.9424C38.2311 32.9927 38.3397 33.0662 38.4312 33.1589C38.5226 33.2515 38.595 33.3613 38.6443 33.4821C38.6936 33.6029 38.7187 33.7323 38.7184 33.8629Z" fill="#F2C777"/>
<path d="M33.4125 41.5299C33.4125 41.7266 33.3546 41.9189 33.2461 42.0824C33.1376 42.246 32.9834 42.3734 32.803 42.4487C32.6226 42.524 32.4241 42.5436 32.2326 42.5053C32.0411 42.4669 31.8652 42.3722 31.7271 42.2331C31.589 42.094 31.495 41.9168 31.4569 41.7239C31.4188 41.531 31.4384 41.331 31.5131 41.1493C31.5878 40.9676 31.7143 40.8123 31.8767 40.703C32.0391 40.5937 32.2299 40.5354 32.4252 40.5354C32.687 40.5354 32.9382 40.6402 33.1233 40.8267C33.3085 41.0132 33.4125 41.2661 33.4125 41.5299Z" fill="#F2C777"/>
<path d="M42.3835 41.5299C42.3835 41.7266 42.4414 41.9189 42.5498 42.0824C42.6583 42.246 42.8125 42.3734 42.9929 42.4487C43.1733 42.524 43.3718 42.5436 43.5633 42.5053C43.7548 42.4669 43.9308 42.3722 44.0688 42.2331C44.2069 42.094 44.3009 41.9168 44.339 41.7239C44.3771 41.531 44.3576 41.331 44.2828 41.1493C44.2081 40.9676 44.0816 40.8123 43.9192 40.703C43.7569 40.5937 43.566 40.5354 43.3707 40.5354C43.1089 40.5354 42.8578 40.6402 42.6726 40.8267C42.4875 41.0132 42.3835 41.2661 42.3835 41.5299Z" fill="#F2C777"/>
<path d="M54.1205 36.8408C51.3131 36.7825 48.8807 33.0351 47.9486 31.4072C47.4668 30.5009 47.0627 29.5548 46.7407 28.5793C46.0678 26.7264 45.3756 24.8124 43.4617 23.3012C41.9055 22.0716 39.982 21.4088 38.0041 21.4206C36.012 21.4514 34.0861 22.1459 32.5272 23.3957C30.6823 24.868 29.9184 26.8347 29.1821 28.7348C28.8322 29.713 28.4071 30.6623 27.9107 31.5739C27.0145 33.1267 24.7448 36.5741 22.1333 37.0881C22.3153 37.2075 22.4973 37.3242 22.6848 37.4547C23.0453 37.7239 23.3897 38.0142 23.7162 38.3242C26.2671 37.1742 28.2693 34.2962 29.3558 32.4184C29.8952 31.4315 30.3563 30.4033 30.7347 29.3432C31.4214 27.5737 32.0694 25.9014 33.5641 24.7124C34.8333 23.6917 36.4024 23.1232 38.0262 23.0957C39.6254 23.0896 41.18 23.6269 42.4386 24.6207C43.9774 25.8375 44.5345 27.3737 45.1798 29.1515C45.5366 30.2176 45.9851 31.2502 46.5201 32.2378C47.6232 34.1657 49.6667 37.1492 52.3362 38.1659C52.612 37.9159 52.8877 37.677 53.1939 37.4547C53.5 37.2325 53.8006 37.0325 54.1205 36.8408Z" fill="#F2C777"/>
<path d="M16 35.488C12.1171 35.488 8.52647 33.4128 6.39748 29.9321C5.79862 28.8777 5.31767 27.7597 4.96345 26.5986C4.7318 25.9319 4.49463 25.2402 4.20231 24.5763C3.33756 22.6042 1.92287 20.9275 0.130106 19.7499C-1.66265 18.5722 -3.75634 17.9444 -5.89659 17.9426C-5.95145 17.9426 -6.00405 17.9206 -6.04284 17.8816C-6.08163 17.8425 -6.10342 17.7895 -6.10342 17.7342C-6.10342 17.679 -6.08163 17.626 -6.04284 17.5869C-6.00405 17.5479 -5.95145 17.5259 -5.89659 17.5259C-2.15708 17.5259 1.30115 15.5258 3.35568 12.1756C3.93931 11.1508 4.40736 10.0634 4.7511 8.93378C4.98551 8.25875 5.22544 7.55871 5.52603 6.87812C6.42036 4.82895 7.88744 3.08628 9.74829 1.86274C11.6091 0.639191 13.7833 -0.0123291 16.0055 -0.0123291C18.2277 -0.0123291 20.4019 0.639191 22.2627 1.86274C24.1236 3.08628 25.5907 4.82895 26.485 6.87812C26.7856 7.55871 27.0365 8.26708 27.2599 8.93378C27.6024 10.0639 28.0706 11.1514 28.6553 12.1756C30.7099 15.5258 34.1708 17.5259 37.9076 17.5259C37.9625 17.5259 38.0151 17.5479 38.0538 17.5869C38.0926 17.626 38.1144 17.679 38.1144 17.7342C38.1144 17.7895 38.0926 17.8425 38.0538 17.8816C38.0151 17.9206 37.9625 17.9426 37.9076 17.9426C35.7668 17.9419 33.6721 18.5688 31.8789 19.7467C30.0856 20.9246 28.6714 22.6027 27.8087 24.5763C27.5164 25.2402 27.2792 25.9319 27.0476 26.5986C26.6933 27.7597 26.2124 28.8777 25.6135 29.9321C23.4735 33.399 19.8829 35.488 16 35.488ZM-3.7676 17.7481C-1.94396 18.0939 -0.231252 18.8815 1.22264 20.043C2.67653 21.2046 3.82791 22.7052 4.57737 24.4152C4.8752 25.0957 5.12892 25.8041 5.35229 26.4708C5.69484 27.6009 6.16294 28.6884 6.74772 29.7126C8.80225 33.0628 12.2632 35.0629 16 35.0629C19.7367 35.0629 23.1977 33.0628 25.2523 29.7126C25.837 28.6884 26.3051 27.6009 26.6477 26.4708C26.8821 25.7958 27.122 25.0819 27.4226 24.4152C28.1721 22.7052 29.3234 21.2046 30.7773 20.043C32.2312 18.8815 33.9439 18.0939 35.7676 17.7481C34.2242 17.4249 32.7638 16.7841 31.4778 15.8658C30.1918 14.9475 29.1079 13.7716 28.2941 12.4117C27.6952 11.3574 27.2142 10.2394 26.86 9.07823C26.6284 8.41153 26.3912 7.71983 26.0989 7.0559C25.2373 5.0809 23.8235 3.40125 22.0302 2.22194C20.2369 1.04262 18.1416 0.414647 16 0.414647C13.8584 0.414647 11.763 1.04262 9.96973 2.22194C8.17643 3.40125 6.76271 5.0809 5.90109 7.0559C5.60877 7.71983 5.36884 8.41153 5.13995 9.07823C4.78573 10.2394 4.30478 11.3574 3.70591 12.4117C2.89067 13.769 1.80616 14.9423 0.520218 15.8581C-0.765722 16.7739 -2.22543 17.4126 -3.7676 17.7342V17.7481Z" fill="#F2C777"/>
<path d="M3.22332 22.6706C3.17707 22.6716 3.13187 22.6567 3.09511 22.6284C3.05836 22.6001 3.03223 22.5601 3.02102 22.5149C3.0098 22.4697 3.01416 22.422 3.03338 22.3796C3.05259 22.3373 3.08553 22.3027 3.12679 22.2817C5.68599 20.8927 7.61918 18.2009 8.79398 16.1702C9.35767 15.1454 9.83995 14.0772 10.2363 12.9756C10.8816 11.3089 11.3918 9.99491 12.5363 9.08653C13.5191 8.29529 14.7338 7.85294 15.9917 7.82813C17.221 7.82668 18.4154 8.24041 19.3838 9.00319C20.5558 9.92824 20.986 11.1144 21.59 12.7589C21.9603 13.874 22.4272 14.9542 22.9854 15.9869C23.9754 17.7314 26.0603 20.8594 28.9118 22.1928C28.9365 22.2044 28.9586 22.2208 28.977 22.2411C28.9953 22.2614 29.0095 22.2851 29.0187 22.3109C29.028 22.3367 29.032 22.3641 29.0307 22.3915C29.0294 22.4189 29.0227 22.4458 29.0111 22.4706C28.9998 22.4957 28.9837 22.5182 28.9637 22.537C28.9436 22.5558 28.9201 22.5704 28.8945 22.5799C28.8688 22.5895 28.8416 22.5938 28.8143 22.5927C28.7869 22.5916 28.7601 22.585 28.7353 22.5733C25.7818 21.1844 23.639 17.9842 22.6269 16.1841C22.0571 15.1318 21.5801 14.0313 21.2011 12.8951C20.6275 11.3144 20.2166 10.1727 19.1383 9.32265C18.2428 8.61615 17.1375 8.23358 16 8.23648C14.8329 8.25885 13.706 8.67012 12.7955 9.40599C11.7393 10.2394 11.2484 11.5144 10.6251 13.1201C10.2216 14.2424 9.72918 15.3302 9.15249 16.373C7.95287 18.4481 5.97004 21.2205 3.32535 22.64C3.29473 22.6594 3.25946 22.6699 3.22332 22.6706Z" fill="#F2C777"/>
<path d="M16 24.9319C15.7806 24.9319 15.5701 24.8441 15.415 24.6878C15.2598 24.5315 15.1727 24.3195 15.1727 24.0985V20.3149C15.1727 20.0939 15.2598 19.8819 15.415 19.7257C15.5701 19.5694 15.7806 19.4816 16 19.4816C16.2194 19.4816 16.4298 19.5694 16.585 19.7257C16.7402 19.8819 16.8273 20.0939 16.8273 20.3149V24.0985C16.8273 24.3195 16.7402 24.5315 16.585 24.6878C16.4298 24.8441 16.2194 24.9319 16 24.9319Z" fill="#F2C777"/>
<path d="M16 26.8765C15.7806 26.8765 15.5701 26.9643 15.415 27.1206C15.2598 27.2768 15.1727 27.4888 15.1727 27.7098V35.2491C15.4484 35.2686 15.7242 35.2825 16 35.2825C16.2758 35.2825 16.5515 35.2686 16.8273 35.2491V27.6932C16.823 27.4751 16.7339 27.2673 16.5792 27.1146C16.4245 26.9619 16.2166 26.8764 16 26.8765Z" fill="#F2C777"/>
<path d="M10.6941 26.8765C10.4747 26.8765 10.2642 26.9643 10.1091 27.1206C9.95391 27.2768 9.86674 27.4888 9.86674 27.7098V33.3546C10.3901 33.7155 10.9437 34.0297 11.5214 34.2935V27.7098C11.5214 27.4888 11.4342 27.2768 11.2791 27.1206C11.1239 26.9643 10.9135 26.8765 10.6941 26.8765Z" fill="#F2C777"/>
<path d="M21.3059 26.8765C21.0865 26.8765 20.8761 26.9643 20.7209 27.1206C20.5658 27.2768 20.4786 27.4888 20.4786 27.7098V34.2935C21.0566 34.0304 21.6104 33.7162 22.1333 33.3546V27.6932C22.1289 27.4751 22.0399 27.2673 21.8852 27.1146C21.7305 26.9619 21.5225 26.8764 21.3059 26.8765Z" fill="#F2C777"/>
<path d="M16.8218 16.3342C16.8218 16.531 16.7638 16.7234 16.6552 16.887C16.5466 17.0506 16.3923 17.1781 16.2117 17.2533C16.0311 17.3285 15.8325 17.348 15.6409 17.3094C15.4493 17.2708 15.2734 17.1758 15.1355 17.0364C14.9975 16.8971 14.9037 16.7196 14.8659 16.5265C14.8281 16.3334 14.8481 16.1334 14.9232 15.9517C14.9984 15.77 15.1253 15.6149 15.288 15.506C15.4508 15.397 15.6419 15.3392 15.8373 15.3397C15.9668 15.3397 16.0951 15.3655 16.2147 15.4155C16.3343 15.4655 16.443 15.5388 16.5344 15.6312C16.6259 15.7236 16.6983 15.8332 16.7477 15.9539C16.797 16.0745 16.8222 16.2038 16.8218 16.3342Z" fill="#F2C777"/>
<path d="M11.5159 24.004C11.5159 24.2007 11.458 24.393 11.3495 24.5565C11.241 24.7201 11.0868 24.8475 10.9064 24.9228C10.726 24.9981 10.5275 25.0178 10.336 24.9794C10.1445 24.941 9.96858 24.8463 9.8305 24.7072C9.69243 24.5682 9.5984 24.391 9.56031 24.198C9.52221 24.0051 9.54176 23.8052 9.61649 23.6234C9.69121 23.4417 9.81775 23.2864 9.98011 23.1771C10.1425 23.0678 10.3334 23.0095 10.5286 23.0095C10.7905 23.0095 11.0416 23.1143 11.2267 23.3008C11.4119 23.4873 11.5159 23.7403 11.5159 24.004Z" fill="#F2C777"/>
<path d="M20.4841 24.004C20.4841 24.2007 20.542 24.393 20.6505 24.5565C20.759 24.7201 20.9132 24.8475 21.0936 24.9228C21.274 24.9981 21.4725 25.0178 21.664 24.9794C21.8555 24.941 22.0314 24.8463 22.1695 24.7072C22.3076 24.5682 22.4016 24.391 22.4397 24.198C22.4778 24.0051 22.4582 23.8052 22.3835 23.6234C22.3088 23.4417 22.1822 23.2864 22.0199 23.1771C21.8575 23.0678 21.6666 23.0095 21.4714 23.0095C21.2095 23.0095 20.9584 23.1143 20.7733 23.3008C20.5881 23.4873 20.4841 23.7403 20.4841 24.004Z" fill="#F2C777"/>
<path d="M32.2239 19.3121C29.4137 19.2538 26.9841 15.5064 26.052 13.8785C25.5695 12.9693 25.1645 12.0205 24.8414 11.0423C24.1712 9.18939 23.479 7.2754 21.5652 5.76421C20.0098 4.53262 18.0859 3.86866 16.1075 3.88078C14.1152 3.91263 12.1893 4.60812 10.6306 5.85866C8.78295 7.32818 8.02181 9.29495 7.28548 11.1951C6.93508 12.1739 6.51004 13.124 6.01416 14.0369C5.11789 15.5869 2.84825 19.0371 0.22287 19.5483C0.404882 19.6677 0.586894 19.7872 0.774421 19.9177C1.13488 20.1859 1.47929 20.4753 1.80582 20.7844C4.35675 19.6344 6.35888 16.7565 7.44543 14.8786C7.98421 13.8924 8.44526 12.8651 8.82431 11.8062C9.51099 10.0339 10.1591 8.36157 11.651 7.17262C12.9211 6.15168 14.4911 5.58317 16.1158 5.55587C17.7151 5.55216 19.2692 6.09029 20.5282 7.08372C22.0671 8.29768 22.6241 9.83387 23.2667 11.6145C23.6218 12.6795 24.0665 13.712 24.5959 14.7008C25.699 16.6259 27.7425 19.6122 30.412 20.6289C30.9601 20.1211 31.5622 19.6758 32.2073 19.301L32.2239 19.3121Z" fill="#F2C777"/>
</g>
<defs>
<clipPath id="clip0_173_250">
<rect width="88" height="53" fill="white" transform="translate(-28)"/>
</clipPath>
</defs>
</svg>
