<svg width="34" height="34" viewBox="0 0 34 34" fill="none" xmlns="http://www.w3.org/2000/svg">
<g clip-path="url(#clip0_173_236)">
<path d="M24.9624 6.56431C25.111 6.396 25.2563 6.21365 25.4049 6.04884L25.6158 5.78935C25.6158 5.82793 25.64 5.8665 25.6539 5.90507L25.7576 6.19262L25.9685 6.75016C26.2543 7.45148 26.5436 8.16683 26.8363 8.8962C27.4098 10.1845 27.7696 11.5601 27.9012 12.9674C27.9237 13.3926 27.904 13.819 27.8424 14.2403C28.2123 13.9212 28.5546 13.595 28.8796 13.2619C29.0214 13.1111 29.1631 12.9498 29.3083 12.7885L29.457 12.6097C29.3393 11.0538 28.9896 9.52511 28.4198 8.07566L27.5623 5.79637C27.4966 5.60701 27.4275 5.41766 27.3584 5.23181L27.1094 4.4849C26.857 3.70293 26.653 2.77017 26.4179 1.90755C26.4007 1.84092 26.3868 1.7743 26.3695 1.71118C25.8751 2.55277 25.3323 3.42942 24.8241 4.1658C24.6927 4.35165 24.5579 4.51646 24.423 4.71283L24.2225 4.97583L23.818 5.47026C23.372 5.99975 22.9052 6.49418 22.435 6.97459C22.6978 7.39187 22.9571 7.8337 23.1922 8.29658C23.8126 7.75197 24.4036 7.1737 24.9624 6.56431Z" fill="#F2C777"/>
<path d="M25.3358 13.3742L24.9105 11.5858C24.7446 10.7197 24.589 9.58006 24.423 8.61574V8.56665C24.2432 8.9664 24.0462 9.37667 23.8422 9.77292C23.9148 9.97981 23.9805 10.1867 24.0358 10.3971C24.2716 11.2546 24.3708 12.1448 24.3297 13.0341C24.3002 13.4659 24.2389 13.8949 24.1464 14.3175C24.0846 14.5925 24.0049 14.8631 23.9079 15.1275C23.9435 15.3724 23.9609 15.6198 23.9597 15.8674C23.9573 16.3398 23.8547 16.8062 23.6589 17.235C24.0254 16.979 24.423 16.716 24.8587 16.4284L25.5501 15.9691C25.6177 15.0981 25.5453 14.2217 25.3358 13.3742Z" fill="#F2C777"/>
<path d="M5.13077 13.2654C5.45982 13.6082 5.80602 13.9336 6.16799 14.2403C6.10639 13.819 6.0867 13.3926 6.10921 12.9674C6.24076 11.5601 6.60056 10.1846 7.17409 8.89622C7.46451 8.17386 7.75378 7.45851 8.04189 6.75018L8.25279 6.19263L8.35652 5.90509C8.35652 5.86651 8.38072 5.82794 8.39455 5.78937L8.60545 6.04886C8.75066 6.22419 8.89933 6.39952 9.048 6.56433C9.58294 7.1565 10.1484 7.71951 10.7421 8.251C10.8458 8.05463 10.9565 7.85826 11.0879 7.65839C11.2192 7.45851 11.3887 7.1885 11.5442 6.95707C11.0775 6.48718 10.6211 6.00327 10.1855 5.4843L9.78096 4.98986L9.58043 4.72687C9.44559 4.54803 9.31076 4.37621 9.17938 4.17984C8.65385 3.43293 8.14216 2.55628 7.63392 1.72522C7.61664 1.78834 7.60281 1.85496 7.58552 1.92159C7.36425 2.78421 7.16026 3.71697 6.89404 4.49894C6.81106 4.74791 6.72809 4.99337 6.64511 5.24585C6.57596 5.4317 6.50681 5.62106 6.44112 5.81041L5.58369 8.0897C5.01388 9.53916 4.66416 11.0679 4.54647 12.6237L4.70205 12.8096C4.83343 12.9534 4.97519 13.1147 5.13077 13.2654Z" fill="#F2C777"/>
<path d="M9.57698 8.61574C9.41102 9.58006 9.2589 10.7197 9.08603 11.5858C8.94428 12.182 8.80598 12.7781 8.66423 13.3742C8.4523 14.2177 8.37641 15.0904 8.4395 15.9586L9.13098 16.4144C9.5182 16.6704 9.92963 16.9474 10.3376 17.2244C10.1391 16.7965 10.0353 16.3298 10.0334 15.8569C10.033 15.5273 10.0643 15.1985 10.1267 14.875C10.0326 14.655 9.94951 14.4303 9.87777 14.2018C9.80139 13.9547 9.74701 13.7012 9.71527 13.4443V13.4198C9.69799 13.2059 9.68762 13.0025 9.6807 12.8026C9.65344 11.9293 9.75008 11.0566 9.96767 10.2112C10.0126 10.0359 10.0679 9.86058 10.1267 9.68175C9.94 9.31355 9.76022 8.93484 9.59427 8.56665L9.57698 8.61574Z" fill="#F2C777"/>
<path d="M27.0403 25.7981C27.8523 25.4649 28.5304 24.8647 28.966 24.0939C29.3734 23.3253 29.6095 22.4754 29.6575 21.6042C29.7025 21.0151 29.7439 20.419 29.7751 19.8159C29.8546 18.9427 29.9963 17.7855 30.0413 16.7862V16.7371C29.468 17.6686 28.7698 18.5148 27.9668 19.2513C27.7877 19.4103 27.6007 19.5601 27.4067 19.7001C27.2373 19.8229 27.061 19.9386 26.8847 20.0508C26.7084 20.163 26.5009 20.2822 26.3073 20.4015C25.519 20.8258 24.5994 21.2185 23.8871 21.6007C23.5414 21.7936 23.2371 21.9514 22.9778 22.1407C22.8375 22.2238 22.7085 22.3252 22.5941 22.4423C22.5073 22.5305 22.4276 22.6255 22.3555 22.7263C22.0927 23.0945 21.9199 23.4277 21.7435 23.7047C21.522 24.1539 21.1971 24.5424 20.7962 24.8373C20.6238 24.9435 20.4236 24.9936 20.2223 24.9811C20.4901 25.0785 20.7756 25.1156 21.059 25.0898C21.6832 24.9956 22.2625 24.7049 22.7151 24.2587C23.0124 23.9992 23.3167 23.6766 23.652 23.34C23.7354 23.2559 23.8231 23.1763 23.9148 23.1015C24.0022 23.0301 24.0973 22.969 24.1983 22.9192C24.4507 22.7754 24.7204 22.6317 25.0073 22.4914C25.5778 22.2074 26.2416 21.9724 27.0645 21.5902C27.2719 21.492 27.4794 21.3833 27.6833 21.2711L27.7387 21.2395H27.7594C27.7611 21.2629 27.7611 21.2863 27.7594 21.3097C27.7594 21.4885 27.7214 21.6603 27.7006 21.8427C27.6659 22.4776 27.5159 23.1005 27.2581 23.6801C26.9935 24.2015 26.5819 24.6312 26.0757 24.9145C25.5212 25.1847 24.9287 25.3657 24.3193 25.451C23.1403 25.6403 22.1999 25.6228 21.7401 25.749C21.2803 25.8753 21.2215 26.0611 21.2077 26.0506C21.4588 25.989 21.7187 25.9735 21.9752 26.005C22.5422 26.0225 23.5103 26.2119 24.8379 26.1944C25.5889 26.1903 26.3337 26.0563 27.0403 25.7981Z" fill="#F2C777"/>
<path d="M2.77974 15.1239L2.90421 14.5453L2.96644 14.2508L2.98719 14.1315C3.06325 14.2227 3.14277 14.3139 3.22229 14.4016C3.38478 14.5804 3.56802 14.7522 3.72361 14.9275C4.37563 15.5752 5.0838 16.162 5.83953 16.6808C7.28472 17.6732 8.64694 18.3921 9.71873 19.16C10.2216 19.5132 10.7063 19.8925 11.1708 20.2961L11.4751 20.5626C11.5464 20.636 11.6122 20.7145 11.6722 20.7976C11.8026 20.9782 11.9183 21.1694 12.0179 21.3692C12.4086 22.1546 12.6886 22.9051 12.9998 23.5468C13.5046 24.6373 14.0923 25.4263 14.7285 25.8541L14.6559 25.798V25.7209L14.6179 25.6753V25.6157L14.5418 25.4298C14.2871 24.856 14.1014 24.2532 13.9886 23.6344C13.8849 23.0944 13.8088 22.5263 13.6878 21.9723C13.6048 21.6918 13.508 21.3972 13.387 21.0886C13.3006 20.8658 13.1929 20.652 13.0655 20.4504C12.9828 20.3242 12.8879 20.2067 12.782 20.0998C12.6679 19.9911 12.5607 19.8894 12.4362 19.7877C11.9198 19.3201 11.3797 18.88 10.8182 18.4692C10.1855 18.0028 9.46288 17.5189 8.74374 17.035C8.0246 16.5511 7.27781 16.0602 6.58287 15.5307C5.88168 15.0009 5.22379 14.4145 4.61561 13.7774C4.46349 13.6161 4.31482 13.4513 4.16961 13.2829L3.94488 13.0164C3.79967 12.8341 3.65446 12.6447 3.51271 12.4554C2.92882 11.6357 2.41195 10.7691 1.96726 9.86401C1.96726 9.93415 1.9396 10.0043 1.92922 10.0744C1.76327 10.9756 1.62843 11.9469 1.4521 12.7499C1.39333 13.0059 1.33109 13.2619 1.27232 13.5144C1.22391 13.7072 1.17551 13.8966 1.12365 14.0895C0.919665 14.8574 0.712222 15.6219 0.508235 16.3898C0.121007 17.9257 -0.183245 19.5913 0.12792 21.2605C0.276757 22.0919 0.580681 22.887 1.02338 23.6029C1.24442 23.9594 1.49668 24.2951 1.7771 24.6058C2.07262 24.9151 2.3981 25.1936 2.74862 25.4368C4.00854 26.2347 5.40175 26.7921 6.85946 27.0814C7.98426 27.3265 9.12268 27.5021 10.2685 27.6074C11.2331 27.7056 11.9971 27.7757 12.54 27.8844C13.629 28.0878 13.795 28.449 13.8157 28.4385C13.7816 28.347 13.7312 28.2626 13.6671 28.1895C13.4322 27.9391 13.1327 27.7605 12.8027 27.674C12.096 27.4632 11.3765 27.2992 10.6488 27.1831C9.55279 26.9843 8.46795 26.7268 7.39882 26.4117C6.10989 26.0516 4.89219 25.4679 3.79967 24.6864C3.54778 24.4896 3.31612 24.2676 3.10819 24.0237C2.9031 23.7725 2.71812 23.5052 2.55501 23.2242C2.23202 22.6559 2.01189 22.0336 1.90502 21.3867C1.68375 20.0858 1.90502 18.7182 2.25076 17.312C2.42363 16.5827 2.60341 15.8533 2.77974 15.1239Z" fill="#F2C777"/>
<path d="M13.1761 24.8373C12.7747 24.542 12.4488 24.1537 12.2253 23.7047C12.0525 23.4206 11.8796 23.0945 11.6168 22.7263C11.5448 22.6255 11.465 22.5305 11.3783 22.4423C11.2639 22.3252 11.1349 22.2238 10.9945 22.1407C10.7352 21.9689 10.4344 21.7901 10.0852 21.6007C9.39374 21.2185 8.46715 20.8258 7.66504 20.4015C7.47143 20.2963 7.27781 20.1841 7.08766 20.0508C6.8975 19.9176 6.74191 19.8264 6.56559 19.7001C6.37097 19.561 6.18399 19.4111 6.00549 19.2513C5.20357 18.5137 4.50555 17.6677 3.93106 16.7371C3.93291 16.7534 3.93291 16.7698 3.93106 16.7862C3.976 17.7855 4.11775 18.9427 4.20073 19.8159C4.22839 20.419 4.26642 21.0151 4.31483 21.6042C4.36288 22.4754 4.59893 23.3253 5.0063 24.0939C5.44403 24.8643 6.12309 25.4641 6.93553 25.7981C7.64537 26.0574 8.39378 26.1915 9.14826 26.1944C10.4759 26.2119 11.444 26.0225 12.011 26.005C12.2675 25.9735 12.5274 25.989 12.7785 26.0506C12.7785 26.0506 12.7197 25.8577 12.2461 25.749C11.7724 25.6403 10.8458 25.6403 9.66687 25.451C9.05751 25.3657 8.46496 25.1847 7.91051 24.9145C7.40426 24.6312 6.99263 24.2015 6.72808 23.6801C6.45801 23.1052 6.29508 22.4847 6.24751 21.8497C6.22676 21.6744 6.20602 21.499 6.18873 21.3167C6.18703 21.2933 6.18703 21.2699 6.18873 21.2466C6.18873 21.222 6.18873 21.2466 6.18873 21.2466H6.20948L6.26479 21.2781C6.46878 21.3903 6.67623 21.499 6.88367 21.5972C7.70307 21.9794 8.37035 22.2144 8.95811 22.4984C9.24507 22.6387 9.51474 22.7824 9.76367 22.9262C9.86615 22.9752 9.96249 23.0364 10.0506 23.1086C10.1405 23.1822 10.227 23.2628 10.3134 23.347C10.6591 23.6977 10.953 24.0062 11.2504 24.2657C11.7029 24.7119 12.2822 25.0026 12.9064 25.0968C13.1898 25.1226 13.4753 25.0855 13.7431 24.9881C13.5434 24.9971 13.3458 24.9445 13.1761 24.8373Z" fill="#F2C777"/>
<path d="M23.5898 14.1842C23.6699 13.7961 23.7196 13.4021 23.7385 13.006C23.778 12.1782 23.6858 11.3494 23.4653 10.5514C23.0228 8.90329 22.0824 7.39545 21.0452 5.96476L19.4582 3.8608L19.0744 3.33131L18.5835 2.62999C18.0856 1.89711 17.6085 1.00994 17.1279 0.192899L17.0173 0.00354004C16.5471 0.792525 16.0734 1.64814 15.5963 2.40907L15.2298 2.97363L15.0431 3.24715L14.6732 3.77314C14.1719 4.47446 13.636 5.14773 13.1035 5.83151C12.5546 6.515 12.0455 7.23039 11.5788 7.97405C11.1195 8.71541 10.77 9.52117 10.5416 10.3655C10.34 11.1563 10.2503 11.9722 10.2754 12.7886C10.2754 12.9815 10.2927 13.1743 10.3065 13.3812C10.3338 13.6015 10.3813 13.8186 10.4482 14.0299C10.5628 14.3903 10.7026 14.7418 10.8666 15.0819C11.4889 16.3864 12.1666 17.4875 12.7509 18.5184C13.9333 20.5592 14.77 22.2529 15.0915 23.5013C15.2956 24.139 15.3489 24.8165 15.2471 25.479C15.4674 24.8279 15.5256 24.1316 15.4165 23.4522C15.2851 22.1267 14.6663 20.2787 13.712 18.1151C13.2487 17.0316 12.6748 15.8534 12.2219 14.6085C12.1096 14.3074 12.016 13.9994 11.9418 13.6863C11.9121 13.555 11.8947 13.4212 11.89 13.2865V12.7956C11.9214 12.1098 12.0447 11.4315 12.2565 10.7793C12.6783 9.45383 13.6187 8.24055 14.7285 6.92207C15.2782 6.26283 15.8556 5.57203 16.4053 4.81811L16.8133 4.25705L17.0069 3.98003L17.0864 4.09224L17.2939 4.37627L17.7088 4.92331L19.3476 6.9957C20.3848 8.3247 21.2803 9.62565 21.7297 10.9617C21.9538 11.6046 22.0786 12.2788 22.0997 12.9604C22.1173 13.2961 22.1081 13.6327 22.072 13.9668C22.0297 14.2747 21.958 14.5778 21.8576 14.8715C21.4026 16.041 20.8425 17.1655 20.1843 18.2309C19.6302 19.1612 19.1303 20.1237 18.6872 21.1133C18.3503 21.8623 18.1411 22.6638 18.0683 23.4837C18.0282 23.998 18.0941 24.5151 18.262 25.0021C18.3235 25.17 18.3951 25.3339 18.4763 25.493C18.2661 24.8559 18.2385 24.1712 18.3968 23.5188C18.5838 22.7574 18.8884 22.0307 19.2992 21.3658C19.7659 20.5662 20.3917 19.6966 21.097 18.7253C21.9212 17.6649 22.636 16.5216 23.2302 15.3134C23.3867 14.95 23.5071 14.5718 23.5898 14.1842Z" fill="#F2C777"/>
<path d="M20.1739 15.3694C20.0074 14.4606 19.6881 13.5876 19.23 12.7886L18.2896 11.0949C17.8782 10.2743 17.4356 9.19782 17.0208 8.28961L17 8.24402C16.5989 9.12418 16.1668 10.1341 15.7623 10.9897C15.662 11.2071 15.5514 11.4035 15.4442 11.6033L15.1434 12.1328L14.7976 12.7079C14.2991 13.4967 13.9584 14.3772 13.795 15.2993C13.7374 15.7304 13.7258 16.1666 13.7604 16.6002C13.7704 16.8321 13.8087 17.0618 13.8745 17.284C13.9324 17.4774 14.0017 17.6671 14.082 17.8521C14.3758 18.5534 14.6905 19.1285 14.9636 19.672C15.4212 20.4962 15.8031 21.3613 16.1045 22.2564C16.1357 22.3581 16.1599 22.4528 16.1806 22.5404V34.007H17.6984V26.2644H17.7157V26.2399H17.6984V22.06C18.01 21.2419 18.4237 20.4677 18.9292 19.7562C19.3197 19.1752 19.6543 18.5575 19.9284 17.9117C20.227 17.1004 20.3116 16.2241 20.1739 15.3694ZM18.5455 17.5786C18.4004 18.1904 18.2109 18.7905 17.9784 19.374C17.6811 20.1595 16.9827 20.8888 16.8928 21.4955C16.8271 20.8958 16.5091 20.5732 16.0734 19.5668C15.8288 18.8855 15.6381 18.1854 15.503 17.4734C15.4662 17.3186 15.4385 17.1617 15.42 17.0035C15.4026 16.8673 15.4026 16.7294 15.42 16.5932C15.4452 16.2554 15.502 15.9208 15.5894 15.5939C15.8158 14.8819 16.1582 14.2134 16.6024 13.6161L16.9689 13.0516C17.0138 12.9814 17 13.0095 17.0035 13.0025L17.0484 13.0726L17.3941 13.6267C17.8141 14.2549 18.1458 14.9394 18.3795 15.6605C18.5806 16.2721 18.6374 16.9231 18.5455 17.5611V17.5786Z" fill="#F2C777"/>
<path d="M33.4814 16.3688C33.2774 15.6009 33.07 14.8364 32.866 14.0685C32.8176 13.8756 32.7657 13.6862 32.7173 13.4934C32.6585 13.2409 32.5963 12.9849 32.5375 12.7289C32.3612 11.9259 32.2264 10.9546 32.0604 10.0534C32.0604 9.98328 32.0362 9.91315 32.0258 9.84302C31.5773 10.7467 31.0594 11.6131 30.4769 12.4344C30.3352 12.6238 30.19 12.8131 30.0447 12.9954L29.82 13.262C29.6748 13.4303 29.5261 13.5951 29.374 13.7564C28.7658 14.3935 28.1079 14.9799 27.4068 15.5097C26.7153 16.0392 25.9754 16.5301 25.2459 17.014C24.5164 17.4979 23.7903 17.9818 23.1714 18.4482C22.6071 18.8582 22.0647 19.2983 21.5465 19.7667L21.2007 20.0788C21.0949 20.1857 20.9999 20.3032 20.9172 20.4294C20.7898 20.631 20.6821 20.8448 20.5957 21.0676C20.2811 21.8777 20.1289 22.5895 19.9388 23.2242C19.8558 23.5258 19.7694 23.8063 19.676 24.0658C19.5648 24.7799 19.294 25.4588 18.8843 26.0505H18.9154C19.6829 25.6999 20.3882 24.8267 20.9898 23.5398C21.301 22.8981 21.5811 22.1372 21.9683 21.3622C22.0693 21.1632 22.1849 20.9721 22.314 20.7906C22.374 20.7075 22.4398 20.629 22.5111 20.5557L22.8153 20.2892C23.2799 19.8855 23.7645 19.5063 24.2674 19.153C25.3358 18.3851 26.6876 17.6662 28.1466 16.6739C28.9024 16.155 29.6105 15.5682 30.2626 14.9206C30.432 14.7488 30.6083 14.5699 30.7639 14.3946L31.0024 14.1246L31.0232 14.2438C31.0439 14.342 31.0647 14.4402 31.082 14.5384C31.1269 14.7312 31.1684 14.9241 31.2099 15.1169C31.3862 15.8463 31.5556 16.5757 31.7423 17.3051C32.0881 18.7077 32.3093 20.0788 32.0881 21.3797C31.9812 22.0266 31.7611 22.6489 31.4381 23.2172C31.275 23.4982 31.09 23.7656 30.8849 24.0167C30.677 24.2606 30.4453 24.4827 30.1934 24.6794C29.1005 25.4603 27.8829 26.0439 26.5943 26.4047C25.5241 26.7202 24.4381 26.9778 23.3409 27.1761C22.6143 27.2926 21.896 27.4566 21.1904 27.6671C20.8599 27.7548 20.5597 27.9332 20.3226 28.1825C20.2617 28.2574 20.2127 28.3414 20.1773 28.4315C20.1981 28.4315 20.364 28.0809 21.4531 27.8775C21.9959 27.7688 22.76 27.6986 23.7246 27.6004C24.8704 27.4952 26.0088 27.3195 27.1336 27.0745C28.5942 26.7801 29.9889 26.2154 31.2479 25.4088C31.6002 25.1665 31.927 24.888 32.2229 24.5778C32.5033 24.2671 32.7556 23.9314 32.9766 23.5749C33.4193 22.859 33.7232 22.0639 33.8721 21.2325C34.1729 19.5773 33.879 17.9047 33.4814 16.3688Z" fill="#F2C777"/>
<path d="M8.48444 23.0138C7.57169 23.0138 7.57169 24.448 8.48444 24.448C9.3972 24.448 9.39374 23.0138 8.48444 23.0138Z" fill="#F2C777"/>
<path d="M25.1456 23.0138C24.2363 23.0138 24.2363 24.448 25.1456 24.448C26.0549 24.448 26.0549 23.0138 25.1456 23.0138Z" fill="#F2C777"/>
<path d="M16.8133 15.9971C15.904 15.9971 15.904 17.4278 16.8133 17.4278C17.7226 17.4278 17.7261 15.9971 16.8133 15.9971Z" fill="#F2C777"/>
</g>
<defs>
<clipPath id="clip0_173_236">
<rect width="34" height="34" fill="white"/>
</clipPath>
</defs>
</svg>
