<svg width="24" height="24" viewBox="0 0 24 24" fill="none" xmlns="http://www.w3.org/2000/svg">
<rect width="24" height="24" rx="3" fill="#F2C777"/>
<path d="M12 7.65078C9.59319 7.65078 7.65078 9.59319 7.65078 12C7.65078 14.4068 9.59319 16.3492 12 16.3492C14.4068 16.3492 16.3492 14.4068 16.3492 12C16.3492 9.59319 14.4068 7.65078 12 7.65078ZM12 14.8267C10.4435 14.8267 9.17333 13.5565 9.17333 12C9.17333 10.4435 10.4435 9.17333 12 9.17333C13.5565 9.17333 14.8267 10.4435 14.8267 12C14.8267 13.5565 13.5565 14.8267 12 14.8267ZM16.5273 6.45904C15.9654 6.45904 15.5116 6.91284 15.5116 7.47478C15.5116 8.03672 15.9654 8.49051 16.5273 8.49051C17.0893 8.49051 17.5431 8.03884 17.5431 7.47478C17.5433 7.34134 17.5171 7.20918 17.4661 7.08587C17.4151 6.96256 17.3403 6.85052 17.246 6.75617C17.1516 6.66182 17.0396 6.587 16.9163 6.53602C16.7929 6.48503 16.6608 6.45887 16.5273 6.45904ZM20.4779 12C20.4779 10.8295 20.4885 9.66953 20.4228 8.50112C20.357 7.14397 20.0474 5.93951 19.055 4.9471C18.0605 3.95257 16.8581 3.64509 15.501 3.57935C14.3305 3.51362 13.1705 3.52422 12.0021 3.52422C10.8316 3.52422 9.67165 3.51362 8.50324 3.57935C7.14609 3.64509 5.94163 3.95469 4.94922 4.9471C3.95469 5.94163 3.64721 7.14397 3.58147 8.50112C3.51574 9.67165 3.52634 10.8316 3.52634 12C3.52634 13.1684 3.51574 14.3305 3.58147 15.4989C3.64721 16.856 3.95681 18.0605 4.94922 19.0529C5.94375 20.0474 7.14609 20.3549 8.50324 20.4206C9.67377 20.4864 10.8337 20.4758 12.0021 20.4758C13.1727 20.4758 14.3326 20.4864 15.501 20.4206C16.8581 20.3549 18.0626 20.0453 19.055 19.0529C20.0496 18.0584 20.357 16.856 20.4228 15.4989C20.4906 14.3305 20.4779 13.1705 20.4779 12ZM18.6118 17.0002C18.457 17.3862 18.2704 17.6745 17.9714 17.9714C17.6724 18.2704 17.3862 18.457 17.0002 18.6118C15.8848 19.055 13.2363 18.9554 12 18.9554C10.7637 18.9554 8.11306 19.055 6.99766 18.6139C6.61172 18.4591 6.32333 18.2725 6.02645 17.9735C5.72746 17.6745 5.54085 17.3883 5.38605 17.0023C4.94498 15.8848 5.04464 13.2363 5.04464 12C5.04464 10.7637 4.94498 8.11306 5.38605 6.99766C5.54085 6.61172 5.72746 6.32333 6.02645 6.02645C6.32545 5.72958 6.61172 5.54085 6.99766 5.38605C8.11306 4.94498 10.7637 5.04464 12 5.04464C13.2363 5.04464 15.8869 4.94498 17.0023 5.38605C17.3883 5.54085 17.6767 5.72746 17.9736 6.02645C18.2725 6.32545 18.4592 6.61172 18.614 6.99766C19.055 8.11306 18.9554 10.7637 18.9554 12C18.9554 13.2363 19.055 15.8848 18.6118 17.0002Z" fill="white"/>
</svg>
